<?xml version="1.0" standalone="no"?>
<!DOCTYPE svg PUBLIC "-//W3C//DTD SVG 20010904//EN"
 "http://www.w3.org/TR/2001/REC-SVG-20010904/DTD/svg10.dtd">
<svg version="1.0" xmlns="http://www.w3.org/2000/svg"
 width="300.000000pt" height="300.000000pt" viewBox="0 0 300.000000 300.000000"
 preserveAspectRatio="xMidYMid meet">
<metadata>
Created by potrace 1.14, written by Peter Selinger 2001-2017
</metadata>
<g transform="translate(0.000000,300.000000) scale(0.100000,-0.100000)"
fill="#000000" stroke="none">
<path d="M1829 2825 c-66 -13 -153 -46 -197 -73 -19 -13 -20 -16 -7 -26 29
-22 65 -80 65 -107 0 -14 -7 -32 -16 -40 -8 -7 -21 -24 -29 -39 -7 -14 -25
-32 -39 -40 -16 -8 -30 -27 -36 -50 -5 -20 -20 -45 -31 -56 -32 -28 -63 -103
-61 -149 3 -52 27 -105 58 -128 23 -17 24 -17 24 3 0 11 -6 31 -14 43 -15 25
-15 64 2 92 10 18 12 15 13 -20 1 -22 1 -43 0 -47 0 -5 10 -8 24 -8 24 0 32
-10 18 -24 -29 -29 16 -63 62 -46 24 9 25 8 25 -28 -1 -31 -3 -34 -13 -21 -7
9 -23 15 -37 13 -14 -1 -28 -3 -32 -3 -5 -1 -8 -12 -8 -26 0 -36 25 -45 79
-28 56 18 165 12 210 -11 39 -21 116 -32 125 -18 3 5 1 24 -5 42 -8 22 -8 38
-1 55 8 18 8 26 -2 35 -33 26 -17 100 33 158 31 35 33 26 6 -28 -29 -57 -32
-92 -9 -115 11 -11 14 -24 9 -43 -8 -33 -8 -48 1 -88 5 -27 11 -33 45 -38 37
-6 47 -12 72 -49 14 -20 116 -30 156 -15 28 10 26 15 -14 22 -16 3 -39 16 -51
28 -48 48 -33 112 36 161 38 27 44 28 107 21 60 -6 66 -5 60 10 -4 10 -7 30
-7 46 0 17 -23 63 -61 121 -70 106 -38 95 48 -17 30 -38 38 -56 47 -114 2 -14
11 -51 21 -83 9 -32 14 -66 10 -75 -4 -11 -3 -13 3 -7 15 16 61 176 70 245 18
127 0 217 -61 313 -78 121 -212 207 -387 249 -67 16 -236 17 -311 3z m647
-261 c19 -9 34 -22 34 -29 0 -8 14 -27 30 -43 42 -43 37 -56 -10 -25 -22 15
-40 30 -40 34 0 4 -7 15 -16 23 -19 20 -64 20 -109 2 -19 -8 -35 -11 -35 -7 0
16 58 48 108 60 2 1 19 -6 38 -15z m-425 -24 c20 -6 43 -18 50 -27 12 -15 12
-16 -6 -9 -66 26 -143 5 -130 -35 5 -15 2 -19 -15 -19 -34 0 -86 -29 -98 -53
-10 -21 -11 -21 -11 -2 -1 29 23 60 57 74 16 7 34 23 41 37 10 22 40 42 66 43
6 1 26 -4 46 -9z m439 -130 c0 -6 -16 -18 -36 -27 -31 -15 -36 -15 -44 -3 -7
10 -4 19 7 28 20 14 73 16 73 2z m-427 -29 c18 -2 5 -30 -15 -33 -22 -3 -98 9
-106 17 -17 17 39 25 121 16z"/>
<path d="M2535 2816 c-45 -17 -95 -45 -95 -55 0 -5 7 -14 15 -21 11 -9 25 -7
71 14 68 31 68 31 93 4 20 -21 20 -21 16 0 -11 58 -45 78 -100 58z"/>
<path d="M2541 2711 l-34 -18 31 -32 c17 -18 33 -38 35 -44 7 -19 25 4 30 38
5 32 -7 75 -20 75 -4 -1 -23 -9 -42 -19z"/>
<path d="M1540 2703 c-83 -31 -96 -193 -21 -250 26 -19 32 7 9 37 -24 32 -27
89 -8 124 16 30 73 45 102 27 31 -19 20 5 -17 38 -37 32 -40 33 -65 24z"/>
<path d="M1549 2599 c-6 -12 -8 -36 -4 -55 6 -34 6 -34 31 -17 24 15 54 61 54
83 0 5 -16 10 -35 10 -25 0 -37 -6 -46 -21z"/>
<path d="M1325 2519 c-50 -27 -124 -66 -165 -86 -142 -72 -209 -161 -293 -394
-60 -163 -182 -432 -232 -509 -26 -41 -67 -105 -91 -142 -31 -48 -64 -82 -117
-121 -79 -59 -114 -107 -148 -205 -48 -138 -42 -260 15 -335 25 -32 34 -57 40
-102 11 -96 96 -245 175 -306 62 -47 181 -116 232 -134 57 -20 92 -19 140 6
l41 20 -18 27 c-9 15 -25 37 -36 48 -26 29 -12 35 33 17 27 -10 40 -24 52 -54
13 -32 20 -39 44 -40 15 -1 46 -2 68 -3 72 -4 125 23 76 39 -12 3 -21 14 -21
24 0 11 -19 28 -51 46 -39 21 -48 30 -37 36 35 19 143 -36 131 -67 -4 -12 0
-15 18 -12 13 1 23 6 22 11 -2 4 -3 21 -3 37 0 24 -8 36 -40 58 -63 44 -43 59
29 22 32 -16 40 -17 44 -5 9 22 -124 150 -188 181 -88 44 -166 112 -197 174
-32 64 -40 111 -40 233 -1 70 -4 93 -19 111 -26 32 -65 41 -96 21 -24 -16 -25
-15 -36 14 -11 30 -43 51 -77 51 -11 0 -20 4 -20 9 0 16 102 5 112 -12 6 -11
19 -14 45 -10 29 4 46 -1 73 -19 l35 -24 42 83 c36 73 39 83 23 83 -11 0 -35
-9 -54 -21 -45 -26 -46 -17 -4 27 21 21 38 32 49 29 34 -11 76 61 95 160 l7
40 7 -30 c3 -16 5 -45 4 -63 l-3 -33 41 33 c22 18 49 40 60 49 17 13 18 20 9
37 -6 11 -11 30 -11 41 0 12 -3 21 -7 22 -66 6 -113 65 -113 139 0 21 -8 38
-25 53 -31 27 -41 87 -25 148 11 42 78 154 87 145 3 -2 -8 -30 -23 -63 -32
-68 -43 -173 -19 -193 8 -7 18 -9 24 -6 13 8 21 -20 19 -65 -1 -22 8 -51 21
-72 20 -33 25 -36 62 -32 35 3 39 1 39 -19 0 -44 13 -86 26 -86 7 0 69 26 137
59 l124 58 7 54 c10 72 45 143 106 211 51 57 51 57 35 87 -8 17 -15 36 -15 44
0 8 -11 19 -24 25 -97 44 -120 234 -40 323 14 15 13 18 -4 30 -24 17 -53 73
-59 113 -3 17 -6 32 -7 33 0 1 -42 -21 -91 -48z m-25 -96 c0 -5 -16 -19 -35
-32 -27 -18 -33 -27 -24 -37 9 -11 -4 -21 -66 -49 -75 -34 -124 -70 -125 -90
0 -5 -11 -23 -25 -40 l-24 -30 8 31 c22 80 72 135 143 156 25 7 44 21 51 35 5
12 28 31 51 43 47 23 46 23 46 13z m-969 -1545 c-9 -45 -8 -58 8 -96 10 -23
22 -35 42 -39 26 -5 28 -9 24 -39 -3 -25 1 -36 14 -43 13 -8 18 -23 19 -65 1
-77 52 -169 122 -220 l25 -18 -25 7 c-35 11 -55 26 -91 71 -45 56 -60 90 -63
139 -2 24 -11 51 -20 61 -9 9 -16 26 -14 39 2 14 -9 33 -30 54 -17 18 -33 38
-33 44 -6 47 -4 86 4 110 13 38 26 34 18 -5z"/>
<path d="M2330 2103 c-23 -9 -80 -70 -80 -85 0 -17 28 -58 40 -58 4 0 6 9 3
20 -6 24 13 50 38 50 27 0 33 -18 15 -46 -15 -22 -15 -25 -1 -30 20 -8 68 13
60 26 -11 18 13 49 35 43 25 -7 26 -31 3 -50 -17 -13 -17 -14 2 -11 30 5 44
42 33 88 -6 22 -18 42 -27 44 -30 10 -106 15 -121 9z"/>
<path d="M1681 1952 c-91 -35 -191 -169 -196 -263 -2 -26 -6 -55 -9 -66 -4
-12 -51 -40 -128 -77 -154 -73 -273 -151 -332 -217 -91 -101 -157 -281 -150
-413 6 -131 70 -215 224 -296 54 -27 85 -50 95 -69 8 -16 27 -38 41 -49 l27
-19 61 48 c33 27 64 49 69 49 20 0 147 93 212 155 39 37 85 78 103 92 17 14
32 28 32 32 0 4 -13 15 -30 24 -16 10 -30 25 -30 32 0 9 -23 21 -60 32 -72 22
-78 35 -12 27 54 -7 112 -33 112 -51 0 -7 4 -13 9 -13 5 0 17 -7 25 -16 17
-16 36 -11 36 11 0 31 -153 138 -228 159 -113 31 -141 31 -193 -2 -45 -29 -46
-29 -58 -9 -11 17 -11 19 2 14 9 -3 28 5 44 19 15 13 42 27 59 30 63 12 226
-20 257 -50 6 -6 27 -22 45 -35 l34 -24 -2 24 c-7 82 9 91 33 17 28 -87 49
-115 94 -120 21 -3 39 -4 41 -3 8 6 -11 32 -31 40 -16 7 -23 20 -25 49 -2 21
1 43 7 49 8 8 11 2 11 -18 0 -39 12 -56 29 -45 10 6 20 -3 35 -33 22 -44 49
-62 106 -70 52 -8 93 -17 102 -23 4 -3 38 -7 74 -9 107 -7 180 36 203 120 33
121 -62 239 -166 204 -37 -12 -41 -23 -16 -37 15 -9 14 -10 -3 -16 -10 -3 -30
-4 -44 -1 -27 5 -64 46 -50 55 16 10 -11 76 -54 132 l-40 53 2 90 3 89 39 37
c22 21 42 50 46 66 4 15 10 33 14 38 4 6 10 20 12 32 6 21 5 21 -18 6 -13 -8
-31 -12 -40 -9 -13 5 -11 11 15 35 17 16 31 36 31 45 0 14 -3 14 -35 -1 -28
-13 -37 -14 -50 -3 -17 14 -19 47 -5 84 9 24 7 25 -38 32 -26 3 -56 8 -66 10
-11 2 -28 -4 -37 -12 -20 -18 -39 -11 -39 15 0 39 -121 52 -199 23z m243 -218
c7 -28 -7 -54 -30 -54 -15 0 -18 21 -8 58 8 30 30 28 38 -4z m-344 -214 c21
-11 21 -13 4 -31 -26 -29 -13 -97 26 -131 52 -47 115 -34 134 29 20 65 19 67
-41 63 -20 -1 -33 3 -33 10 0 7 7 10 15 7 8 -4 17 -2 20 2 2 5 16 11 30 13 33
7 57 -21 55 -64 -3 -59 -3 -59 40 -54 22 2 40 1 40 -4 0 -15 -50 -40 -81 -40
-18 0 -40 -7 -49 -15 -17 -16 -38 -19 -94 -16 -45 2 -102 66 -111 123 -4 28
-3 54 4 67 9 16 8 27 -4 50 -23 45 -19 73 5 34 10 -17 29 -37 40 -43z m-610
-705 c32 -46 33 -47 44 -26 12 22 12 22 26 -6 29 -57 54 -86 88 -100 42 -17
36 -28 -12 -19 -21 4 -46 19 -63 39 -28 32 -35 37 -53 37 -25 0 -75 78 -86
133 -6 31 9 44 17 15 4 -14 21 -47 39 -73z"/>
<path d="M2495 1960 c-8 -13 -72 -40 -96 -40 -32 0 -21 -17 14 -23 33 -5 67
16 88 56 10 18 5 24 -6 7z"/>
<path d="M2084 1865 c-8 -43 1 -55 23 -33 10 11 13 25 9 42 -9 37 -24 32 -32
-9z"/>
<path d="M2319 1857 c-13 -5 -43 -9 -66 -8 -39 1 -43 -1 -43 -22 0 -43 22 -60
77 -60 54 1 97 18 127 52 22 25 23 24 -30 37 -26 7 -50 7 -65 1z"/>
<path d="M2490 1827 c-33 -76 -105 -115 -220 -120 -53 -2 -55 -3 -65 -38 -11
-39 -36 -81 -70 -119 -17 -18 -24 -41 -27 -82 -4 -53 -3 -58 16 -59 50 -4 71
2 97 27 19 19 34 25 50 21 13 -4 32 2 49 15 16 11 33 19 39 17 17 -6 -58 -79
-80 -79 -11 0 -35 -11 -53 -25 -18 -14 -44 -25 -59 -25 l-25 0 30 -61 c28 -57
32 -60 57 -53 143 43 275 -84 257 -248 -9 -90 -52 -143 -140 -177 -72 -27
-158 -21 -366 23 -132 29 -138 28 -180 -14 -3 -3 -23 -18 -45 -35 -21 -16 -62
-51 -89 -78 -75 -74 -123 -110 -216 -165 -81 -48 -156 -109 -146 -120 3 -2 18
0 33 5 15 6 33 8 40 6 14 -5 6 -33 -9 -33 -16 0 -96 -61 -103 -78 -8 -21 -3
-23 33 -10 45 17 51 2 13 -33 -26 -24 -32 -35 -27 -55 10 -37 30 -39 64 -5 17
17 39 31 49 32 10 0 29 2 41 5 35 6 22 -17 -23 -43 -47 -26 -59 -46 -45 -73
16 -30 45 -41 90 -34 35 6 39 9 36 30 -6 33 28 71 89 99 60 28 119 41 113 25
-1 -5 -37 -29 -78 -52 -42 -24 -76 -51 -78 -61 -4 -18 61 -89 89 -99 28 -10
97 20 153 66 31 25 62 47 69 47 7 1 55 2 108 3 106 2 134 14 199 81 19 20 64
56 100 80 81 54 145 118 181 182 34 58 38 87 9 55 -12 -12 -29 -22 -40 -22
-11 0 -22 -9 -25 -22 -11 -36 -54 -88 -73 -88 -16 1 -16 1 0 10 16 10 46 76
52 115 2 12 11 19 29 19 74 4 137 163 143 361 3 135 -7 200 -52 334 -44 128
-45 144 -21 206 47 120 58 171 59 263 2 102 -9 130 -32 79z m-267 -1436 c-32
-51 -93 -111 -113 -111 -10 0 -30 -10 -44 -23 -30 -28 -66 -31 -133 -12 -53
15 -90 44 -41 32 13 -4 47 -9 76 -13 46 -5 53 -4 75 20 13 14 34 26 46 26 19
0 84 49 121 92 24 28 34 21 13 -11z"/>
</g>
</svg>
