<?xml version="1.0" encoding="UTF-8"?>
<svg version="1.1" xmlns="http://www.w3.org/2000/svg" width="274" height="274">
<path d="M0 0 C1.58119419 1.35346082 3.14422627 2.72845518 4.6875 4.125 C5.45707031 4.80175781 6.22664062 5.47851562 7.01953125 6.17578125 C20.88606102 19.09740269 29.04357413 38.41688321 29.90234375 57.25 C29.94169211 58.70816578 29.97425847 60.16653055 30 61.625 C30.01788574 62.32044922 30.03577148 63.01589844 30.05419922 63.73242188 C30.04579095 68.61882616 30.04579095 68.61882616 28.49291992 70.81263733 C26.05224858 72.58676529 24.44171186 72.51185072 21.4375 72.52905273 C20.36628906 72.54173691 19.29507813 72.55442108 18.19140625 72.56748962 C17.03511719 72.56455399 15.87882813 72.56161835 14.6875 72.55859375 C13.50027344 72.5638356 12.31304687 72.56907745 11.08984375 72.57447815 C8.57813296 72.58090558 6.0663921 72.5795521 3.5546875 72.57104492 C-0.29741756 72.56253333 -4.14804148 72.59129185 -8 72.62304688 C-10.43749955 72.62465882 -12.87500174 72.62408149 -15.3125 72.62109375 C-16.46878906 72.63232773 -17.62507812 72.64356171 -18.81640625 72.65513611 C-20.42322266 72.64106468 -20.42322266 72.64106468 -22.0625 72.62670898 C-23.47789062 72.62645973 -23.47789062 72.62645973 -24.921875 72.62620544 C-27.3125 72.125 -27.3125 72.125 -29.09228516 70.25086975 C-30.49675756 67.80398475 -31.08193185 65.62758252 -31.6875 62.875 C-33.85581432 54.48116468 -37.90136626 47.85134567 -45.3125 43.125 C-54.44233907 38.54585953 -63.16445799 37.57602868 -72.9375 40.625 C-81.93807734 44.31523671 -87.3212003 49.89274783 -91.22998047 58.6990509 C-93.36582318 65.45854872 -93.0053457 72.45434151 -92.94140625 79.47265625 C-92.94223692 81.13691869 -92.94470377 82.80118103 -92.94871521 84.46543884 C-92.95155786 87.93595375 -92.93702221 91.40581781 -92.90942383 94.8762207 C-92.87531653 99.29988573 -92.88138262 103.72239062 -92.9000864 108.14611149 C-92.91070954 111.57707707 -92.90167113 115.00777777 -92.88670158 118.4387188 C-92.88155999 120.06881356 -92.88195206 121.69893645 -92.88824654 123.32902718 C-92.91513587 134.47185641 -92.31154525 144.96669498 -84.26171875 153.5234375 C-76.22916319 160.12333285 -67.22846397 162.7736325 -56.9765625 161.93359375 C-49.2980708 160.65384513 -42.04877701 156.62952217 -37 150.6875 C-33.97014373 146.29677608 -32.50085466 141.31604683 -31.04760742 136.22875977 C-29.6099118 131.32327453 -29.6099118 131.32327453 -26.3125 129.125 C-23.95983887 128.86430359 -23.95983887 128.86430359 -21.15429688 128.8503418 C-20.10310669 128.84080978 -19.0519165 128.83127777 -17.96887207 128.82145691 C-16.83445679 128.82236832 -15.7000415 128.82327972 -14.53125 128.82421875 C-13.36621948 128.81993362 -12.20118896 128.8156485 -11.00085449 128.81123352 C-8.53622081 128.80548728 -6.07157016 128.80499211 -3.60693359 128.80932617 C0.17249326 128.81248745 3.95113866 128.78902494 7.73046875 128.76367188 C10.12239484 128.76139913 12.51432305 128.76069527 14.90625 128.76171875 C16.04066528 128.752509 17.17508057 128.74329926 18.34387207 128.73381042 C19.39506226 128.74003922 20.44625244 128.74626801 21.52929688 128.75268555 C22.91804016 128.75174141 22.91804016 128.75174141 24.33483887 128.7507782 C26.6875 129.125 26.6875 129.125 28.48278809 130.44856262 C32.18655393 135.60260105 30.05558456 146.31183396 29.06640625 152.3984375 C26.45387623 165.89417246 20.6029761 178.61747459 11.6875 189.125 C11.06101563 189.9396875 10.43453125 190.754375 9.7890625 191.59375 C-0.39456403 203.85953065 -16.28032641 211.04218742 -31.3125 215.125 C-32.46234375 215.4446875 -33.6121875 215.764375 -34.796875 216.09375 C-61.66976044 222.3218007 -93.22392833 219.38345348 -116.9765625 204.79785156 C-135.80024197 192.77272441 -147.48060549 175.93677238 -152.3125 154.125 C-153.35148054 149.01244116 -153.47306232 144.09419958 -153.48950195 138.90112305 C-153.49607315 137.99121109 -153.50264435 137.08129913 -153.50941467 136.14381409 C-153.52907165 133.14144797 -153.54079797 130.13913188 -153.55078125 127.13671875 C-153.55485678 126.10431376 -153.5589323 125.07190876 -153.56313133 124.00821877 C-153.58396722 118.5356733 -153.59827548 113.06315267 -153.60766602 107.59057617 C-153.61868023 101.98050222 -153.65302951 96.37083038 -153.69283772 90.76089764 C-153.71918769 86.4118433 -153.72737439 82.06288176 -153.73094749 77.71375465 C-153.73577199 75.64841838 -153.74726525 73.58308506 -153.76598549 71.51782799 C-153.89806473 55.97102452 -153.12230736 40.50539943 -145.4375 26.5625 C-145.09162842 25.9039502 -144.74575684 25.24540039 -144.3894043 24.56689453 C-141.79013231 19.72604303 -138.86654085 15.32146223 -135.3125 11.125 C-134.61125 10.155625 -133.91 9.18625 -133.1875 8.1875 C-103.04540101 -26.89904425 -34.74942326 -27.04528756 0 0 Z " fill="#FFFFFF" transform="translate(157.3125,36.875)"/>
<path d="M0 0 C7.59620945 5.48537976 12.45819188 11.94759563 15 21 C16.12604974 31.93315737 14.50403777 41.29815216 8.1875 50.375 C2.11211905 57.78363163 -5.20893596 61.29178904 -14.734375 62.28515625 C-24.51699944 62.60295337 -32.43818476 60.3703348 -39.9609375 54.00390625 C-47.59861136 46.49791643 -50.28883514 37.87459368 -51.375 27.375 C-50.33676427 18.03087841 -47.02227669 9.76232448 -40.11328125 3.2109375 C-29.39382371 -5.33935673 -11.85779118 -8.18694747 0 0 Z " fill="#FFFFFF" transform="translate(256,194)"/>
</svg>
