<?xml version="1.0" standalone="no"?>
<!DOCTYPE svg PUBLIC "-//W3C//DTD SVG 1.1//EN" "http://www.w3.org/Graphics/SVG/1.1/DTD/svg11.dtd" >
<svg xmlns="http://www.w3.org/2000/svg" xmlns:xlink="http://www.w3.org/1999/xlink" version="1.1">
<metadata>
Created by FontForge 20201107 at Sun Apr  7 07:08:18 2024
 By 
Copyright (c) 2012 Christian Schwartz for Commercial Type.
</metadata>
<defs>
<font id="GraphikLCG-Black" horiz-adv-x="1228" >
  <font-face 
    font-family="Graphik LCG"
    font-weight="900"
    font-stretch="normal"
    units-per-em="2048"
    panose-1="2 11 10 3 3 2 2 6 2 3"
    ascent="1692"
    descent="-356"
    x-height="1071"
    cap-height="1464"
    bbox="-522 -477 2492 2339"
    underline-thickness="102"
    underline-position="-204"
    unicode-range="U+000D-FB02"
  />
<missing-glyph horiz-adv-x="1071" 
 />
    <glyph glyph-name="f_f" unicode="ff" horiz-adv-x="1497" 
d="M154 801h-131v270h131v68q0 202 116.5 301.5t319.5 99.5q96 0 170 -22v-291q-44 14 -90 14q-57 0 -85 -28.5t-28 -75.5v-66h289v80q0 202 117.5 301.5t322.5 99.5q94 0 174 -22v-289q-50 12 -96 12q-57 0 -86 -28.5t-29 -75.5v-78h209v-270h-209v-801h-403v801h-289v-801
h-403v801z" />
    <glyph glyph-name=".notdef" horiz-adv-x="1071" 
 />
    <glyph glyph-name=".null" horiz-adv-x="0" 
 />
    <glyph glyph-name="nonmarkingreturn" horiz-adv-x="682" 
 />
    <glyph glyph-name="NULL" horiz-adv-x="0" 
 />
    <glyph glyph-name="NULL" horiz-adv-x="0" 
 />
    <glyph glyph-name="CR" unicode="&#xd;" horiz-adv-x="378" 
 />
    <glyph glyph-name="space" unicode=" " horiz-adv-x="378" 
 />
    <glyph glyph-name="exclam" unicode="!" horiz-adv-x="700" 
d="M350 -25q-97 0 -165 62.5t-68 152.5q0 91 68 154.5t165 63.5t166.5 -64t69.5 -154t-69.5 -152.5t-166.5 -62.5zM125 1464h453l-60 -970h-336z" />
    <glyph glyph-name="quotedbl" unicode="&#x22;" horiz-adv-x="978" 
d="M76 1464h375l-45 -575h-285zM528 1464h375l-45 -575h-285z" />
    <glyph glyph-name="numbersign" unicode="#" horiz-adv-x="1206" 
d="M602 479h-117l-41 -276h-266l41 276h-135v316h182l19 133h-154v299h199l37 237h266l-37 -237h115l37 237h268l-37 -237h143v-299h-188l-19 -133h160v-316h-207l-41 -276h-266zM532 795h115l21 133h-117z" />
    <glyph glyph-name="dollar" unicode="$" horiz-adv-x="1333" 
d="M592 -20q-263 18 -401.5 144.5t-149.5 340.5h408q13 -143 143 -174v266q-281 37 -401.5 145t-120.5 322q0 192 140 317t382 142v182h166v-184q477 -39 510 -451h-400q-6 57 -30.5 89.5t-79.5 49.5v-251q101 -14 178.5 -34.5t145.5 -55t112 -82.5t69 -117t25 -158
q0 -98 -31.5 -181.5t-94 -150.5t-166 -109t-238.5 -50v-256h-166v256zM465 1059q0 -50 27.5 -76t99.5 -43v236q-127 -21 -127 -117zM881 416q0 45 -27.5 70t-95.5 42v-241q61 13 92 46.5t31 82.5z" />
    <glyph glyph-name="percent" unicode="%" horiz-adv-x="1710" 
d="M446 967q53 0 80 39t27 108t-27 107.5t-80 38.5t-80.5 -38t-27.5 -106q0 -149 108 -149zM444 737q-185 0 -291 106t-106 271q0 157 114 262t285 105q170 0 283 -101.5t113 -259.5q0 -165 -108.5 -274t-289.5 -109zM1274 1464h209l-1041 -1464h-206zM1266 203
q53 0 79.5 39t26.5 108t-26.5 107.5t-79.5 38.5t-81 -38.5t-28 -105.5q0 -149 109 -149zM1264 -27q-185 0 -290.5 106t-105.5 271q0 157 113.5 262t284.5 105q173 0 285 -101t112 -260q0 -165 -108.5 -274t-290.5 -109z" />
    <glyph glyph-name="ampersand" unicode="&#x26;" horiz-adv-x="1591" 
d="M1329 299l244 -299h-522l-76 94q-78 -58 -169.5 -89.5t-223.5 -31.5q-242 0 -383.5 119t-141.5 332q0 273 320 422q-82 122 -82 248q0 123 67 213t177.5 134t248.5 44q93 0 175.5 -22.5t146.5 -64.5t101.5 -109.5t37.5 -151.5q0 -120 -70 -208t-221 -153l162 -198l94 186
h351zM657 297q69 0 117 45l-215 260q-35 -28 -54.5 -58.5t-19.5 -76.5q0 -76 44 -123t128 -47zM686 1087q0 -59 80 -149q131 64 131 160q0 48 -26.5 77t-73.5 29q-48 0 -79.5 -32t-31.5 -85z" />
    <glyph glyph-name="quotesingle" unicode="'" horiz-adv-x="540" 
d="M76 1464h389l-45 -575h-299z" />
    <glyph glyph-name="parenleft" unicode="(" horiz-adv-x="741" 
d="M414 -303q-67 81 -119.5 163t-107 199.5t-85 267t-30.5 316.5q0 165 30.5 314t85 266.5t107.5 200.5t119 163h307q-266 -440 -266 -944q0 -517 266 -946h-307z" />
    <glyph glyph-name="parenright" unicode=")" horiz-adv-x="741" 
d="M20 -303q267 431 267 944q0 507 -267 946h308q66 -80 119 -163t107.5 -200.5t85 -267t30.5 -315.5q0 -165 -30.5 -314t-85 -266.5t-107.5 -200.5t-119 -163h-308z" />
    <glyph glyph-name="asterisk" unicode="*" horiz-adv-x="909" 
d="M106 913l185 177l-238 20l76 274l221 -110l-53 248h315l-53 -248l221 110l74 -274l-238 -20l185 -177l-240 -170l-108 234l-107 -234z" />
    <glyph glyph-name="plus" unicode="+" horiz-adv-x="1185" 
d="M432 551h-354v291h354v387h322v-387h356v-291h-356v-389h-322v389z" />
    <glyph glyph-name="comma" unicode="," horiz-adv-x="636" 
d="M27 -162l166 557l372 -129l-303 -516z" />
    <glyph glyph-name="hyphen" unicode="-" horiz-adv-x="798" 
d="M100 737h598v-299h-598v299z" />
    <glyph glyph-name="period" unicode="." horiz-adv-x="618" 
d="M307 -25q-96 0 -160.5 64.5t-64.5 157.5t64 156t161 63q98 0 164 -64t66 -155q0 -93 -66 -157.5t-164 -64.5z" />
    <glyph glyph-name="slash" unicode="/" horiz-adv-x="901" 
d="M598 1589h317l-659 -1892h-317z" />
    <glyph glyph-name="zero" unicode="0" horiz-adv-x="1517" 
d="M764 332q121 0 174 90t53 285v53q0 194 -54.5 284.5t-176.5 90.5q-123 0 -178.5 -89.5t-55.5 -283.5v-57q0 -195 55.5 -284t182.5 -89zM750 -27q-319 0 -501.5 191t-182.5 538v58q0 171 53 310t146.5 229.5t219.5 139t273 48.5q117 0 220.5 -28t190.5 -86t150 -141.5
t98 -201.5t35 -260v-55q0 -350 -189 -546t-513 -196z" />
    <glyph glyph-name="one" unicode="1" horiz-adv-x="940" 
d="M334 1008l-271 -162v385l336 233h400v-1464h-465v1008z" />
    <glyph glyph-name="two" unicode="2" horiz-adv-x="1282" 
d="M14 63l498 529q127 137 186.5 226.5t59.5 174.5q0 66 -33.5 106t-99.5 40q-74 0 -115.5 -50.5t-54.5 -170.5h-418q10 282 169 425.5t441 143.5q272 0 419.5 -131t147.5 -342q0 -144 -68.5 -262.5t-203.5 -245.5l-168 -162h453v-344h-1213v63z" />
    <glyph glyph-name="three" unicode="3" horiz-adv-x="1353" 
d="M682 -27q-607 0 -629 519h412q8 -92 51 -139.5t137 -47.5q166 0 166 148q0 75 -41.5 112t-130.5 37h-117v281h111q178 0 178 147q0 59 -37.5 93t-109.5 34q-148 0 -172 -172h-410q18 234 167 368t427 134q268 0 418.5 -108t150.5 -298q0 -121 -65.5 -200t-186.5 -115
q131 -24 209 -110.5t78 -215.5q0 -215 -156.5 -341t-449.5 -126z" />
    <glyph glyph-name="four" unicode="4" horiz-adv-x="1411" 
d="M737 274h-708v177l602 1013h553v-872h184v-318h-184v-274h-447v274zM750 592v522l-295 -522h295z" />
    <glyph glyph-name="five" unicode="5" horiz-adv-x="1308" 
d="M637 -27q-146 0 -259.5 38t-184 106t-107.5 157.5t-39 196.5h420q8 -74 45.5 -111.5t122.5 -37.5q75 0 111 50t36 130q0 88 -45 136t-131 48q-150 0 -223 -98h-285l37 876h1018v-336h-686l-10 -299q48 71 134 117.5t216 46.5q205 0 322.5 -130t117.5 -369
q0 -238 -161.5 -379.5t-448.5 -141.5z" />
    <glyph glyph-name="six" unicode="6" horiz-adv-x="1402" 
d="M733 -27q-142 0 -254 35t-189 97.5t-127.5 154t-73.5 200.5t-23 240v39q0 171 51.5 313t142 236.5t213 146.5t264.5 52q263 0 410 -113.5t170 -335.5h-426q-8 53 -37 80t-96 27q-222 0 -234 -350q55 82 131 124t205 42q100 0 187 -29.5t155 -85.5t107 -147.5t39 -206.5
q0 -234 -165.5 -376.5t-449.5 -142.5zM725 299q78 0 125 53.5t47 136.5q0 81 -46 134t-124 53t-126 -53.5t-48 -133.5q0 -83 47 -136.5t125 -53.5z" />
    <glyph glyph-name="seven" unicode="7" horiz-adv-x="1200" 
d="M608 1087h-561v377h1141v-47l-500 -1417h-473z" />
    <glyph glyph-name="eight" unicode="8" horiz-adv-x="1363" 
d="M682 -27q-298 0 -464.5 113.5t-166.5 325.5q0 126 67 219t199 139q-204 87 -204 299q0 98 45 178t123 132t182 80t223 28q165 0 293 -47.5t203 -142t75 -224.5q0 -211 -204 -301q260 -92 260 -348q0 -211 -168 -331t-463 -120zM684 297q79 0 127.5 44.5t48.5 121.5
q0 75 -48.5 121.5t-127.5 46.5q-80 0 -129 -45t-49 -123q0 -77 49.5 -121.5t128.5 -44.5zM686 883q68 0 113 40.5t45 106.5t-45.5 107t-112.5 41q-65 0 -110.5 -41t-45.5 -107q0 -64 45.5 -105.5t110.5 -41.5z" />
    <glyph glyph-name="nine" unicode="9" horiz-adv-x="1402" 
d="M670 -25q-268 0 -421 116t-173 333h424q17 -107 145 -107q120 0 173.5 85.5t58.5 261.5q-56 -84 -127 -126t-197 -42q-107 0 -196.5 29t-157.5 86t-106 148t-38 208q0 234 167.5 378t451.5 144q166 0 294 -54t208 -152.5t120.5 -230t40.5 -292.5v-41q0 -358 -172 -551
t-495 -193zM668 788q78 0 127 53t49 132q0 83 -48 136.5t-128 53.5q-77 0 -124.5 -53.5t-47.5 -136.5q0 -80 47 -132.5t125 -52.5z" />
    <glyph glyph-name="colon" unicode=":" horiz-adv-x="630" 
d="M311 -25q-97 0 -160 63.5t-63 158.5q0 93 63 156t160 63q99 0 165.5 -63.5t66.5 -155.5q0 -94 -66.5 -158t-165.5 -64zM311 557q-97 0 -160 63t-63 156t63 157t160 64q99 0 165.5 -64t66.5 -157t-66.5 -156t-165.5 -63z" />
    <glyph glyph-name="semicolon" unicode=";" horiz-adv-x="667" 
d="M16 -162l166 557l373 -129l-303 -516zM365 557q-96 0 -161 63t-65 156t65 157t161 64q98 0 163.5 -64t65.5 -157t-65.5 -156t-163.5 -63z" />
    <glyph glyph-name="less" unicode="&#x3c;" horiz-adv-x="1052" 
d="M82 623v75l876 514v-364l-362 -184l362 -203v-352z" />
    <glyph glyph-name="equal" unicode="=" horiz-adv-x="1167" 
d="M78 600h1009v-268h-1009v268zM78 1008h1009v-269h-1009v269z" />
    <glyph glyph-name="greater" unicode="&#x3e;" horiz-adv-x="1052" 
d="M94 473l363 186l-363 203v352l877 -516v-73l-877 -514v362z" />
    <glyph glyph-name="question" unicode="?" horiz-adv-x="1165" 
d="M342 520q0 38 7 72t26 68t31.5 55t44.5 55t42.5 44.5t47.5 45.5q46 42 68.5 65t42.5 58.5t20 69.5q0 106 -109 106q-57 0 -93.5 -43t-47.5 -121h-393q7 236 161 364t406 128q246 0 380 -102t134 -293q0 -92 -36 -163t-103 -138q-24 -24 -97 -88.5t-106.5 -106
t-42.5 -84.5v-18h-383v26zM535 -25q-100 0 -169 62t-69 153t69 154.5t169 63.5q97 0 165 -63.5t68 -154.5q0 -90 -68 -152.5t-165 -62.5z" />
    <glyph glyph-name="at" unicode="@" horiz-adv-x="1888" 
d="M944 -328q-204 0 -373 65t-281.5 178.5t-174.5 267t-62 329.5q0 160 50 303.5t138 251.5t205 187t254.5 120t282.5 41q242 0 435 -90.5t305 -261t112 -393.5q0 -119 -25.5 -216t-68 -161.5t-101 -108t-123 -63t-135.5 -19.5q-263 0 -313 164q-81 -168 -268 -168
q-154 0 -245 103.5t-91 281.5q0 215 117 348.5t288 133.5q165 0 220 -117l14 100h326l-70 -565q-11 -61 11 -96t75 -35q95 0 158 105.5t63 318.5q0 267 -186 431.5t-494 164.5q-157 0 -295.5 -54t-241 -151.5t-162 -242t-59.5 -316.5q0 -149 46.5 -274.5t134.5 -219
t226.5 -146t313.5 -52.5q171 0 313.5 52.5t221.5 131.5h192q-107 -150 -302.5 -239t-430.5 -89zM909 358q63 0 105.5 63t42.5 161q0 61 -30 95t-89 34q-62 0 -100.5 -59t-38.5 -152q0 -63 27.5 -102.5t82.5 -39.5z" />
    <glyph glyph-name="A" unicode="A" horiz-adv-x="1556" 
d="M479 1464h600l459 -1464h-491l-68 244h-463l-65 -244h-433zM604 559h289l-143 531z" />
    <glyph glyph-name="B" unicode="B" horiz-adv-x="1413" 
d="M133 1464h692q131 0 229 -29t156.5 -81.5t86.5 -120.5t28 -152v-8q0 -255 -254 -315q136 -24 214.5 -109t78.5 -233v-8q0 -408 -543 -408h-688v1464zM733 305q174 0 174 154v8q0 74 -44 111.5t-140 37.5h-137v-311h147zM727 893q86 0 123 30.5t37 98.5v8q0 67 -38.5 99
t-123.5 32h-139v-268h141z" />
    <glyph glyph-name="C" unicode="C" horiz-adv-x="1564" 
d="M836 -27q-195 0 -344.5 53.5t-244 153t-142.5 236.5t-48 307v16q0 222 99 393.5t271 263t388 91.5q305 0 488.5 -144.5t207.5 -433.5h-479q-22 211 -215 211q-129 0 -199.5 -97.5t-70.5 -281.5v-16q0 -184 71.5 -281.5t206.5 -97.5q102 0 166 54t76 161h463
q-13 -189 -105 -322.5t-242.5 -199.5t-346.5 -66z" />
    <glyph glyph-name="D" unicode="D" horiz-adv-x="1538" 
d="M676 356q171 0 247 88t76 281v16q0 198 -77.5 282.5t-247.5 84.5h-76v-752h78zM133 1464h559q393 0 592 -181t199 -533v-15q0 -354 -202.5 -544.5t-588.5 -190.5h-559v1464z" />
    <glyph glyph-name="E" unicode="E" horiz-adv-x="1269" 
d="M133 1464h1041v-356h-578v-207h459v-326h-459v-219h610v-356h-1073v1464z" />
    <glyph glyph-name="F" unicode="F" horiz-adv-x="1198" 
d="M133 1464h1014v-358h-549v-272h442v-342h-442v-492h-465v1464z" />
    <glyph glyph-name="G" unicode="G" horiz-adv-x="1619" 
d="M834 -27q-187 0 -335.5 55t-245 155t-147.5 237t-51 303v16q0 221 102.5 392.5t279.5 263.5t397 92q137 0 255.5 -32t215 -97t156 -173.5t69.5 -250.5h-459q-24 188 -235 188q-140 0 -218.5 -103t-78.5 -288v-16q0 -389 309 -389q128 0 192 52.5t72 133.5h-250v305h703
v-188q0 -139 -46 -257t-134.5 -207.5t-229.5 -140.5t-321 -51z" />
    <glyph glyph-name="H" unicode="H" horiz-adv-x="1626" 
d="M133 1464h465v-540h430v540h465v-1464h-465v563h-430v-563h-465v1464z" />
    <glyph glyph-name="I" unicode="I" horiz-adv-x="749" 
d="M139 1464h469v-1464h-469v1464z" />
    <glyph glyph-name="J" unicode="J" horiz-adv-x="1001" 
d="M344 -18q-174 0 -278 51v342q91 -27 174 -27q88 0 136 44t48 147v925h465v-927q0 -555 -545 -555z" />
    <glyph glyph-name="K" unicode="K" horiz-adv-x="1525" 
d="M133 1464h465v-555l406 555h481l-514 -676l542 -788h-534l-381 586v-586h-465v1464z" />
    <glyph glyph-name="L" unicode="L" horiz-adv-x="1191" 
d="M133 1464h465v-1106h532v-358h-997v1464z" />
    <glyph glyph-name="M" unicode="M" horiz-adv-x="1961" 
d="M133 1464h602l248 -710l252 710h590v-1464h-461v864l-334 -864h-156l-327 864v-864h-414v1464z" />
    <glyph glyph-name="N" unicode="N" horiz-adv-x="1611" 
d="M133 1464h520l416 -774v774h408v-1464h-445l-489 877v-877h-410v1464z" />
    <glyph glyph-name="O" unicode="O" horiz-adv-x="1679" 
d="M842 338q138 0 218.5 102t80.5 285v16q0 184 -81 283.5t-222 99.5q-138 0 -217.5 -99t-79.5 -284v-16q0 -187 80 -287t221 -100zM829 -27q-178 0 -323.5 55t-244.5 153.5t-152.5 237t-53.5 304.5v16q0 221 104.5 393t282 263.5t396.5 91.5q227 0 403.5 -86t279.5 -254.5
t103 -394.5v-17q0 -343 -217.5 -552.5t-577.5 -209.5z" />
    <glyph glyph-name="P" unicode="P" horiz-adv-x="1359" 
d="M133 1464h584q307 0 454.5 -129.5t147.5 -371.5v-9q0 -230 -148.5 -353.5t-433.5 -123.5h-141v-477h-463v1464zM692 788q187 0 187 164v9q0 84 -45 120.5t-140 36.5h-98v-330h96z" />
    <glyph glyph-name="Q" unicode="Q" horiz-adv-x="1679" 
d="M997 -12q-103 -15 -168 -15q-178 0 -323.5 55t-244.5 153.5t-152.5 237t-53.5 304.5v16q0 220 104.5 391.5t282 263t396.5 91.5q169 0 313.5 -49.5t250 -142t165 -231.5t59.5 -310v-17q0 -191 -70 -344t-200 -254l137 -137l-254 -258zM539 725q0 -149 48 -244t136 -131
l225 201l113 -117q80 106 80 293v16q0 183 -80.5 282t-222.5 99q-140 0 -219.5 -98t-79.5 -285v-16z" />
    <glyph glyph-name="R" unicode="R" horiz-adv-x="1454" 
d="M133 1464h598q305 0 458.5 -120t153.5 -355v-8q0 -271 -247 -383l334 -598h-488l-272 502h-74v-502h-463v1464zM705 801q190 0 190 160v8q0 78 -46 112.5t-142 34.5h-111v-315h109z" />
    <glyph glyph-name="S" unicode="S" horiz-adv-x="1337" 
d="M684 -27q-313 0 -475.5 124.5t-169.5 371.5h440q11 -168 205 -168q80 0 121 32.5t41 88.5t-44 81.5t-165 43.5q-317 37 -441 140.5t-124 330.5q0 207 157.5 337t427.5 130q278 0 424.5 -114t165.5 -353h-430q-16 141 -160 141q-70 0 -107.5 -28.5t-37.5 -77.5
q0 -54 42 -80t163 -43q97 -10 171 -25t141 -39t113.5 -58t80.5 -81.5t50.5 -111t16.5 -144.5q0 -102 -40.5 -192t-115.5 -158.5t-191 -108t-259 -39.5z" />
    <glyph glyph-name="T" unicode="T" horiz-adv-x="1288" 
d="M410 1108h-369v356h1206v-356h-370v-1108h-467v1108z" />
    <glyph glyph-name="U" unicode="U" horiz-adv-x="1589" 
d="M795 -27q-327 0 -498.5 159t-171.5 472v860h463v-841q0 -151 44 -218t163 -67q118 0 161 66.5t43 220.5v839h467v-856q0 -322 -176.5 -478.5t-494.5 -156.5z" />
    <glyph glyph-name="V" unicode="V" horiz-adv-x="1517" 
d="M18 1464h502l273 -981l272 981h434l-473 -1464h-524z" />
    <glyph glyph-name="W" unicode="W" horiz-adv-x="2066" 
d="M20 1464h469l168 -874l177 874h403l199 -884l178 884h430l-340 -1464h-469l-205 874l-207 -874h-463z" />
    <glyph glyph-name="X" unicode="X" horiz-adv-x="1581" 
d="M483 754l-413 710h530l205 -411l201 411h475l-383 -694l448 -770h-528l-252 481l-252 -481h-477z" />
    <glyph glyph-name="Y" unicode="Y" horiz-adv-x="1417" 
d="M485 625l-475 839h504l223 -458l226 458h444l-455 -837v-627h-467v625z" />
    <glyph glyph-name="Z" unicode="Z" horiz-adv-x="1284" 
d="M20 49l586 1067h-504v348h1153v-49l-579 -1065h545v-350h-1201v49z" />
    <glyph glyph-name="bracketleft" unicode="[" horiz-adv-x="858" 
d="M125 1589h657v-291h-250v-1310h250v-291h-657v1892z" />
    <glyph glyph-name="backslash" unicode="\" horiz-adv-x="901" 
d="M-14 1589h315l662 -1892h-318z" />
    <glyph glyph-name="bracketright" unicode="]" horiz-adv-x="858" 
d="M78 -12h246v1310h-246v291h653v-1892h-653v291z" />
    <glyph glyph-name="asciicircum" unicode="^" horiz-adv-x="1095" 
d="M375 1464h346l336 -663h-340l-172 338l-174 -338h-332z" />
    <glyph glyph-name="underscore" unicode="_" horiz-adv-x="903" 
d="M-2 -147h907v-183h-907v183z" />
    <glyph glyph-name="grave" unicode="`" horiz-adv-x="819" 
d="M66 1530h395l106 -346h-288z" />
    <glyph glyph-name="a" unicode="a" horiz-adv-x="1198" 
d="M406 -27q-75 0 -139 19t-115.5 57t-81 101.5t-29.5 146.5q0 184 144 267t431 83h93v19q0 78 -25 116.5t-100 38.5q-63 0 -92.5 -32.5t-34.5 -81.5h-377q12 193 152.5 294t375.5 101q239 0 369.5 -102t130.5 -308v-692h-389v123q-36 -64 -114.5 -107t-198.5 -43zM551 244
q70 0 114 36t44 95v55h-86q-103 0 -144 -22.5t-41 -79.5q0 -39 29 -61.5t84 -22.5z" />
    <glyph glyph-name="b" unicode="b" horiz-adv-x="1323" 
d="M825 -27q-115 0 -198.5 51t-126.5 140v-164h-404v1536h404v-621q49 83 130.5 134t196.5 51q93 0 173.5 -35t142.5 -102t97.5 -175t35.5 -245v-17q0 -137 -35.5 -244t-98 -173.5t-143 -101t-174.5 -34.5zM678 281q92 0 140 63t48 186v17q0 254 -190 254q-91 0 -139 -65.5
t-48 -188.5v-17q0 -249 189 -249z" />
    <glyph glyph-name="c" unicode="c" horiz-adv-x="1200" 
d="M614 -27q-121 0 -223.5 34.5t-180 101t-121.5 172t-44 239.5v17q0 177 78.5 306.5t208.5 193t293 63.5q105 0 194.5 -24t164.5 -75t122 -140.5t55 -211.5h-379q-11 71 -44 106.5t-103 35.5q-180 0 -180 -246v-17q0 -133 44.5 -197.5t141.5 -64.5q70 0 113.5 42.5
t50.5 119.5h362q-8 -214 -148.5 -334.5t-404.5 -120.5z" />
    <glyph glyph-name="d" unicode="d" horiz-adv-x="1320" 
d="M494 -27q-92 0 -171.5 34t-141.5 99.5t-98 173t-36 244.5v17q0 136 35.5 244t97 176t141.5 103.5t173 35.5q232 0 327 -176v612h404v-1536h-404v172q-44 -90 -127 -144.5t-200 -54.5zM643 281q188 0 188 251v17q0 123 -47 187.5t-139 64.5q-188 0 -188 -254v-17
q0 -249 186 -249z" />
    <glyph glyph-name="e" unicode="e" horiz-adv-x="1236" 
d="M637 -27q-173 0 -306 62.5t-210.5 188t-77.5 298.5v17q0 128 46.5 235t127.5 178t189 110.5t231 39.5q115 0 214 -33.5t176.5 -100t122 -175t44.5 -248.5v-99h-743q7 -97 59.5 -147.5t140.5 -50.5q143 0 168 114h377q-25 -189 -165.5 -289t-393.5 -100zM805 657
q-10 185 -168 185q-75 0 -123.5 -47t-60.5 -138h352z" />
    <glyph glyph-name="f" unicode="f" horiz-adv-x="804" 
d="M154 801h-131v270h131v80q0 202 117.5 301.5t322.5 99.5q94 0 174 -22v-289q-50 12 -96 12q-57 0 -86 -28.5t-29 -75.5v-78h209v-270h-209v-801h-403v801z" />
    <glyph glyph-name="g" unicode="g" horiz-adv-x="1318" 
d="M612 -397q-530 0 -573 405h399q14 -60 51.5 -93.5t124.5 -33.5q205 0 205 205v166q-45 -84 -127.5 -136.5t-197.5 -52.5q-192 0 -320.5 134.5t-128.5 373.5v17q0 234 128.5 374t318.5 140q231 0 327 -178v147h404v-979q0 -241 -155 -365t-456 -124zM643 350
q90 0 139 58.5t49 162.5v15q0 100 -48.5 158.5t-139.5 58.5t-139.5 -57.5t-48.5 -161.5v-17q0 -100 48.5 -158.5t139.5 -58.5z" />
    <glyph glyph-name="h" unicode="h" horiz-adv-x="1288" 
d="M96 1536h404v-637q47 92 136 146.5t218 54.5q158 0 251 -100.5t93 -294.5v-705h-403v614q0 83 -32.5 123.5t-103.5 40.5q-159 0 -159 -186v-592h-404v1536z" />
    <glyph glyph-name="i" unicode="i" horiz-adv-x="620" 
d="M109 1071h401v-1071h-401v1071zM309 1151q-94 0 -156.5 57.5t-62.5 145.5q0 90 62 147.5t157 57.5q93 0 155 -57.5t62 -147.5q0 -87 -62 -145t-155 -58z" />
    <glyph glyph-name="j" unicode="j" horiz-adv-x="620" 
d="M-18 -86q67 5 95.5 31.5t28.5 87.5v1038h404v-1048q0 -94 -24.5 -163.5t-82.5 -124t-163.5 -82.5t-257.5 -28v289zM309 1151q-94 0 -156.5 57.5t-62.5 145.5q0 90 62 147.5t157 57.5q93 0 155 -57.5t62 -147.5q0 -87 -62 -145t-155 -58z" />
    <glyph glyph-name="k" unicode="k" horiz-adv-x="1206" 
d="M96 1536h404v-870l260 405h414l-330 -479l356 -592h-446l-254 446v-446h-404v1536z" />
    <glyph glyph-name="l" unicode="l" horiz-adv-x="614" 
d="M106 1536h402v-1536h-402v1536z" />
    <glyph glyph-name="m" unicode="m" horiz-adv-x="1914" 
d="M96 1071h404v-164q48 85 134.5 139t203.5 54q210 0 286 -172q134 172 353 172q159 0 253.5 -101t94.5 -292v-707h-402v633q0 71 -31.5 107t-88.5 36q-68 0 -105 -42t-37 -120v-614h-399v633q0 70 -32 106.5t-87 36.5q-69 0 -106 -42t-37 -120v-614h-404v1071z" />
    <glyph glyph-name="n" unicode="n" horiz-adv-x="1288" 
d="M96 1071h404v-172q47 92 136 146.5t218 54.5q158 0 251 -100.5t93 -294.5v-705h-403v614q0 83 -32.5 123.5t-103.5 40.5q-159 0 -159 -186v-592h-404v1071z" />
    <glyph glyph-name="o" unicode="o" horiz-adv-x="1282" 
d="M643 270q184 0 184 260v15q0 258 -184 258q-190 0 -190 -252v-16q0 -265 190 -265zM641 -27q-126 0 -234 37t-189 105t-127 173t-46 234v17q0 128 46 234t126 177.5t190 110.5t236 39q168 0 302 -65t213 -191.5t79 -294.5v-17q0 -171 -79.5 -299.5t-214 -194
t-302.5 -65.5z" />
    <glyph glyph-name="p" unicode="p" horiz-adv-x="1323" 
d="M96 1071h404v-156q49 83 130.5 134t196.5 51q93 0 173.5 -35t142.5 -102t97.5 -175t35.5 -245v-17q0 -137 -35.5 -244t-98 -173.5t-143 -101t-174.5 -34.5q-114 0 -198 49.5t-127 131.5v-510h-404v1427zM678 281q92 0 140 63t48 186v17q0 254 -190 254q-91 0 -139 -65.5
t-48 -188.5v-17q0 -249 189 -249z" />
    <glyph glyph-name="q" unicode="q" horiz-adv-x="1320" 
d="M821 162q-45 -83 -128.5 -136t-198.5 -53q-92 0 -171.5 34t-141.5 99.5t-98 173t-36 244.5v17q0 136 35.5 244t97 176t141.5 103.5t173 35.5q232 0 327 -176v147h404v-1427h-404v518zM643 281q188 0 188 251v17q0 123 -47 187.5t-139 64.5q-188 0 -188 -254v-17
q0 -249 186 -249z" />
    <glyph glyph-name="r" unicode="r" horiz-adv-x="897" 
d="M96 1071h404v-217q50 122 135 177.5t209 53.5v-376q-168 11 -256 -43.5t-88 -171.5v-494h-404v1071z" />
    <glyph glyph-name="s" unicode="s" horiz-adv-x="1071" 
d="M535 -27q-237 0 -368.5 95t-135.5 276h368q11 -58 39.5 -84.5t93.5 -26.5q113 0 113 76q0 36 -41 56.5t-147 33.5q-112 13 -187.5 35t-128.5 61.5t-76.5 98.5t-23.5 145q0 119 65.5 202.5t171 122t240.5 38.5q146 0 247 -33t165.5 -113t77.5 -208h-363q-22 100 -121 100
q-53 0 -79.5 -20.5t-26.5 -53.5q0 -36 37.5 -53.5t130.5 -28.5q122 -15 202 -37.5t139 -61.5t85 -98t26 -145q0 -191 -133 -284t-370 -93z" />
    <glyph glyph-name="t" unicode="t" horiz-adv-x="811" 
d="M543 -25q-195 0 -295.5 92.5t-100.5 290.5v443h-124v270h124v219h404v-219h205v-270h-205v-404q0 -104 104 -104q51 0 101 16v-303q-108 -31 -213 -31z" />
    <glyph glyph-name="u" unicode="u" horiz-adv-x="1286" 
d="M446 -27q-160 0 -259 101.5t-99 294.5v702h404v-633q0 -83 32 -123.5t103 -40.5q159 0 159 187v610h404v-1071h-404v166q-99 -193 -340 -193z" />
    <glyph glyph-name="v" unicode="v" horiz-adv-x="1236" 
d="M10 1071h430l203 -651l205 651h379l-391 -1071h-433z" />
    <glyph glyph-name="w" unicode="w" horiz-adv-x="1748" 
d="M10 1071h420l139 -600l164 600h324l143 -600l162 600h377l-340 -1071h-379l-150 559l-147 -559h-391z" />
    <glyph glyph-name="x" unicode="x" horiz-adv-x="1255" 
d="M369 543l-330 528h463l145 -262l146 262h411l-334 -498l369 -573h-463l-172 299l-180 -299h-408z" />
    <glyph glyph-name="y" unicode="y" 
d="M438 106l-428 965h436l203 -534l189 534h381l-572 -1427h-383z" />
    <glyph glyph-name="z" unicode="z" horiz-adv-x="1050" 
d="M16 39l439 731h-392v301h965v-41l-459 -731h430v-299h-983v39z" />
    <glyph glyph-name="braceleft" unicode="{" horiz-adv-x="870" 
d="M795 -303q-329 0 -471 117t-101 366l27 166q13 72 -35 116t-156 44v280q108 0 156 43t35 115l-27 164q-42 255 99.5 369t472.5 114v-293q-113 -6 -149.5 -43t-24.5 -133l24 -202q12 -103 -43 -174t-170 -97q116 -25 170.5 -96t42.5 -176l-24 -201q-12 -99 25 -139.5
t149 -46.5v-293z" />
    <glyph glyph-name="bar" unicode="|" horiz-adv-x="552" 
d="M137 1589h279v-1892h-279v1892z" />
    <glyph glyph-name="braceright" unicode="}" horiz-adv-x="870" 
d="M76 -10q112 6 149 46.5t25 139.5l-25 201q-12 105 42.5 176t170.5 96q-115 26 -170 97t-43 174l25 202q12 96 -24.5 133t-149.5 43v293q331 0 472 -114t99 -369l-26 -164q-13 -73 33 -115.5t157 -42.5v-280q-110 0 -156.5 -43.5t-33.5 -116.5l26 -166
q41 -249 -100.5 -366t-470.5 -117v293z" />
    <glyph glyph-name="asciitilde" unicode="~" horiz-adv-x="1089" 
d="M51 436q6 113 34 198t72.5 135t97.5 74.5t114 24.5q63 0 127.5 -22.5t114 -45t77.5 -22.5q76 0 92 92h256q-7 -207 -97 -319.5t-218 -112.5q-66 0 -130 22t-112.5 44t-77.5 22q-79 0 -92 -90h-258z" />
    <glyph glyph-name="uni00A0" unicode="&#xa0;" horiz-adv-x="518" 
 />
    <glyph glyph-name="exclamdown" unicode="&#xa1;" horiz-adv-x="702" 
d="M350 1247q97 0 165.5 -61.5t68.5 -151.5q0 -91 -68.5 -154t-165.5 -63t-166 63.5t-69 153.5t68.5 151.5t166.5 61.5zM575 -240h-452l59 971h336z" />
    <glyph glyph-name="cent" unicode="&#xa2;" 
d="M571 -23q-154 12 -271.5 75.5t-187 184.5t-69.5 285v17q0 238 147.5 385.5t380.5 173.5v190h154v-190q129 -12 229 -62t165 -149t73 -238h-363q-15 120 -104 150v-545q114 36 125 174h348q-6 -194 -129 -313t-344 -138v-253h-154v253zM440 526q0 -222 131 -268v541
q-131 -50 -131 -256v-17z" />
    <glyph glyph-name="sterling" unicode="&#xa3;" horiz-adv-x="1368" 
d="M66 838h98q-23 87 -23 170q0 151 78 260.5t208.5 163t297.5 53.5q148 0 258.5 -36.5t179 -105.5t104.5 -161t42 -209h-422q-10 88 -45 127t-101 39t-103.5 -42t-37.5 -116q0 -61 10 -143h348v-254h-313q4 -62 4 -95q0 -56 -16 -112q10 -3 43 -13t46 -13t34.5 -7t38.5 -4
q109 0 118 111h418q-4 -102 -34 -186.5t-84.5 -148t-138 -99t-187.5 -35.5q-72 0 -142 16t-114.5 35t-91.5 35t-78 16q-41 0 -64 -22.5t-28 -61.5h-340q8 128 61.5 228t149.5 149q14 54 14 112q0 43 -10 95h-178v254z" />
    <glyph glyph-name="yen" unicode="&#xa5;" horiz-adv-x="1349" 
d="M125 758h274l-383 706h502l187 -442l186 442h442l-364 -706h278v-150h-327v-96h327v-152h-327v-360h-467v360h-328v152h328v96h-328v150z" />
    <glyph glyph-name="brokenbar" unicode="&#xa6;" horiz-adv-x="557" 
d="M137 618h279v-921h-279v921zM137 1589h279v-825h-279v825z" />
    <glyph glyph-name="section" unicode="&#xa7;" horiz-adv-x="1265" 
d="M608 -281q-220 0 -339.5 101t-127.5 282h363q10 -116 114 -116q103 0 103 77q0 41 -43 63.5t-164 49.5q-95 24 -161.5 46.5t-130 56.5t-101.5 75t-61 99.5t-23 132.5q0 197 219 282q-84 93 -84 232q0 178 134.5 281.5t352.5 103.5t336.5 -101t126.5 -284h-360
q-6 57 -32.5 84.5t-82.5 27.5q-100 0 -100 -75q0 -45 38 -65.5t165 -51.5q94 -22 160 -43t130.5 -54t103.5 -73.5t63 -100t24 -135.5q0 -192 -219 -284q84 -90 84 -230q0 -173 -134.5 -277t-353.5 -104zM770 473q74 13 74 80q0 41 -38 61.5t-157 59.5l-149 49
q-74 -12 -74 -80q0 -38 40.5 -60t154.5 -59z" />
    <glyph glyph-name="dieresis" unicode="&#xa8;" horiz-adv-x="819" 
d="M186 1167q-78 0 -132 54t-54 129t54 128.5t132 53.5q79 0 134 -53.5t55 -128.5t-55 -129t-134 -54zM631 1167q-77 0 -131 53.5t-54 129.5q0 75 53.5 128.5t131.5 53.5q79 0 133.5 -53.5t54.5 -128.5q0 -76 -54.5 -129.5t-133.5 -53.5z" />
    <glyph glyph-name="copyright" unicode="&#xa9;" horiz-adv-x="1724" 
d="M879 307q-219 0 -330 111.5t-111 306.5v16q0 188 121.5 302t308.5 114q174 0 277.5 -81t116.5 -247h-281q-12 111 -113 111q-67 0 -105 -50.5t-38 -148.5v-14q0 -203 147 -203q117 0 129 117h271q-7 -160 -114.5 -247t-278.5 -87zM860 63q182 0 332.5 83.5t240 238
t89.5 350.5q0 145 -51 270t-139.5 211.5t-209.5 135.5t-258 49q-184 0 -335 -84t-238.5 -238t-87.5 -348q0 -147 52.5 -273t141.5 -212t209 -134.5t254 -48.5zM860 -43q-216 0 -397.5 101t-287 279t-105.5 394q0 160 62 304t168 247.5t253 164t311 60.5q222 0 404 -102
t285.5 -279t103.5 -391q0 -217 -106.5 -396t-289.5 -280.5t-401 -101.5z" />
    <glyph glyph-name="ordfeminine" unicode="&#xaa;" horiz-adv-x="1013" 
d="M344 588q-125 0 -207 63.5t-82 192.5q0 149 108 210.5t343 61.5h76v27q0 48 -17.5 73t-64.5 25q-75 0 -88 -82h-328q10 155 123.5 238.5t310.5 83.5q201 0 306.5 -82t105.5 -246v-543h-340v97q-28 -49 -89 -84t-157 -35zM477 821q47 0 76 24t29 62v37h-64
q-65 0 -91 -14.5t-26 -50.5q0 -58 76 -58z" />
    <glyph glyph-name="guillemotleft" unicode="&#xab;" horiz-adv-x="976" 
d="M51 535l254 397h248l-244 -397l244 -398h-248zM422 535l254 397h248l-244 -397l244 -398h-248z" />
    <glyph glyph-name="uni00AD" unicode="&#xad;" horiz-adv-x="798" 
d="M100 737h598v-299h-598v299z" />
    <glyph glyph-name="registered" unicode="&#xae;" horiz-adv-x="1058" 
d="M352 1260h187q190 0 190 -148v-2q0 -80 -72 -119l99 -180h-156l-78 150h-20v-150h-150v449zM530 1057q54 0 54 45v2q0 41 -54 41h-28v-88h28zM530 655q163 0 271 105.5t108 269.5q0 165 -106.5 270t-272.5 105q-167 0 -273.5 -105.5t-106.5 -271.5q0 -165 109 -269
t271 -104zM530 573q-197 0 -335 132t-138 323q0 125 62.5 230.5t171.5 167t239 61.5q200 0 335.5 -132.5t135.5 -324.5q0 -193 -137 -325t-334 -132z" />
    <glyph glyph-name="macron" unicode="&#xaf;" horiz-adv-x="819" 
d="M86 1458h647v-219h-647v219z" />
    <glyph glyph-name="degree" unicode="&#xb0;" horiz-adv-x="935" 
d="M471 918q81 0 132.5 58.5t51.5 147.5q0 93 -51.5 152t-132.5 59q-86 0 -138 -59t-52 -152q0 -89 52.5 -147.5t137.5 -58.5zM471 770q-153 0 -261 105t-108 249q0 148 108 253.5t261 105.5q149 0 256 -105.5t107 -253.5q0 -143 -107 -248.5t-256 -105.5z" />
    <glyph glyph-name="plusminus" unicode="&#xb1;" horiz-adv-x="1185" 
d="M432 702h-354v291h354v332h322v-332h356v-291h-356v-329h-322v329zM78 258h1038v-258h-1038v258z" />
    <glyph glyph-name="twosuperior" unicode="&#xb2;" horiz-adv-x="749" 
d="M8 719l264 270q77 78 110.5 124t33.5 87q0 62 -58 62q-61 0 -73 -105h-269q4 157 99 238.5t260 81.5q163 0 246.5 -71t83.5 -183q0 -75 -40 -138t-120 -139l-58 -53h222v-211h-701v37z" />
    <glyph glyph-name="threesuperior" unicode="&#xb3;" horiz-adv-x="788" 
d="M395 668q-183 0 -269 75t-91 205h260q11 -78 82 -78q69 0 69 64q0 59 -84 59h-63v162h63q89 0 89 64q0 55 -64 55q-66 0 -78 -72h-258q11 125 98 200t246 75q158 0 245 -58t87 -162q0 -131 -141 -167q70 -11 113.5 -56t43.5 -112q0 -117 -87.5 -185.5t-260.5 -68.5z" />
    <glyph glyph-name="acute" unicode="&#xb4;" horiz-adv-x="819" 
d="M358 1530h396l-213 -346h-289z" />
    <glyph glyph-name="mu" unicode="&#xb5;" horiz-adv-x="1290" 
d="M96 1071h404v-643q0 -160 135 -160q160 0 160 185v618h403v-1071h-395v141q-50 -139 -176 -139q-81 0 -127 70v-428h-404v1427z" />
    <glyph glyph-name="paragraph" unicode="&#xb6;" horiz-adv-x="1114" 
d="M518 668h-14q-212 0 -332.5 99.5t-120.5 291.5q0 199 122.5 302t330.5 103h475v-1669h-156v1536h-151v-1536h-154v873z" />
    <glyph glyph-name="periodcentered" unicode="&#xb7;" horiz-adv-x="618" 
d="M307 449q-96 0 -160.5 63t-64.5 156t64.5 157t160.5 64q98 0 164 -64t66 -157t-66 -156t-164 -63z" />
    <glyph glyph-name="cedilla" unicode="&#xb8;" horiz-adv-x="819" 
d="M416 -467q-235 0 -271 193h185q12 -54 71 -54q29 0 45.5 16.5t16.5 43.5q0 28 -17 44.5t-51 16.5q-44 0 -65 -24l-82 84l98 147h156l-64 -90q100 8 167 -36.5t67 -141.5q0 -93 -69 -146t-187 -53z" />
    <glyph glyph-name="onesuperior" unicode="&#xb9;" horiz-adv-x="608" 
d="M209 1180l-170 -93v238l213 139h254v-782h-297v498z" />
    <glyph glyph-name="ordmasculine" unicode="&#xba;" horiz-adv-x="1079" 
d="M541 846q65 0 94 45t29 139v12q0 93 -29 138t-94 45q-125 0 -125 -178v-13q0 -188 125 -188zM539 588q-137 0 -244 47.5t-172.5 147t-65.5 237.5v12q0 138 65 241t174 155.5t245 52.5t244 -51t172.5 -151.5t64.5 -234.5v-12q0 -138 -65.5 -240.5t-173.5 -153t-244 -50.5z
" />
    <glyph glyph-name="guillemotright" unicode="&#xbb;" horiz-adv-x="976" 
d="M297 535l-244 397h248l254 -397l-254 -398h-248zM666 535l-244 397h248l254 -397l-254 -398h-248z" />
    <glyph glyph-name="onequarter" unicode="&#xbc;" horiz-adv-x="1673" 
d="M213 1180l-170 -93v238l213 139h254v-782h-297v498zM1307 1464h202l-1165 -1464h-205zM1241 143h-389v111l322 528h352v-446h98v-193h-98v-143h-285v143zM1249 336v254l-147 -254h147z" />
    <glyph glyph-name="onehalf" unicode="&#xbd;" horiz-adv-x="1701" 
d="M215 1180l-170 -93v238l213 139h254v-782h-297v498zM1278 1464h203l-1166 -1464h-204zM950 37l264 270q77 78 110.5 124t33.5 87q0 62 -58 62q-61 0 -73 -105h-269q4 157 99 238.5t260 81.5q163 0 246.5 -71t83.5 -183q0 -75 -40 -138t-120 -139l-57 -53h221v-211h-701
v37z" />
    <glyph glyph-name="threequarters" unicode="&#xbe;" horiz-adv-x="1744" 
d="M401 668q-183 0 -269 75t-91 205h260q11 -78 82 -78q70 0 70 64q0 59 -84 59h-64v162h64q88 0 88 64q0 55 -64 55q-66 0 -78 -72h-258q11 125 98 200t246 75q158 0 245 -58t87 -162q0 -131 -141 -167q70 -11 114 -56.5t44 -111.5q0 -117 -88 -185.5t-261 -68.5z
M1409 1464h203l-1166 -1464h-204zM1311 143h-389v111l321 528h352v-446h99v-193h-99v-143h-284v143zM1319 336v254l-148 -254h148z" />
    <glyph glyph-name="questiondown" unicode="&#xbf;" horiz-adv-x="1165" 
d="M823 707q0 -45 -13.5 -88.5t-28.5 -72.5t-49 -68.5t-50 -55.5t-57 -55q-46 -42 -68.5 -65t-42.5 -58.5t-20 -69.5q0 -106 108 -106q57 0 93.5 42.5t47.5 120.5h394q-7 -236 -161.5 -363.5t-406.5 -127.5q-246 0 -380 102t-134 293q0 91 36.5 162.5t103.5 138.5
q27 27 76.5 71.5t78.5 71.5t56 64.5t34 71.5v18h383v-26zM631 1249q100 0 168.5 -61.5t68.5 -151.5q0 -91 -68.5 -154t-168.5 -63q-97 0 -165.5 63t-68.5 154q0 90 68.5 151.5t165.5 61.5z" />
    <glyph glyph-name="Agrave" unicode="&#xc0;" horiz-adv-x="1556" 
d="M479 1464h600l459 -1464h-491l-68 244h-463l-65 -244h-433zM604 559h289l-143 531zM434 1855h414l96 -305h-305z" />
    <glyph glyph-name="Aacute" unicode="&#xc1;" horiz-adv-x="1556" 
d="M479 1464h600l459 -1464h-491l-68 244h-463l-65 -244h-433zM604 559h289l-143 531zM709 1855h411l-211 -305h-305z" />
    <glyph glyph-name="Acircumflex" unicode="&#xc2;" horiz-adv-x="1556" 
d="M479 1464h600l459 -1464h-491l-68 244h-463l-65 -244h-433zM604 559h289l-143 531zM610 1855h336l225 -305h-290l-111 97l-111 -97h-284z" />
    <glyph glyph-name="Atilde" unicode="&#xc3;" horiz-adv-x="1556" 
d="M479 1464h600l459 -1464h-491l-68 244h-463l-65 -244h-433zM604 559h289l-143 531zM909 1546q-51 0 -99.5 16.5t-85.5 33t-62 16.5t-41.5 -16.5t-20.5 -45.5h-223q11 163 82.5 245.5t175.5 82.5q63 0 144 -33t110 -33q49 0 59 62h226q-6 -82 -30.5 -146.5t-61.5 -103
t-81 -58.5t-92 -20z" />
    <glyph glyph-name="Adieresis" unicode="&#xc4;" horiz-adv-x="1556" 
d="M479 1464h600l459 -1464h-491l-68 244h-463l-65 -244h-433zM604 559h289l-143 531zM541 1540q-78 0 -132.5 53.5t-54.5 128.5q0 76 54.5 129.5t132.5 53.5q79 0 133.5 -53t54.5 -130q0 -75 -54.5 -128.5t-133.5 -53.5zM1006 1540q-78 0 -132.5 53.5t-54.5 128.5
q0 76 54.5 129.5t132.5 53.5q79 0 133.5 -53t54.5 -130q0 -75 -54.5 -128.5t-133.5 -53.5z" />
    <glyph glyph-name="Aring" unicode="&#xc5;" horiz-adv-x="1556" 
d="M479 1464h600l459 -1464h-491l-68 244h-463l-65 -244h-433zM604 559h289l-143 531zM774 1659q41 0 66.5 28.5t25.5 73.5q0 47 -25.5 75t-66.5 28t-66.5 -28t-25.5 -75q0 -45 25.5 -73.5t66.5 -28.5zM774 1520q-104 0 -177 71t-73 170t73 170.5t177 71.5t177 -71.5
t73 -170.5t-73 -170t-177 -71z" />
    <glyph glyph-name="AE" unicode="&#xc6;" horiz-adv-x="2072" 
d="M655 1464h1321v-356h-563v-207h445v-326h-445v-219h596v-356h-1057v276h-383l-114 -276h-441zM696 584h256v524h-37z" />
    <glyph glyph-name="Ccedilla" unicode="&#xc7;" horiz-adv-x="1564" 
d="M776 -467q-234 0 -270 193h184q12 -54 72 -54q29 0 45 16.5t16 43.5q0 28 -16.5 44.5t-50.5 16.5q-45 0 -66 -24l-82 84l86 129q-317 36 -477 230.5t-160 510.5v16q0 222 99 393.5t271 263t388 91.5q305 0 488.5 -144.5t207.5 -433.5h-479q-22 211 -215 211
q-129 0 -199.5 -97.5t-70.5 -281.5v-16q0 -184 71.5 -281.5t206.5 -97.5q102 0 166 54t76 161h463q-20 -282 -204.5 -432.5t-481.5 -155.5l-45 -63q100 8 166.5 -36.5t66.5 -141.5q0 -93 -69 -146t-187 -53z" />
    <glyph glyph-name="Egrave" unicode="&#xc8;" horiz-adv-x="1269" 
d="M133 1464h1041v-356h-578v-207h459v-326h-459v-219h610v-356h-1073v1464zM330 1855h413l97 -305h-305z" />
    <glyph glyph-name="Eacute" unicode="&#xc9;" horiz-adv-x="1269" 
d="M133 1464h1041v-356h-578v-207h459v-326h-459v-219h610v-356h-1073v1464zM604 1855h412l-211 -305h-305z" />
    <glyph glyph-name="Ecircumflex" unicode="&#xca;" horiz-adv-x="1269" 
d="M133 1464h1041v-356h-578v-207h459v-326h-459v-219h610v-356h-1073v1464zM506 1855h336l225 -305h-291l-110 97l-111 -97h-285z" />
    <glyph glyph-name="Edieresis" unicode="&#xcb;" horiz-adv-x="1269" 
d="M133 1464h1041v-356h-578v-207h459v-326h-459v-219h610v-356h-1073v1464zM436 1540q-78 0 -132 53.5t-54 128.5q0 77 54 130t132 53q79 0 134 -53t55 -130q0 -75 -55 -128.5t-134 -53.5zM901 1540q-78 0 -132 53.5t-54 128.5q0 77 54 130t132 53q79 0 134 -53t55 -130
q0 -75 -55 -128.5t-134 -53.5z" />
    <glyph glyph-name="Igrave" unicode="&#xcc;" horiz-adv-x="749" 
d="M139 1464h469v-1464h-469v1464zM35 1855h414l96 -305h-305z" />
    <glyph glyph-name="Iacute" unicode="&#xcd;" horiz-adv-x="749" 
d="M139 1464h469v-1464h-469v1464zM309 1855h412l-211 -305h-305z" />
    <glyph glyph-name="Icircumflex" unicode="&#xce;" horiz-adv-x="749" 
d="M139 1464h469v-1464h-469v1464zM211 1855h336l225 -305h-291l-110 97l-111 -97h-285z" />
    <glyph glyph-name="Idieresis" unicode="&#xcf;" horiz-adv-x="749" 
d="M139 1464h469v-1464h-469v1464zM141 1540q-78 0 -132 53.5t-54 128.5q0 77 54 130t132 53q79 0 134 -53t55 -130q0 -75 -55 -128.5t-134 -53.5zM606 1540q-78 0 -132 53.5t-54 128.5q0 77 54 130t132 53q79 0 134 -53t55 -130q0 -75 -55 -128.5t-134 -53.5z" />
    <glyph glyph-name="Eth" unicode="&#xd0;" horiz-adv-x="1607" 
d="M59 891h111v573h559q393 0 593 -181.5t200 -532.5v-15q0 -355 -202 -545t-591 -190h-559v582h-111v309zM715 356q171 0 246 88t75 281v16q0 198 -77.5 282.5t-247.5 84.5h-84v-217h213v-309h-213v-226h88z" />
    <glyph glyph-name="Ntilde" unicode="&#xd1;" horiz-adv-x="1611" 
d="M133 1464h520l416 -774v774h408v-1464h-445l-489 877v-877h-410v1464zM981 1546q-51 0 -99.5 16.5t-86 33t-62.5 16.5q-51 0 -61 -62h-223q11 163 82.5 245.5t175.5 82.5q63 0 144 -33t110 -33q49 0 59 62h225q-6 -82 -30.5 -146.5t-61 -103t-80.5 -58.5t-92 -20z" />
    <glyph glyph-name="Ograve" unicode="&#xd2;" horiz-adv-x="1679" 
d="M842 338q138 0 218.5 102t80.5 285v16q0 184 -81 283.5t-222 99.5q-138 0 -217.5 -99t-79.5 -284v-16q0 -187 80 -287t221 -100zM829 -27q-178 0 -323.5 55t-244.5 153.5t-152.5 237t-53.5 304.5v16q0 221 104.5 393t282 263.5t396.5 91.5q227 0 403.5 -86t279.5 -254.5
t103 -394.5v-17q0 -343 -217.5 -552.5t-577.5 -209.5zM498 1855h413l97 -305h-306z" />
    <glyph glyph-name="Oacute" unicode="&#xd3;" horiz-adv-x="1679" 
d="M842 338q138 0 218.5 102t80.5 285v16q0 184 -81 283.5t-222 99.5q-138 0 -217.5 -99t-79.5 -284v-16q0 -187 80 -287t221 -100zM829 -27q-178 0 -323.5 55t-244.5 153.5t-152.5 237t-53.5 304.5v16q0 221 104.5 393t282 263.5t396.5 91.5q227 0 403.5 -86t279.5 -254.5
t103 -394.5v-17q0 -343 -217.5 -552.5t-577.5 -209.5zM772 1855h412l-211 -305h-305z" />
    <glyph glyph-name="Ocircumflex" unicode="&#xd4;" horiz-adv-x="1679" 
d="M842 338q138 0 218.5 102t80.5 285v16q0 184 -81 283.5t-222 99.5q-138 0 -217.5 -99t-79.5 -284v-16q0 -187 80 -287t221 -100zM829 -27q-178 0 -323.5 55t-244.5 153.5t-152.5 237t-53.5 304.5v16q0 221 104.5 393t282 263.5t396.5 91.5q227 0 403.5 -86t279.5 -254.5
t103 -394.5v-17q0 -343 -217.5 -552.5t-577.5 -209.5zM674 1855h336l225 -305h-291l-110 97l-111 -97h-285z" />
    <glyph glyph-name="Otilde" unicode="&#xd5;" horiz-adv-x="1679" 
d="M842 338q138 0 218.5 102t80.5 285v16q0 184 -81 283.5t-222 99.5q-138 0 -217.5 -99t-79.5 -284v-16q0 -187 80 -287t221 -100zM829 -27q-178 0 -323.5 55t-244.5 153.5t-152.5 237t-53.5 304.5v16q0 221 104.5 393t282 263.5t396.5 91.5q227 0 403.5 -86t279.5 -254.5
t103 -394.5v-17q0 -343 -217.5 -552.5t-577.5 -209.5zM973 1546q-67 0 -145 33t-103 33q-51 0 -61 -62h-224q11 163 82.5 245.5t175.5 82.5q63 0 144 -33t110 -33q50 0 60 62h225q-6 -82 -30.5 -146.5t-61 -103t-80.5 -58.5t-92 -20z" />
    <glyph glyph-name="Odieresis" unicode="&#xd6;" horiz-adv-x="1679" 
d="M842 338q138 0 218.5 102t80.5 285v16q0 184 -81 283.5t-222 99.5q-138 0 -217.5 -99t-79.5 -284v-16q0 -187 80 -287t221 -100zM829 -27q-178 0 -323.5 55t-244.5 153.5t-152.5 237t-53.5 304.5v16q0 221 104.5 393t282 263.5t396.5 91.5q227 0 403.5 -86t279.5 -254.5
t103 -394.5v-17q0 -343 -217.5 -552.5t-577.5 -209.5zM604 1540q-78 0 -132 53.5t-54 128.5q0 77 54 130t132 53q79 0 134 -53t55 -130q0 -75 -55 -128.5t-134 -53.5zM1069 1540q-78 0 -132 53.5t-54 128.5q0 77 54 130t132 53q79 0 133.5 -53t54.5 -130q0 -75 -54.5 -128.5
t-133.5 -53.5z" />
    <glyph glyph-name="multiply" unicode="&#xd7;" horiz-adv-x="1206" 
d="M82 379l311 311l-317 316l211 213l315 -320l313 311l209 -209l-311 -311l317 -315l-212 -213l-316 319l-311 -311z" />
    <glyph glyph-name="Oslash" unicode="&#xd8;" horiz-adv-x="1679" 
d="M70 47l159 168q-174 198 -174 508v16q0 220 104.5 391.5t282 263t396.5 91.5q270 0 473 -127l149 160l117 -115l-139 -148q188 -191 188 -503v-17q0 -344 -218 -553t-579 -209q-288 0 -477 133l-166 -174zM840 338q142 0 223.5 102t81.5 287v16q0 97 -25 177l-481 -508
q77 -74 201 -74zM535 725q0 -102 20 -166l473 502q-78 63 -190 63q-142 0 -222.5 -98t-80.5 -285v-16z" />
    <glyph glyph-name="Ugrave" unicode="&#xd9;" horiz-adv-x="1589" 
d="M795 -27q-327 0 -498.5 159t-171.5 472v860h463v-841q0 -151 44 -218t163 -67q118 0 161 66.5t43 220.5v839h467v-856q0 -322 -176.5 -478.5t-494.5 -156.5zM451 1855h413l97 -305h-306z" />
    <glyph glyph-name="Uacute" unicode="&#xda;" horiz-adv-x="1589" 
d="M795 -27q-327 0 -498.5 159t-171.5 472v860h463v-841q0 -151 44 -218t163 -67q118 0 161 66.5t43 220.5v839h467v-856q0 -322 -176.5 -478.5t-494.5 -156.5zM725 1855h412l-211 -305h-305z" />
    <glyph glyph-name="Ucircumflex" unicode="&#xdb;" horiz-adv-x="1589" 
d="M795 -27q-327 0 -498.5 159t-171.5 472v860h463v-841q0 -151 44 -218t163 -67q118 0 161 66.5t43 220.5v839h467v-856q0 -322 -176.5 -478.5t-494.5 -156.5zM627 1855h336l225 -305h-291l-111 97l-110 -97h-285z" />
    <glyph glyph-name="Udieresis" unicode="&#xdc;" horiz-adv-x="1589" 
d="M795 -27q-327 0 -498.5 159t-171.5 472v860h463v-841q0 -151 44 -218t163 -67q118 0 161 66.5t43 220.5v839h467v-856q0 -322 -176.5 -478.5t-494.5 -156.5zM557 1540q-78 0 -132 53.5t-54 128.5q0 77 54 130t132 53q79 0 133.5 -53t54.5 -130q0 -75 -54.5 -128.5
t-133.5 -53.5zM1022 1540q-78 0 -132 53.5t-54 128.5q0 77 54 130t132 53q79 0 133.5 -53t54.5 -130q0 -75 -54.5 -128.5t-133.5 -53.5z" />
    <glyph glyph-name="Yacute" unicode="&#xdd;" horiz-adv-x="1417" 
d="M485 625l-475 839h504l223 -458l226 458h444l-455 -837v-627h-467v625zM657 1855h412l-211 -305h-305z" />
    <glyph glyph-name="Thorn" unicode="&#xde;" horiz-adv-x="1359" 
d="M133 1464h463v-233h121q314 0 458 -118t144 -361v-9q0 -230 -148.5 -353.5t-433.5 -123.5h-141v-266h-463v1464zM692 578q187 0 187 163v9q0 83 -45 119t-140 36h-98v-327h96z" />
    <glyph glyph-name="germandbls" unicode="&#xdf;" horiz-adv-x="1318" 
d="M797 -20q-117 0 -199 20v301q46 -16 88 -16q182 0 182 225v12q0 133 -67 182.5t-195 49.5v280q86 1 130 43.5t44 102.5v4q0 62 -35 97.5t-100 35.5q-68 0 -106.5 -45.5t-38.5 -130.5v-1141h-404v1106q0 100 30 180t82 134t125.5 89.5t157 51.5t179.5 16q232 0 361.5 -95
t129.5 -280v-4q0 -105 -66 -179t-175 -106q74 -18 136 -50t113 -82t80 -123.5t29 -163.5v-15q0 -241 -131 -370t-350 -129z" />
    <glyph glyph-name="agrave" unicode="&#xe0;" horiz-adv-x="1198" 
d="M406 -27q-75 0 -139 19t-115.5 57t-81 101.5t-29.5 146.5q0 184 144 267t431 83h93v19q0 78 -25 116.5t-100 38.5q-63 0 -92.5 -32.5t-34.5 -81.5h-377q12 193 152.5 294t375.5 101q239 0 369.5 -102t130.5 -308v-692h-389v123q-36 -64 -114.5 -107t-198.5 -43zM551 244
q70 0 114 36t44 95v55h-86q-103 0 -144 -22.5t-41 -79.5q0 -39 29 -61.5t84 -22.5zM256 1530h395l107 -346h-289z" />
    <glyph glyph-name="aacute" unicode="&#xe1;" horiz-adv-x="1198" 
d="M406 -27q-75 0 -139 19t-115.5 57t-81 101.5t-29.5 146.5q0 184 144 267t431 83h93v19q0 78 -25 116.5t-100 38.5q-63 0 -92.5 -32.5t-34.5 -81.5h-377q12 193 152.5 294t375.5 101q239 0 369.5 -102t130.5 -308v-692h-389v123q-36 -64 -114.5 -107t-198.5 -43zM551 244
q70 0 114 36t44 95v55h-86q-103 0 -144 -22.5t-41 -79.5q0 -39 29 -61.5t84 -22.5zM557 1530h395l-213 -346h-288z" />
    <glyph glyph-name="acircumflex" unicode="&#xe2;" horiz-adv-x="1198" 
d="M406 -27q-75 0 -139 19t-115.5 57t-81 101.5t-29.5 146.5q0 184 144 267t431 83h93v19q0 78 -25 116.5t-100 38.5q-63 0 -92.5 -32.5t-34.5 -81.5h-377q12 193 152.5 294t375.5 101q239 0 369.5 -102t130.5 -308v-692h-389v123q-36 -64 -114.5 -107t-198.5 -43zM551 244
q70 0 114 36t44 95v55h-86q-103 0 -144 -22.5t-41 -79.5q0 -39 29 -61.5t84 -22.5zM461 1528h282l246 -340h-280l-115 108l-115 -108h-274z" />
    <glyph glyph-name="atilde" unicode="&#xe3;" horiz-adv-x="1198" 
d="M406 -27q-75 0 -139 19t-115.5 57t-81 101.5t-29.5 146.5q0 184 144 267t431 83h93v19q0 78 -25 116.5t-100 38.5q-63 0 -92.5 -32.5t-34.5 -81.5h-377q12 193 152.5 294t375.5 101q239 0 369.5 -102t130.5 -308v-692h-389v123q-36 -64 -114.5 -107t-198.5 -43zM551 244
q70 0 114 36t44 95v55h-86q-103 0 -144 -22.5t-41 -79.5q0 -39 29 -61.5t84 -22.5zM739 1190q-51 0 -98.5 16.5t-83.5 32.5t-59 16q-24 0 -40.5 -17t-21.5 -44h-213q10 165 75 248.5t167 83.5q62 0 141 -33t107 -33q52 0 61 64h213q-12 -164 -80 -249t-168 -85z" />
    <glyph glyph-name="adieresis" unicode="&#xe4;" horiz-adv-x="1198" 
d="M406 -27q-75 0 -139 19t-115.5 57t-81 101.5t-29.5 146.5q0 184 144 267t431 83h93v19q0 78 -25 116.5t-100 38.5q-63 0 -92.5 -32.5t-34.5 -81.5h-377q12 193 152.5 294t375.5 101q239 0 369.5 -102t130.5 -308v-692h-389v123q-36 -64 -114.5 -107t-198.5 -43zM551 244
q70 0 114 36t44 95v55h-86q-103 0 -144 -22.5t-41 -79.5q0 -39 29 -61.5t84 -22.5zM381 1167q-78 0 -132 54t-54 129t54 128.5t132 53.5q79 0 133.5 -53.5t54.5 -128.5q0 -76 -54.5 -129.5t-133.5 -53.5zM825 1167q-77 0 -130.5 53.5t-53.5 129.5t53.5 129t130.5 53
q79 0 134 -53.5t55 -128.5t-55 -129t-134 -54z" />
    <glyph glyph-name="aring" unicode="&#xe5;" horiz-adv-x="1198" 
d="M406 -27q-75 0 -139 19t-115.5 57t-81 101.5t-29.5 146.5q0 184 144 267t431 83h93v19q0 78 -25 116.5t-100 38.5q-63 0 -92.5 -32.5t-34.5 -81.5h-377q12 193 152.5 294t375.5 101q239 0 369.5 -102t130.5 -308v-692h-389v123q-36 -64 -114.5 -107t-198.5 -43zM551 244
q70 0 114 36t44 95v55h-86q-103 0 -144 -22.5t-41 -79.5q0 -39 29 -61.5t84 -22.5zM604 1315q41 0 65.5 27.5t24.5 70.5q0 45 -24.5 72.5t-65.5 27.5t-65.5 -27.5t-24.5 -72.5q0 -43 24.5 -70.5t65.5 -27.5zM604 1176q-101 0 -173.5 69.5t-72.5 167.5t72.5 169t173.5 71
t173.5 -71t72.5 -169t-72.5 -167.5t-173.5 -69.5z" />
    <glyph glyph-name="ae" unicode="&#xe6;" horiz-adv-x="1869" 
d="M1282 -27q-290 0 -422 181q-66 -89 -165 -135t-251 -46q-86 0 -158 19t-128 57t-87.5 101.5t-31.5 146.5q0 185 144 270.5t429 85.5h101v13q0 77 -27.5 116t-101.5 39q-65 0 -93.5 -29.5t-35.5 -84.5h-377q12 192 151.5 293.5t368.5 101.5q241 0 340 -117
q132 117 338 117q115 0 212.5 -33t174.5 -99t120.5 -175t43.5 -250v-96h-731q15 -201 192 -201q80 0 117 30t49 84h373q-23 -188 -161.5 -288.5t-383.5 -100.5zM1440 653q-9 189 -164 189q-74 0 -121 -49t-57 -140h342zM551 244q75 0 118.5 35.5t43.5 95.5v67h-95
q-97 0 -139.5 -23t-42.5 -81q0 -94 115 -94z" />
    <glyph glyph-name="ccedilla" unicode="&#xe7;" horiz-adv-x="1200" 
d="M573 -467q-234 0 -270 193h184q12 -54 72 -54q29 0 45.5 16.5t16.5 43.5q0 28 -17 44.5t-51 16.5q-45 0 -66 -24l-81 84l86 131q-204 30 -325.5 168t-121.5 368v17q0 177 78.5 306.5t208.5 193t293 63.5q105 0 194.5 -24t164.5 -75t122 -140.5t55 -211.5h-379
q-11 71 -44 106.5t-103 35.5q-180 0 -180 -246v-17q0 -133 44.5 -197.5t141.5 -64.5q70 0 113.5 42.5t50.5 119.5h362q-8 -208 -141.5 -328.5t-384.5 -126.5l-45 -63q100 8 166.5 -36.5t66.5 -141.5q0 -93 -69 -146t-187 -53z" />
    <glyph glyph-name="egrave" unicode="&#xe8;" horiz-adv-x="1236" 
d="M637 -27q-173 0 -306 62.5t-210.5 188t-77.5 298.5v17q0 128 46.5 235t127.5 178t189 110.5t231 39.5q115 0 214 -33.5t176.5 -100t122 -175t44.5 -248.5v-99h-743q7 -97 59.5 -147.5t140.5 -50.5q143 0 168 114h377q-25 -189 -165.5 -289t-393.5 -100zM805 657
q-10 185 -168 185q-75 0 -123.5 -47t-60.5 -138h352zM279 1530h395l106 -346h-288z" />
    <glyph glyph-name="eacute" unicode="&#xe9;" horiz-adv-x="1236" 
d="M637 -27q-173 0 -306 62.5t-210.5 188t-77.5 298.5v17q0 128 46.5 235t127.5 178t189 110.5t231 39.5q115 0 214 -33.5t176.5 -100t122 -175t44.5 -248.5v-99h-743q7 -97 59.5 -147.5t140.5 -50.5q143 0 168 114h377q-25 -189 -165.5 -289t-393.5 -100zM805 657
q-10 185 -168 185q-75 0 -123.5 -47t-60.5 -138h352zM580 1530h395l-213 -346h-289z" />
    <glyph glyph-name="ecircumflex" unicode="&#xea;" horiz-adv-x="1236" 
d="M637 -27q-173 0 -306 62.5t-210.5 188t-77.5 298.5v17q0 128 46.5 235t127.5 178t189 110.5t231 39.5q115 0 214 -33.5t176.5 -100t122 -175t44.5 -248.5v-99h-743q7 -97 59.5 -147.5t140.5 -50.5q143 0 168 114h377q-25 -189 -165.5 -289t-393.5 -100zM805 657
q-10 185 -168 185q-75 0 -123.5 -47t-60.5 -138h352zM489 1528h283l246 -340h-281l-114 108l-115 -108h-275z" />
    <glyph glyph-name="edieresis" unicode="&#xeb;" horiz-adv-x="1236" 
d="M637 -27q-173 0 -306 62.5t-210.5 188t-77.5 298.5v17q0 128 46.5 235t127.5 178t189 110.5t231 39.5q115 0 214 -33.5t176.5 -100t122 -175t44.5 -248.5v-99h-743q7 -97 59.5 -147.5t140.5 -50.5q143 0 168 114h377q-25 -189 -165.5 -289t-393.5 -100zM805 657
q-10 185 -168 185q-75 0 -123.5 -47t-60.5 -138h352zM403 1167q-78 0 -132 54t-54 129t54 128.5t132 53.5q79 0 134 -53.5t55 -128.5t-55 -129t-134 -54zM848 1167q-77 0 -130.5 53.5t-53.5 129.5t53 129t131 53q79 0 133.5 -53.5t54.5 -128.5q0 -76 -54.5 -129.5
t-133.5 -53.5z" />
    <glyph glyph-name="igrave" unicode="&#xec;" horiz-adv-x="620" 
d="M109 1071h401v-1071h-401v1071zM-37 1530h395l107 -346h-289z" />
    <glyph glyph-name="iacute" unicode="&#xed;" horiz-adv-x="620" 
d="M109 1071h401v-1071h-401v1071zM264 1530h395l-213 -346h-288z" />
    <glyph glyph-name="icircumflex" unicode="&#xee;" horiz-adv-x="620" 
d="M109 1071h401v-1071h-401v1071zM174 1528h283l245 -340h-280l-115 108l-114 -108h-275z" />
    <glyph glyph-name="idieresis" unicode="&#xef;" horiz-adv-x="620" 
d="M88 1167q-78 0 -132 54t-54 129t54 128.5t132 53.5q79 0 133.5 -53.5t54.5 -128.5q0 -76 -54.5 -129.5t-133.5 -53.5zM528 1167q-77 0 -130.5 53.5t-53.5 129.5t53 129t131 53q79 0 134 -53.5t55 -128.5t-55 -129t-134 -54zM109 1071h401v-1071h-401v1071z" />
    <glyph glyph-name="eth" unicode="&#xf0;" horiz-adv-x="1284" 
d="M207 1266l227 75q-103 87 -250 193h455q51 -30 123 -82l227 78l47 -127l-149 -51q350 -319 350 -727v-45q0 -281 -163.5 -444t-440.5 -163q-169 0 -301 64.5t-210.5 194.5t-78.5 309v24q0 98 27.5 182.5t74 145t107 104.5t128 65t136.5 21q74 0 121 -20.5t94 -67.5
q-61 119 -184 242l-293 -98zM643 270q91 0 137.5 66t46.5 192v17q0 258 -184 258q-188 0 -188 -252v-16q0 -265 188 -265z" />
    <glyph glyph-name="ntilde" unicode="&#xf1;" horiz-adv-x="1288" 
d="M96 1071h404v-172q47 92 136 146.5t218 54.5q158 0 251 -100.5t93 -294.5v-705h-403v614q0 83 -32.5 123.5t-103.5 40.5q-159 0 -159 -186v-592h-404v1071zM780 1190q-51 0 -98.5 16.5t-83.5 32.5t-59 16q-24 0 -40.5 -17t-21.5 -44h-213q10 165 75 248.5t167 83.5
q62 0 141 -33t107 -33q52 0 61 64h213q-12 -164 -80 -249t-168 -85z" />
    <glyph glyph-name="ograve" unicode="&#xf2;" horiz-adv-x="1282" 
d="M643 270q184 0 184 260v15q0 258 -184 258q-190 0 -190 -252v-16q0 -265 190 -265zM641 -27q-126 0 -234 37t-189 105t-127 173t-46 234v17q0 128 46 234t126 177.5t190 110.5t236 39q168 0 302 -65t213 -191.5t79 -294.5v-17q0 -171 -79.5 -299.5t-214 -194
t-302.5 -65.5zM291 1530h395l107 -346h-289z" />
    <glyph glyph-name="oacute" unicode="&#xf3;" horiz-adv-x="1282" 
d="M643 270q184 0 184 260v15q0 258 -184 258q-190 0 -190 -252v-16q0 -265 190 -265zM641 -27q-126 0 -234 37t-189 105t-127 173t-46 234v17q0 128 46 234t126 177.5t190 110.5t236 39q168 0 302 -65t213 -191.5t79 -294.5v-17q0 -171 -79.5 -299.5t-214 -194
t-302.5 -65.5zM592 1530h395l-213 -346h-289z" />
    <glyph glyph-name="ocircumflex" unicode="&#xf4;" horiz-adv-x="1282" 
d="M643 270q184 0 184 260v15q0 258 -184 258q-190 0 -190 -252v-16q0 -265 190 -265zM641 -27q-126 0 -234 37t-189 105t-127 173t-46 234v17q0 128 46 234t126 177.5t190 110.5t236 39q168 0 302 -65t213 -191.5t79 -294.5v-17q0 -171 -79.5 -299.5t-214 -194
t-302.5 -65.5zM502 1528h282l246 -340h-280l-115 108l-115 -108h-274z" />
    <glyph glyph-name="otilde" unicode="&#xf5;" horiz-adv-x="1282" 
d="M643 270q184 0 184 260v15q0 258 -184 258q-190 0 -190 -252v-16q0 -265 190 -265zM641 -27q-126 0 -234 37t-189 105t-127 173t-46 234v17q0 128 46 234t126 177.5t190 110.5t236 39q168 0 302 -65t213 -191.5t79 -294.5v-17q0 -171 -79.5 -299.5t-214 -194
t-302.5 -65.5zM774 1190q-51 0 -99 16.5t-84 32.5t-59 16q-24 0 -40 -17t-21 -44h-213q10 165 75 248.5t167 83.5q62 0 141 -33t107 -33q52 0 61 64h213q-12 -164 -80 -249t-168 -85z" />
    <glyph glyph-name="odieresis" unicode="&#xf6;" horiz-adv-x="1282" 
d="M643 270q184 0 184 260v15q0 258 -184 258q-190 0 -190 -252v-16q0 -265 190 -265zM641 -27q-126 0 -234 37t-189 105t-127 173t-46 234v17q0 128 46 234t126 177.5t190 110.5t236 39q168 0 302 -65t213 -191.5t79 -294.5v-17q0 -171 -79.5 -299.5t-214 -194
t-302.5 -65.5zM416 1167q-78 0 -132.5 54t-54.5 129t54.5 128.5t132.5 53.5q79 0 133.5 -53.5t54.5 -128.5q0 -76 -54.5 -129.5t-133.5 -53.5zM860 1167q-77 0 -130.5 53.5t-53.5 129.5t53 129t131 53q79 0 134 -53.5t55 -128.5t-55 -129t-134 -54z" />
    <glyph glyph-name="divide" unicode="&#xf7;" horiz-adv-x="1191" 
d="M596 70q-87 0 -146 57t-59 143q0 83 60 141t145 58t145 -58t60 -141q0 -86 -59 -143t-146 -57zM78 834h1038v-275h-1038v275zM596 922q-85 0 -145 57.5t-60 140.5q0 86 59 143.5t146 57.5t146 -57.5t59 -143.5q0 -83 -60 -140.5t-145 -57.5z" />
    <glyph glyph-name="oslash" unicode="&#xf8;" horiz-adv-x="1282" 
d="M45 14l131 140q-133 146 -133 368v17q0 171 79.5 300t215 196t305.5 67q196 0 342 -88l133 141l103 -94l-127 -135q143 -146 143 -377v-17q0 -171 -79.5 -299.5t-214 -194t-302.5 -65.5q-209 0 -354 93l-137 -146zM643 268q191 0 191 260v17q0 47 -9 94l-307 -328
q46 -43 125 -43zM449 535q0 -45 6 -86l301 321q-47 35 -113 35q-194 0 -194 -254v-16z" />
    <glyph glyph-name="ugrave" unicode="&#xf9;" horiz-adv-x="1286" 
d="M446 -27q-160 0 -259 101.5t-99 294.5v702h404v-633q0 -83 32 -123.5t103 -40.5q159 0 159 187v610h404v-1071h-404v166q-99 -193 -340 -193zM291 1530h395l107 -346h-289z" />
    <glyph glyph-name="uacute" unicode="&#xfa;" horiz-adv-x="1286" 
d="M446 -27q-160 0 -259 101.5t-99 294.5v702h404v-633q0 -83 32 -123.5t103 -40.5q159 0 159 187v610h404v-1071h-404v166q-99 -193 -340 -193zM592 1530h395l-213 -346h-289z" />
    <glyph glyph-name="ucircumflex" unicode="&#xfb;" horiz-adv-x="1286" 
d="M446 -27q-160 0 -259 101.5t-99 294.5v702h404v-633q0 -83 32 -123.5t103 -40.5q159 0 159 187v610h404v-1071h-404v166q-99 -193 -340 -193zM502 1528h282l246 -340h-280l-115 108l-115 -108h-274z" />
    <glyph glyph-name="udieresis" unicode="&#xfc;" horiz-adv-x="1286" 
d="M446 -27q-160 0 -259 101.5t-99 294.5v702h404v-633q0 -83 32 -123.5t103 -40.5q159 0 159 187v610h404v-1071h-404v166q-99 -193 -340 -193zM416 1167q-78 0 -132.5 54t-54.5 129t54.5 128.5t132.5 53.5q79 0 133.5 -53.5t54.5 -128.5q0 -76 -54.5 -129.5t-133.5 -53.5z
M860 1167q-77 0 -130.5 53.5t-53.5 129.5t53 129t131 53q79 0 134 -53.5t55 -128.5t-55 -129t-134 -54z" />
    <glyph glyph-name="yacute" unicode="&#xfd;" 
d="M438 106l-428 965h436l203 -534l189 534h381l-572 -1427h-383zM590 1530h395l-213 -346h-289z" />
    <glyph glyph-name="thorn" unicode="&#xfe;" horiz-adv-x="1323" 
d="M96 1536h404v-621q49 83 130.5 134t196.5 51q93 0 173.5 -35t142.5 -102t97.5 -175t35.5 -245v-17q0 -137 -35.5 -244t-98 -173.5t-143 -101t-174.5 -34.5q-114 0 -198 49.5t-127 131.5v-510h-404v1892zM678 281q92 0 140 63t48 186v17q0 254 -190 254q-91 0 -139 -65.5
t-48 -188.5v-17q0 -249 189 -249z" />
    <glyph glyph-name="ydieresis" unicode="&#xff;" 
d="M438 106l-428 965h436l203 -534l189 534h381l-572 -1427h-383zM414 1167q-78 0 -132.5 54t-54.5 129t54.5 128.5t132.5 53.5q79 0 133.5 -53.5t54.5 -128.5q0 -76 -54.5 -129.5t-133.5 -53.5zM858 1167q-77 0 -130.5 53.5t-53.5 129.5t53 129t131 53q79 0 134 -53.5
t55 -128.5t-55 -129t-134 -54z" />
    <glyph glyph-name="Amacron" unicode="&#x100;" horiz-adv-x="1556" 
d="M479 1464h600l459 -1464h-491l-68 244h-463l-65 -244h-433zM604 559h289l-143 531zM432 1810h682v-235h-682v235z" />
    <glyph glyph-name="amacron" unicode="&#x101;" horiz-adv-x="1198" 
d="M406 -27q-75 0 -139 19t-115.5 57t-81 101.5t-29.5 146.5q0 184 144 267t431 83h93v19q0 78 -25 116.5t-100 38.5q-63 0 -92.5 -32.5t-34.5 -81.5h-377q12 193 152.5 294t375.5 101q239 0 369.5 -102t130.5 -308v-692h-389v123q-36 -64 -114.5 -107t-198.5 -43zM551 244
q70 0 114 36t44 95v55h-86q-103 0 -144 -22.5t-41 -79.5q0 -39 29 -61.5t84 -22.5zM281 1458h647v-219h-647v219z" />
    <glyph glyph-name="Abreve" unicode="&#x102;" horiz-adv-x="1556" 
d="M479 1464h600l459 -1464h-491l-68 244h-463l-65 -244h-433zM604 559h289l-143 531zM774 1534q-159 0 -249 83.5t-101 237.5h254q9 -86 96 -86q41 0 66 23.5t30 62.5h254q-10 -153 -102.5 -237t-247.5 -84z" />
    <glyph glyph-name="abreve" unicode="&#x103;" horiz-adv-x="1198" 
d="M406 -27q-75 0 -139 19t-115.5 57t-81 101.5t-29.5 146.5q0 184 144 267t431 83h93v19q0 78 -25 116.5t-100 38.5q-63 0 -92.5 -32.5t-34.5 -81.5h-377q12 193 152.5 294t375.5 101q239 0 369.5 -102t130.5 -308v-692h-389v123q-36 -64 -114.5 -107t-198.5 -43zM551 244
q70 0 114 36t44 95v55h-86q-103 0 -144 -22.5t-41 -79.5q0 -39 29 -61.5t84 -22.5zM604 1190q-157 0 -248 86t-98 248h244q10 -92 102 -92q44 0 72.5 24.5t32.5 67.5h241q-10 -161 -102.5 -247.5t-243.5 -86.5z" />
    <glyph glyph-name="Aogonek" unicode="&#x104;" horiz-adv-x="1556" 
d="M1323 -373q-123 0 -192.5 45t-69.5 123q0 67 49.5 115.5t128.5 89.5h-192l-68 244h-463l-65 -244h-433l461 1464h600l449 -1433q-57 -30 -89 -71t-32 -73q0 -49 57 -49q36 0 52 8v-184q-68 -35 -193 -35zM604 559h289l-143 531z" />
    <glyph glyph-name="aogonek" unicode="&#x105;" horiz-adv-x="1198" 
d="M922 -373q-113 0 -178.5 44t-65.5 122q0 39 14.5 71t44 57.5t55 41.5t66.5 37h-139v123q-36 -64 -114.5 -107t-198.5 -43q-75 0 -139 19t-115.5 57t-81 101.5t-29.5 146.5q0 184 144 267t431 83h93v19q0 78 -25 116.5t-100 38.5q-63 0 -92.5 -32.5t-34.5 -81.5h-377
q12 193 152.5 294t375.5 101q239 0 369.5 -102t130.5 -308v-667q-107 -79 -107 -146q0 -53 60 -53q34 0 53 8v-172q-76 -35 -192 -35zM551 244q70 0 114 36t44 95v55h-86q-103 0 -144 -22.5t-41 -79.5q0 -39 29 -61.5t84 -22.5z" />
    <glyph glyph-name="Cacute" unicode="&#x106;" horiz-adv-x="1564" 
d="M836 -27q-195 0 -344.5 53.5t-244 153t-142.5 236.5t-48 307v16q0 222 99 393.5t271 263t388 91.5q305 0 488.5 -144.5t207.5 -433.5h-479q-22 211 -215 211q-129 0 -199.5 -97.5t-70.5 -281.5v-16q0 -184 71.5 -281.5t206.5 -97.5q102 0 166 54t76 161h463
q-13 -189 -105 -322.5t-242.5 -199.5t-346.5 -66zM745 1855h412l-211 -305h-305z" />
    <glyph glyph-name="cacute" unicode="&#x107;" horiz-adv-x="1200" 
d="M614 -27q-121 0 -223.5 34.5t-180 101t-121.5 172t-44 239.5v17q0 177 78.5 306.5t208.5 193t293 63.5q105 0 194.5 -24t164.5 -75t122 -140.5t55 -211.5h-379q-11 71 -44 106.5t-103 35.5q-180 0 -180 -246v-17q0 -133 44.5 -197.5t141.5 -64.5q70 0 113.5 42.5
t50.5 119.5h362q-8 -214 -148.5 -334.5t-404.5 -120.5zM565 1530h396l-213 -346h-289z" />
    <glyph glyph-name="Ccircumflex" unicode="&#x108;" horiz-adv-x="1564" 
d="M836 -27q-195 0 -344.5 53.5t-244 153t-142.5 236.5t-48 307v16q0 222 99 393.5t271 263t388 91.5q305 0 488.5 -144.5t207.5 -433.5h-479q-22 211 -215 211q-129 0 -199.5 -97.5t-70.5 -281.5v-16q0 -184 71.5 -281.5t206.5 -97.5q102 0 166 54t76 161h463
q-13 -189 -105 -322.5t-242.5 -199.5t-346.5 -66zM647 1855h336l225 -305h-290l-111 97l-111 -97h-284z" />
    <glyph glyph-name="ccircumflex" unicode="&#x109;" horiz-adv-x="1200" 
d="M614 -27q-121 0 -223.5 34.5t-180 101t-121.5 172t-44 239.5v17q0 177 78.5 306.5t208.5 193t293 63.5q105 0 194.5 -24t164.5 -75t122 -140.5t55 -211.5h-379q-11 71 -44 106.5t-103 35.5q-180 0 -180 -246v-17q0 -133 44.5 -197.5t141.5 -64.5q70 0 113.5 42.5
t50.5 119.5h362q-8 -214 -148.5 -334.5t-404.5 -120.5zM477 1528h283l246 -340h-281l-115 108l-114 -108h-275z" />
    <glyph glyph-name="Cdotaccent" unicode="&#x10a;" horiz-adv-x="1564" 
d="M836 -27q-195 0 -344.5 53.5t-244 153t-142.5 236.5t-48 307v16q0 222 99 393.5t271 263t388 91.5q305 0 488.5 -144.5t207.5 -433.5h-479q-22 211 -215 211q-129 0 -199.5 -97.5t-70.5 -281.5v-16q0 -184 71.5 -281.5t206.5 -97.5q102 0 166 54t76 161h463
q-13 -189 -105 -322.5t-242.5 -199.5t-346.5 -66zM811 1540q-92 0 -151.5 55t-59.5 140q0 86 59.5 141t151.5 55q91 0 150 -55t59 -141q0 -85 -59 -140t-150 -55z" />
    <glyph glyph-name="cdotaccent" unicode="&#x10b;" horiz-adv-x="1200" 
d="M614 -27q-121 0 -223.5 34.5t-180 101t-121.5 172t-44 239.5v17q0 177 78.5 306.5t208.5 193t293 63.5q105 0 194.5 -24t164.5 -75t122 -140.5t55 -211.5h-379q-11 71 -44 106.5t-103 35.5q-180 0 -180 -246v-17q0 -133 44.5 -197.5t141.5 -64.5q70 0 113.5 42.5
t50.5 119.5h362q-8 -214 -148.5 -334.5t-404.5 -120.5zM621 1167q-93 0 -152 54.5t-59 140.5t59.5 141.5t151.5 55.5q91 0 150.5 -55.5t59.5 -141.5t-59.5 -140.5t-150.5 -54.5z" />
    <glyph glyph-name="Ccaron" unicode="&#x10c;" horiz-adv-x="1564" 
d="M836 -27q-195 0 -344.5 53.5t-244 153t-142.5 236.5t-48 307v16q0 222 99 393.5t271 263t388 91.5q305 0 488.5 -144.5t207.5 -433.5h-479q-22 211 -215 211q-129 0 -199.5 -97.5t-70.5 -281.5v-16q0 -184 71.5 -281.5t206.5 -97.5q102 0 166 54t76 161h463
q-13 -189 -105 -322.5t-242.5 -199.5t-346.5 -66zM410 1855h290l111 -96l111 96h284l-235 -305h-336z" />
    <glyph glyph-name="ccaron" unicode="&#x10d;" horiz-adv-x="1200" 
d="M614 -27q-121 0 -223.5 34.5t-180 101t-121.5 172t-44 239.5v17q0 177 78.5 306.5t208.5 193t293 63.5q105 0 194.5 -24t164.5 -75t122 -140.5t55 -211.5h-379q-11 71 -44 106.5t-103 35.5q-180 0 -180 -246v-17q0 -133 44.5 -197.5t141.5 -64.5q70 0 113.5 42.5
t50.5 119.5h362q-8 -214 -148.5 -334.5t-404.5 -120.5zM221 1528h281l114 -107l115 107h275l-256 -340h-283z" />
    <glyph glyph-name="Dcaron" unicode="&#x10e;" horiz-adv-x="1538" 
d="M676 356q171 0 247 88t76 281v16q0 198 -77.5 282.5t-247.5 84.5h-76v-752h78zM133 1464h559q393 0 592 -181t199 -533v-15q0 -354 -202.5 -544.5t-588.5 -190.5h-559v1464zM295 1855h291l110 -96l111 96h285l-236 -305h-336z" />
    <glyph glyph-name="dcaron" unicode="&#x10f;" horiz-adv-x="1320" 
d="M494 -27q-92 0 -171.5 34t-141.5 99.5t-98 173t-36 244.5v17q0 136 35.5 244t97 176t141.5 103.5t173 35.5q232 0 327 -176v612h404v-1536h-404v172q-44 -90 -127 -144.5t-200 -54.5zM643 281q188 0 188 251v17q0 123 -47 187.5t-139 64.5q-188 0 -188 -254v-17
q0 -249 186 -249zM1311 1536h286l-102 -358h-201z" />
    <glyph glyph-name="Dcroat" unicode="&#x110;" horiz-adv-x="1607" 
d="M59 891h111v573h559q393 0 593 -181.5t200 -532.5v-15q0 -355 -202 -545t-591 -190h-559v582h-111v309zM715 356q171 0 246 88t75 281v16q0 198 -77.5 282.5t-247.5 84.5h-84v-217h213v-309h-213v-226h88z" />
    <glyph glyph-name="dcroat" unicode="&#x111;" horiz-adv-x="1320" 
d="M512 1401h309v135h404v-135h108v-211h-108v-1190h-404v172q-44 -90 -127 -144.5t-200 -54.5q-92 0 -171.5 34t-141.5 99.5t-98 173t-36 244.5v17q0 136 35.5 244t97 176t141.5 103.5t173 35.5q232 0 327 -176v266h-309v211zM643 281q188 0 188 251v17q0 123 -47 187.5
t-139 64.5q-188 0 -188 -254v-17q0 -249 186 -249z" />
    <glyph glyph-name="Emacron" unicode="&#x112;" horiz-adv-x="1269" 
d="M133 1464h1041v-356h-578v-207h459v-326h-459v-219h610v-356h-1073v1464zM328 1810h682v-235h-682v235z" />
    <glyph glyph-name="emacron" unicode="&#x113;" horiz-adv-x="1236" 
d="M637 -27q-173 0 -306 62.5t-210.5 188t-77.5 298.5v17q0 128 46.5 235t127.5 178t189 110.5t231 39.5q115 0 214 -33.5t176.5 -100t122 -175t44.5 -248.5v-99h-743q7 -97 59.5 -147.5t140.5 -50.5q143 0 168 114h377q-25 -189 -165.5 -289t-393.5 -100zM805 657
q-10 185 -168 185q-75 0 -123.5 -47t-60.5 -138h352zM303 1458h647v-219h-647v219z" />
    <glyph glyph-name="Ebreve" unicode="&#x114;" horiz-adv-x="1269" 
d="M133 1464h1041v-356h-578v-207h459v-326h-459v-219h610v-356h-1073v1464zM666 1534q-159 0 -249.5 83.5t-101.5 237.5h254q5 -41 29.5 -63.5t67.5 -22.5q41 0 66 23.5t30 62.5h254q-10 -153 -102.5 -237t-247.5 -84z" />
    <glyph glyph-name="ebreve" unicode="&#x115;" horiz-adv-x="1236" 
d="M637 -27q-173 0 -306 62.5t-210.5 188t-77.5 298.5v17q0 128 46.5 235t127.5 178t189 110.5t231 39.5q115 0 214 -33.5t176.5 -100t122 -175t44.5 -248.5v-99h-743q7 -97 59.5 -147.5t140.5 -50.5q143 0 168 114h377q-25 -189 -165.5 -289t-393.5 -100zM805 657
q-10 185 -168 185q-75 0 -123.5 -47t-60.5 -138h352zM616 1190q-157 0 -248 86t-98 248h244q10 -92 102 -92q44 0 72.5 24.5t32.5 67.5h242q-10 -161 -103 -247.5t-244 -86.5z" />
    <glyph glyph-name="Edotaccent" unicode="&#x116;" horiz-adv-x="1269" 
d="M133 1464h1041v-356h-578v-207h459v-326h-459v-219h610v-356h-1073v1464zM670 1540q-92 0 -151.5 55t-59.5 140q0 86 59.5 141t151.5 55q91 0 150 -55t59 -141q0 -85 -59 -140t-150 -55z" />
    <glyph glyph-name="edotaccent" unicode="&#x117;" horiz-adv-x="1236" 
d="M637 -27q-173 0 -306 62.5t-210.5 188t-77.5 298.5v17q0 128 46.5 235t127.5 178t189 110.5t231 39.5q115 0 214 -33.5t176.5 -100t122 -175t44.5 -248.5v-99h-743q7 -97 59.5 -147.5t140.5 -50.5q143 0 168 114h377q-25 -189 -165.5 -289t-393.5 -100zM805 657
q-10 185 -168 185q-75 0 -123.5 -47t-60.5 -138h352zM629 1167q-93 0 -152 54.5t-59 140.5t59.5 141.5t151.5 55.5q91 0 151 -55.5t60 -141.5t-60 -140.5t-151 -54.5z" />
    <glyph glyph-name="Eogonek" unicode="&#x118;" horiz-adv-x="1269" 
d="M963 -373q-121 0 -188.5 45t-67.5 123q0 67 48 114.5t128 90.5h-750v1464h1041v-356h-578v-207h459v-326h-459v-219h610v-356h-82q-39 -34 -56 -59.5t-17 -53.5q0 -49 57 -49q34 0 53 8v-184q-76 -35 -198 -35z" />
    <glyph glyph-name="eogonek" unicode="&#x119;" horiz-adv-x="1236" 
d="M836 -373q-114 0 -181 42.5t-67 119.5q0 31 14 59t43.5 53.5t52.5 41.5t64 41q-64 -11 -125 -11q-173 0 -306 62.5t-210.5 188t-77.5 298.5v17q0 128 46.5 235t127.5 178t189 110.5t231 39.5q115 0 214 -33.5t176.5 -100t122 -175t44.5 -248.5v-99h-743
q7 -97 59.5 -147.5t140.5 -50.5q143 0 168 114h377q-18 -149 -139 -274q-48 -49 -62.5 -64.5t-41 -47.5t-34.5 -53t-8 -44q0 -53 60 -53q34 0 53 8v-172q-76 -35 -188 -35zM805 657q-10 185 -168 185q-75 0 -123.5 -47t-60.5 -138h352z" />
    <glyph glyph-name="Ecaron" unicode="&#x11a;" horiz-adv-x="1269" 
d="M133 1464h1041v-356h-578v-207h459v-326h-459v-219h610v-356h-1073v1464zM268 1855h291l111 -96l110 96h285l-236 -305h-335z" />
    <glyph glyph-name="ecaron" unicode="&#x11b;" horiz-adv-x="1236" 
d="M637 -27q-173 0 -306 62.5t-210.5 188t-77.5 298.5v17q0 128 46.5 235t127.5 178t189 110.5t231 39.5q115 0 214 -33.5t176.5 -100t122 -175t44.5 -248.5v-99h-743q7 -97 59.5 -147.5t140.5 -50.5q143 0 168 114h377q-25 -189 -165.5 -289t-393.5 -100zM805 657
q-10 185 -168 185q-75 0 -123.5 -47t-60.5 -138h352zM233 1528h281l115 -107l114 107h275l-256 -340h-283z" />
    <glyph glyph-name="Gcircumflex" unicode="&#x11c;" horiz-adv-x="1619" 
d="M834 -27q-187 0 -335.5 55t-245 155t-147.5 237t-51 303v16q0 221 102.5 392.5t279.5 263.5t397 92q137 0 255.5 -32t215 -97t156 -173.5t69.5 -250.5h-459q-24 188 -235 188q-140 0 -218.5 -103t-78.5 -288v-16q0 -389 309 -389q128 0 192 52.5t72 133.5h-250v305h703
v-188q0 -139 -46 -257t-134.5 -207.5t-229.5 -140.5t-321 -51zM666 1855h335l226 -305h-291l-111 97l-110 -97h-285z" />
    <glyph glyph-name="gcircumflex" unicode="&#x11d;" horiz-adv-x="1318" 
d="M612 -397q-530 0 -573 405h399q14 -60 51.5 -93.5t124.5 -33.5q205 0 205 205v166q-45 -84 -127.5 -136.5t-197.5 -52.5q-192 0 -320.5 134.5t-128.5 373.5v17q0 234 128.5 374t318.5 140q231 0 327 -178v147h404v-979q0 -241 -155 -365t-456 -124zM643 350
q90 0 139 58.5t49 162.5v15q0 100 -48.5 158.5t-139.5 58.5t-139.5 -57.5t-48.5 -161.5v-17q0 -100 48.5 -158.5t139.5 -58.5zM492 1528h282l246 -340h-281l-114 108l-115 -108h-274z" />
    <glyph glyph-name="Gbreve" unicode="&#x11e;" horiz-adv-x="1619" 
d="M834 -27q-187 0 -335.5 55t-245 155t-147.5 237t-51 303v16q0 221 102.5 392.5t279.5 263.5t397 92q137 0 255.5 -32t215 -97t156 -173.5t69.5 -250.5h-459q-24 188 -235 188q-140 0 -218.5 -103t-78.5 -288v-16q0 -389 309 -389q128 0 192 52.5t72 133.5h-250v305h703
v-188q0 -139 -46 -257t-134.5 -207.5t-229.5 -140.5t-321 -51zM829 1534q-159 0 -249 83.5t-101 237.5h254q9 -86 96 -86q41 0 66.5 23.5t30.5 62.5h254q-10 -153 -103 -237t-248 -84z" />
    <glyph glyph-name="gbreve" unicode="&#x11f;" horiz-adv-x="1318" 
d="M612 -397q-530 0 -573 405h399q14 -60 51.5 -93.5t124.5 -33.5q205 0 205 205v166q-45 -84 -127.5 -136.5t-197.5 -52.5q-192 0 -320.5 134.5t-128.5 373.5v17q0 234 128.5 374t318.5 140q231 0 327 -178v147h404v-979q0 -241 -155 -365t-456 -124zM643 350
q90 0 139 58.5t49 162.5v15q0 100 -48.5 158.5t-139.5 58.5t-139.5 -57.5t-48.5 -161.5v-17q0 -100 48.5 -158.5t139.5 -58.5zM629 1190q-157 0 -248 86t-98 248h243q10 -92 103 -92q44 0 71.5 24.5t32.5 67.5h242q-10 -161 -102.5 -247.5t-243.5 -86.5z" />
    <glyph glyph-name="Gdotaccent" unicode="&#x120;" horiz-adv-x="1619" 
d="M834 -27q-187 0 -335.5 55t-245 155t-147.5 237t-51 303v16q0 221 102.5 392.5t279.5 263.5t397 92q137 0 255.5 -32t215 -97t156 -173.5t69.5 -250.5h-459q-24 188 -235 188q-140 0 -218.5 -103t-78.5 -288v-16q0 -389 309 -389q128 0 192 52.5t72 133.5h-250v305h703
v-188q0 -139 -46 -257t-134.5 -207.5t-229.5 -140.5t-321 -51zM829 1540q-92 0 -151.5 55t-59.5 140q0 86 59.5 141t151.5 55q91 0 150 -55t59 -141q0 -85 -59 -140t-150 -55z" />
    <glyph glyph-name="gdotaccent" unicode="&#x121;" horiz-adv-x="1318" 
d="M612 -397q-530 0 -573 405h399q14 -60 51.5 -93.5t124.5 -33.5q205 0 205 205v166q-45 -84 -127.5 -136.5t-197.5 -52.5q-192 0 -320.5 134.5t-128.5 373.5v17q0 234 128.5 374t318.5 140q231 0 327 -178v147h404v-979q0 -241 -155 -365t-456 -124zM643 350
q90 0 139 58.5t49 162.5v15q0 100 -48.5 158.5t-139.5 58.5t-139.5 -57.5t-48.5 -161.5v-17q0 -100 48.5 -158.5t139.5 -58.5zM631 1167q-93 0 -152 54.5t-59 140.5t59.5 141.5t151.5 55.5q91 0 151 -55.5t60 -141.5t-60 -140.5t-151 -54.5z" />
    <glyph glyph-name="uni0122" unicode="&#x122;" horiz-adv-x="1617" 
d="M834 -27q-187 0 -335.5 55t-245 155t-147.5 237t-51 303v16q0 221 102.5 392.5t279.5 263.5t397 92q137 0 255.5 -32t215 -97t156 -173.5t69.5 -250.5h-459q-24 188 -235 188q-140 0 -218.5 -103t-78.5 -288v-16q0 -389 309 -389q128 0 192 52.5t72 133.5h-250v305h703
v-188q0 -139 -46 -257t-134.5 -207.5t-229.5 -140.5t-321 -51zM580 -422l79 359l353 -25l-207 -389z" />
    <glyph glyph-name="uni0123" unicode="&#x123;" horiz-adv-x="1318" 
d="M612 -397q-530 0 -573 405h399q14 -60 51.5 -93.5t124.5 -33.5q205 0 205 205v166q-45 -84 -127.5 -136.5t-197.5 -52.5q-192 0 -320.5 134.5t-128.5 373.5v17q0 234 128.5 374t318.5 140q231 0 327 -178v147h404v-979q0 -241 -155 -365t-456 -124zM643 350
q90 0 139 58.5t49 162.5v15q0 100 -48.5 158.5t-139.5 58.5t-139.5 -57.5t-48.5 -161.5v-17q0 -100 48.5 -158.5t139.5 -58.5zM465 1182l207 389l225 -55l-80 -359z" />
    <glyph glyph-name="Hcircumflex" unicode="&#x124;" horiz-adv-x="1626" 
d="M133 1464h465v-540h430v540h465v-1464h-465v563h-430v-563h-465v1464zM647 1855h336l225 -305h-290l-111 97l-111 -97h-284z" />
    <glyph glyph-name="hcircumflex" unicode="&#x125;" horiz-adv-x="1288" 
d="M96 1536h404v-637q47 92 136 146.5t218 54.5q158 0 251 -100.5t93 -294.5v-705h-403v614q0 83 -32.5 123.5t-103.5 40.5q-159 0 -159 -186v-592h-404v1536zM487 1901h336l226 -306h-291l-111 97l-110 -97h-285z" />
    <glyph glyph-name="Hbar" unicode="&#x126;" horiz-adv-x="1626" 
d="M14 1284h119v180h465v-180h430v180h465v-180h119v-207h-119v-1077h-465v563h-430v-563h-465v1077h-119v207zM1028 924v153h-430v-153h430z" />
    <glyph glyph-name="hbar" unicode="&#x127;" horiz-adv-x="1288" 
d="M-12 1401h108v135h404v-135h309v-211h-309v-291q47 92 136 146.5t218 54.5q158 0 251 -100.5t93 -294.5v-705h-403v614q0 83 -32.5 123.5t-103.5 40.5q-159 0 -159 -186v-592h-404v1190h-108v211z" />
    <glyph glyph-name="Itilde" unicode="&#x128;" horiz-adv-x="749" 
d="M139 1464h469v-1464h-469v1464zM510 1546q-51 0 -99.5 16.5t-86 33t-62.5 16.5q-51 0 -61 -62h-224q11 162 83 245t176 83q63 0 143.5 -33t109.5 -33q50 0 60 62h225q-6 -82 -30.5 -146.5t-61 -103t-80.5 -58.5t-92 -20z" />
    <glyph glyph-name="itilde" unicode="&#x129;" horiz-adv-x="620" 
d="M109 1071h401v-1071h-401v1071zM446 1190q-51 0 -98.5 16.5t-83.5 32.5t-59 16q-24 0 -40.5 -17t-21.5 -44h-213q10 165 75 248.5t167 83.5q62 0 141 -33t107 -33q52 0 61 64h213q-12 -164 -80 -249t-168 -85z" />
    <glyph glyph-name="Imacron" unicode="&#x12a;" horiz-adv-x="749" 
d="M139 1464h469v-1464h-469v1464zM33 1810h682v-235h-682v235z" />
    <glyph glyph-name="imacron" unicode="&#x12b;" horiz-adv-x="620" 
d="M49 1458h522v-219h-522v219zM109 1071h401v-1071h-401v1071z" />
    <glyph glyph-name="Ibreve" unicode="&#x12c;" horiz-adv-x="749" 
d="M139 1464h469v-1464h-469v1464zM375 1534q-159 0 -249 83.5t-101 237.5h254q9 -86 96 -86q41 0 66 23.5t30 62.5h254q-10 -153 -102.5 -237t-247.5 -84z" />
    <glyph glyph-name="ibreve" unicode="&#x12d;" horiz-adv-x="620" 
d="M109 1071h401v-1071h-401v1071zM311 1190q-157 0 -248 86t-98 248h244q10 -92 102 -92q44 0 72.5 24.5t32.5 67.5h241q-10 -161 -102.5 -247.5t-243.5 -86.5z" />
    <glyph glyph-name="Iogonek" unicode="&#x12e;" horiz-adv-x="749" 
d="M420 -373q-122 0 -191 45t-69 123q0 116 178 205h-199v1464h469v-1437q-102 -76 -102 -140q0 -49 57 -49q35 0 51 8v-184q-68 -35 -194 -35z" />
    <glyph glyph-name="iogonek" unicode="&#x12f;" horiz-adv-x="620" 
d="M330 -373q-113 0 -178.5 45t-65.5 123q0 39 14.5 71t43.5 57t54.5 41t65.5 36h-155v1071h401v-1051q-100 -78 -100 -141q0 -53 59 -53q35 0 51 8v-172q-68 -35 -190 -35zM309 1151q-94 0 -156.5 57.5t-62.5 145.5q0 90 62 147.5t157 57.5q93 0 155 -57.5t62 -147.5
q0 -87 -62 -145t-155 -58z" />
    <glyph glyph-name="Idotaccent" unicode="&#x130;" horiz-adv-x="749" 
d="M139 1464h469v-1464h-469v1464zM377 1540q-92 0 -151.5 55t-59.5 140q0 86 59.5 141t151.5 55q91 0 150 -55t59 -141q0 -85 -59 -140t-150 -55z" />
    <glyph glyph-name="dotlessi" unicode="&#x131;" horiz-adv-x="620" 
d="M109 1071h401v-1071h-401v1071z" />
    <glyph glyph-name="IJ" unicode="&#x132;" horiz-adv-x="1699" 
d="M139 1464h469v-1464h-469v1464zM1042 -18q-174 0 -278 51v342q91 -27 174 -27q88 0 136 44t48 147v925h465v-927q0 -555 -545 -555z" />
    <glyph glyph-name="ij" unicode="&#x133;" horiz-adv-x="620" 
d="M109 1071h401v-1071h-401v1071zM309 1151q-94 0 -156.5 57.5t-62.5 145.5q0 90 62 147.5t157 57.5q93 0 155 -57.5t62 -147.5q0 -87 -62 -145t-155 -58zM600 -86q67 5 96 31.5t29 87.5v1038h403v-1048q0 -94 -24.5 -163.5t-82.5 -124t-163.5 -82.5t-257.5 -28v289z
M928 1151q-94 0 -156.5 57.5t-62.5 145.5q0 90 62 147.5t157 57.5q93 0 155 -57.5t62 -147.5q0 -87 -62 -145t-155 -58z" />
    <glyph glyph-name="Jcircumflex" unicode="&#x134;" horiz-adv-x="1001" 
d="M344 -18q-174 0 -278 51v342q91 -27 174 -27q88 0 136 44t48 147v925h465v-927q0 -555 -545 -555zM489 1855h336l226 -305h-291l-111 97l-110 -97h-285z" />
    <glyph glyph-name="jcircumflex" unicode="&#x135;" horiz-adv-x="620" 
d="M-18 -86q67 5 95.5 31.5t28.5 87.5v1038h404v-1048q0 -94 -24.5 -163.5t-82.5 -124t-163.5 -82.5t-257.5 -28v289zM172 1528h283l245 -340h-280l-115 108l-115 -108h-274z" />
    <glyph glyph-name="uni0136" unicode="&#x136;" horiz-adv-x="1525" 
d="M133 1464h465v-555l406 555h481l-514 -676l542 -788h-534l-381 586v-586h-465v1464zM532 -422l80 359l353 -25l-207 -389z" />
    <glyph glyph-name="uni0137" unicode="&#x137;" horiz-adv-x="1206" 
d="M96 1536h404v-870l260 405h414l-330 -479l356 -592h-446l-254 446v-446h-404v1536zM379 -422l80 359l352 -25l-207 -389z" />
    <glyph glyph-name="Lacute" unicode="&#x139;" horiz-adv-x="1191" 
d="M133 1464h465v-1106h532v-358h-997v1464zM307 1855h412l-211 -305h-305z" />
    <glyph glyph-name="lacute" unicode="&#x13a;" horiz-adv-x="614" 
d="M106 1536h402v-1536h-402v1536zM250 1901h412l-211 -306h-306z" />
    <glyph glyph-name="uni013B" unicode="&#x13b;" horiz-adv-x="1191" 
d="M133 1464h465v-1106h532v-358h-997v1464zM375 -422l80 359l352 -25l-207 -389z" />
    <glyph glyph-name="uni013C" unicode="&#x13c;" horiz-adv-x="614" 
d="M106 1536h402v-1536h-402v1536zM59 -422l80 359l353 -25l-207 -389z" />
    <glyph glyph-name="Lcaron" unicode="&#x13d;" horiz-adv-x="1191" 
d="M754 1464h323l-125 -368h-229zM133 1464h465v-1106h532v-358h-997v1464z" />
    <glyph glyph-name="lcaron" unicode="&#x13e;" horiz-adv-x="614" 
d="M106 1536h402v-1536h-402v1536zM596 1536h287l-103 -358h-200z" />
    <glyph glyph-name="Ldot" unicode="&#x13f;" horiz-adv-x="1255" 
d="M133 1464h465v-1106h532v-358h-997v1464zM999 608q-96 0 -160.5 63t-64.5 156t64.5 157.5t160.5 64.5q98 0 164 -64.5t66 -157.5t-66 -156t-164 -63z" />
    <glyph glyph-name="ldot" unicode="&#x140;" horiz-adv-x="980" 
d="M106 1536h402v-1536h-402v1536zM793 514q-96 0 -161 63t-65 156t65 157t161 64q98 0 163.5 -64t65.5 -157t-65.5 -156t-163.5 -63z" />
    <glyph glyph-name="Lslash" unicode="&#x141;" 
d="M45 696l125 43v725h467v-565l360 125v-238l-360 -124v-304h532v-358h-999v502l-125 -43v237z" />
    <glyph glyph-name="lslash" unicode="&#x142;" horiz-adv-x="704" 
d="M33 770l119 55v711h401v-524l125 59v-252l-125 -59v-760h-401v571l-119 -55v254z" />
    <glyph glyph-name="Nacute" unicode="&#x143;" horiz-adv-x="1611" 
d="M133 1464h520l416 -774v774h408v-1464h-445l-489 877v-877h-410v1464zM780 1855h412l-211 -305h-305z" />
    <glyph glyph-name="nacute" unicode="&#x144;" horiz-adv-x="1288" 
d="M96 1071h404v-172q47 92 136 146.5t218 54.5q158 0 251 -100.5t93 -294.5v-705h-403v614q0 83 -32.5 123.5t-103.5 40.5q-159 0 -159 -186v-592h-404v1071zM598 1530h395l-213 -346h-288z" />
    <glyph glyph-name="uni0145" unicode="&#x145;" horiz-adv-x="1611" 
d="M133 1464h520l416 -774v774h408v-1464h-445l-489 877v-877h-410v1464zM551 -422l80 359l352 -25l-207 -389z" />
    <glyph glyph-name="uni0146" unicode="&#x146;" horiz-adv-x="1288" 
d="M96 1071h404v-172q47 92 136 146.5t218 54.5q158 0 251 -100.5t93 -294.5v-705h-403v614q0 83 -32.5 123.5t-103.5 40.5q-159 0 -159 -186v-592h-404v1071zM395 -422l80 359l352 -25l-206 -389z" />
    <glyph glyph-name="Ncaron" unicode="&#x147;" horiz-adv-x="1611" 
d="M133 1464h520l416 -774v774h408v-1464h-445l-489 877v-877h-410v1464zM444 1855h291l111 -96l110 96h285l-235 -305h-336z" />
    <glyph glyph-name="ncaron" unicode="&#x148;" horiz-adv-x="1288" 
d="M96 1071h404v-172q47 92 136 146.5t218 54.5q158 0 251 -100.5t93 -294.5v-705h-403v614q0 83 -32.5 123.5t-103.5 40.5q-159 0 -159 -186v-592h-404v1071zM252 1528h280l115 -107l115 107h274l-256 -340h-282z" />
    <glyph glyph-name="napostrophe" unicode="&#x149;" horiz-adv-x="1574" 
d="M381 1071h403v-172q47 92 136.5 146.5t218.5 54.5q158 0 251 -100.5t93 -294.5v-705h-404v614q0 83 -32 123.5t-103 40.5q-160 0 -160 -186v-592h-403v1071zM-57 940l159 551l351 -113l-287 -524z" />
    <glyph glyph-name="Eng" unicode="&#x14a;" horiz-adv-x="1611" 
d="M969 -393q-152 0 -262 47v326q3 -1 18.5 -5.5t20 -6t18 -5t21.5 -4.5t21 -3t26 -2.5t28 -0.5q128 0 154 86l-465 860v-899h-416v1464h526l404 -786v786h414v-1411q0 -204 -129 -325t-379 -121z" />
    <glyph glyph-name="eng" unicode="&#x14b;" horiz-adv-x="1288" 
d="M672 -86q67 5 95 31.5t28 87.5v581q0 83 -32.5 123.5t-103.5 40.5q-159 0 -159 -186v-592h-404v1071h404v-172q47 92 136 146.5t218 54.5q158 0 251 -100.5t93 -294.5v-682q0 -94 -24.5 -163.5t-82.5 -124t-163 -82.5t-256 -28v289z" />
    <glyph glyph-name="Omacron" unicode="&#x14c;" horiz-adv-x="1679" 
d="M842 338q138 0 218.5 102t80.5 285v16q0 184 -81 283.5t-222 99.5q-138 0 -217.5 -99t-79.5 -284v-16q0 -187 80 -287t221 -100zM829 -27q-178 0 -323.5 55t-244.5 153.5t-152.5 237t-53.5 304.5v16q0 221 104.5 393t282 263.5t396.5 91.5q227 0 403.5 -86t279.5 -254.5
t103 -394.5v-17q0 -343 -217.5 -552.5t-577.5 -209.5zM496 1810h682v-235h-682v235z" />
    <glyph glyph-name="omacron" unicode="&#x14d;" horiz-adv-x="1282" 
d="M643 270q184 0 184 260v15q0 258 -184 258q-190 0 -190 -252v-16q0 -265 190 -265zM641 -27q-126 0 -234 37t-189 105t-127 173t-46 234v17q0 128 46 234t126 177.5t190 110.5t236 39q168 0 302 -65t213 -191.5t79 -294.5v-17q0 -171 -79.5 -299.5t-214 -194
t-302.5 -65.5zM315 1458h648v-219h-648v219z" />
    <glyph glyph-name="Obreve" unicode="&#x14e;" horiz-adv-x="1679" 
d="M842 338q138 0 218.5 102t80.5 285v16q0 184 -81 283.5t-222 99.5q-138 0 -217.5 -99t-79.5 -284v-16q0 -187 80 -287t221 -100zM829 -27q-178 0 -323.5 55t-244.5 153.5t-152.5 237t-53.5 304.5v16q0 221 104.5 393t282 263.5t396.5 91.5q227 0 403.5 -86t279.5 -254.5
t103 -394.5v-17q0 -343 -217.5 -552.5t-577.5 -209.5zM838 1534q-159 0 -249.5 83.5t-101.5 237.5h254q5 -41 29.5 -63.5t67.5 -22.5q41 0 66 23.5t30 62.5h254q-10 -153 -102.5 -237t-247.5 -84z" />
    <glyph glyph-name="obreve" unicode="&#x14f;" horiz-adv-x="1282" 
d="M643 270q184 0 184 260v15q0 258 -184 258q-190 0 -190 -252v-16q0 -265 190 -265zM641 -27q-126 0 -234 37t-189 105t-127 173t-46 234v17q0 128 46 234t126 177.5t190 110.5t236 39q168 0 302 -65t213 -191.5t79 -294.5v-17q0 -171 -79.5 -299.5t-214 -194
t-302.5 -65.5zM639 1190q-157 0 -248 86t-98 248h244q10 -92 102 -92q44 0 71.5 24.5t32.5 67.5h242q-10 -161 -102.5 -247.5t-243.5 -86.5z" />
    <glyph glyph-name="Ohungarumlaut" unicode="&#x150;" horiz-adv-x="1679" 
d="M842 338q138 0 218.5 102t80.5 285v16q0 184 -81 283.5t-222 99.5q-138 0 -217.5 -99t-79.5 -284v-16q0 -187 80 -287t221 -100zM829 -27q-178 0 -323.5 55t-244.5 153.5t-152.5 237t-53.5 304.5v16q0 221 104.5 393t282 263.5t396.5 91.5q227 0 403.5 -86t279.5 -254.5
t103 -394.5v-17q0 -343 -217.5 -552.5t-577.5 -209.5zM557 1855h334l-154 -305h-266zM969 1855h336l-154 -305h-266z" />
    <glyph glyph-name="ohungarumlaut" unicode="&#x151;" horiz-adv-x="1282" 
d="M643 270q184 0 184 260v15q0 258 -184 258q-190 0 -190 -252v-16q0 -265 190 -265zM641 -27q-126 0 -234 37t-189 105t-127 173t-46 234v17q0 128 46 234t126 177.5t190 110.5t236 39q168 0 302 -65t213 -191.5t79 -294.5v-17q0 -171 -79.5 -299.5t-214 -194
t-302.5 -65.5zM399 1530h303l-159 -346h-234zM770 1530h303l-158 -346h-235z" />
    <glyph glyph-name="OE" unicode="&#x152;" horiz-adv-x="2013" 
d="M55 729q0 354 202.5 544.5t586.5 190.5h1075v-356h-549v-207h428v-326h-428v-219h580v-356h-1106q-390 0 -589.5 182t-199.5 533v14zM858 1108q-169 0 -243 -87.5t-74 -281.5v-16q0 -199 75 -283t246 -84h47v752h-51z" />
    <glyph glyph-name="oe" unicode="&#x153;" horiz-adv-x="2015" 
d="M641 -27q-126 0 -235 37t-190 105t-127 173t-46 234v17q0 171 79.5 300t215 196t305.5 67q237 0 387 -150q150 150 385 150q115 0 214 -33.5t176.5 -99.5t122 -174.5t44.5 -247.5v-98h-743q7 -98 60 -149.5t141 -51.5q80 0 117.5 30.5t49.5 83.5h375q-24 -189 -164 -289
t-393 -100q-248 0 -393 142q-145 -142 -381 -142zM643 270q91 0 137.5 66t46.5 192v17q0 258 -184 258q-188 0 -188 -252v-16q0 -265 188 -265zM1583 659q-5 87 -46.5 135t-121.5 48q-75 0 -123.5 -47t-60.5 -136h352z" />
    <glyph glyph-name="Racute" unicode="&#x154;" horiz-adv-x="1454" 
d="M133 1464h598q305 0 458.5 -120t153.5 -355v-8q0 -271 -247 -383l334 -598h-488l-272 502h-74v-502h-463v1464zM705 801q190 0 190 160v8q0 78 -46 112.5t-142 34.5h-111v-315h109zM635 1855h412l-211 -305h-306z" />
    <glyph glyph-name="racute" unicode="&#x155;" horiz-adv-x="897" 
d="M96 1071h404v-217q50 122 135 177.5t209 53.5v-376q-168 11 -256 -43.5t-88 -171.5v-494h-404v1071zM444 1530h396l-213 -346h-289z" />
    <glyph glyph-name="uni0156" unicode="&#x156;" horiz-adv-x="1454" 
d="M133 1464h598q305 0 458.5 -120t153.5 -355v-8q0 -271 -247 -383l334 -598h-488l-272 502h-74v-502h-463v1464zM705 801q190 0 190 160v8q0 78 -46 112.5t-142 34.5h-111v-315h109zM522 -422l80 359l352 -25l-206 -389z" />
    <glyph glyph-name="uni0157" unicode="&#x157;" horiz-adv-x="897" 
d="M96 1071h404v-217q50 122 135 177.5t209 53.5v-376q-168 11 -256 -43.5t-88 -171.5v-494h-404v1071zM57 -422l80 359l352 -25l-206 -389z" />
    <glyph glyph-name="Rcaron" unicode="&#x158;" horiz-adv-x="1454" 
d="M133 1464h598q305 0 458.5 -120t153.5 -355v-8q0 -271 -247 -383l334 -598h-488l-272 502h-74v-502h-463v1464zM705 801q190 0 190 160v8q0 78 -46 112.5t-142 34.5h-111v-315h109zM299 1855h291l110 -96l111 96h285l-236 -305h-336z" />
    <glyph glyph-name="rcaron" unicode="&#x159;" horiz-adv-x="897" 
d="M96 1071h404v-217q50 122 135 177.5t209 53.5v-376q-168 11 -256 -43.5t-88 -171.5v-494h-404v1071zM98 1528h281l115 -107l114 107h275l-256 -340h-283z" />
    <glyph glyph-name="Sacute" unicode="&#x15a;" horiz-adv-x="1337" 
d="M684 -27q-313 0 -475.5 124.5t-169.5 371.5h440q11 -168 205 -168q80 0 121 32.5t41 88.5t-44 81.5t-165 43.5q-317 37 -441 140.5t-124 330.5q0 207 157.5 337t427.5 130q278 0 424.5 -114t165.5 -353h-430q-16 141 -160 141q-70 0 -107.5 -28.5t-37.5 -77.5
q0 -54 42 -80t163 -43q97 -10 171 -25t141 -39t113.5 -58t80.5 -81.5t50.5 -111t16.5 -144.5q0 -102 -40.5 -192t-115.5 -158.5t-191 -108t-259 -39.5zM598 1855h412l-211 -305h-305z" />
    <glyph glyph-name="sacute" unicode="&#x15b;" horiz-adv-x="1071" 
d="M535 -27q-237 0 -368.5 95t-135.5 276h368q11 -58 39.5 -84.5t93.5 -26.5q113 0 113 76q0 36 -41 56.5t-147 33.5q-112 13 -187.5 35t-128.5 61.5t-76.5 98.5t-23.5 145q0 119 65.5 202.5t171 122t240.5 38.5q146 0 247 -33t165.5 -113t77.5 -208h-363q-22 100 -121 100
q-53 0 -79.5 -20.5t-26.5 -53.5q0 -36 37.5 -53.5t130.5 -28.5q122 -15 202 -37.5t139 -61.5t85 -98t26 -145q0 -191 -133 -284t-370 -93zM483 1530h396l-213 -346h-289z" />
    <glyph glyph-name="Scircumflex" unicode="&#x15c;" horiz-adv-x="1337" 
d="M684 -27q-313 0 -475.5 124.5t-169.5 371.5h440q11 -168 205 -168q80 0 121 32.5t41 88.5t-44 81.5t-165 43.5q-317 37 -441 140.5t-124 330.5q0 207 157.5 337t427.5 130q278 0 424.5 -114t165.5 -353h-430q-16 141 -160 141q-70 0 -107.5 -28.5t-37.5 -77.5
q0 -54 42 -80t163 -43q97 -10 171 -25t141 -39t113.5 -58t80.5 -81.5t50.5 -111t16.5 -144.5q0 -102 -40.5 -192t-115.5 -158.5t-191 -108t-259 -39.5zM500 1855h336l225 -305h-291l-111 97l-110 -97h-285z" />
    <glyph glyph-name="scircumflex" unicode="&#x15d;" horiz-adv-x="1071" 
d="M535 -27q-237 0 -368.5 95t-135.5 276h368q11 -58 39.5 -84.5t93.5 -26.5q113 0 113 76q0 36 -41 56.5t-147 33.5q-112 13 -187.5 35t-128.5 61.5t-76.5 98.5t-23.5 145q0 119 65.5 202.5t171 122t240.5 38.5q146 0 247 -33t165.5 -113t77.5 -208h-363q-22 100 -121 100
q-53 0 -79.5 -20.5t-26.5 -53.5q0 -36 37.5 -53.5t130.5 -28.5q122 -15 202 -37.5t139 -61.5t85 -98t26 -145q0 -191 -133 -284t-370 -93zM389 1528h283l246 -340h-281l-115 108l-114 -108h-275z" />
    <glyph glyph-name="uni015E" unicode="&#x15e;" horiz-adv-x="1337" 
d="M629 -467q-235 0 -271 193h185q12 -54 71 -54q29 0 45.5 16.5t16.5 43.5q0 28 -17 44.5t-51 16.5q-44 0 -65 -24l-82 84l84 129q-494 50 -506 487h440q11 -168 205 -168q80 0 121 32.5t41 88.5t-44 81.5t-165 43.5q-317 37 -441 140.5t-124 330.5q0 207 157.5 337
t427.5 130q278 0 424.5 -114t165.5 -353h-430q-16 141 -160 141q-70 0 -107.5 -28.5t-37.5 -77.5q0 -54 42 -80t163 -43q97 -10 171 -25t141 -39t113.5 -58t80.5 -81.5t50.5 -111t16.5 -144.5q0 -102 -39.5 -191t-112.5 -157t-187 -108t-255 -42l-45 -63q100 8 167 -36.5
t67 -141.5q0 -93 -69 -146t-187 -53z" />
    <glyph glyph-name="uni015F" unicode="&#x15f;" horiz-adv-x="1071" 
d="M498 -467q-235 0 -271 193h185q12 -54 71 -54q29 0 45.5 16.5t16.5 43.5q0 28 -17 44.5t-51 16.5q-44 0 -65 -24l-82 84l84 129q-182 24 -280.5 115t-102.5 247h368q11 -58 39.5 -84.5t93.5 -26.5q113 0 113 76q0 36 -41 56.5t-147 33.5q-112 13 -187.5 35t-128.5 61.5
t-76.5 98.5t-23.5 145q0 119 65.5 202.5t171 122t240.5 38.5q146 0 247 -33t165.5 -113t77.5 -208h-363q-22 100 -121 100q-53 0 -79.5 -20.5t-26.5 -53.5q0 -36 37.5 -53.5t130.5 -28.5q122 -15 202 -37.5t139 -61.5t85 -98t26 -145q0 -185 -125.5 -278.5t-347.5 -98.5
l-45 -63q100 8 167 -36.5t67 -141.5q0 -93 -69 -146t-187 -53z" />
    <glyph glyph-name="Scaron" unicode="&#x160;" horiz-adv-x="1337" 
d="M684 -27q-313 0 -475.5 124.5t-169.5 371.5h440q11 -168 205 -168q80 0 121 32.5t41 88.5t-44 81.5t-165 43.5q-317 37 -441 140.5t-124 330.5q0 207 157.5 337t427.5 130q278 0 424.5 -114t165.5 -353h-430q-16 141 -160 141q-70 0 -107.5 -28.5t-37.5 -77.5
q0 -54 42 -80t163 -43q97 -10 171 -25t141 -39t113.5 -58t80.5 -81.5t50.5 -111t16.5 -144.5q0 -102 -40.5 -192t-115.5 -158.5t-191 -108t-259 -39.5zM262 1855h291l111 -96l110 96h285l-236 -305h-336z" />
    <glyph glyph-name="scaron" unicode="&#x161;" horiz-adv-x="1071" 
d="M535 -27q-237 0 -368.5 95t-135.5 276h368q11 -58 39.5 -84.5t93.5 -26.5q113 0 113 76q0 36 -41 56.5t-147 33.5q-112 13 -187.5 35t-128.5 61.5t-76.5 98.5t-23.5 145q0 119 65.5 202.5t171 122t240.5 38.5q146 0 247 -33t165.5 -113t77.5 -208h-363q-22 100 -121 100
q-53 0 -79.5 -20.5t-26.5 -53.5q0 -36 37.5 -53.5t130.5 -28.5q122 -15 202 -37.5t139 -61.5t85 -98t26 -145q0 -191 -133 -284t-370 -93zM127 1528h281l114 -107l115 107h274l-256 -340h-282z" />
    <glyph glyph-name="Tcommaaccent" unicode="&#x162;" horiz-adv-x="1288" 
d="M410 1108h-369v356h1206v-356h-370v-1108h-467v1108zM391 -422l80 359l352 -25l-207 -389z" />
    <glyph glyph-name="tcommaaccent" unicode="&#x163;" horiz-adv-x="811" 
d="M543 -25q-195 0 -295.5 92.5t-100.5 290.5v443h-124v270h124v219h404v-219h205v-270h-205v-404q0 -104 104 -104q51 0 101 16v-303q-108 -31 -213 -31zM184 -422l80 359l352 -25l-206 -389z" />
    <glyph glyph-name="Tcaron" unicode="&#x164;" horiz-adv-x="1288" 
d="M410 1108h-369v356h1206v-356h-370v-1108h-467v1108zM240 1855h290l111 -96l111 96h284l-235 -305h-336z" />
    <glyph glyph-name="tcaron" unicode="&#x165;" horiz-adv-x="811" 
d="M543 -25q-195 0 -295.5 92.5t-100.5 290.5v443h-124v270h124v219h404v-219h205v-270h-205v-404q0 -104 104 -104q51 0 101 16v-303q-108 -31 -213 -31zM651 1536h287l-102 -358h-201z" />
    <glyph glyph-name="Tbar" unicode="&#x166;" horiz-adv-x="1288" 
d="M160 836h250v272h-369v356h1206v-356h-370v-272h251v-287h-251v-549h-467v549h-250v287z" />
    <glyph glyph-name="tbar" unicode="&#x167;" horiz-adv-x="811" 
d="M25 678h122v123h-122v270h122v219h404v-219h205v-270h-205v-123h205v-197h-205v-86q0 -104 104 -104q57 0 99 18v-303q-116 -33 -211 -33q-195 0 -295.5 93.5t-100.5 291.5v123h-122v197z" />
    <glyph glyph-name="Utilde" unicode="&#x168;" horiz-adv-x="1589" 
d="M795 -27q-327 0 -498.5 159t-171.5 472v860h463v-841q0 -151 44 -218t163 -67q118 0 161 66.5t43 220.5v839h467v-856q0 -322 -176.5 -478.5t-494.5 -156.5zM926 1546q-51 0 -99.5 16.5t-86 33t-62.5 16.5t-41.5 -16.5t-20.5 -45.5h-223q11 163 82.5 245.5t175.5 82.5
q63 0 144 -33t110 -33q50 0 60 62h225q-6 -82 -30.5 -146.5t-61 -103t-80.5 -58.5t-92 -20z" />
    <glyph glyph-name="utilde" unicode="&#x169;" horiz-adv-x="1286" 
d="M446 -27q-160 0 -259 101.5t-99 294.5v702h404v-633q0 -83 32 -123.5t103 -40.5q159 0 159 187v610h404v-1071h-404v166q-99 -193 -340 -193zM774 1190q-51 0 -99 16.5t-84 32.5t-59 16q-24 0 -40 -17t-21 -44h-213q10 165 75 248.5t167 83.5q62 0 141 -33t107 -33
q52 0 61 64h213q-12 -164 -80 -249t-168 -85z" />
    <glyph glyph-name="Umacron" unicode="&#x16a;" horiz-adv-x="1589" 
d="M795 -27q-327 0 -498.5 159t-171.5 472v860h463v-841q0 -151 44 -218t163 -67q118 0 161 66.5t43 220.5v839h467v-856q0 -322 -176.5 -478.5t-494.5 -156.5zM449 1810h681v-235h-681v235z" />
    <glyph glyph-name="umacron" unicode="&#x16b;" horiz-adv-x="1286" 
d="M446 -27q-160 0 -259 101.5t-99 294.5v702h404v-633q0 -83 32 -123.5t103 -40.5q159 0 159 187v610h404v-1071h-404v166q-99 -193 -340 -193zM315 1458h648v-219h-648v219z" />
    <glyph glyph-name="Ubreve" unicode="&#x16c;" horiz-adv-x="1589" 
d="M795 -27q-327 0 -498.5 159t-171.5 472v860h463v-841q0 -151 44 -218t163 -67q118 0 161 66.5t43 220.5v839h467v-856q0 -322 -176.5 -478.5t-494.5 -156.5zM791 1534q-159 0 -249.5 83.5t-101.5 237.5h254q5 -41 29.5 -63.5t67.5 -22.5q41 0 66 23.5t30 62.5h254
q-10 -153 -102.5 -237t-247.5 -84z" />
    <glyph glyph-name="ubreve" unicode="&#x16d;" horiz-adv-x="1286" 
d="M446 -27q-160 0 -259 101.5t-99 294.5v702h404v-633q0 -83 32 -123.5t103 -40.5q159 0 159 187v610h404v-1071h-404v166q-99 -193 -340 -193zM639 1190q-157 0 -248 86t-98 248h244q10 -92 102 -92q44 0 71.5 24.5t32.5 67.5h242q-10 -161 -102.5 -247.5t-243.5 -86.5z
" />
    <glyph glyph-name="Uring" unicode="&#x16e;" horiz-adv-x="1589" 
d="M795 -27q-327 0 -498.5 159t-171.5 472v860h463v-841q0 -151 44 -218t163 -67q118 0 161 66.5t43 220.5v839h467v-856q0 -322 -176.5 -478.5t-494.5 -156.5zM791 1618q41 0 66.5 28.5t25.5 73.5q0 47 -25.5 75t-66.5 28q-42 0 -67.5 -28t-25.5 -75q0 -44 26 -73t67 -29z
M791 1479q-104 0 -177 71t-73 170t73 170.5t177 71.5t176.5 -71.5t72.5 -170.5t-72.5 -170t-176.5 -71z" />
    <glyph glyph-name="uring" unicode="&#x16f;" horiz-adv-x="1286" 
d="M446 -27q-160 0 -259 101.5t-99 294.5v702h404v-633q0 -83 32 -123.5t103 -40.5q159 0 159 187v610h404v-1071h-404v166q-99 -193 -340 -193zM637 1270q41 0 65.5 27.5t24.5 70.5q0 45 -24.5 72.5t-65.5 27.5t-65.5 -27.5t-24.5 -72.5q0 -43 24.5 -70.5t65.5 -27.5z
M637 1130q-101 0 -173.5 70t-72.5 168t72.5 169t173.5 71t173.5 -71t72.5 -169t-72.5 -168t-173.5 -70z" />
    <glyph glyph-name="Uhungarumlaut" unicode="&#x170;" horiz-adv-x="1589" 
d="M795 -27q-327 0 -498.5 159t-171.5 472v860h463v-841q0 -151 44 -218t163 -67q118 0 161 66.5t43 220.5v839h467v-856q0 -322 -176.5 -478.5t-494.5 -156.5zM510 1855h334l-154 -305h-266zM922 1855h335l-153 -305h-266z" />
    <glyph glyph-name="uhungarumlaut" unicode="&#x171;" horiz-adv-x="1286" 
d="M446 -27q-160 0 -259 101.5t-99 294.5v702h404v-633q0 -83 32 -123.5t103 -40.5q159 0 159 187v610h404v-1071h-404v166q-99 -193 -340 -193zM399 1530h303l-159 -346h-234zM770 1530h303l-158 -346h-235z" />
    <glyph glyph-name="Uogonek" unicode="&#x172;" horiz-adv-x="1589" 
d="M872 -373q-116 0 -183.5 44.5t-67.5 119.5q0 101 131 184q-306 11 -466.5 168.5t-160.5 460.5v860h463v-841q0 -151 44 -218t163 -67q118 0 161 66.5t43 220.5v839h467v-856q0 -427 -323 -573q-6 -3 -18 -8q-42 -18 -62.5 -28.5t-47.5 -28.5t-38.5 -37.5t-11.5 -43.5
q0 -51 59 -51q35 0 51 8v-184q-68 -35 -203 -35z" />
    <glyph glyph-name="uogonek" unicode="&#x173;" horiz-adv-x="1286" 
d="M1004 -373q-113 0 -178.5 45t-65.5 123q0 39 14.5 70.5t44 57t54.5 41t67 36.5h-154v166q-99 -193 -340 -193q-160 0 -259 101.5t-99 294.5v702h404v-633q0 -83 32 -123.5t103 -40.5q159 0 159 187v610h404v-1044q-107 -84 -107 -148q0 -53 62 -53q35 0 51 8v-172
q-76 -35 -192 -35z" />
    <glyph glyph-name="Wcircumflex" unicode="&#x174;" horiz-adv-x="2066" 
d="M20 1464h469l168 -874l177 874h403l199 -884l178 884h430l-340 -1464h-469l-205 874l-207 -874h-463zM870 1855h336l226 -305h-291l-111 97l-110 -97h-285z" />
    <glyph glyph-name="wcircumflex" unicode="&#x175;" horiz-adv-x="1748" 
d="M10 1071h420l139 -600l164 600h324l143 -600l162 600h377l-340 -1071h-379l-150 559l-147 -559h-391zM735 1528h283l246 -340h-281l-115 108l-114 -108h-275z" />
    <glyph glyph-name="Ycircumflex" unicode="&#x176;" horiz-adv-x="1417" 
d="M485 625l-475 839h504l223 -458l226 458h444l-455 -837v-627h-467v625zM559 1855h336l225 -305h-291l-110 97l-111 -97h-284z" />
    <glyph glyph-name="ycircumflex" unicode="&#x177;" 
d="M438 106l-428 965h436l203 -534l189 534h381l-572 -1427h-383zM496 1528h282l246 -340h-281l-114 108l-115 -108h-274z" />
    <glyph glyph-name="Ydieresis" unicode="&#x178;" horiz-adv-x="1417" 
d="M485 625l-475 839h504l223 -458l226 458h444l-455 -837v-627h-467v625zM489 1540q-78 0 -132 53.5t-54 128.5q0 77 54 130t132 53q79 0 134 -53t55 -130q0 -75 -55 -128.5t-134 -53.5zM954 1540q-78 0 -132 53.5t-54 128.5q0 77 54 130t132 53q79 0 134 -53t55 -130
q0 -75 -55 -128.5t-134 -53.5z" />
    <glyph glyph-name="Zacute" unicode="&#x179;" horiz-adv-x="1284" 
d="M20 49l586 1067h-504v348h1153v-49l-579 -1065h545v-350h-1201v49zM590 1855h411l-210 -305h-306z" />
    <glyph glyph-name="zacute" unicode="&#x17a;" horiz-adv-x="1050" 
d="M16 39l439 731h-392v301h965v-41l-459 -731h430v-299h-983v39zM489 1530h396l-213 -346h-289z" />
    <glyph glyph-name="Zdotaccent" unicode="&#x17b;" horiz-adv-x="1284" 
d="M20 49l586 1067h-504v348h1153v-49l-579 -1065h545v-350h-1201v49zM657 1540q-92 0 -151.5 55t-59.5 140q0 86 59.5 141t151.5 55q91 0 150 -55t59 -141q0 -85 -59 -140t-150 -55z" />
    <glyph glyph-name="zdotaccent" unicode="&#x17c;" horiz-adv-x="1050" 
d="M16 39l439 731h-392v301h965v-41l-459 -731h430v-299h-983v39zM539 1167q-93 0 -152 54.5t-59 140.5t59.5 141.5t151.5 55.5q91 0 151 -55.5t60 -141.5t-60 -140.5t-151 -54.5z" />
    <glyph glyph-name="Zcaron" unicode="&#x17d;" horiz-adv-x="1284" 
d="M20 49l586 1067h-504v348h1153v-49l-579 -1065h545v-350h-1201v49zM254 1855h291l110 -96l111 96h285l-236 -305h-336z" />
    <glyph glyph-name="zcaron" unicode="&#x17e;" horiz-adv-x="1050" 
d="M16 39l439 731h-392v301h965v-41l-459 -731h430v-299h-983v39zM143 1528h281l115 -107l114 107h275l-256 -340h-283z" />
    <glyph glyph-name="uni0192" unicode="&#x192;" horiz-adv-x="933" 
d="M45 850h182l35 244q54 391 471 391q85 0 164 -23v-299q-46 15 -100 15q-122 0 -140 -119l-30 -209h227v-270h-264l-133 -953h-400l133 953h-145v270z" />
    <glyph glyph-name="Aringacute" unicode="&#x1fa;" horiz-adv-x="1556" 
d="M479 1464h600l459 -1464h-491l-68 244h-463l-65 -244h-433zM604 559h289l-143 531zM780 1655q41 0 66.5 28.5t25.5 73.5q0 47 -25.5 75t-66.5 28t-66.5 -28t-25.5 -75q0 -45 25.5 -73.5t66.5 -28.5zM780 1516q-104 0 -177 71t-73 170t73 170.5t177 71.5t177 -71.5
t73 -170.5t-73 -170t-177 -71zM731 2339h412l-211 -305h-305z" />
    <glyph glyph-name="aringacute" unicode="&#x1fb;" horiz-adv-x="1198" 
d="M406 -27q-75 0 -139 19t-115.5 57t-81 101.5t-29.5 146.5q0 184 144 267t431 83h93v19q0 78 -25 116.5t-100 38.5q-63 0 -92.5 -32.5t-34.5 -81.5h-377q12 193 152.5 294t375.5 101q239 0 369.5 -102t130.5 -308v-692h-389v123q-36 -64 -114.5 -107t-198.5 -43zM551 244
q70 0 114 36t44 95v55h-86q-103 0 -144 -22.5t-41 -79.5q0 -39 29 -61.5t84 -22.5zM604 1307q41 0 65.5 27.5t24.5 70.5q0 45 -24.5 72.5t-65.5 27.5t-65.5 -27.5t-24.5 -72.5q0 -43 24.5 -70.5t65.5 -27.5zM604 1167q-101 0 -173.5 70t-72.5 168t72.5 169t173.5 71
t173.5 -71t72.5 -169t-72.5 -168t-173.5 -70zM565 2003h412l-211 -305h-305z" />
    <glyph glyph-name="AEacute" unicode="&#x1fc;" horiz-adv-x="2072" 
d="M655 1464h1321v-356h-563v-207h445v-326h-445v-219h596v-356h-1057v276h-383l-114 -276h-441zM696 584h256v524h-37zM1192 1855h412l-211 -305h-306z" />
    <glyph glyph-name="aeacute" unicode="&#x1fd;" horiz-adv-x="1869" 
d="M1282 -27q-290 0 -422 181q-66 -89 -165 -135t-251 -46q-86 0 -158 19t-128 57t-87.5 101.5t-31.5 146.5q0 185 144 270.5t429 85.5h101v13q0 77 -27.5 116t-101.5 39q-65 0 -93.5 -29.5t-35.5 -84.5h-377q12 192 151.5 293.5t368.5 101.5q241 0 340 -117
q132 117 338 117q115 0 212.5 -33t174.5 -99t120.5 -175t43.5 -250v-96h-731q15 -201 192 -201q80 0 117 30t49 84h373q-23 -188 -161.5 -288.5t-383.5 -100.5zM1440 653q-9 189 -164 189q-74 0 -121 -49t-57 -140h342zM551 244q75 0 118.5 35.5t43.5 95.5v67h-95
q-97 0 -139.5 -23t-42.5 -81q0 -94 115 -94zM924 1530h395l-213 -346h-289z" />
    <glyph glyph-name="Oslashacute" unicode="&#x1fe;" horiz-adv-x="1679" 
d="M70 47l159 168q-174 198 -174 508v16q0 220 104.5 391.5t282 263t396.5 91.5q270 0 473 -127l149 160l117 -115l-139 -148q188 -191 188 -503v-17q0 -344 -218 -553t-579 -209q-288 0 -477 133l-166 -174zM840 338q142 0 223.5 102t81.5 287v16q0 97 -25 177l-481 -508
q77 -74 201 -74zM535 725q0 -102 20 -166l473 502q-78 63 -190 63q-142 0 -222.5 -98t-80.5 -285v-16zM772 1855h412l-211 -305h-305z" />
    <glyph glyph-name="oslashacute" unicode="&#x1ff;" horiz-adv-x="1282" 
d="M45 14l131 140q-133 146 -133 368v17q0 171 79.5 300t215 196t305.5 67q196 0 342 -88l133 141l103 -94l-127 -135q143 -146 143 -377v-17q0 -171 -79.5 -299.5t-214 -194t-302.5 -65.5q-209 0 -354 93l-137 -146zM643 268q191 0 191 260v17q0 47 -9 94l-307 -328
q46 -43 125 -43zM449 535q0 -45 6 -86l301 321q-47 35 -113 35q-194 0 -194 -254v-16zM592 1530h395l-213 -346h-289z" />
    <glyph glyph-name="uni0218" unicode="&#x218;" horiz-adv-x="1341" 
d="M684 -27q-313 0 -475.5 124.5t-169.5 371.5h440q11 -168 205 -168q80 0 121 32.5t41 88.5t-44 81.5t-165 43.5q-317 37 -441 140.5t-124 330.5q0 207 157.5 337t427.5 130q278 0 424.5 -114t165.5 -353h-430q-16 141 -160 141q-70 0 -107.5 -28.5t-37.5 -77.5
q0 -54 42 -80t163 -43q97 -10 171 -25t141 -39t113.5 -58t80.5 -81.5t50.5 -111t16.5 -144.5q0 -102 -40.5 -192t-115.5 -158.5t-191 -108t-259 -39.5zM414 -422l80 359l352 -25l-207 -389z" />
    <glyph glyph-name="uni0219" unicode="&#x219;" horiz-adv-x="1067" 
d="M530 -27q-237 0 -368 95t-135 276h368q11 -58 39.5 -84.5t93.5 -26.5q113 0 113 76q0 36 -41 56.5t-147 33.5q-112 13 -187.5 35t-128.5 61.5t-76.5 98.5t-23.5 145q0 119 65.5 202.5t171 122t240.5 38.5q146 0 247 -33t165.5 -113t77.5 -208h-363q-22 100 -121 100
q-53 0 -79.5 -20.5t-26.5 -53.5q0 -36 37.5 -53.5t130.5 -28.5q122 -15 202 -37.5t139 -61.5t85 -98t26 -145q0 -191 -133.5 -284t-370.5 -93zM276 -422l80 359l353 -25l-207 -389z" />
    <glyph glyph-name="uni021A" unicode="&#x21a;" horiz-adv-x="1288" 
d="M410 1108h-369v356h1206v-356h-370v-1108h-467v1108zM391 -422l80 359l352 -25l-207 -389z" />
    <glyph glyph-name="uni021B" unicode="&#x21b;" horiz-adv-x="811" 
d="M543 -25q-195 0 -295.5 92.5t-100.5 290.5v443h-124v270h124v219h404v-219h205v-270h-205v-404q0 -104 104 -104q51 0 101 16v-303q-108 -31 -213 -31zM184 -422l80 359l352 -25l-206 -389z" />
    <glyph glyph-name="uni0237" unicode="&#x237;" horiz-adv-x="620" 
d="M-18 -86q67 5 95.5 31.5t28.5 87.5v1038h404v-1048q0 -94 -24.5 -163.5t-82.5 -124t-163.5 -82.5t-257.5 -28v289z" />
    <glyph glyph-name="uni02BC" unicode="&#x2bc;" horiz-adv-x="657" 
d="M86 940l160 551l350 -113l-287 -524z" />
    <glyph glyph-name="circumflex" unicode="&#x2c6;" horiz-adv-x="819" 
d="M272 1528h283l246 -340h-281l-114 108l-115 -108h-275z" />
    <glyph glyph-name="caron" unicode="&#x2c7;" horiz-adv-x="819" 
d="M16 1528h281l115 -107l114 107h275l-256 -340h-283z" />
    <glyph glyph-name="breve" unicode="&#x2d8;" horiz-adv-x="819" 
d="M410 1190q-157 0 -248.5 86t-98.5 248h244q10 -92 103 -92q44 0 71.5 24.5t32.5 67.5h242q-10 -161 -102.5 -247.5t-243.5 -86.5z" />
    <glyph glyph-name="dotaccent" unicode="&#x2d9;" horiz-adv-x="819" 
d="M410 1167q-93 0 -152 54.5t-59 140.5t59.5 141.5t151.5 55.5q91 0 151 -55.5t60 -141.5t-60 -140.5t-151 -54.5z" />
    <glyph glyph-name="ring" unicode="&#x2da;" horiz-adv-x="819" 
d="M410 1315q41 0 65.5 27.5t24.5 70.5q0 45 -24.5 72.5t-65.5 27.5t-66 -27.5t-25 -72.5q0 -43 25 -70.5t66 -27.5zM410 1176q-101 0 -173.5 69.5t-72.5 167.5t72.5 169t173.5 71t173 -71t72 -169t-72 -167.5t-173 -69.5z" />
    <glyph glyph-name="ogonek" unicode="&#x2db;" horiz-adv-x="819" 
d="M397 -373q-104 0 -173.5 42.5t-69.5 117.5q0 73 48.5 122t131.5 91h221q-78 -66 -78 -121q0 -53 62 -53q35 0 51 8v-172q-76 -35 -193 -35z" />
    <glyph glyph-name="tilde" unicode="&#x2dc;" horiz-adv-x="819" 
d="M545 1190q-51 0 -99 16.5t-84 32.5t-59 16q-24 0 -40 -17t-21 -44h-213q10 165 74.5 248.5t166.5 83.5q62 0 141 -33t107 -33q53 0 62 64h213q-12 -164 -80 -249t-168 -85z" />
    <glyph glyph-name="hungarumlaut" unicode="&#x2dd;" horiz-adv-x="819" 
d="M186 1530h303l-159 -346h-234zM557 1530h303l-158 -346h-235z" />
    <glyph glyph-name="uni037E" unicode="&#x37e;" horiz-adv-x="667" 
d="M16 -162l166 557l373 -129l-303 -516zM365 557q-96 0 -161 63t-65 156t65 157t161 64q98 0 163.5 -64t65.5 -157t-65.5 -156t-163.5 -63z" />
    <glyph glyph-name="tonos" unicode="&#x384;" horiz-adv-x="819" 
d="M358 1530h396l-213 -346h-289z" />
    <glyph glyph-name="dieresistonos" unicode="&#x385;" horiz-adv-x="1011" 
d="M436 1573h291l-172 -379h-215zM862 1184q-68 0 -116 46.5t-48 112.5t48 113t116 47q71 0 117.5 -46.5t46.5 -113.5t-46.5 -113t-117.5 -46zM147 1184q-68 0 -115.5 46.5t-47.5 112.5t48 113t115 47q69 0 117.5 -47t48.5 -113t-48.5 -112.5t-117.5 -46.5z" />
    <glyph glyph-name="Alphatonos" unicode="&#x386;" horiz-adv-x="1556" 
d="M479 1464h600l459 -1464h-491l-68 244h-463l-65 -244h-433zM604 559h289l-143 531zM-27 1466h396l-213 -346h-289z" />
    <glyph glyph-name="anoteleia" unicode="&#x387;" horiz-adv-x="618" 
d="M307 449q-96 0 -160.5 63t-64.5 156t64.5 157t160.5 64q98 0 164 -64t66 -157t-66 -156t-164 -63z" />
    <glyph glyph-name="Epsilontonos" unicode="&#x388;" horiz-adv-x="1269" 
d="M133 1464h1041v-356h-578v-207h459v-326h-459v-219h610v-356h-1073v1464zM-317 1466h395l-213 -346h-289z" />
    <glyph glyph-name="Etatonos" unicode="&#x389;" horiz-adv-x="1626" 
d="M133 1464h465v-540h430v540h465v-1464h-465v563h-430v-563h-465v1464zM-317 1466h395l-213 -346h-289z" />
    <glyph glyph-name="Iotatonos" unicode="&#x38a;" horiz-adv-x="749" 
d="M139 1464h469v-1464h-469v1464zM-317 1466h395l-213 -346h-289z" />
    <glyph glyph-name="Omicrontonos" unicode="&#x38c;" horiz-adv-x="1679" 
d="M842 338q138 0 218.5 102t80.5 285v16q0 184 -81 283.5t-222 99.5q-138 0 -217.5 -99t-79.5 -284v-16q0 -187 80 -287t221 -100zM829 -27q-178 0 -323.5 55t-244.5 153.5t-152.5 237t-53.5 304.5v16q0 221 104.5 393t282 263.5t396.5 91.5q227 0 403.5 -86t279.5 -254.5
t103 -394.5v-17q0 -343 -217.5 -552.5t-577.5 -209.5zM-190 1466h395l-213 -346h-289z" />
    <glyph glyph-name="Upsilontonos" unicode="&#x38e;" horiz-adv-x="1417" 
d="M485 625l-475 839h504l223 -458l226 458h444l-455 -837v-627h-467v625zM-416 1466h396l-213 -346h-289z" />
    <glyph glyph-name="Omegatonos" unicode="&#x38f;" horiz-adv-x="1691" 
d="M541 719q0 -161 55 -278t164 -208v-233h-692v342h200q-89 64 -147 180.5t-58 239.5v12q0 204 100 366.5t278.5 253.5t402.5 91q228 0 406 -85.5t278 -245.5t100 -370v-12q0 -133 -57 -250t-146 -180h199v-342h-692v233q219 178 219 486v16q0 190 -79.5 289.5t-227.5 99.5
q-143 0 -223 -100t-80 -289v-16zM-190 1466h395l-213 -346h-289z" />
    <glyph glyph-name="iotadieresistonos" unicode="&#x390;" horiz-adv-x="618" 
d="M109 1071h401v-1071h-401v1071zM289 1573h291l-172 -379h-215zM715 1184q-68 0 -116 46.5t-48 112.5t48 113t116 47q71 0 117.5 -46.5t46.5 -113.5t-46.5 -113t-117.5 -46zM0 1184q-68 0 -116 46.5t-48 112.5t48 113t116 47q69 0 117.5 -47t48.5 -113t-48.5 -112.5
t-117.5 -46.5z" />
    <glyph glyph-name="Alpha" unicode="&#x391;" horiz-adv-x="1556" 
d="M479 1464h600l459 -1464h-491l-68 244h-463l-65 -244h-433zM604 559h289l-143 531z" />
    <glyph glyph-name="Beta" unicode="&#x392;" horiz-adv-x="1413" 
d="M133 1464h692q131 0 229 -29t156.5 -81.5t86.5 -120.5t28 -152v-8q0 -255 -254 -315q136 -24 214.5 -109t78.5 -233v-8q0 -408 -543 -408h-688v1464zM733 305q174 0 174 154v8q0 74 -44 111.5t-140 37.5h-137v-311h147zM727 893q86 0 123 30.5t37 98.5v8q0 67 -38.5 99
t-123.5 32h-139v-268h141z" />
    <glyph glyph-name="Gamma" unicode="&#x393;" horiz-adv-x="1177" 
d="M133 1464h1004v-358h-537v-1106h-467v1464z" />
    <glyph glyph-name="uni0394" unicode="&#x394;" horiz-adv-x="1581" 
d="M33 49l440 1415h639l436 -1415v-49h-1515v49zM545 354h440l-219 785z" />
    <glyph glyph-name="Epsilon" unicode="&#x395;" horiz-adv-x="1269" 
d="M133 1464h1041v-356h-578v-207h459v-326h-459v-219h610v-356h-1073v1464z" />
    <glyph glyph-name="Zeta" unicode="&#x396;" horiz-adv-x="1284" 
d="M20 49l586 1067h-504v348h1153v-49l-579 -1065h545v-350h-1201v49z" />
    <glyph glyph-name="Eta" unicode="&#x397;" horiz-adv-x="1626" 
d="M133 1464h465v-540h430v540h465v-1464h-465v563h-430v-563h-465v1464z" />
    <glyph glyph-name="Theta" unicode="&#x398;" horiz-adv-x="1718" 
d="M850 -27q-372 0 -583.5 201.5t-211.5 548.5v16q0 229 106 400t286.5 258.5t410.5 87.5q175 0 322 -47.5t255 -138t168 -230.5t60 -317v-17q0 -354 -219.5 -558t-593.5 -204zM860 328q150 0 238 107t88 292v16q0 184 -88.5 287t-239.5 103t-237 -102t-86 -290v-16
q0 -187 87 -292t238 -105zM682 874h354v-276h-354v276z" />
    <glyph glyph-name="Iota" unicode="&#x399;" horiz-adv-x="749" 
d="M139 1464h469v-1464h-469v1464z" />
    <glyph glyph-name="Kappa" unicode="&#x39a;" horiz-adv-x="1527" 
d="M133 1464h465v-555l406 555h481l-514 -676l542 -788h-534l-381 586v-586h-465v1464z" />
    <glyph glyph-name="Lambda" unicode="&#x39b;" horiz-adv-x="1517" 
d="M1499 0h-502l-270 965l-274 -965h-435l469 1464h539z" />
    <glyph glyph-name="Mu" unicode="&#x39c;" horiz-adv-x="1961" 
d="M133 1464h602l248 -710l252 710h590v-1464h-461v864l-334 -864h-156l-327 864v-864h-414v1464z" />
    <glyph glyph-name="Nu" unicode="&#x39d;" horiz-adv-x="1611" 
d="M133 1464h520l416 -774v774h408v-1464h-445l-489 877v-877h-410v1464z" />
    <glyph glyph-name="Xi" unicode="&#x39e;" horiz-adv-x="1294" 
d="M1217 1464v-366h-1137v366h1137zM1120 903v-336h-946v336h946zM66 369h1163v-369h-1163v369z" />
    <glyph glyph-name="Omicron" unicode="&#x39f;" horiz-adv-x="1679" 
d="M842 338q138 0 218.5 102t80.5 285v16q0 184 -81 283.5t-222 99.5q-138 0 -217.5 -99t-79.5 -284v-16q0 -187 80 -287t221 -100zM829 -27q-178 0 -323.5 55t-244.5 153.5t-152.5 237t-53.5 304.5v16q0 221 104.5 393t282 263.5t396.5 91.5q227 0 403.5 -86t279.5 -254.5
t103 -394.5v-17q0 -343 -217.5 -552.5t-577.5 -209.5z" />
    <glyph glyph-name="Pi" unicode="&#x3a0;" horiz-adv-x="1613" 
d="M133 1464h1348v-1464h-465v1092h-416v-1092h-467v1464z" />
    <glyph glyph-name="Rho" unicode="&#x3a1;" horiz-adv-x="1361" 
d="M133 1464h584q307 0 454.5 -129.5t147.5 -371.5v-9q0 -230 -148.5 -353.5t-433.5 -123.5h-141v-477h-463v1464zM692 788q187 0 187 164v9q0 84 -45 120.5t-140 36.5h-98v-330h96z" />
    <glyph glyph-name="Sigma" unicode="&#x3a3;" horiz-adv-x="1261" 
d="M86 1122v342h1083v-344h-548l311 -360l-309 -398h575v-362h-1120v291l338 444z" />
    <glyph glyph-name="Tau" unicode="&#x3a4;" horiz-adv-x="1288" 
d="M410 1108h-369v356h1206v-356h-370v-1108h-467v1108z" />
    <glyph glyph-name="Upsilon" unicode="&#x3a5;" horiz-adv-x="1417" 
d="M485 625l-475 839h504l223 -458l226 458h444l-455 -837v-627h-467v625z" />
    <glyph glyph-name="Phi" unicode="&#x3a6;" horiz-adv-x="1990" 
d="M784 84q-346 17 -537.5 197t-191.5 454v15q0 269 201.5 449t527.5 200v123h418v-123q334 -20 533.5 -192t199.5 -445v-14q0 -280 -193.5 -462t-539.5 -202v-141h-418v141zM506 737q0 -133 71.5 -214.5t206.5 -104.5v649q-138 -23 -208 -103t-70 -212v-15zM1485 752
q0 130 -73.5 211t-209.5 104v-651q136 23 209.5 107t73.5 214v15z" />
    <glyph glyph-name="Chi" unicode="&#x3a7;" horiz-adv-x="1583" 
d="M483 754l-413 710h530l205 -411l201 411h475l-383 -694l448 -770h-528l-252 481l-252 -481h-477z" />
    <glyph glyph-name="Psi" unicode="&#x3a8;" horiz-adv-x="1884" 
d="M737 328q-322 17 -486.5 184t-164.5 436v516h440v-485q0 -138 48 -210.5t163 -90.5v786h420v-780q112 24 168.5 97t56.5 210v473h418v-485q0 -182 -69 -319t-214.5 -224t-359.5 -106v-330h-420v328z" />
    <glyph glyph-name="uni03A9" unicode="&#x3a9;" horiz-adv-x="1691" 
d="M541 719q0 -161 55 -278t164 -208v-233h-692v342h200q-89 64 -147 180.5t-58 239.5v12q0 204 100 366.5t278.5 253.5t402.5 91q228 0 406 -85.5t278 -245.5t100 -370v-12q0 -133 -57 -250t-146 -180h199v-342h-692v233q219 178 219 486v16q0 190 -79.5 289.5t-227.5 99.5
q-143 0 -223 -100t-80 -289v-16z" />
    <glyph glyph-name="Iotadieresis" unicode="&#x3aa;" horiz-adv-x="749" 
d="M139 1464h469v-1464h-469v1464zM141 1540q-78 0 -132 53.5t-54 128.5q0 77 54 130t132 53q79 0 134 -53t55 -130q0 -75 -55 -128.5t-134 -53.5zM606 1540q-78 0 -132 53.5t-54 128.5q0 77 54 130t132 53q79 0 134 -53t55 -130q0 -75 -55 -128.5t-134 -53.5z" />
    <glyph glyph-name="Upsilondieresis" unicode="&#x3ab;" horiz-adv-x="1417" 
d="M485 625l-475 839h504l223 -458l226 458h444l-455 -837v-627h-467v625zM494 1540q-78 0 -132.5 53.5t-54.5 128.5q0 76 54.5 129.5t132.5 53.5q79 0 133.5 -53t54.5 -130q0 -75 -54.5 -128.5t-133.5 -53.5zM958 1540q-78 0 -132 53.5t-54 128.5q0 77 54 130t132 53
q79 0 134 -53t55 -130q0 -75 -55 -128.5t-134 -53.5z" />
    <glyph glyph-name="alphatonos" unicode="&#x3ac;" horiz-adv-x="1306" 
d="M635 281q87 0 134.5 64t47.5 187v17q0 252 -178 252q-182 0 -182 -254v-17q0 -124 45.5 -186.5t132.5 -62.5zM489 -27q-90 0 -168.5 34t-140.5 99.5t-97.5 173t-35.5 244.5v17q0 136 35.5 244t97 176t140.5 103.5t169 35.5q221 0 316 -176v147h403v-1071h-403v170
q-45 -89 -124.5 -143t-191.5 -54zM645 1530h395l-213 -346h-288z" />
    <glyph glyph-name="epsilontonos" unicode="&#x3ad;" horiz-adv-x="1193" 
d="M274 559q-88 18 -146 82t-58 152q0 64 28.5 118t89 97.5t165.5 68.5t247 25q109 0 199.5 -20t166 -62t123.5 -114.5t62 -170.5h-377q-6 46 -37 76.5t-112 30.5q-144 0 -144 -99q0 -36 23.5 -62t77.5 -26h190v-211h-186q-131 0 -131 -94q0 -100 170 -100q160 0 170 115
h366q-36 -392 -559 -392q-281 0 -419 86.5t-138 245.5q0 95 60 163t169 91zM588 1530h395l-213 -346h-289z" />
    <glyph glyph-name="etatonos" unicode="&#x3ae;" horiz-adv-x="1288" 
d="M96 1071h404v-172q47 92 136.5 147.5t217.5 55.5q158 0 251 -101t93 -296v-1061h-401v970q0 83 -33.5 123.5t-104.5 40.5q-76 0 -117.5 -46t-41.5 -140v-592h-404v1071zM598 1530h395l-213 -346h-288z" />
    <glyph glyph-name="iotatonos" unicode="&#x3af;" horiz-adv-x="618" 
d="M109 1071h401v-1071h-401v1071zM276 1530h396l-213 -346h-289z" />
    <glyph glyph-name="upsilondieresistonos" unicode="&#x3b0;" horiz-adv-x="1269" 
d="M633 -27q-269 0 -409 138.5t-140 375.5v584h403v-610q0 -94 35.5 -140.5t112.5 -46.5q147 0 147 183v614h404v-575q0 -244 -140.5 -383.5t-412.5 -139.5zM575 1573h291l-172 -379h-215zM1001 1184q-68 0 -115.5 46.5t-47.5 112.5t48 113t115 47q71 0 117.5 -46.5
t46.5 -113.5t-46.5 -113t-117.5 -46zM287 1184q-68 0 -116 46.5t-48 112.5t48 113t116 47q69 0 117.5 -47t48.5 -113t-48.5 -112.5t-117.5 -46.5z" />
    <glyph glyph-name="alpha" unicode="&#x3b1;" horiz-adv-x="1306" 
d="M635 281q87 0 134.5 64t47.5 187v17q0 252 -178 252q-182 0 -182 -254v-17q0 -124 45.5 -186.5t132.5 -62.5zM489 -27q-90 0 -168.5 34t-140.5 99.5t-97.5 173t-35.5 244.5v17q0 136 35.5 244t97 176t140.5 103.5t169 35.5q221 0 316 -176v147h403v-1071h-403v170
q-45 -89 -124.5 -143t-191.5 -54z" />
    <glyph glyph-name="beta" unicode="&#x3b2;" horiz-adv-x="1310" 
d="M627 954q104 -4 155.5 41t51.5 123v10q0 64 -46 106t-122 42q-75 0 -120.5 -52t-45.5 -147v-583q0 -99 52.5 -155t125.5 -56q82 0 131 51t49 151v13q0 203 -231 194v262zM965 846q142 -35 222.5 -139t80.5 -248v-15q0 -202 -130.5 -330t-332.5 -128q-97 0 -179.5 45
t-125.5 129v-516h-404v1411q0 128 42 225t118.5 155.5t177.5 87.5t225 29q241 0 389 -103t148 -288v-8q0 -104 -64 -191t-167 -116z" />
    <glyph glyph-name="gamma" unicode="&#x3b3;" horiz-adv-x="1277" 
d="M885 1071h385l-430 -1057v-370h-400v370l-432 1057h434l222 -633z" />
    <glyph glyph-name="delta" unicode="&#x3b4;" horiz-adv-x="1277" 
d="M217 1534h903v-303h-385l240 -236q94 -90 145 -154t82 -144.5t31 -176.5v-16q0 -153 -79 -275t-215 -189t-302 -67q-168 0 -302 62t-213 183t-79 282v14q0 126 53 230t155 167.5t234 63.5q32 0 56 -8l-324 315v252zM823 524q0 105 -49.5 168.5t-134.5 63.5
q-91 0 -137.5 -60t-46.5 -168v-14q0 -115 45 -179.5t139 -64.5q92 0 138 62.5t46 175.5v16z" />
    <glyph glyph-name="epsilon" unicode="&#x3b5;" horiz-adv-x="1193" 
d="M274 559q-88 18 -146 82t-58 152q0 64 28.5 118t89 97.5t165.5 68.5t247 25q109 0 199.5 -20t166 -62t123.5 -114.5t62 -170.5h-377q-6 46 -37 76.5t-112 30.5q-144 0 -144 -99q0 -36 23.5 -62t77.5 -26h190v-211h-186q-131 0 -131 -94q0 -100 170 -100q160 0 170 115
h366q-36 -392 -559 -392q-281 0 -419 86.5t-138 245.5q0 95 60 163t169 91z" />
    <glyph glyph-name="zeta" unicode="&#x3b6;" horiz-adv-x="1064" 
d="M528 0q-235 0 -360 115.5t-125 320.5q0 185 114 389.5t285 370.5h-325v338h954v-82q-253 -253 -432.5 -534t-179.5 -441q0 -85 44 -120t134 -35h80q167 0 251.5 -83.5t84.5 -224.5q0 -119 -62 -313h-309q13 39 26 97t13 87q0 61 -26 88t-85 27h-82z" />
    <glyph glyph-name="eta" unicode="&#x3b7;" horiz-adv-x="1288" 
d="M96 1071h404v-172q47 92 136.5 147.5t217.5 55.5q158 0 251 -101t93 -296v-1061h-401v970q0 83 -33.5 123.5t-104.5 40.5q-76 0 -117.5 -46t-41.5 -140v-592h-404v1071z" />
    <glyph glyph-name="theta" unicode="&#x3b8;" horiz-adv-x="1314" 
d="M1243 745q0 -178 -35.5 -319t-106.5 -242.5t-183.5 -156t-260.5 -54.5q-196 0 -329 94t-195.5 262t-62.5 404v62q0 351 156 554t431 203q273 0 429.5 -194.5t156.5 -552.5v-60zM657 1257q-106 0 -151.5 -88.5t-50.5 -267.5h403q-5 180 -50.5 268t-150.5 88zM659 266
q101 0 147.5 91t51.5 266h-403q2 -178 49 -267.5t155 -89.5z" />
    <glyph glyph-name="iota" unicode="&#x3b9;" horiz-adv-x="618" 
d="M109 1071h401v-1071h-401v1071z" />
    <glyph glyph-name="kappa" unicode="&#x3ba;" horiz-adv-x="1214" 
d="M500 641l284 430h416l-350 -498l360 -573h-446l-264 438v-438h-404v1071h404v-430z" />
    <glyph glyph-name="lambda" unicode="&#x3bb;" horiz-adv-x="1251" 
d="M379 1141q-25 61 -57.5 84.5t-92.5 23.5q-49 0 -135 -22v289q99 36 256 36q64 0 114 -13t102 -47t96.5 -100t82.5 -165l322 -848q30 -78 92 -78q42 0 82 8v-301q-76 -26 -197 -26q-228 0 -317 251l-129 367l-186 -600h-418l420 1053z" />
    <glyph glyph-name="uni03BC" unicode="&#x3bc;" horiz-adv-x="1290" 
d="M96 1071h404v-643q0 -160 135 -160q160 0 160 185v618h403v-1071h-395v141q-50 -139 -176 -139q-81 0 -127 70v-428h-404v1427z" />
    <glyph glyph-name="nu" unicode="&#x3bd;" horiz-adv-x="1236" 
d="M10 1071h430l203 -651l205 651h379l-391 -1071h-433z" />
    <glyph glyph-name="xi" unicode="&#x3be;" horiz-adv-x="1087" 
d="M745 319q167 0 248.5 -82.5t81.5 -224.5q0 -104 -61 -311h-309q13 38 25.5 96.5t12.5 87.5q0 61 -25.5 88t-84.5 27h-64q-244 0 -385 113t-141 315q0 139 86 235.5t219 122.5q-211 71 -211 246q0 81 47 140t135 88h-245v274h962v-315h-295q-206 0 -206 -140q0 -61 48 -98
t134 -37h229v-321h-278q-106 0 -159.5 -38.5t-53.5 -121.5q0 -144 196 -144h94z" />
    <glyph glyph-name="omicron" unicode="&#x3bf;" horiz-adv-x="1282" 
d="M643 270q184 0 184 260v15q0 258 -184 258q-190 0 -190 -252v-16q0 -265 190 -265zM641 -27q-126 0 -234 37t-189 105t-127 173t-46 234v17q0 128 46 234t126 177.5t190 110.5t236 39q168 0 302 -65t213 -191.5t79 -294.5v-17q0 -171 -79.5 -299.5t-214 -194
t-302.5 -65.5z" />
    <glyph glyph-name="pi" unicode="&#x3c0;" horiz-adv-x="1363" 
d="M807 782h-252v-782h-399v782h-131v289h1314v-289h-131v-782h-401v782z" />
    <glyph glyph-name="rho" unicode="&#x3c1;" horiz-adv-x="1292" 
d="M657 270q181 0 181 258v17q0 129 -45 193.5t-140 64.5q-186 0 -186 -252v-16q0 -265 190 -265zM745 -8q-82 0 -157 41.5t-115 116.5v-506h-405v895q0 171 76.5 300t208.5 196t300 67t302 -65.5t213 -192.5t79 -295v-17q0 -126 -39 -229t-107.5 -170.5t-159.5 -104
t-196 -36.5z" />
    <glyph glyph-name="uni03C2" unicode="&#x3c2;" horiz-adv-x="1198" 
d="M455 541q0 -108 53 -169t162 -61h45q170 0 263 -80.5t93 -218.5q0 -27 -3.5 -58t-8 -55.5t-13 -58.5t-13 -51t-14 -49.5t-11.5 -38.5h-308q3 15 14 56.5t18 76t7 57.5q0 59 -26 84t-84 25h-29q-246 0 -401.5 141.5t-155.5 380.5v17q0 132 46 239.5t125.5 177.5t185 108
t225.5 38q83 0 156.5 -14.5t141.5 -48.5t118 -85t81.5 -129t36.5 -176h-379q-23 142 -155 142q-170 0 -170 -232v-18z" />
    <glyph glyph-name="sigma" unicode="&#x3c3;" horiz-adv-x="1341" 
d="M641 -27q-126 0 -235 37t-190 105t-127 173t-46 234v17q0 168 77 289.5t209 182t304 60.5h684v-289h-234q69 -37 106.5 -109.5t37.5 -154.5v-14q0 -123 -44.5 -223.5t-123 -167.5t-186 -103.5t-232.5 -36.5zM643 270q91 0 137.5 66t46.5 192v21q0 252 -184 252
q-188 0 -188 -246v-20q0 -265 188 -265z" />
    <glyph glyph-name="tau" unicode="&#x3c4;" horiz-adv-x="1019" 
d="M680 -16q-387 0 -387 411v387h-268v289h956v-289h-285v-348q0 -78 29.5 -110.5t101.5 -32.5q47 0 109 12v-297q-99 -22 -256 -22z" />
    <glyph glyph-name="upsilon" unicode="&#x3c5;" horiz-adv-x="1269" 
d="M633 -27q-269 0 -409 138.5t-140 375.5v584h403v-610q0 -94 35.5 -140.5t112.5 -46.5q147 0 147 183v614h404v-575q0 -244 -140.5 -383.5t-412.5 -139.5z" />
    <glyph glyph-name="phi" unicode="&#x3c6;" horiz-adv-x="1724" 
d="M1679 537q0 -134 -46.5 -239t-130.5 -171.5t-195.5 -101.5t-245.5 -37v-344h-397v344q-139 2 -251.5 36t-195.5 99.5t-128.5 169.5t-45.5 239v17q0 224 132.5 366t385.5 172v-294q-65 -25 -93 -84t-28 -170v-17q0 -124 51 -185t173 -71v819q121 17 286 17
q336 0 532.5 -148.5t196.5 -400.5v-16zM1284 549q0 125 -51 192t-172 68v-543q123 0 173 69t50 197v17z" />
    <glyph glyph-name="chi" unicode="&#x3c7;" horiz-adv-x="1241" 
d="M387 401l-168 297q-23 41 -50 57.5t-69 16.5q-38 0 -75 -12v289q99 45 208 45q110 0 184.5 -40t127.5 -141l117 -223l159 381h406l-367 -700l203 -351q23 -38 47 -53.5t59 -15.5t66 8v-297q-87 -31 -207 -31q-98 0 -175.5 50t-141.5 165l-127 240l-197 -442h-389z" />
    <glyph glyph-name="psi" unicode="&#x3c8;" horiz-adv-x="1742" 
d="M479 520q0 -225 193 -244v795h397v-795q195 20 195 244v551h399v-543q0 -133 -46.5 -236.5t-129.5 -167t-188 -97t-230 -37.5v-346h-397v346q-130 2 -236 34.5t-187.5 95.5t-126 165.5t-44.5 238.5v547h401v-551z" />
    <glyph glyph-name="omega" unicode="&#x3c9;" horiz-adv-x="1726" 
d="M1061 438q0 -86 22.5 -128t75.5 -42q115 0 115 236v16q0 125 -37 196t-131 93v293q280 -13 427.5 -168t147.5 -418v-16q0 -236 -125 -381.5t-344 -145.5q-252 0 -350 217q-37 -90 -125 -153.5t-221 -63.5q-226 0 -349.5 144.5t-123.5 382.5v16q0 263 149 418t429 168
v-293q-93 -22 -129.5 -92t-36.5 -195v-16q0 -238 112 -238q99 0 99 170v277h395v-277z" />
    <glyph glyph-name="iotadieresis" unicode="&#x3ca;" horiz-adv-x="618" 
d="M109 1071h401v-1071h-401v1071zM88 1167q-78 0 -132 54t-54 129t54 128.5t132 53.5q79 0 133.5 -53.5t54.5 -128.5q0 -76 -54.5 -129.5t-133.5 -53.5zM532 1167q-77 0 -130.5 53.5t-53.5 129.5t53 129t131 53q79 0 134 -53.5t55 -128.5t-55 -129t-134 -54z" />
    <glyph glyph-name="upsilondieresis" unicode="&#x3cb;" horiz-adv-x="1269" 
d="M633 -27q-269 0 -409 138.5t-140 375.5v584h403v-610q0 -94 35.5 -140.5t112.5 -46.5q147 0 147 183v614h404v-575q0 -244 -140.5 -383.5t-412.5 -139.5zM410 1167q-78 0 -132.5 54t-54.5 129t54.5 128.5t132.5 53.5q79 0 133.5 -53.5t54.5 -128.5q0 -76 -54.5 -129.5
t-133.5 -53.5zM854 1167q-77 0 -130.5 53.5t-53.5 129.5t53 129t131 53q79 0 133.5 -53.5t54.5 -128.5q0 -76 -54.5 -129.5t-133.5 -53.5z" />
    <glyph glyph-name="omicrontonos" unicode="&#x3cc;" horiz-adv-x="1282" 
d="M643 270q184 0 184 260v15q0 258 -184 258q-190 0 -190 -252v-16q0 -265 190 -265zM641 -27q-126 0 -234 37t-189 105t-127 173t-46 234v17q0 128 46 234t126 177.5t190 110.5t236 39q168 0 302 -65t213 -191.5t79 -294.5v-17q0 -171 -79.5 -299.5t-214 -194
t-302.5 -65.5zM600 1530h395l-213 -346h-288z" />
    <glyph glyph-name="upsilontonos" unicode="&#x3cd;" horiz-adv-x="1269" 
d="M633 -27q-269 0 -409 138.5t-140 375.5v584h403v-610q0 -94 35.5 -140.5t112.5 -46.5q147 0 147 183v614h404v-575q0 -244 -140.5 -383.5t-412.5 -139.5zM592 1530h395l-213 -346h-289z" />
    <glyph glyph-name="omegatonos" unicode="&#x3ce;" horiz-adv-x="1726" 
d="M1061 438q0 -86 22.5 -128t75.5 -42q115 0 115 236v16q0 125 -37 196t-131 93v293q280 -13 427.5 -168t147.5 -418v-16q0 -236 -125 -381.5t-344 -145.5q-252 0 -350 217q-37 -90 -125 -153.5t-221 -63.5q-226 0 -349.5 144.5t-123.5 382.5v16q0 263 149 418t429 168
v-293q-93 -22 -129.5 -92t-36.5 -195v-16q0 -238 112 -238q99 0 99 170v277h395v-277zM827 1530h396l-213 -346h-289z" />
    <glyph glyph-name="uni0401" unicode="&#x401;" horiz-adv-x="1269" 
d="M133 1464h1041v-356h-578v-207h459v-326h-459v-219h610v-356h-1073v1464zM436 1540q-78 0 -132 53.5t-54 128.5q0 77 54 130t132 53q79 0 134 -53t55 -130q0 -75 -55 -128.5t-134 -53.5zM901 1540q-78 0 -132 53.5t-54 128.5q0 77 54 130t132 53q79 0 134 -53t55 -130
q0 -75 -55 -128.5t-134 -53.5z" />
    <glyph glyph-name="uni0402" unicode="&#x402;" horiz-adv-x="1751" 
d="M877 840q48 27 86 43q108 45 245 45q231 0 358.5 -132t127.5 -352q0 -233 -120.5 -363t-361.5 -130q-129 0 -235 49v319q43 -26 125 -26q64 0 96.5 38.5t32.5 106.5q0 140 -166 140q-66 0 -139 -31q-22 -10 -49 -29v-518h-467v1108h-369v356h1206v-356h-370v-268z" />
    <glyph glyph-name="uni0403" unicode="&#x403;" horiz-adv-x="1175" 
d="M133 1464h993v-358h-526v-1106h-467v1464zM571 1855h412l-211 -305h-305z" />
    <glyph glyph-name="uni0404" unicode="&#x404;" horiz-adv-x="1564" 
d="M1528 528q-36 -272 -219.5 -413.5t-477.5 -141.5q-193 0 -341.5 54t-242.5 153t-142 236t-48 307v16q0 222 99 393.5t271 263t388 91.5q613 0 692 -541h-479q-30 178 -211 178q-98 0 -163 -56t-91 -165h449v-325h-453q23 -116 91.5 -176t174.5 -60q202 0 240 186h463z
" />
    <glyph glyph-name="uni0405" unicode="&#x405;" horiz-adv-x="1337" 
d="M684 -27q-313 0 -475.5 124.5t-169.5 371.5h440q11 -168 205 -168q80 0 121 32.5t41 88.5t-44 81.5t-165 43.5q-317 37 -441 140.5t-124 330.5q0 207 157.5 337t427.5 130q278 0 424.5 -114t165.5 -353h-430q-16 141 -160 141q-70 0 -107.5 -28.5t-37.5 -77.5
q0 -54 42 -80t163 -43q97 -10 171 -25t141 -39t113.5 -58t80.5 -81.5t50.5 -111t16.5 -144.5q0 -102 -40.5 -192t-115.5 -158.5t-191 -108t-259 -39.5z" />
    <glyph glyph-name="uni0406" unicode="&#x406;" horiz-adv-x="749" 
d="M139 1464h469v-1464h-469v1464z" />
    <glyph glyph-name="uni0407" unicode="&#x407;" horiz-adv-x="749" 
d="M139 1464h469v-1464h-469v1464zM141 1540q-78 0 -132 53.5t-54 128.5q0 77 54 130t132 53q79 0 134 -53t55 -130q0 -75 -55 -128.5t-134 -53.5zM606 1540q-78 0 -132 53.5t-54 128.5q0 77 54 130t132 53q79 0 134 -53t55 -130q0 -75 -55 -128.5t-134 -53.5z" />
    <glyph glyph-name="uni0408" unicode="&#x408;" horiz-adv-x="1001" 
d="M344 -18q-174 0 -278 51v342q91 -27 174 -27q88 0 136 44t48 147v925h465v-927q0 -555 -545 -555z" />
    <glyph glyph-name="uni0409" unicode="&#x409;" horiz-adv-x="2162" 
d="M950 1106h-270q-13 -381 -23 -479q-10 -125 -30 -222t-55 -180t-85.5 -137t-124 -84.5t-167.5 -30.5q-27 0 -53 3t-44 6.5t-32 7.5t-22 7l-7 3v352l12 -6q20 -4 41 -4q75 0 113.5 86.5t56.5 267.5q19 183 19 768h1136v-489h123q287 0 434.5 -120.5t147.5 -352.5v-8
q0 -494 -602 -494h-568v1106zM1495 342q94 0 139 34t45 116v8q0 159 -186 159h-78v-317h80z" />
    <glyph glyph-name="uni040A" unicode="&#x40a;" horiz-adv-x="2191" 
d="M1524 342q95 0 139.5 34t44.5 116v8q0 159 -186 159h-78v-317h80zM981 563h-381v-563h-467v1464h467v-540h381v540h463v-489h123q287 0 434 -120.5t147 -352.5v-8q0 -494 -602 -494h-565v563z" />
    <glyph glyph-name="uni040B" unicode="&#x40b;" horiz-adv-x="1771" 
d="M877 840q48 27 86 43q108 45 245 45q246 0 366 -138t120 -393v-397h-463v381q0 103 -38.5 150t-137.5 47q-64 0 -133 -31q-22 -10 -45 -29v-518h-467v1108h-369v356h1206v-356h-370v-268z" />
    <glyph glyph-name="uni040C" unicode="&#x40c;" horiz-adv-x="1527" 
d="M721 1855h412l-211 -305h-306zM133 1464h465v-555l406 555h481l-514 -676l542 -788h-534l-381 586v-586h-465v1464z" />
    <glyph glyph-name="uni040D" unicode="&#x40d;" horiz-adv-x="1656" 
d="M133 0v1464h467v-843l465 843h459v-1464h-465v852l-465 -852h-461zM489 1855h414l96 -305h-305z" />
    <glyph glyph-name="uni040E" unicode="&#x40e;" horiz-adv-x="1390" 
d="M731 1534q-164 0 -253.5 83.5t-100.5 237.5h266q5 -47 24.5 -73.5t63.5 -26.5q74 0 90 100h264q-12 -153 -104 -237t-250 -84zM418 -23q-47 0 -93 7t-67.5 13t-32.5 11v354q42 -18 129 -18q89 0 152 84l-494 1036h482l241 -559l219 559h437l-449 -1046
q-51 -117 -95.5 -191.5t-105.5 -135t-139.5 -87.5t-183.5 -27z" />
    <glyph glyph-name="uni040F" unicode="&#x40f;" horiz-adv-x="1605" 
d="M133 0v1464h467v-1106h408v1106h465v-1464h-474l-10 -266h-379l-10 266h-467z" />
    <glyph glyph-name="uni0410" unicode="&#x410;" horiz-adv-x="1556" 
d="M479 1464h600l459 -1464h-491l-68 244h-463l-65 -244h-433zM604 559h289l-143 531z" />
    <glyph glyph-name="uni0411" unicode="&#x411;" horiz-adv-x="1372" 
d="M1333 475q0 -475 -577 -475h-623v1464h1055v-356h-596v-178h174q280 0 423.5 -117t143.5 -330v-8zM705 328q180 0 180 147v8q0 150 -183 150h-110v-305h113z" />
    <glyph glyph-name="uni0412" unicode="&#x412;" horiz-adv-x="1413" 
d="M133 1464h692q131 0 229 -29t156.5 -81.5t86.5 -120.5t28 -152v-8q0 -255 -254 -315q136 -24 214.5 -109t78.5 -233v-8q0 -408 -543 -408h-688v1464zM733 305q174 0 174 154v8q0 74 -44 111.5t-140 37.5h-137v-311h147zM727 893q86 0 123 30.5t37 98.5v8q0 67 -38.5 99
t-123.5 32h-139v-268h141z" />
    <glyph glyph-name="uni0413" unicode="&#x413;" horiz-adv-x="1175" 
d="M133 1464h993v-358h-526v-1106h-467v1464z" />
    <glyph glyph-name="uni0414" unicode="&#x414;" horiz-adv-x="1589" 
d="M623 659q-23 -205 -70 -301h397v750h-305q-1 -36 -3.5 -117.5t-4.5 -124t-5.5 -102.5t-8.5 -105zM387 -266h-401v624h96q60 29 93.5 112t51.5 235q19 160 19 759h1165v-1106h178v-624h-401l-14 266h-773z" />
    <glyph glyph-name="uni0415" unicode="&#x415;" horiz-adv-x="1269" 
d="M133 1464h1041v-356h-578v-207h459v-326h-459v-219h610v-356h-1073v1464z" />
    <glyph glyph-name="uni0416" unicode="&#x416;" horiz-adv-x="2140" 
d="M842 614l-340 -614h-486l461 772l-440 692h465l340 -583v583h452v-579l342 579h459l-442 -669l471 -795h-506l-324 612v-612h-452v614z" />
    <glyph glyph-name="uni0417" unicode="&#x417;" horiz-adv-x="1368" 
d="M676 -25q-271 0 -442.5 135.5t-202.5 397.5h438q18 -89 67.5 -135.5t139.5 -46.5q168 0 168 143q0 135 -154 135h-139v295h135q72 0 104.5 28.5t32.5 94.5q0 57 -40 87t-103 30q-163 0 -191 -178h-428q31 256 195 391t440 135q263 0 423.5 -117t160.5 -293
q0 -258 -252 -321q135 -21 214 -105t79 -227q0 -134 -82 -236.5t-228.5 -157.5t-334.5 -55z" />
    <glyph glyph-name="uni0418" unicode="&#x418;" horiz-adv-x="1656" 
d="M133 0v1464h467v-843l465 843h459v-1464h-465v852l-465 -852h-461z" />
    <glyph glyph-name="uni0419" unicode="&#x419;" horiz-adv-x="1656" 
d="M817 1534q-162 0 -251.5 83.5t-100.5 237.5h266q5 -47 23.5 -73.5t62.5 -26.5q78 0 90 100h264q-12 -153 -104 -237t-250 -84zM133 0v1464h467v-843l465 843h459v-1464h-465v852l-465 -852h-461z" />
    <glyph glyph-name="uni041A" unicode="&#x41a;" horiz-adv-x="1527" 
d="M133 1464h465v-555l406 555h481l-514 -676l542 -788h-534l-381 586v-586h-465v1464z" />
    <glyph glyph-name="uni041B" unicode="&#x41b;" horiz-adv-x="1556" 
d="M649 549q-17 -139 -47 -239t-81.5 -179t-132.5 -118.5t-193 -39.5q-27 0 -53 3t-44 6.5t-32 7.5t-22 7l-7 3v352l12 -6q20 -4 41 -4q71 0 109.5 80t56.5 246q23 227 23 796h1144v-1464h-465v1106h-278q-11 -376 -31 -557z" />
    <glyph glyph-name="uni041C" unicode="&#x41c;" horiz-adv-x="1961" 
d="M133 1464h602l248 -710l252 710h590v-1464h-461v864l-334 -864h-156l-327 864v-864h-414v1464z" />
    <glyph glyph-name="uni041D" unicode="&#x41d;" horiz-adv-x="1626" 
d="M133 1464h465v-540h430v540h465v-1464h-465v563h-430v-563h-465v1464z" />
    <glyph glyph-name="uni041E" unicode="&#x41e;" horiz-adv-x="1679" 
d="M842 338q138 0 218.5 102t80.5 285v16q0 184 -81 283.5t-222 99.5q-138 0 -217.5 -99t-79.5 -284v-16q0 -187 80 -287t221 -100zM829 -27q-178 0 -323.5 55t-244.5 153.5t-152.5 237t-53.5 304.5v16q0 221 104.5 393t282 263.5t396.5 91.5q227 0 403.5 -86t279.5 -254.5
t103 -394.5v-17q0 -343 -217.5 -552.5t-577.5 -209.5z" />
    <glyph glyph-name="uni041F" unicode="&#x41f;" horiz-adv-x="1605" 
d="M1008 1104h-408v-1104h-467v1464h1340v-1464h-465v1104z" />
    <glyph glyph-name="uni0420" unicode="&#x420;" horiz-adv-x="1361" 
d="M133 1464h584q307 0 454.5 -129.5t147.5 -371.5v-9q0 -230 -148.5 -353.5t-433.5 -123.5h-141v-477h-463v1464zM692 788q187 0 187 164v9q0 84 -45 120.5t-140 36.5h-98v-330h96z" />
    <glyph glyph-name="uni0421" unicode="&#x421;" horiz-adv-x="1564" 
d="M836 -27q-195 0 -344.5 53.5t-244 153t-142.5 236.5t-48 307v16q0 222 99 393.5t271 263t388 91.5q305 0 488.5 -144.5t207.5 -433.5h-479q-22 211 -215 211q-129 0 -199.5 -97.5t-70.5 -281.5v-16q0 -184 71.5 -281.5t206.5 -97.5q102 0 166 54t76 161h463
q-13 -189 -105 -322.5t-242.5 -199.5t-346.5 -66z" />
    <glyph glyph-name="uni0422" unicode="&#x422;" horiz-adv-x="1288" 
d="M410 1108h-369v356h1206v-356h-370v-1108h-467v1108z" />
    <glyph glyph-name="uni0423" unicode="&#x423;" horiz-adv-x="1390" 
d="M418 -23q-47 0 -93 7t-67.5 13t-32.5 11v354q42 -18 129 -18q89 0 152 84l-494 1036h482l241 -559l219 559h437l-449 -1046q-51 -117 -95.5 -191.5t-105.5 -135t-139.5 -87.5t-183.5 -27z" />
    <glyph glyph-name="uni0424" unicode="&#x424;" horiz-adv-x="1925" 
d="M1194 1329q312 -8 497 -161.5t185 -419.5v-17q0 -134 -53 -242.5t-146 -179.5t-216 -110t-267 -43v-176h-463v176q-313 8 -497.5 160t-184.5 419v17q0 133 53.5 242t146.5 180.5t216 111t266 43.5v176h463v-176zM731 1012q-102 -5 -168.5 -70.5t-66.5 -187.5v-17
q0 -129 65 -193t170 -69v537zM1194 471q102 5 169 70t67 188v16q0 129 -65 193.5t-171 69.5v-537z" />
    <glyph glyph-name="uni0425" unicode="&#x425;" horiz-adv-x="1583" 
d="M483 754l-413 710h530l205 -411l201 411h475l-383 -694l448 -770h-528l-252 481l-252 -481h-477z" />
    <glyph glyph-name="uni0426" unicode="&#x426;" horiz-adv-x="1648" 
d="M1247 -266l-14 266h-1100v1464h467v-1106h408v1106h465v-1106h176v-624h-402z" />
    <glyph glyph-name="uni0427" unicode="&#x427;" horiz-adv-x="1542" 
d="M946 0v545l-32 -15q-33 -15 -62.5 -25.5t-86.5 -21t-118 -10.5q-286 0 -423.5 150t-137.5 460v381h463v-393q0 -133 49 -191.5t158 -58.5q18 0 35.5 1.5t33 5t29 7t25 8t21 8.5t18 9t13.5 7.5t10 6.5l5 3v587h463v-1464h-463z" />
    <glyph glyph-name="uni0428" unicode="&#x428;" horiz-adv-x="2226" 
d="M133 1464h459v-1106h293v1106h458v-1106h293v1106h457v-1464h-1960v1464z" />
    <glyph glyph-name="uni0429" unicode="&#x429;" horiz-adv-x="2277" 
d="M1876 -266l-14 266h-1729v1464h459v-1106h293v1106h458v-1106h293v1106h457v-1106h184v-624h-401z" />
    <glyph glyph-name="uni042A" unicode="&#x42a;" horiz-adv-x="1589" 
d="M362 1108h-325v356h788v-475h142q285 0 432 -124t147 -355v-8q0 -242 -146.5 -372t-453.5 -130h-584v1108zM924 342q93 0 138.5 37.5t45.5 120.5v8q0 164 -186 164h-97v-330h99z" />
    <glyph glyph-name="uni042B" unicode="&#x42b;" horiz-adv-x="1976" 
d="M1841 0h-459v1464h459v-1464zM133 1464h461v-475h125q284 0 430.5 -124t146.5 -355v-8q0 -242 -145.5 -372t-452.5 -130h-565v1464zM676 342q93 0 137.5 37.5t44.5 120.5v8q0 164 -184 164h-80v-330h82z" />
    <glyph glyph-name="uni042C" unicode="&#x42c;" horiz-adv-x="1361" 
d="M133 1464h463v-475h141q285 0 433.5 -124t148.5 -355v-8q0 -242 -147.5 -372t-454.5 -130h-584v1464zM694 342q93 0 139 37.5t46 120.5v8q0 164 -187 164h-96v-330h98z" />
    <glyph glyph-name="uni042D" unicode="&#x42d;" horiz-adv-x="1562" 
d="M733 -27q-290 0 -476 142t-222 413h463q38 -186 241 -186q215 0 265 233h-453v326h455q-44 223 -248 223q-189 0 -223 -178h-476q38 273 218 407t485 134q209 0 378 -89t267 -255t98 -379v-16q0 -361 -195 -568t-577 -207z" />
    <glyph glyph-name="uni042E" unicode="&#x42e;" horiz-adv-x="2260" 
d="M1438 -27q-302 0 -494.5 160t-234.5 434h-111v-567h-465v1464h465v-549h117q54 261 254.5 415.5t476.5 154.5q129 0 244 -31t209.5 -93t163 -149.5t106 -205t37.5 -254.5v-17q0 -344 -209.5 -553t-558.5 -209zM1446 338q129 0 202.5 102.5t73.5 286.5v16
q0 182 -75.5 281.5t-202.5 99.5q-126 0 -199.5 -98.5t-73.5 -284.5v-16q0 -186 74 -286.5t201 -100.5z" />
    <glyph glyph-name="uni042F" unicode="&#x42f;" horiz-adv-x="1462" 
d="M756 1122q-187 0 -187 -153v-8q0 -166 189 -166h112v327h-114zM510 0h-481l360 600q-120 33 -192 132.5t-72 244.5v8q0 236 153.5 357.5t454.5 121.5h596v-1464h-459v504h-82z" />
    <glyph glyph-name="uni0430" unicode="&#x430;" horiz-adv-x="1198" 
d="M406 -27q-75 0 -139 19t-115.5 57t-81 101.5t-29.5 146.5q0 184 144 267t431 83h93v19q0 78 -25 116.5t-100 38.5q-63 0 -92.5 -32.5t-34.5 -81.5h-377q12 193 152.5 294t375.5 101q239 0 369.5 -102t130.5 -308v-692h-389v123q-36 -64 -114.5 -107t-198.5 -43zM551 244
q70 0 114 36t44 95v55h-86q-103 0 -144 -22.5t-41 -79.5q0 -39 29 -61.5t84 -22.5z" />
    <glyph glyph-name="uni0431" unicode="&#x431;" horiz-adv-x="1282" 
d="M641 -27q-136 0 -242.5 38t-186.5 118.5t-122.5 215t-42.5 317.5v43q0 780 664 817l100 4q226 11 315 41v-299q-106 -50 -327 -60l-82 -4q-169 -10 -258.5 -94t-114.5 -242h12q116 187 379 187q222 0 362 -147.5t140 -381.5v-16q0 -123 -46 -225t-126.5 -170t-189.5 -105
t-234 -37zM643 264q91 0 137.5 62t46.5 180v16q0 240 -184 240q-188 0 -188 -236v-14q0 -248 188 -248z" />
    <glyph glyph-name="uni0432" unicode="&#x432;" horiz-adv-x="1173" 
d="M98 1071h607q197 0 293 -70.5t96 -197.5v-4q0 -101 -52.5 -158.5t-158.5 -81.5q245 -38 245 -246v-4q0 -309 -411 -309h-619v1071zM496 846v-195h90q116 0 116 101v2q0 49 -30 70.5t-97 21.5h-79zM496 446v-223h102q133 0 133 111v2q0 110 -121 110h-114z" />
    <glyph glyph-name="uni0433" unicode="&#x433;" horiz-adv-x="933" 
d="M500 791v-791h-402v1071h803v-280h-401z" />
    <glyph glyph-name="uni0434" unicode="&#x434;" horiz-adv-x="1292" 
d="M522 528q-13 -157 -51 -247h260v514h-199q-4 -188 -10 -267zM369 -260h-349v541h56q44 24 70 89t38 191q15 173 15 510h929v-790h144v-541h-348l-4 260h-547z" />
    <glyph glyph-name="uni0435" unicode="&#x435;" horiz-adv-x="1236" 
d="M637 -27q-173 0 -306 62.5t-210.5 188t-77.5 298.5v17q0 128 46.5 235t127.5 178t189 110.5t231 39.5q115 0 214 -33.5t176.5 -100t122 -175t44.5 -248.5v-99h-743q7 -97 59.5 -147.5t140.5 -50.5q143 0 168 114h377q-25 -189 -165.5 -289t-393.5 -100zM805 657
q-10 185 -168 185q-75 0 -123.5 -47t-60.5 -138h352z" />
    <glyph glyph-name="uni0436" unicode="&#x436;" horiz-adv-x="1675" 
d="M641 459l-211 -459h-418l299 573l-282 498h401l211 -430v430h389v-430l209 430h397l-280 -483l307 -588h-430l-203 457v-457h-389v459z" />
    <glyph glyph-name="uni0437" unicode="&#x437;" horiz-adv-x="1120" 
d="M1044 803q0 -200 -215 -242q116 -18 179 -78.5t63 -163.5v-6q0 -147 -134 -243.5t-372 -96.5q-469 0 -532 412h354q38 -141 168 -141q111 0 111 100v6q0 88 -117 88h-115v219h107q50 0 76 21t26 59v6q0 74 -100 74q-55 0 -91.5 -30.5t-50.5 -86.5h-350q24 196 162 299
t348 103q227 0 355 -82t128 -211v-6z" />
    <glyph glyph-name="uni0438" unicode="&#x438;" horiz-adv-x="1292" 
d="M98 0v1071h400v-598l303 598h393v-1071h-399v596l-303 -596h-394z" />
    <glyph glyph-name="uni0439" unicode="&#x439;" horiz-adv-x="1292" 
d="M641 1192q-162 0 -250.5 86t-99.5 242h264q5 -52 24 -81.5t62 -29.5q78 0 90 111h264q-14 -156 -105 -242t-249 -86zM98 0v1071h400v-598l303 598h393v-1071h-399v596l-303 -596h-394z" />
    <glyph glyph-name="uni043A" unicode="&#x43a;" horiz-adv-x="1204" 
d="M500 440v-440h-404v1071h404v-412l260 412h414l-330 -483l356 -588h-446z" />
    <glyph glyph-name="uni043B" unicode="&#x43b;" horiz-adv-x="1239" 
d="M543 473q-21 -256 -102.5 -377t-264.5 -121q-56 0 -98 11q-21 6 -33 12v285q1 -1 10 -4q6 -3 33 -3q53 0 79.5 60t37.5 196q10 110 10 318l4 221h922v-1071h-402v791h-180q-3 -203 -16 -318z" />
    <glyph glyph-name="uni043C" unicode="&#x43c;" horiz-adv-x="1556" 
d="M422 655v-655h-324v1071h514l172 -493l187 493h487v-1071h-389v655l-256 -655h-149z" />
    <glyph glyph-name="uni043D" unicode="&#x43d;" horiz-adv-x="1280" 
d="M780 401h-280v-401h-402v1071h402v-389h280v389h402v-1071h-402v401z" />
    <glyph glyph-name="uni043E" unicode="&#x43e;" horiz-adv-x="1282" 
d="M643 270q184 0 184 260v15q0 258 -184 258q-190 0 -190 -252v-16q0 -265 190 -265zM641 -27q-126 0 -234 37t-189 105t-127 173t-46 234v17q0 128 46 234t126 177.5t190 110.5t236 39q168 0 302 -65t213 -191.5t79 -294.5v-17q0 -171 -79.5 -299.5t-214 -194
t-302.5 -65.5z" />
    <glyph glyph-name="uni043F" unicode="&#x43f;" horiz-adv-x="1259" 
d="M760 791h-260v-791h-402v1071h1063v-1071h-401v791z" />
    <glyph glyph-name="uni0440" unicode="&#x440;" horiz-adv-x="1323" 
d="M96 1071h404v-156q49 83 130.5 134t196.5 51q93 0 173.5 -35t142.5 -102t97.5 -175t35.5 -245v-17q0 -137 -35.5 -244t-98 -173.5t-143 -101t-174.5 -34.5q-114 0 -198 49.5t-127 131.5v-510h-404v1427zM678 281q92 0 140 63t48 186v17q0 254 -190 254q-91 0 -139 -65.5
t-48 -188.5v-17q0 -249 189 -249z" />
    <glyph glyph-name="uni0441" unicode="&#x441;" horiz-adv-x="1198" 
d="M614 -27q-121 0 -223.5 34.5t-180 101t-121.5 172t-44 239.5v17q0 177 78.5 306.5t208.5 193t293 63.5q105 0 194.5 -24t164.5 -75t122 -140.5t55 -211.5h-379q-11 71 -44 106.5t-103 35.5q-180 0 -180 -246v-17q0 -133 44.5 -197.5t141.5 -64.5q70 0 113.5 42.5
t50.5 119.5h362q-8 -214 -148.5 -334.5t-404.5 -120.5z" />
    <glyph glyph-name="uni0442" unicode="&#x442;" horiz-adv-x="1042" 
d="M1014 791h-293v-791h-399v791h-293v280h985v-280z" />
    <glyph glyph-name="uni0443" unicode="&#x443;" 
d="M438 106l-428 965h436l203 -534l189 534h381l-572 -1427h-383z" />
    <glyph glyph-name="uni0444" unicode="&#x444;" horiz-adv-x="1699" 
d="M1047 1100q128 -6 235 -43t188 -103.5t126.5 -169t45.5 -231.5v-16q0 -169 -79 -296.5t-212.5 -194t-303.5 -71.5v-331h-394v331q-128 6 -235 43t-188.5 103t-127 169t-45.5 232v17q0 128 46 233t126.5 175t189 109.5t234.5 43.5v434h394v-434zM1047 256
q93 11 145.5 80.5t52.5 187.5v17q0 124 -50.5 197t-147.5 83v-565zM653 819q-94 -11 -146 -80.5t-52 -187.5v-16q0 -124 50.5 -197.5t147.5 -83.5v565z" />
    <glyph glyph-name="uni0445" unicode="&#x445;" horiz-adv-x="1255" 
d="M369 543l-330 528h463l145 -262l146 262h411l-334 -498l369 -573h-463l-172 299l-180 -299h-408z" />
    <glyph glyph-name="uni0446" unicode="&#x446;" horiz-adv-x="1325" 
d="M963 -260l-13 260h-852v1071h402v-790h260v790h401v-790h144v-541h-342z" />
    <glyph glyph-name="uni0447" unicode="&#x447;" horiz-adv-x="1232" 
d="M731 0v438l-3 -3q-117 -122 -316 -122q-159 0 -248.5 100t-89.5 296v362h403v-297q0 -82 25.5 -121t91.5 -39q16 0 31 2t26.5 5.5t22 7.5t18.5 9t14 10t10.5 9.5t7.5 8t5 6.5l2 2v397h404v-1071h-404z" />
    <glyph glyph-name="uni0448" unicode="&#x448;" horiz-adv-x="1761" 
d="M98 1071h398v-790h186v790h397v-790h189v790h395v-1071h-1565v1071z" />
    <glyph glyph-name="uni0449" unicode="&#x449;" horiz-adv-x="1830" 
d="M1470 -260l-12 260h-1360v1071h398v-790h186v790h397v-790h189v790h395v-790h147v-541h-340z" />
    <glyph glyph-name="uni044A" unicode="&#x44a;" horiz-adv-x="1323" 
d="M274 795h-245v276h643v-315h170q210 0 324 -101t114 -274v-6q0 -175 -113 -275t-333 -100h-560v795zM750 256q137 0 137 117v6q0 121 -137 121h-78v-244h78z" />
    <glyph glyph-name="uni044B" unicode="&#x44b;" horiz-adv-x="1644" 
d="M1151 1071h395v-1071h-395v1071zM98 1071h400v-315h153q210 0 323 -100.5t113 -274.5v-6q0 -175 -113 -275t-333 -100h-543v1071zM561 256q137 0 137 117v6q0 121 -137 121h-63v-244h63z" />
    <glyph glyph-name="uni044C" unicode="&#x44c;" horiz-adv-x="1148" 
d="M98 1071h400v-315h170q210 0 324 -101t114 -274v-6q0 -176 -113.5 -275.5t-335.5 -99.5h-559v1071zM573 256q138 0 138 117v6q0 121 -138 121h-75v-244h75z" />
    <glyph glyph-name="uni044D" unicode="&#x44d;" horiz-adv-x="1198" 
d="M584 -27q-499 0 -551 424h362q41 -139 166 -139q138 0 174 164h-299v229h299q-24 148 -164 148q-67 0 -101.5 -31t-49.5 -88h-379q12 111 60 194t122.5 132t163 72.5t191.5 23.5q163 0 292 -62t207 -189t78 -302v-17q0 -134 -44 -241.5t-121 -176t-180.5 -105
t-225.5 -36.5z" />
    <glyph glyph-name="uni044E" unicode="&#x44e;" horiz-adv-x="1765" 
d="M1141 -25q-212 0 -358.5 103.5t-190.5 292.5q-2 4 -8 32h-86v-403h-400v1071h400v-391h90q41 196 192 309t363 113q124 0 230 -38t183.5 -108t121.5 -174.5t44 -230.5v-16q0 -129 -44.5 -235.5t-123 -177t-184.5 -109t-229 -38.5zM1143 272q170 0 170 258v17
q0 258 -170 258q-83 0 -126.5 -64t-43.5 -190v-16q0 -263 170 -263z" />
    <glyph glyph-name="uni044F" unicode="&#x44f;" horiz-adv-x="1171" 
d="M596 813q-68 0 -104.5 -28.5t-36.5 -79.5v-7q0 -114 141 -114h80v229h-80zM418 0h-416l242 426q-88 37 -135.5 109.5t-47.5 173.5v6q0 165 114 260.5t325 95.5h573v-1071h-397v342h-84z" />
    <glyph glyph-name="uni0451" unicode="&#x451;" horiz-adv-x="1236" 
d="M637 -27q-173 0 -306 62.5t-210.5 188t-77.5 298.5v17q0 128 46.5 235t127.5 178t189 110.5t231 39.5q115 0 214 -33.5t176.5 -100t122 -175t44.5 -248.5v-99h-743q7 -97 59.5 -147.5t140.5 -50.5q143 0 168 114h377q-25 -189 -165.5 -289t-393.5 -100zM805 657
q-10 185 -168 185q-75 0 -123.5 -47t-60.5 -138h352zM403 1167q-78 0 -132 54t-54 129t54 128.5t132 53.5q79 0 134 -53.5t55 -128.5t-55 -129t-134 -54zM848 1167q-77 0 -130.5 53.5t-53.5 129.5t53 129t131 53q79 0 133.5 -53.5t54.5 -128.5q0 -76 -54.5 -129.5
t-133.5 -53.5z" />
    <glyph glyph-name="uni0452" unicode="&#x452;" horiz-adv-x="1288" 
d="M797 614q0 83 -33.5 123.5t-104.5 40.5q-76 0 -117.5 -46t-41.5 -140v-592h-404v1192h-108v209h108v133h404v-133h309v-209h-309v-293q47 92 136.5 147.5t217.5 55.5q158 0 251 -101t93 -296v-619q0 -95 -15 -166t-51 -129.5t-96 -95.5t-150.5 -56.5t-213.5 -19.5v289
q66 5 95.5 37.5t29.5 113.5v555z" />
    <glyph glyph-name="uni0453" unicode="&#x453;" horiz-adv-x="933" 
d="M500 791v-791h-402v1071h803v-280h-401zM467 1530h395l-213 -346h-289z" />
    <glyph glyph-name="uni0454" unicode="&#x454;" horiz-adv-x="1198" 
d="M1165 397q-52 -424 -551 -424q-122 0 -225 34.5t-181 101t-121.5 172.5t-43.5 241v17q0 132 46 239.5t125.5 177.5t185 108t225.5 38q102 0 190.5 -23.5t161.5 -72.5t120.5 -132t59.5 -194h-379q-13 57 -46.5 88t-100.5 31q-131 0 -166 -148h299v-229h-301
q36 -164 174 -164q128 0 166 139h362z" />
    <glyph glyph-name="uni0455" unicode="&#x455;" horiz-adv-x="1071" 
d="M535 -27q-237 0 -368.5 95t-135.5 276h368q11 -58 39.5 -84.5t93.5 -26.5q113 0 113 76q0 36 -41 56.5t-147 33.5q-112 13 -187.5 35t-128.5 61.5t-76.5 98.5t-23.5 145q0 119 65.5 202.5t171 122t240.5 38.5q146 0 247 -33t165.5 -113t77.5 -208h-363q-22 100 -121 100
q-53 0 -79.5 -20.5t-26.5 -53.5q0 -36 37.5 -53.5t130.5 -28.5q122 -15 202 -37.5t139 -61.5t85 -98t26 -145q0 -191 -133 -284t-370 -93z" />
    <glyph glyph-name="uni0456" unicode="&#x456;" horiz-adv-x="618" 
d="M109 1071h401v-1071h-401v1071zM309 1151q-94 0 -156.5 57.5t-62.5 145.5q0 90 62 147.5t157 57.5q93 0 155 -57.5t62 -147.5q0 -87 -62 -145t-155 -58z" />
    <glyph glyph-name="uni0457" unicode="&#x457;" horiz-adv-x="618" 
d="M88 1167q-78 0 -132 54t-54 129t54 128.5t132 53.5q79 0 133.5 -53.5t54.5 -128.5q0 -76 -54.5 -129.5t-133.5 -53.5zM528 1167q-77 0 -130.5 53.5t-53.5 129.5t53 129t131 53q79 0 134 -53.5t55 -128.5t-55 -129t-134 -54zM109 1071h401v-1071h-401v1071z" />
    <glyph glyph-name="uni0458" unicode="&#x458;" horiz-adv-x="618" 
d="M-18 -86q67 5 95.5 31.5t28.5 87.5v1038h404v-1048q0 -94 -24.5 -163.5t-82.5 -124t-163.5 -82.5t-257.5 -28v289zM309 1151q-94 0 -156.5 57.5t-62.5 145.5q0 90 62 147.5t157 57.5q93 0 155 -57.5t62 -147.5q0 -87 -62 -145t-155 -58z" />
    <glyph glyph-name="uni0459" unicode="&#x459;" horiz-adv-x="1746" 
d="M717 791h-158q-3 -167 -12 -291q-21 -270 -103.5 -397.5t-267.5 -127.5q-56 0 -98 11q-21 6 -33 12v285q1 -1 10 -4q6 -3 33 -3q54 0 81 65.5t38 211.5q10 156 10 518h899v-315h150q210 0 324 -101t114 -274v-6q0 -175 -113.5 -275t-335.5 -100h-538v791zM1174 256
q135 0 135 117v6q0 121 -135 121h-58v-244h58z" />
    <glyph glyph-name="uni045A" unicode="&#x45a;" horiz-adv-x="1787" 
d="M1214 256q138 0 138 117v6q0 121 -138 121h-57v-244h57zM760 401h-260v-401h-402v1071h402v-389h260v389h397v-315h150q210 0 324 -101t114 -274v-6q0 -175 -113.5 -275t-333.5 -100h-538v401z" />
    <glyph glyph-name="uni045B" unicode="&#x45b;" horiz-adv-x="1288" 
d="M-12 1401h108v135h404v-135h309v-211h-309v-291q47 92 136 146.5t218 54.5q158 0 251 -100.5t93 -294.5v-705h-403v614q0 83 -32.5 123.5t-103.5 40.5q-159 0 -159 -186v-592h-404v1190h-108v211z" />
    <glyph glyph-name="uni045C" unicode="&#x45c;" horiz-adv-x="1204" 
d="M580 1530h395l-213 -346h-289zM500 440v-440h-404v1071h404v-412l260 412h414l-330 -483l356 -588h-446z" />
    <glyph glyph-name="uni045D" unicode="&#x45d;" horiz-adv-x="1292" 
d="M98 0v1071h400v-598l303 598h393v-1071h-399v596l-303 -596h-394zM307 1530h395l107 -346h-289z" />
    <glyph glyph-name="uni045E" unicode="&#x45e;" 
d="M643 1192q-162 0 -250.5 86t-99.5 242h264q5 -52 24 -81.5t62 -29.5q78 0 90 111h262q-12 -155 -103.5 -241.5t-248.5 -86.5zM438 106l-428 965h436l203 -534l189 534h381l-572 -1427h-383z" />
    <glyph glyph-name="uni045F" unicode="&#x45f;" horiz-adv-x="1259" 
d="M98 0v1071h402v-790h260v790h401v-1071h-358l-4 -260h-334l-6 260h-361z" />
    <glyph glyph-name="uni0490" unicode="&#x490;" horiz-adv-x="1187" 
d="M600 1104v-1104h-467v1464h582l14 275h401v-635h-530z" />
    <glyph glyph-name="uni0491" unicode="&#x491;" horiz-adv-x="933" 
d="M500 791v-791h-402v1071h437l10 275h342v-555h-387z" />
    <glyph glyph-name="Wgrave" unicode="&#x1e80;" horiz-adv-x="2066" 
d="M20 1464h469l168 -874l177 874h403l199 -884l178 884h430l-340 -1464h-469l-205 874l-207 -874h-463zM696 1855h414l96 -305h-305z" />
    <glyph glyph-name="wgrave" unicode="&#x1e81;" horiz-adv-x="1748" 
d="M10 1071h420l139 -600l164 600h324l143 -600l162 600h377l-340 -1071h-379l-150 559l-147 -559h-391zM543 1530h395l106 -346h-288z" />
    <glyph glyph-name="Wacute" unicode="&#x1e82;" horiz-adv-x="2066" 
d="M20 1464h469l168 -874l177 874h403l199 -884l178 884h430l-340 -1464h-469l-205 874l-207 -874h-463zM979 1855h412l-211 -305h-306z" />
    <glyph glyph-name="wacute" unicode="&#x1e83;" horiz-adv-x="1748" 
d="M10 1071h420l139 -600l164 600h324l143 -600l162 600h377l-340 -1071h-379l-150 559l-147 -559h-391zM858 1530h395l-213 -346h-288z" />
    <glyph glyph-name="Wdieresis" unicode="&#x1e84;" horiz-adv-x="2066" 
d="M20 1464h469l168 -874l177 874h403l199 -884l178 884h430l-340 -1464h-469l-205 874l-207 -874h-463zM805 1540q-78 0 -132.5 53.5t-54.5 128.5q0 76 54.5 129.5t132.5 53.5q79 0 133.5 -53t54.5 -130q0 -75 -54.5 -128.5t-133.5 -53.5zM1270 1540q-78 0 -132.5 53.5
t-54.5 128.5q0 76 54.5 129.5t132.5 53.5q79 0 133.5 -53t54.5 -130q0 -75 -54.5 -128.5t-133.5 -53.5z" />
    <glyph glyph-name="wdieresis" unicode="&#x1e85;" horiz-adv-x="1748" 
d="M10 1071h420l139 -600l164 600h324l143 -600l162 600h377l-340 -1071h-379l-150 559l-147 -559h-391zM670 1167q-78 0 -132.5 54t-54.5 129t54.5 128.5t132.5 53.5q79 0 133.5 -53.5t54.5 -128.5q0 -76 -54.5 -129.5t-133.5 -53.5zM1114 1167q-77 0 -130.5 53.5
t-53.5 129.5t53 129t131 53q79 0 134 -53.5t55 -128.5t-55 -129t-134 -54z" />
    <glyph glyph-name="Ygrave" unicode="&#x1ef2;" horiz-adv-x="1417" 
d="M485 625l-475 839h504l223 -458l226 458h444l-455 -837v-627h-467v625zM385 1855h414l96 -305h-305z" />
    <glyph glyph-name="ygrave" unicode="&#x1ef3;" 
d="M438 106l-428 965h436l203 -534l189 534h381l-572 -1427h-383zM289 1530h395l107 -346h-289z" />
    <glyph glyph-name="uni2009" unicode="&#x2009;" horiz-adv-x="169" 
 />
    <glyph glyph-name="endash" unicode="&#x2013;" horiz-adv-x="1112" 
d="M94 719h924v-230h-924v230z" />
    <glyph glyph-name="emdash" unicode="&#x2014;" horiz-adv-x="1961" 
d="M94 719h1774v-230h-1774v230z" />
    <glyph glyph-name="quoteleft" unicode="&#x2018;" horiz-adv-x="657" 
d="M57 969l289 522l225 -82l-159 -555z" />
    <glyph glyph-name="quoteright" unicode="&#x2019;" horiz-adv-x="657" 
d="M86 940l160 551l350 -113l-287 -524z" />
    <glyph glyph-name="quotesinglbase" unicode="&#x201a;" horiz-adv-x="653" 
d="M78 -129l160 553l352 -115l-289 -524z" />
    <glyph glyph-name="quotedblleft" unicode="&#x201c;" horiz-adv-x="1136" 
d="M57 969l289 522l225 -82l-159 -555zM543 969l286 522l224 -82l-160 -555z" />
    <glyph glyph-name="quotedblright" unicode="&#x201d;" horiz-adv-x="1136" 
d="M86 940l160 551l350 -113l-287 -524zM567 940l160 551l354 -113l-288 -524z" />
    <glyph glyph-name="quotedblbase" unicode="&#x201e;" horiz-adv-x="1136" 
d="M78 -129l160 553l352 -115l-289 -524zM559 -129l160 553l354 -115l-289 -524z" />
    <glyph glyph-name="dagger" unicode="&#x2020;" horiz-adv-x="841" 
d="M260 950h-215v279h215v235h322v-235h215v-279h-215v-514h-322v514z" />
    <glyph glyph-name="daggerdbl" unicode="&#x2021;" horiz-adv-x="841" 
d="M260 1018h-215v252h215v194h322v-194h215v-252h-215v-135h215v-252h-215v-195h-322v195h-215v252h215v135z" />
    <glyph glyph-name="bullet" unicode="&#x2022;" horiz-adv-x="776" 
d="M387 307q-131 0 -220 90.5t-89 220.5t89 221t220 91q134 0 222.5 -90.5t88.5 -221.5q0 -130 -88.5 -220.5t-222.5 -90.5z" />
    <glyph glyph-name="ellipsis" unicode="&#x2026;" horiz-adv-x="1861" 
d="M307 -25q-96 0 -160.5 64.5t-64.5 157.5t64 156t161 63q98 0 164 -64t66 -155q0 -93 -66 -157.5t-164 -64.5zM928 -25q-97 0 -160 63.5t-63 158.5q0 93 63 156t160 63t163 -64t66 -155q0 -94 -65 -158t-164 -64zM1548 -25q-97 0 -160 63.5t-63 158.5q0 93 63 156t160 63
q99 0 165.5 -63.5t66.5 -155.5q0 -94 -66.5 -158t-165.5 -64z" />
    <glyph glyph-name="perthousand" unicode="&#x2030;" horiz-adv-x="2539" 
d="M442 973q53 0 80 38t27 107q0 67 -27 104.5t-80 37.5q-49 0 -77.5 -38t-28.5 -104q0 -69 28 -107t78 -38zM442 743q-185 0 -290 104.5t-105 268.5q0 156 112.5 260.5t282.5 104.5q171 0 283.5 -101t112.5 -256q0 -164 -108 -272.5t-288 -108.5zM1270 1464h209
l-1041 -1464h-207zM1255 203q53 0 80 38.5t27 106.5q0 67 -27 104t-80 37q-50 0 -78 -37.5t-28 -103.5q0 -69 28 -107t78 -38zM1255 -27q-185 0 -290 104.5t-105 268.5q0 157 112.5 262t282.5 105q171 0 283.5 -101t112.5 -258q0 -164 -108 -272.5t-288 -108.5zM2097 203
q53 0 80 38.5t27 106.5q0 67 -27 104t-80 37q-51 0 -78.5 -37.5t-27.5 -103.5q0 -69 27.5 -107t78.5 -38zM2095 -27q-185 0 -289 104.5t-104 268.5q0 157 112.5 262t282.5 105t282.5 -101t112.5 -258q0 -164 -108.5 -272.5t-288.5 -108.5z" />
    <glyph glyph-name="uni2032" unicode="&#x2032;" horiz-adv-x="524" 
d="M106 1464h375l-129 -575h-284z" />
    <glyph glyph-name="uni2033" unicode="&#x2033;" horiz-adv-x="978" 
d="M106 1464h375l-129 -575h-284zM561 1464h375l-131 -575h-285z" />
    <glyph glyph-name="guilsinglleft" unicode="&#x2039;" horiz-adv-x="622" 
d="M51 535l254 397h264l-243 -397l243 -398h-264z" />
    <glyph glyph-name="guilsinglright" unicode="&#x203a;" horiz-adv-x="622" 
d="M297 535l-244 397h264l254 -397l-254 -398h-264z" />
    <glyph glyph-name="fraction" unicode="&#x2044;" horiz-adv-x="364" 
d="M664 1464h202l-1165 -1464h-205z" />
    <glyph glyph-name="Euro" unicode="&#x20ac;" horiz-adv-x="1490" 
d="M43 926h125q42 252 217 406.5t436 154.5q278 0 433 -137t180 -406h-428q-21 193 -189 193q-162 0 -199 -211h285l-26 -152h-269v-94h252l-24 -152h-220q18 -100 65.5 -149t137.5 -49q96 0 141.5 52.5t57.5 166.5h426q-33 -279 -190.5 -427.5t-446.5 -148.5
q-278 0 -442 150.5t-197 404.5h-125v152h115v94h-115v152z" />
    <glyph glyph-name="uni20B4" unicode="&#x20b4;" horiz-adv-x="1372" 
d="M684 -27q-283 0 -435.5 116.5t-152.5 318.5q0 71 23 135h-78v149h192q63 51 177 99h-369v149h752q45 42 45 111q0 108 -129 108q-134 0 -150 -141h-430q44 467 578 467q264 0 413.5 -107t149.5 -293q0 -80 -21 -145h84v-149h-178q-56 -56 -143 -99h321v-149h-723
q-75 -46 -75 -127q0 -115 145 -115q97 0 136 44t48 124h439q-25 -496 -619 -496z" />
    <glyph glyph-name="uni20B8" unicode="&#x20b8;" horiz-adv-x="1247" 
d="M41 1315v149h1165v-149h-1165zM389 850h-348v356h1165v-356h-350v-850h-467v850z" />
    <glyph glyph-name="uni20BD" unicode="&#x20bd;" horiz-adv-x="1439" 
d="M770 788q186 0 186 164v9q0 83 -45 120t-139 37h-98v-330h96zM674 229v-229h-463v229h-184v150h184v96h-184v152h184v837h584q602 0 602 -501v-9q0 -231 -148.5 -355t-433.5 -124h-141v-96h420v-150h-420z" />
    <glyph glyph-name="uni2116" unicode="&#x2116;" horiz-adv-x="2449" 
d="M1962 672q-190 0 -313 103.5t-123 287.5v12q0 186 124 296t314 110q122 0 219.5 -45.5t156 -136.5t58.5 -214v-10q0 -125 -59 -218t-157 -139t-220 -46zM1964 911q107 0 107 162v10q0 158 -107 158q-111 0 -111 -154v-10q0 -86 27 -126t84 -40zM133 1464h520l351 -745
v745h405v-1464h-446l-422 850v-850h-408v1464zM1556 553h814v-205h-814v205z" />
    <glyph glyph-name="trademark" unicode="&#x2122;" horiz-adv-x="1572" 
d="M698 1464h281l111 -299l112 299h285v-657h-240v348l-135 -348h-76l-133 348v-348h-205v657zM223 1276h-166v188h568v-188h-164v-469h-238v469z" />
    <glyph glyph-name="Omega" unicode="&#x2126;" horiz-adv-x="1691" 
d="M541 719q0 -161 55 -278t164 -208v-233h-692v342h200q-89 64 -147 180.5t-58 239.5v12q0 204 100 366.5t278.5 253.5t402.5 91q228 0 406 -85.5t278 -245.5t100 -370v-12q0 -133 -57 -250t-146 -180h199v-342h-692v233q219 178 219 486v16q0 190 -79.5 289.5t-227.5 99.5
q-143 0 -223 -100t-80 -289v-16z" />
    <glyph glyph-name="onethird" unicode="&#x2153;" horiz-adv-x="1697" 
d="M213 1180l-170 -93v238l213 139h254v-782h-297v498zM1288 1464h203l-1165 -1464h-205zM1296 -14q-183 0 -269 75t-91 205h260q11 -78 82 -78q70 0 70 64q0 59 -84 59h-64v162h64q88 0 88 64q0 55 -64 55q-66 0 -78 -72h-258q11 125 98 200t246 75q158 0 245 -58t87 -162
q0 -131 -141 -167q70 -11 114 -56.5t44 -111.5q0 -117 -88 -185.5t-261 -68.5z" />
    <glyph glyph-name="twothirds" unicode="&#x2154;" horiz-adv-x="1800" 
d="M14 719l265 270q76 77 109.5 123.5t33.5 87.5q0 62 -57 62q-62 0 -74 -105h-268q4 157 99 238.5t259 81.5q163 0 246.5 -71t83.5 -183q0 -75 -40 -138t-120 -139l-57 -53h221v-211h-701v37zM1423 1464h203l-1165 -1464h-205zM1399 -14q-183 0 -269.5 75t-91.5 205h260
q11 -78 82 -78q70 0 70 64q0 59 -84 59h-63v162h63q88 0 88 64q0 55 -63 55q-66 0 -78 -72h-258q11 125 98 200t246 75q158 0 245 -58t87 -162q0 -131 -142 -167q70 -11 114 -56.5t44 -111.5q0 -117 -87.5 -185.5t-260.5 -68.5z" />
    <glyph glyph-name="oneeighth" unicode="&#x215b;" horiz-adv-x="1687" 
d="M213 1180l-170 -93v238l213 139h254v-782h-297v498zM1268 1464h202l-1165 -1464h-205zM1280 -14q-367 0 -367 233q0 65 36 115t108 74q-54 25 -81.5 62t-27.5 97q0 106 94.5 167t239.5 61q152 0 242 -59t90 -169q0 -114 -109 -157q71 -22 105.5 -70.5t34.5 -112.5
q0 -116 -93 -178.5t-272 -62.5zM1280 180q35 0 56.5 20.5t21.5 53.5q0 31 -21.5 51.5t-56.5 20.5q-36 0 -57 -19.5t-21 -54.5q0 -32 21.5 -52t56.5 -20zM1282 473q29 0 49.5 19.5t20.5 48.5t-20 47t-50 18t-51 -18.5t-21 -48.5q0 -29 21 -47.5t51 -18.5z" />
    <glyph glyph-name="threeeighths" unicode="&#x215c;" horiz-adv-x="1773" 
d="M401 668q-183 0 -269 75t-91 205h260q11 -78 82 -78q70 0 70 64q0 59 -84 59h-64v162h64q88 0 88 64q0 55 -64 55q-66 0 -78 -72h-258q11 125 98 200t246 75q158 0 245 -58t87 -162q0 -131 -141 -167q70 -11 114 -56.5t44 -111.5q0 -117 -88 -185.5t-261 -68.5z
M1376 1464h203l-1165 -1464h-205zM1362 -14q-367 0 -367 233q0 65 36 115t108 74q-54 25 -81.5 62t-27.5 97q0 106 94.5 167t239.5 61q152 0 242 -59t90 -169q0 -114 -109 -157q139 -44 139 -183q0 -116 -92.5 -178.5t-271.5 -62.5zM1362 180q35 0 56.5 20.5t21.5 53.5
q0 31 -21.5 51.5t-56.5 20.5q-36 0 -57 -19.5t-21 -54.5q0 -32 21.5 -52t56.5 -20zM1364 473q29 0 49.5 19.5t20.5 48.5t-20 47t-50 18t-51 -18.5t-21 -48.5q0 -29 21 -47.5t51 -18.5z" />
    <glyph glyph-name="fiveeighths" unicode="&#x215d;" horiz-adv-x="1740" 
d="M387 668q-171 0 -255.5 72t-86.5 194h268q5 -26 19 -39.5t47 -13.5q31 0 48 20t17 55q0 72 -71 72q-57 0 -72 -47h-233l24 483h600v-204h-397l-8 -160q67 104 211 104q111 0 176 -62.5t65 -178.5q0 -138 -92 -216.5t-260 -78.5zM1343 1464h203l-1165 -1464h-205z
M1333 -14q-366 0 -366 233q0 65 35.5 115t107.5 74q-54 25 -81.5 62t-27.5 97q0 106 94.5 167t239.5 61q152 0 242 -59t90 -169q0 -114 -108 -157q139 -44 139 -183q0 -116 -93 -178.5t-272 -62.5zM1333 180q35 0 56.5 20.5t21.5 53.5q0 31 -21.5 51.5t-56.5 20.5
q-36 0 -57 -19.5t-21 -54.5q0 -32 21.5 -52t56.5 -20zM1335 473q29 0 49.5 19.5t20.5 48.5t-20 47t-50 18t-50.5 -18.5t-20.5 -48.5q0 -29 20.5 -47.5t50.5 -18.5z" />
    <glyph glyph-name="seveneighths" unicode="&#x215e;" horiz-adv-x="1677" 
d="M346 1233h-301v231h672v-28l-285 -754h-295zM1241 1464h203l-1165 -1464h-205zM1268 -14q-367 0 -367 233q0 65 35.5 115t107.5 74q-54 25 -81 62t-27 97q0 106 94.5 167t239.5 61q152 0 242 -59t90 -169q0 -114 -109 -157q139 -44 139 -183q0 -116 -92.5 -178.5
t-271.5 -62.5zM1268 180q35 0 56.5 20.5t21.5 53.5q0 31 -21.5 51.5t-56.5 20.5q-36 0 -57 -19.5t-21 -54.5q0 -32 21.5 -52t56.5 -20zM1270 473q29 0 49 19.5t20 48.5t-19.5 47t-49.5 18t-51 -18.5t-21 -48.5q0 -29 21 -47.5t51 -18.5z" />
    <glyph glyph-name="Delta" unicode="&#x2206;" horiz-adv-x="1581" 
d="M33 49l440 1415h639l436 -1415v-49h-1515v49zM545 354h440l-219 785z" />
    <glyph glyph-name="minus" unicode="&#x2212;" horiz-adv-x="1191" 
d="M78 848h1038v-305h-1038v305z" />
    <glyph glyph-name="approxequal" unicode="&#x2248;" horiz-adv-x="1214" 
d="M74 231q11 195 94 290t205 95q93 0 250.5 -39.5t197.5 -39.5q83 0 92 90h228q-7 -188 -90.5 -287.5t-204.5 -99.5q-92 0 -251.5 41t-201.5 41q-79 0 -92 -91h-227zM74 698q11 195 94 290t205 95q93 0 250.5 -38.5t197.5 -38.5q83 0 92 86h228q-7 -185 -90.5 -284
t-204.5 -99q-92 0 -252 39.5t-201 39.5q-79 0 -92 -90h-227z" />
    <glyph glyph-name="notequal" unicode="&#x2260;" horiz-adv-x="1167" 
d="M78 1008h512l76 196h249l-75 -196h247v-269h-352l-53 -139h405v-268h-507l-76 -197h-252l76 197h-250v268h352l55 139h-407v269z" />
    <glyph glyph-name="lessequal" unicode="&#x2264;" horiz-adv-x="1052" 
d="M82 770v76l876 469v-357l-305 -147l305 -149v-361zM82 258h876v-258h-876v258z" />
    <glyph glyph-name="greaterequal" unicode="&#x2265;" horiz-adv-x="1052" 
d="M94 662l305 149l-305 147v357l877 -469v-76l-877 -469v361zM94 258h877v-258h-877v258z" />
    <glyph glyph-name="uni24C5" unicode="&#x24c5;" horiz-adv-x="1724" 
d="M561 1151h338q178 0 262 -75.5t84 -211.5v-4q0 -135 -82.5 -204.5t-247.5 -69.5h-77v-264h-277v829zM883 770q102 0 102 90v4q0 80 -100 80h-47v-174h45zM860 63q182 0 332.5 83.5t240 238t89.5 350.5q0 145 -51 270t-139.5 211.5t-209.5 135.5t-258 49q-184 0 -335 -84
t-238.5 -238t-87.5 -348q0 -147 52.5 -273t141.5 -212t209 -134.5t254 -48.5zM860 -43q-216 0 -397.5 101t-287 279t-105.5 394q0 160 62 304t168 247.5t253 164t311 60.5q222 0 404 -102t285.5 -279t103.5 -391q0 -217 -106.5 -396t-289.5 -280.5t-401 -101.5z" />
    <glyph glyph-name="zero.tab" unicode="&#xe44f;" 
d="M621 322q76 0 102.5 55t26.5 194v322q0 137 -30 194.5t-104 57.5q-77 0 -107 -57.5t-30 -194.5v-322q0 -137 32 -193t110 -56zM606 -27q-262 0 -404.5 153.5t-142.5 444.5v320q0 143 41.5 257t116.5 187t175.5 111.5t221.5 38.5t221 -35.5t175 -105.5t117 -183t42 -260
v-319q0 -292 -149 -450.5t-414 -158.5z" />
    <glyph glyph-name="one.tab" unicode="&#xe450;" 
d="M496 1010l-340 -222v386l401 290h404v-1464h-465v1010z" />
    <glyph glyph-name="two.tab" unicode="&#xe451;" 
d="M41 63l434 529q70 88 101.5 130.5t69 101t51.5 102.5t14 90q0 133 -107 133q-62 0 -90.5 -51t-34.5 -178h-416q4 133 36.5 234t98 176.5t173 115t254.5 39.5q264 0 400 -118.5t136 -322.5q0 -75 -21.5 -145t-67 -140.5t-89 -124t-115.5 -132.5l-143 -154h432v-348h-1116
v63z" />
    <glyph glyph-name="three.tab" unicode="&#xe452;" 
d="M627 -27q-295 0 -438 129t-154 390h399q5 -97 42 -142t124 -45q148 0 148 148q0 75 -37 112t-117 37h-119v281h115q160 0 160 145q0 127 -132 127q-144 0 -155 -172h-393q11 238 153.5 370t403.5 132q250 0 388 -106.5t138 -297.5q0 -121 -60 -200t-173 -115
q119 -25 191.5 -111t72.5 -213q0 -217 -143 -343t-414 -126z" />
    <glyph glyph-name="four.tab" unicode="&#xe453;" 
d="M633 276h-602v158l501 1030h506v-889h144v-299h-144v-276h-405v276zM641 575v537l-254 -537h254z" />
    <glyph glyph-name="five.tab" unicode="&#xe454;" 
d="M602 -27q-274 0 -405.5 125.5t-139.5 376.5h389q5 -80 38 -114.5t116 -34.5q135 0 135 186q0 84 -44 129t-124 45q-129 0 -200 -100h-269l33 878h944v-334h-629l-12 -311q104 166 320 166q199 0 305 -124.5t106 -348.5q0 -251 -146 -395t-417 -144z" />
    <glyph glyph-name="six.tab" unicode="&#xe455;" 
d="M643 -27q-295 0 -440.5 174t-145.5 490v149q0 330 166.5 514.5t442.5 184.5q234 0 363 -109t136 -336h-379q-7 60 -33.5 92.5t-84.5 32.5q-101 0 -151.5 -91.5t-51.5 -287.5q48 77 115 120.5t180 43.5q88 0 163 -27.5t133.5 -81.5t92 -143.5t33.5 -205.5
q0 -236 -144 -377.5t-395 -141.5zM633 307q72 0 116 49t44 127q0 85 -44.5 132t-117.5 47q-74 0 -120 -46.5t-46 -126.5q0 -84 47 -133t121 -49z" />
    <glyph glyph-name="seven.tab" unicode="&#xe456;" 
d="M610 1098h-542v366h1110v-47l-508 -1417h-463z" />
    <glyph glyph-name="eight.tab" unicode="&#xe457;" 
d="M614 -27q-268 0 -418.5 114.5t-150.5 326.5q0 125 61.5 216t182.5 138q-189 94 -189 301q0 98 40.5 177.5t111.5 131.5t164.5 79.5t201.5 27.5q150 0 266 -47.5t183.5 -142t67.5 -224.5q0 -212 -187 -301q117 -44 176.5 -132.5t59.5 -213.5q0 -211 -151 -331t-419 -120z
M616 303q73 0 117.5 43.5t44.5 116.5q0 75 -43.5 119.5t-116.5 44.5q-74 0 -118.5 -43t-44.5 -119q0 -74 44 -118t117 -44zM621 883q61 0 102 40t41 105q0 66 -42 106t-104 40q-59 0 -101 -40t-42 -104q0 -65 42.5 -106t103.5 -41z" />
    <glyph glyph-name="nine.tab" unicode="&#xe458;" 
d="M582 -25q-505 0 -525 451h381q14 -129 133 -129q107 0 150 88t45 289q-47 -76 -116 -119t-181 -43q-70 0 -131.5 16t-115 51.5t-92.5 88t-61 128.5t-22 169q0 236 145 379t396 143q290 0 436.5 -169t146.5 -491v-159q0 -332 -153.5 -512.5t-435.5 -180.5zM598 805
q73 0 119.5 46t46.5 124q0 85 -47 134.5t-121 49.5q-72 0 -116 -49t-44 -127q0 -85 44 -131.5t118 -46.5z" />
    <glyph glyph-name="cent.tab" unicode="&#xe459;" 
d="M571 -23q-234 18 -376 158.5t-142 386.5v17q0 238 145 385.5t373 173.5v190h152v-190q94 -9 173 -40t142.5 -85t101.5 -136.5t44 -187.5h-357q-15 115 -104 150v-545q114 39 125 174h342q-6 -194 -128 -314t-339 -137v-253h-152v253zM442 526q0 -218 129 -266v539
q-129 -49 -129 -256v-17z" />
    <glyph glyph-name="dollar.tab" unicode="&#xe45a;" 
d="M541 -20q-245 17 -374.5 143t-137.5 342h381q10 -143 131 -174v262q-259 37 -373.5 147t-114.5 324q0 192 130.5 317t357.5 142v182h157v-184q447 -39 473 -451h-372q-6 54 -29 87t-72 50v-249q90 -14 162 -35t135.5 -56.5t105.5 -84t66.5 -118t24.5 -157.5
q0 -97 -29 -179.5t-87 -149.5t-154.5 -108.5t-223.5 -49.5v-256h-157v256zM424 1059q0 -48 25.5 -74t91.5 -43v232q-58 -10 -87.5 -40.5t-29.5 -74.5zM809 418q0 43 -24 67t-87 41v-237q55 13 83 47t28 82z" />
    <glyph glyph-name="Euro.tab" unicode="&#xe45b;" 
d="M23 930h94q12 263 161.5 410t383.5 147q491 0 505 -504h-370q-4 92 -34.5 130t-98.5 38q-72 0 -108 -52.5t-40 -168.5h268l-26 -152h-242v-96h225l-24 -150h-201q5 -119 39 -170t111 -51q73 0 106 41t37 144h365q-4 -270 -136.5 -396.5t-390.5 -126.5q-241 0 -380.5 145
t-149.5 414h-94v150h94v96h-94v152z" />
    <glyph glyph-name="a.alt" unicode="&#xe4c0;" horiz-adv-x="1306" 
d="M489 -27q-90 0 -168.5 34t-140.5 99.5t-97.5 173t-35.5 244.5v17q0 136 35.5 244t97 176t140.5 103.5t169 35.5q221 0 316 -176v147h403v-1071h-403v170q-45 -89 -124.5 -143t-191.5 -54zM635 281q87 0 134.5 64t47.5 187v17q0 252 -178 252q-182 0 -182 -254v-17
q0 -124 45.5 -186.5t132.5 -62.5z" />
    <glyph glyph-name="t.alt" unicode="&#xe4d3;" horiz-adv-x="790" 
d="M168 801h-145v270h145v219h403v-219h189v-270h-189v-801h-403v801z" />
    <glyph glyph-name="f_i" unicode="&#xfb01;" horiz-adv-x="1411" 
d="M154 801h-131v270h131v80q0 202 117.5 301.5t322.5 99.5q100 0 170 -20v-291q-40 12 -92 12q-57 0 -86 -28.5t-29 -75.5v-78h207v-270h-207v-801h-403v801zM899 1071h401v-1071h-401v1071zM1100 1151q-94 0 -156.5 57.5t-62.5 145.5q0 90 62 147.5t157 57.5
q93 0 155 -57.5t62 -147.5q0 -87 -62 -145t-155 -58z" />
    <glyph glyph-name="f_l" unicode="&#xfb02;" horiz-adv-x="1406" 
d="M154 801h-131v270h131v80q0 202 117.5 301.5t322.5 99.5q100 0 170 -20v-291q-40 12 -92 12q-57 0 -86 -28.5t-29 -75.5v-78h207v-270h-207v-801h-403v801zM897 1536h401v-1536h-401v1536z" />
    <glyph glyph-name="hyphen.uc" horiz-adv-x="843" 
d="M100 825h643v-315h-643v315z" />
    <glyph glyph-name="four.old" horiz-adv-x="1390" 
d="M737 78h-714v143l606 1047h536v-908h187v-282h-187v-266h-428v266zM748 360v582l-316 -582h316z" />
    <glyph glyph-name="zero.num" horiz-adv-x="890" 
d="M444 891q56 0 80.5 42.5t24.5 135.5v12q0 96 -24.5 135t-82.5 39q-55 0 -77.5 -40t-22.5 -134v-14q0 -94 23 -135t79 -41zM438 668q-191 0 -292 102t-101 297v12q0 187 111.5 292.5t287.5 105.5q85 0 156.5 -23.5t127 -70t87 -123t31.5 -175.5v-10q0 -194 -108 -300.5
t-300 -106.5z" />
    <glyph glyph-name="nine.oldtab" 
d="M592 610q74 0 123 50.5t49 134.5q0 86 -49 138t-125 52q-73 0 -120.5 -51t-47.5 -135q0 -89 47.5 -139t122.5 -50zM580 -219q-244 0 -377.5 115t-143.5 342h367q17 -138 149 -138q103 0 145 89.5t42 295.5q-45 -72 -114 -110.5t-179 -38.5q-89 0 -163.5 25t-134 75.5
t-93 137t-33.5 200.5q0 234 147.5 377t395.5 143q286 0 430.5 -171.5t144.5 -483.5v-164q0 -333 -151 -513.5t-432 -180.5z" />
    <glyph glyph-name="eight.oldtab" 
d="M614 -27q-264 0 -413.5 115t-149.5 324q0 123 65.5 215t186.5 139q-197 91 -197 303q0 130 69.5 226.5t185 144t260.5 47.5q146 0 259.5 -47.5t180.5 -142.5t67 -226q0 -214 -196 -303q121 -44 183.5 -132.5t62.5 -211.5q0 -211 -150 -331t-414 -120zM618 885
q63 0 105.5 41.5t42.5 111.5q0 68 -42 110t-103 42q-62 0 -105 -42.5t-43 -109.5q0 -68 42 -110.5t103 -42.5zM616 285q74 0 120 45.5t46 122.5q0 79 -44.5 125.5t-121.5 46.5q-73 0 -119 -46t-46 -124t45 -124t120 -46z" />
    <glyph glyph-name="seven.oldtab" 
d="M604 911h-536v357h1103v-47l-512 -1409h-460z" />
    <glyph glyph-name="six.oldtab" 
d="M645 -27q-289 0 -434 172t-145 486v160q0 328 164 512t438 184q229 0 358 -110t139 -333h-374q-14 127 -123 127q-101 0 -150.5 -98t-50.5 -307q111 166 301 166q89 0 162.5 -25t131 -77t90 -139t32.5 -202q0 -235 -144.5 -375.5t-394.5 -140.5zM645 289q73 0 120.5 50.5
t47.5 133.5q0 89 -47.5 139t-122.5 50q-74 0 -123 -49.5t-49 -133.5q0 -86 49 -138t125 -52z" />
    <glyph glyph-name="five.oldtab" 
d="M602 -213q-270 0 -404.5 125t-136.5 356h381q6 -79 41 -119t117 -40q150 0 150 194q0 91 -45.5 138.5t-131.5 47.5q-130 0 -198 -104h-264l32 883h930v-328h-620l-13 -322q109 166 316 166q191 0 297 -122.5t106 -337.5q0 -253 -144 -395t-413 -142z" />
    <glyph glyph-name="four.oldtab" 
d="M629 78h-602v141l501 1049h506v-910h148v-280h-148v-266h-405v266zM639 358v566l-264 -566h264z" />
    <glyph glyph-name="three.oldtab" 
d="M610 -215q-286 0 -427.5 135.5t-149.5 374.5h391q5 -95 46 -144t128 -49q77 0 116.5 43t39.5 117q0 158 -164 158h-115v266h111q83 0 124.5 42t41.5 116q0 62 -35.5 99.5t-102.5 37.5q-147 0 -159 -178h-387q12 221 159 356t402 135q246 0 380 -106t134 -297
q0 -122 -59.5 -202.5t-170.5 -113.5q121 -25 193 -111t72 -214q0 -215 -148 -340t-420 -125z" />
    <glyph glyph-name="two.oldtab" 
d="M41 59l455 439q116 113 167.5 191.5t51.5 154.5q0 125 -117 125q-65 0 -100 -47.5t-47 -147.5h-388q17 248 163 384t403 136q245 0 380.5 -111.5t135.5 -297.5q0 -123 -64 -227.5t-196 -223.5l-137 -125h407v-309h-1114v59z" />
    <glyph glyph-name="one.oldtab" 
d="M516 844l-350 -223v358l409 289h371v-1268h-430v844z" />
    <glyph glyph-name="zero.oldtab" 
d="M606 -27q-258 0 -401.5 153t-143.5 431v160q0 269 153 423t398 154q120 0 220.5 -35.5t175.5 -104t117 -178.5t42 -251v-160q0 -278 -149.5 -435t-411.5 -157zM618 315q76 0 107 57.5t31 184.5v160q0 129 -32.5 186.5t-109.5 57.5q-76 0 -108.5 -58.5t-32.5 -185.5v-160
q0 -127 33.5 -184.5t111.5 -57.5z" />
    <glyph glyph-name="yen.oldtab" 
d="M115 768h268l-338 653h444l154 -377l152 377h389l-330 -653h283v-147h-299v-93h299v-147h-299v-381h-437v381h-286v147h286v93h-286v147z" />
    <glyph glyph-name="sterling.oldtab" 
d="M53 813h82q-18 88 -18 162q0 113 42 203t115.5 146.5t168.5 86t204 29.5q256 0 382 -123.5t132 -368.5h-381q-11 91 -35 123.5t-81 32.5q-62 0 -92.5 -36t-30.5 -118q0 -74 8 -137h293v-246h-264q4 -62 4 -92q0 -51 -17 -110q95 -31 131 -31q101 0 109 104h381
q-8 -214 -115 -335t-291 -121q-62 0 -120 15.5t-93.5 34.5t-73 34.5t-63.5 15.5q-72 0 -82 -82h-323q6 111 51.5 201.5t122.5 144.5q18 59 18 129q0 34 -10 92h-154v246z" />
    <glyph glyph-name="f.short" horiz-adv-x="786" 
d="M154 801h-131v270h131v80q0 202 117.5 301.5t322.5 99.5q100 0 170 -20v-291q-40 12 -92 12q-57 0 -86 -28.5t-29 -75.5v-78h207v-270h-207v-801h-403v801z" />
    <glyph glyph-name="f_f.short" horiz-adv-x="1478" 
d="M154 801h-131v270h131v68q0 202 116.5 301.5t319.5 99.5q96 0 170 -22v-291q-44 14 -90 14q-57 0 -85 -28.5t-28 -75.5v-66h289v80q0 202 117 301.5t321 99.5q102 0 172 -20v-291q-40 12 -92 12q-57 0 -86 -28.5t-29 -75.5v-78h207v-270h-207v-801h-403v801h-289v-801
h-403v801z" />
    <glyph glyph-name="Euro.oldtab" 
d="M47 901h88q12 256 156.5 398.5t372.5 142.5q479 0 493 -488h-360q-6 91 -35 127.5t-96 36.5q-70 0 -104 -50.5t-38 -166.5h260l-24 -145h-236v-94h219l-24 -146h-195q5 -116 37.5 -165.5t106.5 -49.5q70 0 103.5 41t37.5 139h352q-4 -261 -133 -384.5t-375 -123.5
q-236 0 -372 140.5t-146 402.5h-88v146h88v94h-88v145z" />
    <glyph glyph-name="dollar.oldtab" 
d="M430 1026q0 -45 24.5 -70.5t88.5 -42.5v224q-56 -10 -84.5 -39.5t-28.5 -71.5zM811 406q0 43 -24 66t-89 40v-231q113 24 113 125zM543 -20q-241 18 -367.5 141t-132.5 330h373q10 -137 127 -168v254q-256 42 -366.5 144.5t-110.5 311.5q0 186 127.5 307t349.5 138v178
h155v-180q215 -19 333.5 -125.5t135.5 -311.5h-368q-13 100 -101 131v-239q90 -14 160.5 -34t133.5 -54.5t104 -81t64.5 -114.5t23.5 -154q0 -94 -28.5 -174t-85.5 -145t-152 -105.5t-220 -48.5v-248h-155v248z" />
    <glyph glyph-name="braceright.tab" horiz-adv-x="614" 
d="M27 -43q92 6 119 46.5t8 139.5l-35 195q-24 120 24 195t181 116q-133 42 -181 115.5t-24 193.5l35 197q17 95 -9.5 132.5t-117.5 43.5v260q306 0 416 -115.5t53 -375.5l-39 -172q-14 -74 14 -113t117 -45v-248q-89 -7 -117 -46.5t-14 -113.5l39 -174q55 -253 -55.5 -372
t-413.5 -119v260z" />
    <glyph glyph-name="braceleft.tab" horiz-adv-x="614" 
d="M588 -303q-303 0 -413.5 119t-55.5 372l39 174q14 74 -14 113.5t-117 46.5v248q89 6 117 45t14 113l-39 172q-57 260 53 375.5t416 115.5v-260q-91 -6 -117.5 -43.5t-9.5 -132.5l35 -197q24 -120 -24 -193.5t-181 -115.5q133 -41 181 -116t24 -195l-35 -195
q-19 -99 8 -139.5t119 -46.5v-260z" />
    <glyph glyph-name="bracketright.tab" horiz-adv-x="614" 
d="M27 -43h145v1372h-145v260h503v-1892h-503v260z" />
    <glyph glyph-name="bracketleft.tab" horiz-adv-x="614" 
d="M84 1589h504v-260h-146v-1372h146v-260h-504v1892z" />
    <glyph glyph-name="parenright.tab" horiz-adv-x="614" 
d="M-23 -303q226 441 226 946q0 494 -226 944h277q46 -67 81 -125.5t78.5 -152t71.5 -186.5t48 -219.5t20 -260.5q0 -135 -20 -262t-48 -220t-72 -187t-78.5 -152t-80.5 -125h-277z" />
    <glyph glyph-name="parenleft.tab" horiz-adv-x="614" 
d="M360 -303q-46 67 -80.5 125t-78.5 152t-72 187t-48 220t-20 262q0 134 20 260.5t48 219.5t71.5 186.5t78.5 152t81 125.5h277q-225 -423 -225 -944q0 -290 64.5 -529t160.5 -417h-277z" />
    <glyph glyph-name="semicolon.tab" horiz-adv-x="614" 
d="M-37 -162l166 557l373 -129l-303 -516zM311 557q-96 0 -160.5 63t-64.5 156t64.5 157t160.5 64q98 0 164 -64t66 -157t-66 -156t-164 -63z" />
    <glyph glyph-name="colon.tab" horiz-adv-x="614" 
d="M305 -25q-97 0 -160 63.5t-63 158.5q0 93 63 156t160 63q99 0 165.5 -63.5t66.5 -155.5q0 -94 -66.5 -158t-165.5 -64zM305 557q-97 0 -160 63t-63 156t63 157t160 64q99 0 165.5 -64t66.5 -157t-66.5 -156t-165.5 -63z" />
    <glyph glyph-name="comma.tab" horiz-adv-x="614" 
d="M10 -162l166 557l373 -129l-303 -516z" />
    <glyph glyph-name="period.tab" horiz-adv-x="614" 
d="M303 -25q-97 0 -160 63.5t-63 158.5q0 93 63 156t160 63q99 0 165.5 -63.5t66.5 -155.5q0 -94 -66.5 -158t-165.5 -64z" />
    <glyph glyph-name="greaterequal.tab" 
d="M180 662l305 149l-305 147v357l877 -469v-76l-877 -469v361zM180 258h877v-258h-877v258z" />
    <glyph glyph-name="lessequal.tab" 
d="M170 770v76l877 469v-357l-306 -147l306 -149v-361zM170 258h877v-258h-877v258z" />
    <glyph glyph-name="greater.tab" 
d="M152 473l393 186l-393 203v352l925 -516v-73l-925 -514v362z" />
    <glyph glyph-name="less.tab" 
d="M154 623v75l925 514v-364l-395 -184l395 -203v-352z" />
    <glyph glyph-name="approxequal.tab" 
d="M88 231q11 195 94 290t205 95q91 0 242.5 -39.5t193.5 -39.5q80 0 92 90h226q-7 -188 -90.5 -287.5t-204.5 -99.5q-93 0 -245.5 41t-192.5 41q-78 0 -95 -91h-225zM88 698q11 195 94 290t205 95q91 0 242.5 -38.5t193.5 -38.5q80 0 92 86h226q-7 -185 -90.5 -284
t-204.5 -99q-93 0 -245.5 39.5t-192.5 39.5q-79 0 -95 -90h-225z" />
    <glyph glyph-name="notequal.tab" 
d="M109 1008h512l75 196h250l-76 -196h248v-269h-352l-53 -139h405v-268h-508l-75 -197h-252l75 197h-249v268h352l55 139h-407v269z" />
    <glyph glyph-name="equal.tab" 
d="M125 600h979v-268h-979v268zM125 1008h979v-269h-979v269z" />
    <glyph glyph-name="divide.tab" 
d="M612 70q-87 0 -145.5 57t-58.5 143q0 83 59.5 141t144.5 58t145 -58t60 -141q0 -86 -59 -143t-146 -57zM94 834h1039v-275h-1039v275zM612 922q-85 0 -144.5 57.5t-59.5 140.5q0 86 58.5 143.5t145.5 57.5t146 -57.5t59 -143.5q0 -83 -60 -140.5t-145 -57.5z" />
    <glyph glyph-name="multiply.tab" 
d="M96 379l312 311l-318 316l211 213l315 -320l314 311l209 -209l-312 -311l318 -315l-213 -213l-316 319l-311 -311z" />
    <glyph glyph-name="plusminus.tab" 
d="M453 702h-355v291h355v332h321v-332h356v-291h-356v-329h-321v329zM98 258h1039v-258h-1039v258z" />
    <glyph glyph-name="minus.tab" 
d="M111 848h1007v-305h-1007v305z" />
    <glyph glyph-name="plus.tab" 
d="M455 551h-340v291h340v370h319v-370h340v-291h-340v-373h-319v373z" />
    <glyph glyph-name="perthousand.tab" horiz-adv-x="2048" 
d="M360 985q39 0 55.5 33.5t16.5 118.5q0 86 -16.5 119.5t-55.5 33.5q-38 0 -55.5 -33t-17.5 -118t17.5 -119.5t55.5 -34.5zM358 788q-152 0 -236.5 94.5t-84.5 254.5q0 156 90.5 250t232.5 94q141 0 232.5 -90t91.5 -246q0 -161 -87.5 -259t-238.5 -98zM1085 1464h203
l-1007 -1464h-201zM995 172q39 0 56.5 34t17.5 118t-17.5 116.5t-56.5 32.5q-38 0 -55.5 -32.5t-17.5 -114.5q0 -85 17.5 -119.5t55.5 -34.5zM993 -27q-152 0 -236.5 95t-84.5 256q0 153 91 247.5t232 94.5q143 0 233.5 -90t90.5 -246q0 -161 -87.5 -259t-238.5 -98z
M1690 172q39 0 55 33.5t16 118.5t-16 117t-55 32q-38 0 -56 -32.5t-18 -114.5q0 -85 18 -119.5t56 -34.5zM1688 -27q-152 0 -238 95.5t-86 255.5q0 153 92 247.5t234 94.5q140 0 230.5 -90t90.5 -246q0 -161 -87.5 -259t-235.5 -98z" />
    <glyph glyph-name="percent.tab" horiz-adv-x="1638" 
d="M436 999q46 0 71 37t25 101t-24.5 100.5t-71.5 36.5q-46 0 -71 -36t-25 -99q0 -67 24.5 -103.5t71.5 -36.5zM434 784q-172 0 -271.5 99.5t-99.5 253.5q0 147 106 245.5t267 98.5t266 -95t105 -243q0 -156 -101 -257.5t-272 -101.5zM1223 1464h209l-1008 -1464h-207z
M1204 188q46 0 70 36.5t24 101.5q0 64 -24 100.5t-70 36.5q-47 0 -72.5 -35.5t-25.5 -99.5q0 -66 25.5 -103t72.5 -37zM1202 -27q-172 0 -271.5 99.5t-99.5 253.5q0 148 106 247t267 99t266 -95t105 -243q0 -156 -101.5 -258.5t-271.5 -102.5z" />
    <glyph glyph-name="two.num" horiz-adv-x="749" 
d="M8 719l264 270q77 78 110.5 124t33.5 87q0 62 -58 62q-61 0 -73 -105h-269q4 157 99 238.5t260 81.5q163 0 246.5 -71t83.5 -183q0 -75 -40 -138t-120 -139l-58 -53h222v-211h-701v37z" />
    <glyph glyph-name="uni045D.bgr" horiz-adv-x="1286" 
d="M446 -27q-160 0 -259 101.5t-99 294.5v702h404v-633q0 -83 32 -123.5t103 -40.5q159 0 159 187v610h404v-1071h-404v166q-99 -193 -340 -193zM291 1530h395l107 -346h-289z" />
    <glyph glyph-name="three.num" horiz-adv-x="788" 
d="M395 668q-183 0 -269 75t-91 205h260q11 -78 82 -78q69 0 69 64q0 59 -84 59h-63v162h63q89 0 89 64q0 55 -64 55q-66 0 -78 -72h-258q11 125 98 200t246 75q158 0 245 -58t87 -162q0 -131 -141 -167q70 -11 113.5 -56t43.5 -112q0 -117 -87.5 -185.5t-260.5 -68.5z" />
    <glyph glyph-name="four.num" horiz-adv-x="835" 
d="M412 825h-389v111l321 528h352v-446h99v-193h-99v-143h-284v143zM420 1018v254l-148 -254h148z" />
    <glyph glyph-name="uni20B4.old" horiz-adv-x="1341" 
d="M666 -27q-271 0 -419.5 112.5t-148.5 301.5q0 75 23 139h-78v146h188q59 45 172 94h-360v145h731q43 40 43 109q0 54 -32 78t-97 24q-128 0 -143 -135h-414q41 453 559 453q253 0 400 -106t147 -285q0 -73 -18 -138h77v-145h-170q-49 -49 -137 -94h307v-146h-696
q-78 -46 -78 -123q0 -112 148 -112q94 0 131.5 42.5t46.5 121.5h418q-22 -482 -600 -482z" />
    <glyph glyph-name="uni20B4.oldtab" 
d="M614 -27q-258 0 -395 115.5t-137 317.5q0 64 18 120h-69v146h174q62 49 160 94h-334v145h678q41 41 41 109q0 102 -125 102q-121 0 -136 -135h-376q35 453 518 453q237 0 372.5 -107.5t135.5 -294.5q0 -57 -17 -127h72v-145h-158q-43 -45 -129 -94h287v-146h-647
q-72 -46 -72 -123q0 -112 137 -112q88 0 123.5 43t44.5 121h387q-12 -482 -553 -482z" />
    <glyph glyph-name="uni20B4.tab" 
d="M616 -27q-258 0 -395 118.5t-137 326.5q0 63 16 125h-65v149h168q63 54 159 99h-327v149h672q41 41 41 111q0 108 -117 108t-133 -141h-383q41 467 518 467q238 0 372 -110.5t134 -303.5q0 -81 -17 -131h72v-149h-156q-43 -50 -129 -99h285v-149h-645q-70 -45 -70 -127
q0 -55 33.5 -85t99.5 -30q47 0 78 12.5t48 38t24.5 51.5t11.5 66h391q-15 -496 -549 -496z" />
    <glyph glyph-name="five.num" horiz-adv-x="774" 
d="M381 668q-171 0 -255.5 72t-86.5 194h268q5 -26 19 -39.5t47 -13.5q31 0 48 20t17 55q0 72 -71 72q-57 0 -72 -47h-234l25 483h600v-204h-397l-8 -160q67 104 211 104q111 0 176 -62.5t65 -178.5q0 -138 -92 -216.5t-260 -78.5z" />
    <glyph glyph-name="uni20B8.old" horiz-adv-x="1210" 
d="M41 1276v145h1130v-145h-1130zM379 823h-338v346h1130v-346h-337v-823h-455v823z" />
    <glyph glyph-name="uni20B8.oldtab" 
d="M72 1276v145h1075v-145h-1075zM385 823h-313v346h1075v-346h-309v-823h-453v823z" />
    <glyph glyph-name="uni20B8.tab" 
d="M80 1315v149h1069v-149h-1069zM381 850h-301v356h1069v-356h-301v-850h-467v850z" />
    <glyph glyph-name="six.num" horiz-adv-x="827" 
d="M434 668q-201 0 -295 104t-94 291v22q0 177 110.5 284.5t280.5 107.5q314 0 336 -252h-268q-12 45 -60 45q-94 0 -104 -164q30 40 71 61t113 21q116 0 190 -58t74 -182q0 -129 -94 -204.5t-260 -75.5zM430 862q35 0 55.5 23t20.5 59t-20.5 58t-55.5 22q-34 0 -54 -23
t-20 -59t19.5 -58t54.5 -22z" />
    <glyph glyph-name="uni20BD.old" horiz-adv-x="1413" 
d="M762 766q180 0 180 158v8q0 80 -44 115.5t-134 35.5h-94v-317h92zM670 221v-221h-449v221h-180v146h180v96h-180v145h180v813h565q298 0 440 -126t142 -361v-8q0 -224 -143 -343.5t-418 -119.5h-137v-96h407v-146h-407z" />
    <glyph glyph-name="uni20BD.oldtab" 
d="M666 766q161 0 161 158v8q0 80 -39.5 115.5t-119.5 35.5h-86v-317h84zM582 221v-221h-400v221h-162v146h162v96h-162v145h162v813h504q520 0 520 -487v-8q0 -224 -127.5 -343.5t-373.5 -119.5h-123v-96h364v-146h-364z" />
    <glyph glyph-name="uni20BD.tab" 
d="M584 229v-229h-408v229h-156v150h156v96h-156v152h156v837h502q526 0 526 -501v-9q0 -230 -128 -354.5t-371 -124.5h-121v-96h372v-150h-372zM657 788q158 0 158 164v9q0 83 -38 120t-118 37h-75v-330h73z" />
    <glyph glyph-name="seven.num" horiz-adv-x="731" 
d="M340 1233h-301v231h672v-28l-285 -754h-295z" />
    <glyph glyph-name="eight.num" horiz-adv-x="804" 
d="M403 668q-366 0 -366 233q0 65 35.5 115t107.5 74q-54 25 -81 62t-27 97q0 106 94.5 167t239.5 61q152 0 241.5 -59t89.5 -169q0 -114 -108 -157q139 -44 139 -183q0 -116 -93 -178.5t-272 -62.5zM403 862q35 0 56.5 20.5t21.5 53.5q0 31 -21.5 51.5t-56.5 20.5
q-36 0 -56.5 -19.5t-20.5 -54.5q0 -32 21 -52t56 -20zM406 1155q29 0 49 19.5t20 48.5t-19.5 47t-49.5 18t-51 -18.5t-21 -48.5q0 -29 21 -47.5t51 -18.5z" />
    <glyph glyph-name="nine.num" horiz-adv-x="827" 
d="M393 668q-154 0 -241.5 65t-98.5 187h271q5 -23 18 -34.5t45 -11.5q52 0 74 41t24 119q-28 -40 -64 -59t-106 -19q-126 0 -201 57t-75 183q0 128 94.5 204.5t259.5 76.5q193 0 291 -108.5t98 -287.5v-16q0 -192 -99 -294.5t-290 -102.5zM393 1120q35 0 55.5 21.5
t20.5 56.5q0 37 -20 60.5t-56 23.5q-35 0 -54.5 -23t-19.5 -61q0 -36 19.5 -57t54.5 -21z" />
    <glyph glyph-name="zero.den" horiz-adv-x="890" 
d="M444 209q56 0 80.5 42.5t24.5 135.5v12q0 96 -24.5 135t-82.5 39q-55 0 -77.5 -40t-22.5 -134v-14q0 -94 23 -135t79 -41zM438 -14q-191 0 -292 102t-101 297v12q0 187 111.5 292.5t287.5 105.5q85 0 156.5 -23.5t127 -70t87 -123t31.5 -175.5v-10q0 -194 -108 -300.5
t-300 -106.5z" />
    <glyph glyph-name="one.den" horiz-adv-x="608" 
d="M209 498l-170 -92v237l213 139h254v-782h-297v498z" />
    <glyph glyph-name="two.den" horiz-adv-x="749" 
d="M8 37l264 270q77 78 110.5 124t33.5 87q0 62 -58 62q-61 0 -73 -105h-269q4 157 99 238.5t260 81.5q163 0 246.5 -71t83.5 -183q0 -75 -40 -138t-120 -139l-58 -53h222v-211h-701v37z" />
    <glyph glyph-name="uni021B.alt" horiz-adv-x="790" 
d="M123 -422l80 359l352 -25l-207 -389zM168 801h-145v270h145v219h403v-219h189v-270h-189v-801h-403v801z" />
    <glyph glyph-name="uni0437.bgr" horiz-adv-x="1110" 
d="M1073 55q0 -207 -137.5 -329.5t-396.5 -122.5q-242 0 -377 115t-156 311h393q14 -148 131 -148q74 0 109 47t35 127v11q0 89 -37 130.5t-125 41.5h-102v270h84q78 0 113.5 37.5t35.5 113.5v19q0 76 -28.5 109.5t-84.5 33.5q-60 0 -90 -41t-34 -133h-375q8 99 38.5 177
t77.5 129.5t111.5 85.5t136.5 48.5t156 14.5q225 0 354 -113t129 -280v-15q0 -113 -63 -194t-160 -107q124 -31 193 -111t69 -212v-15z" />
    <glyph glyph-name="uni0449.bgr" horiz-adv-x="1980" 
d="M1620 -260l-12 260h-191v164q-49 -85 -134.5 -140t-203.5 -55q-210 0 -286 174q-136 -174 -353 -174q-158 0 -253 102.5t-95 293.5v706h402v-633q0 -70 32 -106.5t88 -36.5q68 0 105 42t37 120v614h399v-633q0 -70 32.5 -106.5t88.5 -36.5q68 0 104.5 42t36.5 120v614
h404v-790h139v-541h-340z" />
    <glyph glyph-name="three.den" horiz-adv-x="788" 
d="M395 -14q-183 0 -269 75t-91 205h260q11 -78 82 -78q69 0 69 64q0 59 -84 59h-63v162h63q89 0 89 64q0 55 -64 55q-66 0 -78 -72h-258q11 125 98 200t246 75q158 0 245 -58t87 -162q0 -131 -141 -167q70 -11 113.5 -56t43.5 -112q0 -117 -87.5 -185.5t-260.5 -68.5z" />
    <glyph glyph-name="uni044A.bgr" horiz-adv-x="1304" 
d="M29 795v276h622v-319q79 6 133 4q237 -1 357.5 -96.5t120.5 -268.5v-12q0 -181 -135.5 -292.5t-376.5 -111.5q-136 0 -232.5 31t-154 92.5t-83.5 145t-26 196.5v355h-225zM756 221q110 0 110 144v8q0 64 -33 99.5t-98 35.5q-38 0 -84 -4v-137q0 -146 105 -146z" />
    <glyph glyph-name="four.den" horiz-adv-x="835" 
d="M412 143h-389v111l321 528h352v-446h99v-193h-99v-143h-284v143zM420 336v254l-148 -254h148z" />
    <glyph glyph-name="five.den" horiz-adv-x="776" 
d="M381 -14q-171 0 -255.5 72t-86.5 194h268q5 -26 19 -39.5t47 -13.5q31 0 48 20t17 55q0 72 -71 72q-57 0 -72 -47h-234l25 483h600v-204h-397l-8 -160q67 104 211 104q111 0 176 -62.5t65 -178.5q0 -138 -92 -216.5t-260 -78.5z" />
    <glyph glyph-name="six.den" horiz-adv-x="827" 
d="M434 -14q-201 0 -295 104t-94 291v22q0 177 110.5 284.5t280.5 107.5q314 0 336 -252h-268q-12 45 -60 45q-94 0 -104 -164q30 40 71 61t113 21q116 0 190 -58t74 -182q0 -129 -94 -204.5t-260 -75.5zM430 180q35 0 55.5 23t20.5 59t-20.5 58t-55.5 22q-34 0 -54 -23
t-20 -59t19.5 -58t54.5 -22z" />
    <glyph glyph-name="seven.den" horiz-adv-x="731" 
d="M340 551h-301v231h672v-28l-285 -754h-295z" />
    <glyph glyph-name="florin.tab" 
d="M168 850h207l35 244q54 391 471 391q87 0 166 -23v-299q-47 15 -101 15q-121 0 -139 -119l-31 -209h248v-270h-285l-133 -953h-401l133 953h-170v270z" />
    <glyph glyph-name="uni0431.locl" horiz-adv-x="1282" 
d="M641 -27q-170 0 -304 60t-214 181t-80 284v14q0 160 93 283t259 159q10 4 60 9l30 4q-87 23 -147 46.5t-111.5 58t-76.5 83.5t-25 113q0 126 86.5 196t253.5 70h334q242 0 346 31v-283q-77 -45 -361 -45h-292q-56 0 -56 -39q0 -20 31 -39.5t121 -46.5q123 -33 214.5 -67
t177.5 -83t139.5 -108t85.5 -141t32 -183v-18q0 -165 -79.5 -288.5t-214 -187t-302.5 -63.5zM643 270q184 0 184 238v14q0 240 -184 240q-188 0 -188 -238v-14q0 -240 188 -240z" />
    <glyph glyph-name="yen.tab" 
d="M98 758h277l-344 706h458l154 -395l154 395h401l-342 -706h295v-150h-309v-96h309v-152h-309v-360h-449v360h-295v152h295v96h-295v150z" />
    <glyph glyph-name="eight.den" horiz-adv-x="804" 
d="M403 -14q-366 0 -366 233q0 65 35.5 115t107.5 74q-54 25 -81 62t-27 97q0 106 94.5 167t239.5 61q152 0 241.5 -59t89.5 -169q0 -114 -108 -157q139 -44 139 -183q0 -116 -93 -178.5t-272 -62.5zM403 180q35 0 56.5 20.5t21.5 53.5q0 31 -21.5 51.5t-56.5 20.5
q-36 0 -56.5 -19.5t-20.5 -54.5q0 -32 21 -52t56 -20zM406 473q29 0 49 19.5t20 48.5t-19.5 47t-49.5 18t-51 -18.5t-21 -48.5q0 -29 21 -47.5t51 -18.5z" />
    <glyph glyph-name="nine.den" horiz-adv-x="827" 
d="M393 -14q-154 0 -241.5 65t-98.5 187h271q5 -22 18 -33.5t45 -11.5q52 0 74 40.5t24 118.5q-28 -40 -64 -59t-106 -19q-126 0 -201 57t-75 183q0 128 94.5 204.5t259.5 76.5q193 0 291 -108.5t98 -287.5v-16q0 -192 -99 -294.5t-290 -102.5zM393 438q35 0 55.5 21.5
t20.5 56.5q0 37 -20 60.5t-56 23.5q-35 0 -54.5 -23t-19.5 -61q0 -36 19.5 -57t54.5 -21z" />
    <glyph glyph-name="zero.sub" horiz-adv-x="890" 
d="M444 -49q56 0 80.5 42.5t24.5 135.5v12q0 96 -24.5 135t-82.5 39q-55 0 -77.5 -40t-22.5 -134v-14q0 -94 23 -135t79 -41zM438 -272q-191 0 -292 102t-101 297v12q0 187 111.5 292.5t287.5 105.5q85 0 156.5 -23.5t127 -70t87 -123t31.5 -175.5v-10q0 -194 -108 -300.5
t-300 -106.5z" />
    <glyph glyph-name="one.sub" horiz-adv-x="608" 
d="M209 240l-170 -93v238l213 139h254v-782h-297v498z" />
    <glyph glyph-name="sterling.tab" 
d="M55 829h86q-20 79 -20 179q0 155 71 264.5t187.5 161t267.5 51.5q264 0 388 -124.5t130 -379.5h-368q-10 90 -39.5 124t-91.5 34q-134 0 -134 -158q0 -59 11 -152h313v-235h-281q7 -61 7 -105q0 -45 -19 -112q7 -2 37.5 -11t41 -12t30.5 -6.5t35 -3.5q106 0 114 107h373
q-6 -222 -110 -345.5t-291 -123.5q-64 0 -124 16t-97.5 35t-78 35t-69.5 16q-74 0 -84 -84h-315q17 274 178 369q16 53 16 120q0 53 -12 105h-152v235z" />
    <glyph glyph-name="two.sub" horiz-adv-x="749" 
d="M8 -221l264 270q77 78 110.5 124t33.5 87q0 62 -58 62q-61 0 -73 -105h-269q4 157 99 238.5t260 81.5q163 0 246.5 -71t83.5 -183q0 -75 -40 -138t-120 -139l-58 -53h222v-211h-701v37z" />
    <glyph glyph-name="three.sub" horiz-adv-x="788" 
d="M395 -272q-183 0 -269 75t-91 205h260q11 -78 82 -78q69 0 69 64q0 59 -84 59h-63v162h63q89 0 89 64q0 55 -64 55q-66 0 -78 -72h-258q11 125 98 200t246 75q158 0 245 -58t87 -162q0 -131 -141 -167q70 -11 113.5 -56t43.5 -112q0 -117 -87.5 -185.5t-260.5 -68.5z" />
    <glyph glyph-name="four.sub" horiz-adv-x="835" 
d="M412 -115h-389v111l321 528h352v-446h99v-193h-99v-143h-284v143zM420 78v254l-148 -254h148z" />
    <glyph glyph-name="space.tab" horiz-adv-x="614" 
 />
    <glyph glyph-name="uni0433.bgr" horiz-adv-x="1075" 
d="M524 -27q-226 0 -358.5 88.5t-132.5 257.5q0 78 28 135t85.5 95t128.5 62t174 44q116 23 157 44.5t41 58.5q0 73 -96 73q-58 0 -86 -23t-39 -73h-363q60 367 510 367q204 0 329.5 -86.5t125.5 -247.5q0 -152 -92 -227t-301 -113q-121 -19 -162 -43t-41 -66q0 -71 107 -71
q66 0 94.5 26.5t36.5 83.5h370q-11 -187 -141.5 -286t-374.5 -99z" />
    <glyph glyph-name="uni043F.bgr" horiz-adv-x="1288" 
d="M96 1071h404v-172q47 92 136.5 147.5t217.5 55.5q158 0 251 -101t93 -296v-705h-401v614q0 83 -33.5 123.5t-104.5 40.5q-76 0 -117.5 -46t-41.5 -140v-592h-404v1071z" />
    <glyph glyph-name="uni0448.bgr" horiz-adv-x="1914" 
d="M1821 0h-404v164q-49 -85 -134.5 -140t-203.5 -55q-210 0 -286 174q-136 -174 -353 -174q-158 0 -253 102.5t-95 293.5v706h402v-633q0 -70 32 -106.5t88 -36.5q68 0 105 42t37 120v614h399v-633q0 -70 32.5 -106.5t88.5 -36.5q68 0 104.5 42t36.5 120v614h404v-1071z
" />
    <glyph glyph-name="uni044E.bgr" horiz-adv-x="1765" 
d="M1141 -25q-217 0 -364.5 108.5t-188.5 307.5l-4 12h-86v-403h-400v1534h400v-854h90q41 196 192 309t363 113q124 0 230 -38t183.5 -108t121.5 -174.5t44 -230.5v-16q0 -129 -44.5 -235.5t-123 -177t-184.5 -109t-229 -38.5zM1143 272q170 0 170 258v17q0 258 -170 258
q-83 0 -126.5 -64t-43.5 -190v-16q0 -263 170 -263z" />
    <glyph glyph-name="nine.old" horiz-adv-x="1347" 
d="M633 -217q-255 0 -401 118.5t-166 336.5h407q12 -56 51 -92.5t109 -36.5q116 0 164 87.5t55 311.5q-53 -81 -130.5 -126.5t-197.5 -45.5q-98 0 -182.5 28t-150 81.5t-103 140t-37.5 196.5q0 234 160.5 373t439.5 139q635 0 635 -721v-63q0 -340 -169 -533.5t-484 -193.5z
M651 608q83 0 131.5 53.5t48.5 133.5q0 82 -48 135t-132 53q-80 0 -128 -53.5t-48 -134.5q0 -82 47 -134.5t129 -52.5z" />
    <glyph glyph-name="eight.old" horiz-adv-x="1323" 
d="M662 -27q-287 0 -450 115t-163 324q0 122 73 214t204 140q-215 98 -215 303q0 98 43.5 178t119.5 132t176.5 80t215.5 28q160 0 284 -47.5t196.5 -142.5t72.5 -226q0 -207 -215 -303q129 -44 199.5 -133.5t70.5 -210.5q0 -211 -162.5 -331t-449.5 -120zM664 285
q82 0 131 46t49 124q0 79 -48 125.5t-132 46.5q-81 0 -132 -46t-51 -124q0 -79 50.5 -125.5t132.5 -46.5zM666 885q67 0 112 41.5t45 109.5t-45 110t-112 42t-112.5 -42t-45.5 -110t45.5 -109.5t112.5 -41.5z" />
    <glyph glyph-name="seven.old" horiz-adv-x="1187" 
d="M608 911h-567v357h1133v-47l-523 -1409h-461z" />
    <glyph glyph-name="six.old" horiz-adv-x="1347" 
d="M696 -25q-135 0 -242 33.5t-180.5 94t-122 149t-70.5 194.5t-22 234v72q0 172 49 311.5t136.5 232t208 142t262.5 49.5q250 0 390 -113t163 -330h-408q-12 57 -44 87t-99 30q-106 0 -160.5 -98t-60.5 -301q106 172 327 172q98 0 182.5 -28.5t150 -83.5t103 -144
t37.5 -201q0 -228 -160.5 -365t-439.5 -137zM696 287q80 0 128 53.5t48 134.5q0 82 -47 134.5t-129 52.5q-83 0 -131.5 -53.5t-48.5 -135.5q0 -81 48 -133.5t132 -52.5z" />
    <glyph glyph-name="uni0434.bgr" horiz-adv-x="1318" 
d="M643 350q90 0 139 58.5t49 162.5v15q0 100 -48.5 158.5t-139.5 58.5t-139.5 -57.5t-48.5 -161.5v-17q0 -100 48.5 -158.5t139.5 -58.5zM612 -397q-530 0 -573 405h399q14 -60 51.5 -93.5t124.5 -33.5q205 0 205 205v166q-45 -84 -127.5 -136.5t-197.5 -52.5
q-192 0 -320.5 134.5t-128.5 373.5v17q0 234 128.5 374t318.5 140q231 0 327 -178v147h404v-979q0 -241 -155 -365t-456 -124z" />
    <glyph glyph-name="five.old" horiz-adv-x="1269" 
d="M623 -213q-279 0 -428 133.5t-154 347.5h401q8 -76 47 -117.5t129 -41.5q81 0 127 55t46 137q0 86 -53 136t-144 50q-143 0 -223 -102h-273l35 883h997v-332h-681l-13 -318q115 160 350 160q196 0 314.5 -124.5t118.5 -348.5q0 -239 -157 -378.5t-439 -139.5z" />
    <glyph glyph-name="uni0438.bgr" horiz-adv-x="1286" 
d="M446 -27q-160 0 -259 101.5t-99 294.5v702h404v-633q0 -83 32 -123.5t103 -40.5q159 0 159 187v610h404v-1071h-404v166q-96 -193 -340 -193z" />
    <glyph glyph-name="uni043F.locl" horiz-adv-x="1259" 
d="M760 791h-260v-791h-402v1071h1063v-1071h-401v791z" />
    <glyph glyph-name="one.num" horiz-adv-x="608" 
d="M209 1180l-170 -93v238l213 139h254v-782h-297v498z" />
    <glyph glyph-name="five.sub" horiz-adv-x="776" 
d="M381 -272q-171 0 -255.5 72t-86.5 194h268q5 -26 19 -39.5t47 -13.5q31 0 48 20t17 55q0 72 -71 72q-57 0 -72 -47h-234l25 483h600v-205h-397l-8 -159q67 104 211 104q111 0 176 -62.5t65 -178.5q0 -138 -92 -216.5t-260 -78.5z" />
    <glyph glyph-name="uni044C.bgr" horiz-adv-x="1142" 
d="M588 -25q-136 0 -232.5 31t-154 92.5t-83.5 145t-26 196.5v631h397v-319q79 6 134 4q237 -1 357 -96t120 -269v-12q0 -181 -135.5 -292.5t-376.5 -111.5zM594 221q56 0 83.5 38t27.5 106v8q0 64 -33.5 99.5t-98.5 35.5q-38 0 -84 -4v-137q0 -146 105 -146z" />
    <glyph glyph-name="three.old" horiz-adv-x="1280" 
d="M651 -213q-302 0 -451 132.5t-161 375.5h393q16 -191 195 -191q84 0 128 43t44 117q0 156 -189 156h-121v266h113q189 0 189 154q0 67 -38 104t-106 37q-78 0 -125 -46t-59 -132h-389q13 221 162.5 356t425.5 135q252 0 393 -107.5t141 -293.5q0 -234 -244 -320
q134 -34 205.5 -114.5t71.5 -222.5q0 -98 -36.5 -179.5t-107 -142t-181.5 -94t-253 -33.5z" />
    <glyph glyph-name="uni0439.bgr" horiz-adv-x="1286" 
d="M631 1192q-163 0 -251 85.5t-99 242.5h262q11 -111 88 -111q43 0 63 30t27 81h262q-12 -155 -103.5 -241.5t-248.5 -86.5zM446 -27q-160 0 -259 101.5t-99 294.5v702h404v-633q0 -83 32 -123.5t103 -40.5q159 0 159 187v610h404v-1071h-404v166q-96 -193 -340 -193z" />
    <glyph glyph-name="uni0414.bgr" horiz-adv-x="1581" 
d="M569 358h377l-188 670zM416 -266h-402v624h129l365 1106h557l371 -1106h131v-624h-402l-14 266h-721z" />
    <glyph glyph-name="uni0416.bgr" horiz-adv-x="2140" 
d="M842 614l-340 -614h-486l461 772l-440 692h465l340 -583v583h452v-579l342 579h459l-442 -669l471 -795h-506l-324 612v-612h-452v614z" />
    <glyph glyph-name="uni041A.bgr" horiz-adv-x="1527" 
d="M600 584v-584h-467v1464h467v-553l404 553h483l-516 -676l542 -788h-534z" />
    <glyph glyph-name="uni0436.bgr" horiz-adv-x="1675" 
d="M641 459l-211 -459h-418l299 573l-282 498h401l211 -430v893h389v-893l209 430h397l-280 -483l307 -588h-430l-203 457v-457h-389v459z" />
    <glyph glyph-name="two.old" horiz-adv-x="1216" 
d="M18 59l455 439q130 126 187 201.5t57 148.5q0 56 -31.5 88.5t-95.5 32.5q-67 0 -109.5 -49t-52.5 -146h-387q11 246 162 383t415 137q249 0 389 -112t140 -297q0 -120 -67 -223t-201 -228l-136 -125h416v-309h-1141v59z" />
    <glyph glyph-name="one.old" horiz-adv-x="909" 
d="M326 844l-260 -156v359l321 221h369v-1268h-430v844z" />
    <glyph glyph-name="uni0432.bgr" horiz-adv-x="1142" 
d="M61 977q0 291 139 435t388 144q229 0 354 -103.5t125 -295.5v-18q0 -128 -69.5 -220.5t-180.5 -117.5q139 -23 213 -111t74 -229v-10q0 -99 -36 -186t-102 -152.5t-166.5 -103.5t-221.5 -38q-249 0 -383 130t-134 380v496zM459 915h53q89 0 127.5 48.5t38.5 144.5v18
q0 82 -23 117t-77 35q-119 0 -119 -242v-121zM578 248q68 0 99.5 51.5t31.5 155.5v20q0 97 -41.5 140.5t-137.5 43.5h-71v-200q0 -106 25.5 -158.5t93.5 -52.5z" />
    <glyph glyph-name="zero.old" horiz-adv-x="1392" 
d="M698 301q107 0 157 78.5t50 236.5v39q0 160 -50 237t-159 77q-108 0 -158.5 -76.5t-50.5 -233.5v-43q0 -160 51 -237.5t160 -77.5zM690 -27q-289 0 -464 168t-175 469v43q0 150 49 272t136 202t204.5 123.5t255.5 43.5q137 0 253.5 -40.5t203.5 -118t136.5 -198.5
t49.5 -273v-41q0 -302 -179 -476t-470 -174z" />
    <glyph glyph-name="uni0424.bgr" horiz-adv-x="1947" 
d="M1206 1389q319 -12 504.5 -178t185.5 -459v-17q0 -146 -53.5 -264.5t-148 -196t-219 -121t-269.5 -49.5v-124h-461v124q-319 12 -504.5 177.5t-185.5 457.5v17q0 147 53.5 265.5t148 196t219 121.5t269.5 50v116h461v-116zM745 1067q-107 -5 -175 -81.5t-68 -227.5v-17
q0 -154 67 -230t176 -81v637zM1206 426q107 5 175.5 81.5t68.5 225.5v17q0 156 -66 232t-178 81v-637z" />
    <glyph glyph-name="yen.old" horiz-adv-x="1308" 
d="M119 735h266l-369 686h486l180 -430l182 430h430l-354 -686h270v-145h-319v-94h319v-146h-319v-350h-453v350h-319v146h319v94h-319v145z" />
    <glyph glyph-name="sterling.old" horiz-adv-x="1345" 
d="M63 813h95q-21 73 -21 164q0 147 75.5 253.5t202.5 158t290 51.5q279 0 418 -132t147 -366h-410q-10 86 -44 124t-97 38t-100 -41t-37 -113q0 -59 10 -137h338v-246h-303q4 -62 4 -92q0 -51 -17 -110q14 -4 41.5 -12t42 -12t35 -7.5t37.5 -3.5q109 0 115 108h407
q-8 -203 -121 -329.5t-311 -126.5q-69 0 -137 15.5t-111 34.5t-89 34.5t-77 15.5q-40 0 -62.5 -22.5t-27.5 -59.5h-329q11 127 61.5 223.5t142.5 141.5q17 56 17 110q0 45 -12 92h-173v246z" />
    <glyph glyph-name="Euro.old" horiz-adv-x="1445" 
d="M41 897h123q37 243 208.5 393t424.5 150q269 0 419 -133t173 -392h-412q-24 187 -184 187q-83 0 -130 -52t-65 -153h281l-29 -145h-260v-93h246l-25 -145h-213q18 -98 64 -146.5t133 -48.5q92 0 136.5 51t55.5 162h412q-30 -271 -182.5 -415t-434.5 -144
q-268 0 -427.5 147t-192.5 394h-121v145h113v93h-113v145z" />
    <glyph glyph-name="uni0442.bgr" horiz-adv-x="1914" 
d="M96 1071h404v-164q49 85 134.5 140t203.5 55q210 0 286 -174q136 174 353 174q159 0 253.5 -102t94.5 -293v-707h-402v633q0 70 -32 106.5t-88 36.5q-68 0 -105 -42t-37 -120v-614h-399v633q0 70 -32.5 106.5t-88.5 36.5q-68 0 -104.5 -42t-36.5 -120v-614h-404v1071z
" />
    <glyph glyph-name="six.sub" horiz-adv-x="827" 
d="M434 -272q-201 0 -295 104t-94 291v22q0 177 110.5 284.5t280.5 107.5q314 0 336 -252h-268q-12 45 -60 45q-94 0 -104 -164q30 40 71 61t113 21q116 0 190 -58t74 -182q0 -129 -94 -204.5t-260 -75.5zM430 -78q35 0 55.5 23t20.5 59t-20.5 58t-55.5 22q-34 0 -54 -23
t-20 -59t19.5 -58t54.5 -22z" />
    <glyph glyph-name="seven.sub" horiz-adv-x="731" 
d="M340 293h-301v231h672v-28l-285 -754h-295z" />
    <glyph glyph-name="eight.sub" horiz-adv-x="804" 
d="M403 -272q-366 0 -366 233q0 65 35.5 115t107.5 74q-54 25 -81 62t-27 97q0 106 94.5 167t239.5 61q152 0 241.5 -59t89.5 -169q0 -114 -108 -157q139 -44 139 -183q0 -116 -93 -178.5t-272 -62.5zM403 -78q35 0 56.5 20.5t21.5 53.5q0 31 -21.5 51.5t-56.5 20.5
q-36 0 -56.5 -19.5t-20.5 -54.5q0 -32 21 -52t56 -20zM406 215q29 0 49 19.5t20 48.5t-19.5 47t-49.5 18t-51 -18.5t-21 -48.5q0 -29 21 -47.5t51 -18.5z" />
    <glyph glyph-name="nine.sub" horiz-adv-x="827" 
d="M393 -272q-154 0 -241.5 65t-98.5 187h271q5 -23 18 -34.5t45 -11.5q52 0 74 41t24 119q-28 -40 -64 -59t-106 -19q-126 0 -201 57t-75 183q0 128 94.5 204.5t259.5 76.5q193 0 291 -108.5t98 -287.5v-16q0 -192 -99 -294.5t-290 -102.5zM393 180q35 0 55.5 21.5
t20.5 56.5q0 37 -20 60.5t-56 23.5q-35 0 -54.5 -23t-19.5 -61q0 -36 19.5 -57t54.5 -21z" />
    <glyph glyph-name="hungarumlaut.uc" horiz-adv-x="819" 
d="M145 1855h334l-153 -305h-267zM557 1855h336l-154 -305h-266z" />
    <glyph glyph-name="dollar.old" horiz-adv-x="1308" 
d="M571 -20q-252 18 -385.5 141.5t-144.5 329.5h397q10 -137 133 -168v258q-271 37 -387 140.5t-116 311.5q0 186 135 308t368 139v176h166v-178q460 -39 496 -439h-389q-6 52 -30.5 84.5t-76.5 49.5v-242q122 -17 210 -45.5t159 -78t107 -127t36 -183.5q0 -94 -30.5 -175.5
t-91 -146.5t-160.5 -106t-230 -49v-248h-166v248zM854 403q0 44 -25.5 68t-91.5 41v-233q117 26 117 124zM453 1026q0 -47 25.5 -71.5t92.5 -41.5v226q-118 -21 -118 -113z" />
    <glyph glyph-name="tilde.uc" horiz-adv-x="819" 
d="M545 1546q-67 0 -145 33t-103 33q-51 0 -61 -62h-224q11 163 82.5 245.5t175.5 82.5q63 0 144 -33t110 -33q50 0 60 62h225q-6 -82 -30.5 -146.5t-61 -103t-80.5 -58.5t-92 -20z" />
    <glyph glyph-name="ring.uc" horiz-adv-x="819" 
d="M410 1659q41 0 66.5 28.5t25.5 73.5q0 47 -25.5 75t-66.5 28q-42 0 -67.5 -28t-25.5 -75q0 -44 26 -73t67 -29zM410 1520q-104 0 -177 71t-73 170t73 170.5t177 71.5t176.5 -71.5t72.5 -170.5t-72.5 -170t-176.5 -71z" />
    <glyph glyph-name="dotaccent.uc" horiz-adv-x="819" 
d="M410 1540q-92 0 -151.5 55t-59.5 140q0 86 59.5 141t151.5 55q91 0 149.5 -55t58.5 -141q0 -85 -58.5 -140t-149.5 -55z" />
    <glyph glyph-name="breve.uc" horiz-adv-x="819" 
d="M410 1534q-159 0 -249.5 83.5t-101.5 237.5h254q5 -41 29.5 -63.5t67.5 -22.5q41 0 66 23.5t30 62.5h254q-10 -153 -102.5 -237t-247.5 -84z" />
    <glyph glyph-name="caron.uc" horiz-adv-x="819" 
d="M8 1855h291l111 -96l110 96h285l-236 -305h-336z" />
    <glyph glyph-name="circumflex.uc" horiz-adv-x="819" 
d="M246 1855h336l225 -305h-291l-110 97l-111 -97h-285z" />
    <glyph glyph-name="acute.uc" horiz-adv-x="819" 
d="M340 1855h412l-211 -305h-305z" />
    <glyph glyph-name="uni041B.bgr" horiz-adv-x="1515" 
d="M725 981l-274 -981h-435l476 1464h524l483 -1464h-502z" />
    <glyph glyph-name="macron.uc" horiz-adv-x="819" 
d="M68 1810h682v-235h-682v235z" />
    <glyph glyph-name="dieresis.uc" horiz-adv-x="819" 
d="M176 1540q-78 0 -132 53.5t-54 128.5q0 77 54 130t132 53q79 0 134 -53t55 -130q0 -75 -55 -128.5t-134 -53.5zM641 1540q-78 0 -132 53.5t-54 128.5q0 77 54 130t132 53q79 0 133.5 -53t54.5 -130q0 -75 -54.5 -128.5t-133.5 -53.5z" />
    <glyph glyph-name="grave.uc" horiz-adv-x="819" 
d="M74 1855h413l97 -305h-305z" />
    <glyph glyph-name="at.uc" horiz-adv-x="1888" 
d="M944 -174q-203 0 -371 65t-280.5 178t-174 265.5t-61.5 327.5q0 160 49.5 302.5t137.5 250t204 186t252.5 118.5t280.5 40q241 0 433 -90t303.5 -259.5t111.5 -390.5q0 -119 -25 -215.5t-67.5 -161t-101 -107.5t-122.5 -62t-135 -19q-261 0 -311 164q-80 -166 -266 -166
q-153 0 -242.5 101.5t-89.5 279.5q0 214 115.5 346.5t285.5 132.5q162 0 217 -117l15 101h325l-69 -561q-16 -132 86 -132q92 0 155.5 105t63.5 317q0 265 -185.5 427.5t-490.5 162.5q-157 0 -294.5 -53.5t-238.5 -150.5t-159.5 -240t-58.5 -314q0 -148 45.5 -272.5
t132.5 -217t224.5 -144.5t311.5 -52q170 0 311 52t220 131h192q-108 -150 -301.5 -239t-427.5 -89zM909 510q63 0 104.5 61.5t41.5 159.5q0 59 -29.5 93t-87.5 34q-61 0 -99 -58t-38 -151q0 -61 27 -100t81 -39z" />
    <glyph glyph-name="bar.uc" horiz-adv-x="552" 
d="M137 1589h279v-1761h-279v1761z" />
    <glyph glyph-name="backslash.uc" horiz-adv-x="901" 
d="M-14 1589h315l617 -1761h-318z" />
    <glyph glyph-name="slash.uc" horiz-adv-x="901" 
d="M598 1589h317l-616 -1761h-317z" />
    <glyph glyph-name="braceright.uc" horiz-adv-x="870" 
d="M76 96q108 4 144 44t24 134l-17 166q-11 106 43 176.5t170 94.5q-115 26 -169.5 95.5t-43.5 172.5l17 166q12 93 -22.5 127.5t-145.5 42.5v291q331 0 469 -110t98 -363l-20 -129q-13 -73 32 -114.5t156 -41.5v-281q-111 0 -156 -42t-32 -115l20 -131q38 -246 -101 -361
t-466 -115v293z" />
    <glyph glyph-name="braceleft.uc" horiz-adv-x="870" 
d="M795 -197q-328 0 -468.5 115.5t-99.5 360.5l21 131q11 73 -35 115t-154 42v281q108 0 154 42t35 114l-21 129q-40 253 98.5 363t469.5 110v-291q-111 -8 -146.5 -42.5t-23.5 -127.5l18 -166q11 -103 -43.5 -172.5t-169.5 -95.5q114 -25 169 -95.5t44 -175.5l-18 -166
q-12 -94 24.5 -134t145.5 -44v-293z" />
    <glyph glyph-name="bracketright.uc" horiz-adv-x="858" 
d="M78 98h246v1217h-246v291h653v-1801h-653v293z" />
    <glyph glyph-name="bracketleft.uc" horiz-adv-x="858" 
d="M125 1606h657v-291h-250v-1217h250v-293h-657v1801z" />
    <glyph glyph-name="space_uni0326" horiz-adv-x="819" 
d="M184 -422l80 359l352 -25l-206 -389z" />
    <glyph glyph-name="parenright.uc" horiz-adv-x="741" 
d="M20 -201q265 445 265 906q0 458 -265 903h308q67 -81 118.5 -160t106 -192t85 -254t30.5 -297q0 -154 -30.5 -295.5t-85 -255.5t-106.5 -194.5t-118 -160.5h-308z" />
    <glyph glyph-name="parenleft.uc" horiz-adv-x="741" 
d="M414 -201q-66 80 -118 160.5t-106.5 194.5t-85 255.5t-30.5 295.5q0 125 22 244t54.5 209.5t81 179.5t90 148t92.5 122h307q-264 -429 -264 -903q0 -477 264 -906h-307z" />
    <glyph glyph-name="guillemotright.uc" horiz-adv-x="976" 
d="M297 616l-244 402h248l254 -402l-254 -401h-248zM666 616l-244 402h248l254 -402l-254 -401h-248z" />
    <glyph glyph-name="guillemotleft.uc" horiz-adv-x="976" 
d="M51 616l254 402h248l-244 -402l244 -401h-248zM422 616l254 402h248l-244 -402l244 -401h-248z" />
    <glyph glyph-name="guilsinglright.uc" horiz-adv-x="622" 
d="M297 616l-244 402h264l254 -402l-254 -401h-264z" />
    <glyph glyph-name="uni0442.locl" horiz-adv-x="1034" 
d="M1010 791h-293v-791h-400v791h-292v280h985v-280z" />
    <glyph glyph-name="guilsinglleft.uc" horiz-adv-x="622" 
d="M51 616l254 402h264l-243 -402l243 -401h-264z" />
    <glyph glyph-name="emdash.uc" horiz-adv-x="1961" 
d="M94 788h1774v-227h-1774v227z" />
    <glyph glyph-name="idotaccent" horiz-adv-x="620" 
d="M309 1151q-94 0 -156.5 57.5t-62.5 145.5q0 90 62 147.5t157 57.5q93 0 155 -57.5t62 -147.5q0 -87 -62 -145t-155 -58zM109 1071h401v-1071h-401v1071z" />
    <glyph glyph-name="endash.uc" horiz-adv-x="1112" 
d="M94 788h924v-227h-924v227z" />
    <glyph glyph-name="plus.sub" horiz-adv-x="739" 
d="M266 45h-196v203h196v203h207v-203h197v-203h-197v-201h-207v201z" />
    <glyph glyph-name="exclamdown.uc" horiz-adv-x="702" 
d="M352 1487q97 0 165.5 -61.5t68.5 -151.5q0 -91 -68.5 -154t-165.5 -63t-166 63.5t-69 153.5t68.5 151.5t166.5 61.5zM578 0h-453l59 971h336z" />
    <glyph glyph-name="questiondown.uc" horiz-adv-x="1165" 
d="M821 942q0 -45 -13.5 -88.5t-28.5 -72.5t-49 -68.5t-50 -55.5t-57 -55q-35 -32 -52 -49t-39 -43.5t-31 -50t-9 -49.5q0 -107 108 -107q57 0 93.5 43t47.5 121h394q-7 -236 -161.5 -364t-406.5 -128q-246 0 -380 102.5t-134 293.5q0 91 36.5 162.5t103.5 138.5
q25 25 97 88.5t105.5 105t42.5 84.5v19h383v-27zM629 1485q100 0 168.5 -61.5t68.5 -151.5q0 -91 -68.5 -154t-168.5 -63q-97 0 -165.5 63t-68.5 154q0 90 68.5 151.5t165.5 61.5z" />
    <glyph glyph-name="caron.alt" horiz-adv-x="819" 
d="M313 1536h287l-102 -358h-201z" />
    </font>
</defs>
</svg>
