<svg xmlns="http://www.w3.org/2000/svg" width="414" height="928" viewBox="0 0 414 928">
    <path fill="#000" fill-rule="nonzero" d="M173.515 952.304c-1.037 0-2.074 0-3.11-.208-1.037 0-2.074-.207-3.11-.207h-9.953l3.11-1.866c25.296-15.965 46.652-26.747 63.654-32.138 7.671-2.695 15.55-4.769 23.014-6.842 14.514-3.94 27.991-7.672 40.639-14.928 44.993-25.71 88.741-74.02 130.831-120.672 24.881-27.37 50.591-55.775 75.68-78.582 3.524-3.11 6.842-6.22 10.366-9.123.208-.207.415-.415.83-.622l1.244-1.037c1.866-1.658 3.732-3.317 5.805-4.976 64.483-54.738 122.953-85.631 192.826-120.672l1.452-.829v26.54l-.622.207c-12.233 5.805-36.077 17.21-47.481 22.807-52.457 25.71-94.34 49.97-142.028 91.022l-.83.622c-12.232 10.782-24.465 21.978-36.906 34.419-14.928 14.928-29.857 32.345-45.822 50.798-19.49 22.6-39.602 46.03-59.714 64.483-21.356 19.697-42.712 35.455-63.238 50.59-18.661 13.893-38.151 28.199-57.848 45.615-2.074 1.66-4.147 3.318-6.013 4.77l-.207.207h-23.845l2.696-1.866c6.427-4.562 12.233-8.916 17.624-13.477l.207-.208c1.451-1.451 3.94-4.147 3.94-6.013 0-.622-.415-1.244-1.037-1.658-1.244-1.037-3.11-1.037-4.562-1.037-8.293 0-17.623 2.073-28.612 6.22-5.806 2.073-11.819 4.976-18.246 8.501l-1.244.622c-1.866 1.037-3.525 1.866-5.184 2.903-.622.414-1.451 1.036-2.073 1.451-2.903 2.074-6.428 4.354-9.538 4.769-1.244.415-2.073.415-2.695.415zm533.07-.208h-19.282l1.866-1.866c4.976-4.769 10.367-9.745 15.55-14.514l1.659-1.658v18.038h.207zm-45.407 0h-23.222l1.659-1.658c22.6-24.052 40.846-42.298 57.433-57.434 2.695-2.488 5.183-4.768 7.879-7.05l1.658-1.45v21.77l-.414.208c-12.855 12.025-27.37 26.954-44.786 45.407l-.207.207zm-65.105 0h-23.222l2.074-1.866c55.36-47.066 102.633-88.12 103.047-88.534 8.916-7.464 18.039-14.721 26.747-21.77l1.659-1.452v19.075l-5.39 4.147c-4.355 3.318-8.502 6.842-12.856 10.367l-.83.622c-31.93 25.918-63.86 54.323-91.436 78.997l.207.414zm-58.47 0H509.82l5.598-5.805c40.639-42.505 82.936-86.46 133.112-123.575 17.417-12.855 36.492-26.54 56.604-40.224l1.659-1.036v22.392l-.415.208c-15.136 10.989-29.028 21.356-41.26 30.893l-2.281 1.866c-1.244 1.037-2.488 2.074-3.94 3.11-10.989 8.501-20.112 16.38-27.576 22.808-33.59 30.064-61.995 58.055-89.57 85.424l-4.148 3.94zm-61.787 0H449.9l9.952-10.16c18.868-19.282 38.15-39.187 57.848-57.64 29.235-27.369 60.543-53.908 98.279-83.35l9.745-7.672c24.673-18.868 49.347-37.114 73.398-54.945l7.672-5.598v23.222l-.415.207c-23.637 15.965-47.066 32.967-71.532 52.042-31.516 24.467-64.068 51.835-99.316 83.351-20.941 18.66-41.675 40.846-59.3 60.129l-.414.414zm-73.606 0h-55.36l4.977-2.073c28.198-11.404 58.055-24.259 84.802-46.859 59.921-50.59 107.61-89.778 154.468-127.1l9.538-7.463c20.319-15.966 39.394-30.894 58.47-45.615 14.513-11.197 29.442-22.186 46.029-34.211l1.659-1.244v21.148l-.415.208c-3.732 2.488-7.257 5.183-10.989 7.671-25.503 18.039-54.323 40.017-86.046 65.727-44.578 35.87-94.547 78.582-148.455 126.892-19.698 17.624-38.773 31.516-58.263 42.505l-.415.414zm-100.145 0H271.38l3.525-1.866c16.172-8.708 32.137-18.453 48.932-28.613 8.5-5.183 17.417-10.574 26.54-15.965 8.086-4.769 36.699-26.125 63.653-46.444l14.514-10.989c37.735-28.405 84.594-63.86 135.393-101.182l8.915-6.635c49.347-35.87 92.681-66.141 132.283-92.473l1.659-1.037v24.259l-.415.207c-42.92 29.442-85.01 58.47-126.685 88.949-5.598 4.147-11.403 8.294-17.002 12.44-74.85 55.775-142.235 105.536-209.827 148.248-.208.208-.415.208-.622.415l-7.672 4.976c-14.514 9.123-28.613 17.624-42.297 25.503l-.208.207zm-171.055 0h-24.051l5.39-3.732c2.281-1.451 4.562-3.11 6.843-4.561 26.746-17.831 53.7-34.626 80.655-49.762 14.306-8.915 29.857-15.758 44.785-22.393 8.294-3.732 16.795-7.464 24.881-11.403 7.879-3.94 15.758-8.294 23.222-12.648 13.892-7.879 28.198-16.172 42.92-20.734.829-.207 1.658 0 2.28.83.415.829.415 1.658 0 2.488-22.807 28.612-52.457 40.43-81.277 52.042-15.965 6.427-32.345 13.062-47.066 22.393-25.088 13.27-51.42 29.027-78.167 47.48h-.415zm-52.25 0H52.22l2.489-1.866c14.928-11.403 28.613-21.148 41.675-29.442 3.525-2.28 6.842-4.354 10.16-6.428 3.525-2.073 6.842-4.146 10.16-6.012 3.524-1.866 6.842-3.732 10.366-5.599a241.497 241.497 0 0 1 10.367-5.183c3.525-1.659 7.05-3.11 10.367-4.562 3.525-1.45 7.05-2.902 10.575-4.146.83-.415 1.659-.622 2.488-.83 1.037-.414 1.866-.622 2.903-1.036 1.658-.622 3.317-1.452 4.768-2.281 1.245-.622 2.281-1.451 3.525-2.28l1.244-.83a129.58 129.58 0 0 0 2.903-2.28c.415-.416.83-.83 1.244-1.038.207-.207.415-.414.415-.622v-.414c-.208-.208-.622 0-1.037 0-.622.207-1.244.207-1.659.207l-.829.207c-1.866.415-3.94.83-5.806 1.244-2.902.83-6.22 1.66-9.33 2.696-3.11 1.036-6.427 2.28-9.952 3.732a183.848 183.848 0 0 0-9.952 4.354c-3.11 1.451-6.428 3.11-10.16 4.976-3.525 1.659-6.842 3.525-10.16 5.391-2.28 1.244-4.769 2.488-7.05 3.732l-3.317 1.659c-3.525 1.866-6.842 3.732-10.367 5.39-2.695 1.452-5.39 2.696-8.086 4.148-2.695 1.45-5.598 2.695-8.294 4.146-7.879 3.732-15.55 7.05-22.807 10.367-16.172 7.257-31.308 14.1-46.237 22.186l-.207.207h-33.59l2.282-1.866c13.27-10.99 27.161-22.185 41.468-33.796 11.61-9.33 24.258-18.454 40.43-29.028 11.197-7.464 22.394-14.514 34.42-21.978 14.513-9.123 29.441-18.453 44.992-28.82 5.39-3.732 10.574-7.465 15.965-11.197 59.3-41.26 120.465-84.18 176.239-106.78 42.505-20.319 87.705-42.919 130.831-74.435 26.125-19.075 49.762-40.016 71.947-64.068 39.81-42.712 82.936-67.385 124.819-91.022l.415.83-.415-.83c13.477-7.671 28.613-16.172 42.92-25.295l1.658-1.037v16.172l-.415.208c-7.671 4.561-19.075 10.989-35.04 19.697-6.013 3.11-11.818 6.428-17.624 9.538-35.04 18.66-68.215 36.284-84.18 54.945v.207h.622c10.574 0 50.798-18.868 72.569-31.723 12.648-7.464 26.54-16.172 38.358-23.844 4.976-3.11 9.952-6.427 14.928-9.538L707 491.387v16.38l-16.38 9.952c-28.613 17.417-58.677 35.248-84.802 48.725-7.05 3.732-14.721 7.05-21.978 10.16-11.196 4.976-21.77 9.538-30.686 15.343-14.929 9.952-28.198 23.015-41.053 35.455-8.501 8.294-16.588 16.38-24.881 23.015-2.903 2.28-5.598 4.561-8.501 6.842l-1.037.83c-.622.414-1.037.829-1.659 1.243-57.433 44.164-120.05 72.984-175.41 98.072l-4.353 2.074c-45.2 22.185-93.096 52.042-142.235 88.948-17.417 13.27-36.492 24.881-54.738 36.078-7.05 4.354-14.306 8.708-21.356 13.062-2.695 1.659-10.782 6.842-16.38 10.782 4.147-.415 10.16-2.074 17.831-4.977 12.44-4.768 24.466-10.781 35.663-16.587 11.196-5.805 22.6-11.818 33.589-17.83l12.233-6.636c7.05-3.732 14.306-7.671 21.563-11.404 8.916-4.354 17.831-8.086 27.784-12.233l1.244-.622c7.879-3.11 15.343-6.22 22.807-9.745 7.257-3.524 14.514-7.05 21.978-10.574 17.624-8.5 32.345-15.758 45.822-23.015 17.21-8.915 32.553-17.416 47.066-25.917 16.795-9.745 31.93-19.283 46.237-29.235 12.233-8.294 23.844-17.002 34.419-25.503a4621.972 4621.972 0 0 0 59.299-48.517 8859.224 8859.224 0 0 0 53.908-44.993c54.116-45.615 105.536-74.228 144.309-93.925l.414-.207c2.696-1.452 5.599-2.696 8.294-4.147l9.123-4.562 1.451-.829v21.356l-.622.207c-74.85 39.81-136.844 82.522-207.754 142.858-2.28 1.866-4.354 3.732-6.635 5.598-44.993 38.772-85.01 70.288-134.564 97.242-16.794 9.123-32.345 16.795-47.48 24.259-38.98 19.282-75.887 37.321-119.22 75.679-13.27 10.989-25.918 17.416-37.944 23.637-3.732 1.866-7.464 3.732-11.404 5.805-8.5 3.94-17.209 8.501-25.71 13.477-9.33 5.806-26.747 17.002-36.284 23.844l-.208 1.244zm-131.868 0h-31.93l2.488-1.866c18.038-13.062 35.662-26.125 52.872-38.772 23.429-17.21 45.407-33.59 67.385-49.14 30.272-21.77 54.738-38.565 77.338-53.079 32.345-22.807 64.275-48.31 94.132-72.569-32.345 11.197-69.666 36.7-105.329 61.995-20.112 14.306-41.675 28.82-68.007 45.2l-1.451 1.037c-3.525 2.28-7.257 4.354-10.782 6.635l-3.11 1.866c-5.598 3.524-11.404 6.842-17.21 10.367-5.805 3.524-11.818 7.05-17.623 10.574l-17.831 10.782c-6.013 3.732-12.026 7.256-18.04 10.989-6.012 3.732-12.025 7.256-18.245 10.989L-86.49 918.3c-6.012 3.732-11.818 7.464-17.83 11.196l-17.417 11.197c-6.013 3.94-11.611 7.671-17.002 11.196l-.208.207h-29.65l2.696-1.866c5.806-3.94 11.819-8.086 17.832-12.233 6.012-3.94 12.233-8.086 18.66-12.233l18.66-11.818c6.22-3.94 12.441-7.88 18.454-11.611 6.22-3.732 12.233-7.672 18.453-11.404 6.22-3.732 12.233-7.464 18.453-11.196l18.454-11.197c6.013-3.732 12.233-7.464 18.246-11.196 6.012-3.732 12.233-7.464 18.246-11.404l3.524-2.28c4.77-3.11 9.745-6.22 14.721-9.33 6.428-4.147 12.44-8.087 18.246-11.82 6.22-4.146 12.44-8.293 18.246-12.232 6.22-4.147 12.233-8.501 18.039-12.648a679.767 679.767 0 0 0 18.038-13.062c58.47-44.993 106.988-71.118 162.14-87.705 47.688-14.306 112.793-33.796 160.481-74.02 4.562-3.732 9.123-7.88 14.1-12.44 17.416-15.759 33.796-32.138 49.76-47.896 31.724-32.345 64.898-65.312 108.44-94.962 10.367-7.464 20.94-14.721 32.552-22.6 26.747-17.831 53.7-34.626 80.655-49.761 1.866-1.244 3.94-2.489 6.635-3.94l1.451-.83v16.173l-.622.208c-23.636 12.44-54.53 31.515-82.936 51.005-44.163 30.894-90.607 68.837-137.88 112.586-10.99 10.989-18.661 18.246-25.089 23.844-7.05 6.427-11.61 10.574-15.758 15.965-.207.207 0 .415 0 .415s.208.207.415.207c15.758-3.525 31.308-17.417 46.237-30.894 3.94-3.524 7.671-6.842 11.404-9.952 54.53-45.822 98.9-80.033 135.392-104.914 25.918-17.624 48.518-30.686 67.179-38.98l1.451-.622v11.404l-.622.207c-15.343 6.635-32.967 17.002-54.116 31.93-26.332 19.076-55.152 42.92-85.838 68.008-40.846 33.589-82.936 68.215-120.258 92.474l-.622.414-.207-.207c-15.55 10.16-30.272 18.453-43.956 24.466-47.273 26.747-96.62 48.518-155.505 68.837-5.39 4.561-10.781 8.915-15.965 13.27-35.662 29.857-69.459 58.055-104.914 82.935-11.196 8.294-22.6 17.002-34.211 25.71-9.952 7.465-19.905 14.93-30.064 22.6l-9.953 7.465c-37.943 28.405-68.63 51.213-91.022 67.385-4.147 2.903-8.086 6.013-12.233 9.123v.622zm-162.762 0h-34.833l2.696-1.866c3.525-2.488 6.842-4.769 10.367-7.257l1.244-.829 1.866-1.244 3.732-2.488 1.659-1.037c49.347-32.76 102.218-63.86 147.418-89.778 5.184-2.903 10.16-6.013 15.343-8.916 6.635-3.939 12.856-7.671 18.661-11.196 6.22-3.94 12.44-7.671 18.453-11.404 5.806-3.732 11.611-7.464 18.246-11.818 6.013-3.94 11.819-7.879 17.417-12.026 5.805-4.146 11.61-8.293 17.209-12.44 5.805-4.354 11.611-8.708 17.21-13.27a565.469 565.469 0 0 0 17.208-14.099c7.465-6.635 12.44-12.44 17.21-18.038 3.524-3.94 6.634-7.672 10.574-11.404 58.47-57.019 112.378-79.619 164.42-101.597 13.27-5.598 27.162-11.403 40.639-17.624l3.525-1.658c18.246-8.501 45.822-21.356 60.543-15.758.83.415 1.451 1.037 1.659 2.073.207 1.037-.208 1.866-1.037 2.488-34.211 24.881-62.41 34.626-92.474 44.993-44.37 15.343-90.4 31.308-160.273 99.523-3.318 3.318-5.806 6.428-8.294 9.538-4.561 5.805-9.745 12.648-22.393 21.978C49.111 783.944 1.008 815.459.593 815.874l-6.013 3.732c-25.088 15.965-52.042 32.345-77.96 48.31-44.163 26.955-89.778 54.945-132.075 83.766l-.415.414zm-67.385 0H-293v-15.965l.415-.207a1289.717 1289.717 0 0 1 25.295-22.186c65.312-54.945 140.577-100.767 206.925-141.198l11.611-7.05c23.43-14.306 48.31-29.856 73.191-46.444C46.83 705.57 63.002 688.36 78.76 671.773c7.257-7.672 14.929-15.758 22.808-23.222l16.172-14.929c60.75-56.603 118.184-110.097 177.276-154.883 5.39-4.146 11.196-8.5 17.416-13.062 45.615-32.967 91.437-60.75 135.808-87.912 20.734-12.648 42.297-25.71 63.239-38.98 30.271-19.282 54.737-36.077 77.337-52.664 42.09-32.345 78.997-54.738 116.318-71.118l1.451-.622v24.052l-.622.207c-32.137 11.404-68.63 36.7-103.462 61.373-21.149 15.135-44.164 30.479-72.777 48.102l-5.805 3.525a2957.3 2957.3 0 0 1-48.31 29.235c-53.08 31.93-108.024 64.897-159.652 102.84l.207.208-1.036.622c-18.868 13.684-36.077 27.369-52.665 41.468-17.209 14.721-32.137 29.235-46.444 43.334-16.38 15.965-33.174 32.552-53.286 49.14-16.38 13.27-34.626 32.967-52.25 51.835-26.332 28.198-51.005 54.737-71.117 63.86-4.147 2.28-8.501 4.562-12.855 6.842a360.035 360.035 0 0 0-18.868 10.782c-6.013 3.525-12.44 7.257-18.868 11.404-6.013 3.732-12.44 7.671-18.868 11.818l-1.866 1.244c-5.598 3.525-11.197 7.05-16.587 10.782-6.013 3.94-12.026 7.879-18.039 12.026-6.013 4.146-12.026 8.086-18.038 12.233l-18.246 12.233c-6.013 4.146-12.233 8.293-18.246 12.44-6.22 4.147-12.233 8.294-18.454 12.233-6.22 4.147-12.44 8.086-18.66 12.233-34.833 22.185-66.556 44.993-94.754 67.593l-1.452 1.037c-.622.414-1.036.829-1.659 1.244-8.5 6.842-17.623 14.099-26.954 21.356l-.207.414zm-9.33-44.37l-.208-2.074v-19.49l.415-.207 6.22-5.598 4.562-3.94 16.794-14.306c5.598-4.562 11.197-9.33 16.795-13.892 5.598-4.561 11.196-8.916 17.002-13.477 5.598-4.354 11.196-8.708 17.001-12.855 5.599-4.147 11.197-8.294 17.002-12.44 5.599-3.94 11.197-8.087 17.002-12.026 5.598-3.94 11.197-7.88 16.795-11.611l16.794-11.197c5.598-3.732 11.197-7.256 16.795-10.781 5.598-3.525 10.989-7.05 16.587-10.575 5.39-3.317 10.989-6.842 16.38-10.16l17.416-10.574 19.283-11.196c6.22-3.732 12.648-7.257 18.868-10.782 6.22-3.524 12.44-7.05 18.66-10.367 2.489-1.45 4.977-2.695 7.465-3.939 3.524-1.866 7.257-3.94 10.781-5.806 6.22-3.524 13.063-6.842 20.112-10.16 14.514-7.049 29.443-14.306 43.956-25.295 3.525-2.695 7.05-6.22 10.575-9.952 7.671-7.672 15.55-15.55 24.258-17.21.83-.207 1.66.208 2.281 1.038.415.829.622 1.658 0 2.488-21.563 35.247-62.41 55.36-89.363 68.63l-2.281 1.036c-9.33 5.598-18.66 11.196-28.198 16.794a10070.713 10070.713 0 0 0-49.97 29.65c-60.335 36.7-138.71 86.875-208.376 150.529l-9.33 8.708-2.073 1.037zm-.208-48.518v-19.075l.415-.415c70.08-56.811 126.685-98.072 177.69-130.002 30.065-18.66 58.47-34.211 84.388-46.03 16.587-6.634 40.638-21.148 71.532-43.748 38.15-27.576 71.532-56.19 103.877-83.973 37.943-32.552 73.813-63.238 115.903-91.851l1.244-.83c.622-.414 1.451-.829 2.073-1.451 1.245-.83 2.696-1.866 3.94-2.695l1.244-.83c49.347-32.76 102.218-63.86 147.419-89.778l4.354-2.488c2.695-1.451 5.39-3.11 7.879-4.561 2.695-1.452 5.183-3.11 7.879-4.562 2.695-1.659 5.183-3.11 7.878-4.769 2.696-1.658 5.184-3.11 7.88-4.769 2.487-1.658 5.183-3.11 7.67-4.768a154.477 154.477 0 0 1 7.673-4.77l1.036-.621c1.659-1.037 3.318-2.281 4.976-3.318l2.074-1.244c2.695-1.658 5.183-3.524 7.879-5.183l3.94-2.488a9.206 9.206 0 0 0 2.28-1.659c.415-.415.83-.622 1.451-1.037 2.488-1.658 4.77-3.317 7.257-4.976 2.488-1.659 4.769-3.317 7.257-4.976 2.488-1.659 4.769-3.525 7.257-5.184 2.488-1.658 4.769-3.524 7.257-5.183 2.488-1.866 4.769-3.525 7.257-5.39 2.488-1.867 4.769-3.733 7.257-5.599 2.488-1.866 4.768-3.732 7.257-5.598 2.488-1.866 4.768-3.94 7.256-5.806 2.488-1.866 4.77-3.94 7.257-6.013 7.465-6.634 12.44-12.44 17.21-18.038 3.524-3.94 6.634-7.672 10.574-11.404 45.407-44.163 86.46-66.556 120.672-82.521l1.451-.622v18.038l-.622.208c-34.833 17.002-68.007 41.675-104.5 77.338-3.317 3.317-5.805 6.427-8.293 9.537-4.561 5.806-9.745 12.648-22.393 21.978-26.746 19.49-60.128 41.468-77.545 52.665-1.244.829-2.695 1.658-4.146 2.695l-2.903 1.866c-25.088 15.965-50.798 31.723-75.887 46.859-41.882 25.503-85.216 52.042-127.099 80.655l-1.244.83c-2.073 1.45-4.147 2.695-6.22 4.146l-1.037.83c-40.431 27.99-88.949 67.592-135.807 105.95C72.54 619.108 9.509 670.736-17.653 677.371c-25.71 8.294-52.871 20.941-83.143 39.187-53.286 32.553-113 80.033-170.433 125.648-6.635 5.184-13.063 10.367-19.698 15.55l-1.866 1.452zm691.686-10.16c-.622 0-1.037-.207-1.244-.829-.415-.622-.207-1.451.415-1.866 22.6-18.66 46.858-44.578 70.288-69.666 24.88-26.54 48.31-51.628 70.08-69.252l.623-.622c10.781-8.5 20.112-14.513 28.405-17.83 2.903-1.245 9.33-3.94 17.002-7.258 10.782-4.769 46.859-20.941 58.055-28.82 11.197-7.879 21.356-14.929 30.687-21.77 11.196-8.087 21.978-15.551 31.723-22.393l1.658-1.037v23.222l-.414.207c-41.883 28.82-100.768 65.727-142.235 78.79h-.208l-2.695.829c-.622.207-1.037.207-1.244.414-2.281.83-6.22 3.318-11.404 7.465-.622.414-1.037.829-1.659 1.451l-.207.207-4.354 3.733-.415.414c-16.38 14.1-38.98 36.285-55.567 52.665-9.123 9.122-16.38 16.172-20.112 19.49-5.598 5.183-11.196 10.366-16.587 15.55-16.173 15.758-31.516 30.686-50.176 36.7-.208 0-.415.206-.415.206zM-292.793 805.3v-22.6l.415-.208c5.184-3.524 10.367-7.257 15.758-10.781 5.598-3.94 11.404-7.672 17.002-11.404 5.805-3.732 11.403-7.672 17.209-11.404 5.805-3.732 11.61-7.464 17.21-11.196 5.805-3.732 11.61-7.464 17.416-10.99 5.805-3.731 11.61-7.256 17.209-10.78 5.805-3.526 11.404-7.05 17.21-10.575 5.597-3.525 11.403-6.842 17-10.16 2.696-1.658 5.6-3.317 8.502-4.976 2.28-1.451 4.769-2.695 7.05-4.147l.207-.207c3.11-1.866 6.22-3.525 9.33-5.39 3.318-1.867 6.428-3.733 9.745-5.599 6.013-3.317 12.026-6.635 17.831-9.952 5.806-3.11 11.611-6.22 17.21-9.33 5.598-2.903 11.196-5.806 16.587-8.502 3.11-1.658 6.427-3.11 9.537-4.768 2.074-1.037 3.94-1.866 6.013-2.903 44.37-21.978 97.035-79.826 152.81-141.406 33.174-36.699 67.592-74.435 100.145-104.084 4.147-3.733 8.5-7.672 14.099-12.648 63.238-55.567 115.073-93.096 198.424-143.065l1.451-.83c25.089-15.135 51.213-29.856 82.107-46.65 6.22-3.525 13.062-6.843 20.112-10.16 14.514-7.05 29.442-14.307 43.956-25.296 3.525-2.695 7.05-6.22 10.574-9.952 7.465-7.464 15.343-15.343 23.844-17.002.83-.207 1.866.208 2.489 1.037.622.83.622 1.866 0 2.695-21.771 35.04-62.41 55.153-89.157 68.215l-2.28 1.037c-9.123 5.39-18.66 10.989-28.199 16.794a8826.03 8826.03 0 0 0-46.858 27.784c-57.226 34.626-141.406 88.327-211.694 152.602l-9.33 8.708c-32.76 30.687-71.533 74.435-109.269 116.94-58.055 65.312-113 127.1-137.466 132.283-25.71 11.403-54.53 25.71-82.936 41.053-20.734 11.196-61.787 34.211-103.048 61.165-19.697 12.855-43.749 29.443-66.141 45.615l-2.074 1.037zm0-47.896v-23.222l.415-.207c37.943-27.991 71.947-53.287 105.329-80.655 1.658-1.452 3.317-2.696 5.183-4.147 5.184-3.94 10.574-7.88 16.795-12.026 4.768-3.317 9.952-6.635 16.794-10.782 3.11-1.866 6.22-3.939 9.33-5.805 2.489-1.451 4.977-3.11 7.465-4.562 4.561-2.902 10.574-6.634 16.38-10.574 2.695-1.866 5.39-3.525 7.878-5.39 1.245-.83 2.696-1.867 3.94-2.903.415-.208.83-.622 1.244-1.037.83-.622 1.659-1.452 2.695-1.866 34.626-19.49 276.8-229.525 279.287-231.599 82.729-68.215 147.833-116.525 204.437-151.98l2.696-1.659c29.442-18.453 54.53-32.137 81.692-44.37 16.38-6.428 40.43-21.149 71.532-43.749 38.15-27.576 71.532-56.19 103.877-83.973 19.905-17.002 40.431-34.625 61.165-51.213L707-15.559V9.737l-.415.207c-22.6 17.831-45.822 36.907-68.422 55.36-66.763 54.53-129.795 106.158-156.956 112.793-24.88 7.879-59.3 24.673-94.132 46.03-48.518 30.478-98.072 70.08-150.53 111.755-10.988 8.709-22.184 17.624-33.38 26.54-4.355 3.317-8.502 6.842-12.856 10.367-36.492 29.65-73.19 62.616-108.646 94.34-55.152 49.554-112.17 100.974-168.567 139.54-11.611 7.878-23.222 14.513-34.419 20.94-13.062 7.465-26.746 15.136-40.43 25.089-6.014 4.561-17.21 13.477-25.711 21.148 8.294-2.902 17.624-6.635 27.369-10.989 29.235-12.855 58.677-29.65 82.936-46.859l3.11-2.073c32.345-21.77 76.716-51.628 111.341-86.253 3.525-3.525 7.257-8.087 11.197-12.855 10.367-12.648 20.941-25.918 33.589-26.54.83 0 1.658.415 2.28 1.037.415.83.623 1.659.208 2.488-25.296 52.042-98.28 102.218-151.15 135.185-25.711 16.38-51.836 30.687-76.095 43.542l-13.684 7.257c-30.894 16.172-65.934 34.625-95.376 52.664-12.648 7.672-25.71 16.173-38.98 25.088l-2.074 1.866zm454.282-38.98c-.622 0-1.451-.414-1.659-1.036-.622-.83-.414-2.074.415-2.696 36.906-32.345 76.094-48.517 117.769-65.52 40.016-16.379 81.277-33.38 121.708-66.348l.83-.622c1.451-1.037 2.695-2.28 4.147-3.317 3.524-2.903 7.05-6.013 10.574-9.123 3.525-3.11 7.05-6.013 10.574-9.123 3.525-3.11 6.842-6.013 10.367-9.123 3.525-3.11 6.842-6.013 10.367-9.123 3.318-3.11 6.842-6.013 10.16-9.123l20.32-17.831 9.951-8.709 9.953-8.708c3.317-2.903 6.635-5.805 9.952-8.5 3.318-2.904 6.635-5.599 9.952-8.294 3.318-2.696 6.635-5.599 9.745-8.294 3.318-2.695 6.428-5.39 9.745-8.086 3.318-2.696 6.428-5.184 9.745-7.88 3.318-2.487 6.428-4.975 9.745-7.67 3.318-2.489 6.428-4.977 9.745-7.258 3.318-2.28 6.428-4.768 9.745-7.05 3.318-2.28 6.428-4.56 9.745-6.841a282.737 282.737 0 0 1 10.16-6.635c2.488-1.659 4.976-3.11 7.464-4.562 2.488-1.451 4.976-2.903 7.464-4.147 2.696-1.45 5.391-2.902 8.087-4.354 2.902-1.451 5.598-2.902 8.5-4.354 2.903-1.451 5.599-2.903 8.501-4.354 2.696-1.451 5.599-2.695 8.294-4.147 2.695-1.244 5.184-2.488 7.879-3.732 2.28-1.037 4.769-2.28 7.05-3.317l11.818-5.599c1.244-.622 2.28-1.036 3.317-1.658.83-.622 1.659-1.244 2.281-2.074.622-.622.622-.829.622-.829-.207-.207-.83-.207-2.073.207-.208 0-.415 0-.622.208-2.281.414-4.562.83-6.843 1.451-4.976 1.244-10.367 2.903-15.55 4.976-4.147 1.659-8.501 3.525-13.27 5.598-4.147 1.866-8.5 3.94-13.477 6.635-4.976 2.488-9.538 4.976-13.684 7.05l-15.136 7.879c-2.696 1.451-5.184 2.695-7.88 4.147l-1.243.622c-.622.414-1.037.622-1.451.829-.415.207-1.037.415-1.867.83-.414.207-.829.414-1.036.414l-1.037.415c-.622.207-1.037.622-1.659.829-7.879 3.732-15.55 7.05-22.807 10.367-27.369 12.233-51.006 22.807-75.264 40.846-15.136 11.404-29.235 24.466-42.92 37.114-18.868 17.624-36.699 34.004-55.774 44.578l-.415.207c-.207.208-.415.208-.622.415a46.775 46.775 0 0 1-4.561 2.28c-17.417 8.709-34.211 12.441-51.835 16.38-11.611 2.696-23.637 5.391-36.492 9.745-9.538 3.11-19.697 9.123-29.442 14.722-15.966 9.122-32.345 18.66-46.86 17.416-1.036 0-1.865-.622-2.28-1.659-.415-.829-.207-1.866.207-2.695 23.223-31.516 55.982-41.26 85.01-49.762 4.976-1.451 9.745-2.902 14.514-4.354 14.099-4.561 30.686-10.16 47.688-18.038l1.036-.415c2.074-.83 3.94-1.866 6.013-2.903 17.417-8.708 34.211-19.282 51.213-32.552 21.356-16.587 41.676-33.382 63.239-51.006 13.27-10.781 26.954-21.978 41.053-33.381 11.611-9.33 24.259-18.454 40.431-29.235 11.197-7.465 22.393-14.514 34.419-21.978 14.514-9.123 29.442-18.454 44.785-28.82 5.391-3.733 10.575-7.465 15.965-10.99 15.966-10.989 32.345-22.6 48.31-33.381l1.66-1.037v19.697l-.415.208c-17.624 11.61-35.663 24.466-53.701 37.735-15.344 11.819-35.87 24.26-55.567 36.492-12.234 7.465-23.845 14.721-33.797 21.356-.83.622-2.073 1.452-3.317 2.281 3.732-.207 8.086-1.244 14.928-3.94l5.806-2.073c18.868-7.257 43.956-20.941 68.214-34.21 22.186-12.027 43.127-23.43 56.19-28.2l1.451-.414v30.894l-.415.415c-5.805 4.561-11.403 9.33-17.002 14.306-13.27 10.989-25.917 17.416-37.943 23.637-3.732 1.866-7.464 3.732-11.403 5.805-11.611 5.391-31.93 17.417-42.298 23.637-41.882 27.161-79.826 63.031-119.842 100.974-17.624 16.588-35.87 33.797-55.36 51.213l-.415.208c-1.451 1.244-2.902 2.488-4.354 3.94-.622.621-1.451 1.243-2.073 1.865l-.83.83c-39.187 33.589-81.277 49.761-118.598 63.86-10.989 4.147-21.563 8.087-31.723 12.44-13.477 5.599-26.747 11.404-39.602 17.21-21.77 9.537-42.504 18.66-62.616 26.54.829-.623.414-.623.207-.623zm-454.282-8.086V689.19l.415-.207c28.613-20.734 56.604-39.81 90.608-62.202l4.561-3.11c27.99-18.246 52.872-34.211 77.13-49.554 52.043-38.15 95.17-83.143 136.637-126.477 40.639-42.505 82.936-86.461 133.113-123.575 63.653-47.066 142.027-98.486 209.62-137.674 31.93-18.453 60.543-33.796 84.802-45.407 44.37-21.978 97.035-79.826 152.81-141.406 14.099-15.55 28.405-31.516 42.712-46.651l.207-.415h23.222l-1.659 1.659c-20.941 22.392-42.92 47.273-64.275 71.117-58.055 65.312-113 127.1-137.466 132.283-25.296 11.196-53.494 25.088-81.485 40.017-36.284 19.697-74.435 42.297-104.707 61.994-26.124 17.002-70.08 47.274-107.609 76.509l-2.28 1.866c-1.245 1.036-2.489 2.073-3.94 3.11-10.99 8.5-20.112 16.38-27.576 22.807-33.59 30.065-61.995 58.055-89.571 85.424-47.066 46.444-91.437 90.4-153.224 135.186-17.21 14.306-38.773 27.99-61.58 42.504-3.11 2.074-6.22 3.94-9.33 6.013-7.465 4.976-26.125 17.002-37.322 24.881-12.233 8.708-25.502 17.831-38.98 27.369a11429.696 11429.696 0 0 0-33.796 23.844l-1.037 1.244zm0-37.943v-24.052l.415-.207c6.635-4.354 13.062-8.708 19.49-12.855 6.427-4.147 12.233-7.879 17.831-11.404 9.953-6.22 18.66-11.818 27.784-18.246l4.976-3.524c10.16-7.257 16.587-12.855 20.112-17.21-12.855 2.281-27.576 7.05-36.285 10.575-5.598 2.695-11.403 6.22-17.416 10.781-11.819 8.501-23.844 17.002-35.248 24.881l-1.659 1.037v-23.222l.415-.207c19.075-13.063 33.174-21.978 47.066-29.857 6.22-3.318 12.44-6.635 18.453-9.538 1.037-.415 2.074-1.037 3.11-1.451a351.902 351.902 0 0 1 42.298-16.588c2.695-.829 5.39-1.866 8.293-2.695l3.525-1.037c4.976-1.658 10.16-3.11 15.343-4.561 1.866-.622 3.94-.83 5.806-1.244 1.244-.208 2.28-.415 3.525-.83 1.658-.414 3.524-1.45 5.598-2.902.83-.622 1.659-1.452 2.488-2.074l.83-.83c1.45-1.243 2.902-2.487 4.56-3.731 1.245-1.037 2.489-1.866 3.526-2.903l8.708-7.464c5.39-4.769 10.989-9.745 16.794-15.136 9.33-8.708 19.49-18.453 30.894-29.857a2141.756 2141.756 0 0 0 30.064-30.686l2.696-2.696c8.915-9.123 18.246-18.66 27.368-27.783 11.404-11.611 21.15-20.941 30.272-29.65 29.442-27.576 60.958-54.323 99.316-84.18 1.037-.83 2.28-1.866 3.525-2.695l2.488-1.866c.622-.622 1.451-1.037 2.073-1.659 24.88-19.075 49.762-37.528 74.02-55.36 38.566-28.405 75.057-55.36 111.342-85.216 2.695-2.281 5.598-4.562 8.916-7.05l.414-.207c1.037-.622 3.318-2.488 3.318-2.488 12.647-9.33 25.088-17.002 37.114-24.26 12.855-7.878 25.088-15.342 37.528-24.673 19.905-11.196 106.78-83.972 176.239-143.064l.207-.207h23.015l-2.073 1.866c-5.391 4.976-10.99 9.745-16.38 14.72-55.153 49.555-112.379 100.975-168.775 139.54-11.611 7.88-23.222 14.514-34.418 20.942-12.233 7.05-25.088 14.306-37.944 23.222-8.086 6.22-20.526 16.172-28.405 23.43 8.5-3.11 17.624-6.843 27.576-11.197l2.28-1.037c28.2-12.44 56.19-28.405 80.863-45.822l3.11-2.073c32.345-21.77 76.716-51.628 111.342-86.254 3.525-3.524 7.257-8.086 11.196-12.855 10.16-12.44 21.564-26.54 34.419-26.54h.207c.622 0 1.244.416 1.659.83.414.622.414 1.244.207 1.866-24.88 52.457-98.486 102.84-151.565 136.015-24.674 15.758-49.97 29.65-71.325 41.053l-.415.208a101.01 101.01 0 0 1-4.354 2.28c-1.451.83-2.695 1.452-4.769 2.696l-2.488 1.037-2.073 1.036c-31.516 16.588-70.496 37.114-99.938 55.153-36.285 22.185-72.362 47.273-110.512 77.13-31.516 24.466-64.068 51.835-99.316 83.35-23.43 21.15-46.651 46.445-69.044 70.911-32.138 35.04-65.312 71.118-101.39 97.242-20.319 14.929-42.09 30.687-68.421 49.14l-3.733 2.488-3.732 2.695c-25.71 17.832-57.018 39.395-81.484 56.19l-1.452.829zm0-85.217v-26.125l19.905-9.745c25.71-12.855 54.945-27.368 86.046-43.956l1.037-.622c29.65-16.587 52.042-24.673 66.141-24.466 3.318 0 6.013 2.074 7.05 5.391 1.036 3.11-.208 6.428-2.903 8.294-12.855 8.708-26.54 15.136-37.529 20.112-6.842 3.11-12.647 5.805-17.209 8.5-30.271 17.002-62.202 33.382-84.18 44.164l-7.879 3.94c-8.5 4.146-17.416 8.5-28.82 13.891l-1.659.622zm0-47.273v-21.356l.622-.208c14.721-7.256 29.028-14.099 43.127-20.734 12.44-5.805 24.051-11.403 35.662-17.001 4.147-2.489 8.916-4.77 13.892-7.257 13.063-6.22 26.747-11.819 41.26-17.417 32.76-12.855 66.35-26.332 96.207-51.42 59.92-50.591 107.609-89.778 154.468-127.1l9.537-7.671a21508.072 21508.072 0 0 1 58.263-45.615l4.769-3.732c45.822-35.248 85.631-65.727 129.172-94.34 15.136-9.952 31.516-19.49 47.481-28.82 13.063-7.671 25.503-14.928 36.907-21.978 52.042-38.15 94.961-82.936 132.905-122.538l.207-.414h27.99l-1.865 1.866C494.684-3.118 450.106 41.045 388.319 85.623c-17.21 14.307-38.773 27.991-61.58 42.505l-5.184 3.317c-7.05 4.562-30.479 19.905-41.468 27.576a3672.675 3672.675 0 0 1-38.98 27.37c-14.72 10.366-29.857 20.94-44.785 31.515-25.503 18.039-54.323 40.017-86.046 65.727-44.578 35.87-94.547 78.582-148.455 126.892-49.97 44.785-86.254 57.433-128.136 71.947-10.782 3.732-22.186 7.671-34.004 12.233-11.611 5.183-22.807 10.367-33.382 15.343-18.66 8.708-56.396 28.198-57.64 28.82l-1.452 1.037zm586.565-2.903c-1.037 0-1.866-.622-2.488-1.451-.415-1.037-.415-2.074.207-2.903 8.916-12.026 21.77-19.49 32.967-25.088 4.769-2.488 9.952-4.77 14.721-6.842 10.782-4.977 21.978-9.953 31.308-16.588 4.77-3.317 9.538-6.842 14.307-10.16l19.905-14.306c6.427-4.769 13.062-9.537 19.49-14.099 6.427-4.769 12.855-9.33 19.282-14.099 6.22-4.561 12.648-9.33 18.868-13.892l18.66-13.684c6.22-4.562 12.234-8.916 18.454-13.477 6.013-4.354 12.026-8.916 18.038-13.27 6.013-4.354 11.819-8.708 17.832-12.855l1.036-.83 8.709-6.22 7.464-5.39c.207-.208.415-.415.83-.622l1.865-1.245c6.635-4.768 13.27-9.33 19.698-13.684 6.634-4.561 13.27-9.123 19.49-13.27 3.317-2.073 6.427-4.354 9.744-6.427 1.244-.83 2.281-1.452 3.525-2.281 2.074-1.244 3.94-2.488 6.013-3.94 32.138-22.6 62.824-47.066 91.437-70.495l1.659-1.451v17.416l-.415.208c-25.917 21.563-54.116 44.37-82.936 64.482-11.196 8.294-22.6 17.002-34.211 25.71-11.196 8.294-22.393 16.795-33.796 25.503l-6.22 4.562a8795.865 8795.865 0 0 1-91.023 67.385c-9.33 6.842-18.868 13.892-28.198 20.941-26.332 19.905-53.701 40.432-80.033 54.323-.208.208-.415.208-.83.415l-.207.207c-1.451.83-2.903 1.452-4.147 2.074l-.414.207c-1.037.415-1.866 1.037-2.903 1.452l-1.037.622c-17.416 8.293-32.552 12.647-46.651 13.062zm-586.565-27.99v-16.38l.415-.208c19.697-12.648 40.431-25.71 57.433-35.248 19.905-9.952 39.395-21.77 60.129-34.418 8.708-5.184 17.416-10.575 26.54-15.965 7.67-4.562 27.16-19.076 56.188-40.846 6.635-5.184 13.892-10.575 21.564-16.38 37.735-28.613 84.594-64.068 135.6-101.39l8.293-6.012c58.263-42.298 108.025-76.923 152.603-105.744 5.598-3.524 11.196-7.256 16.587-10.781 10.781-6.842 20.941-13.27 29.857-19.49 5.183-3.732 17.624-12.855 23.43-19.283.206-.207 0-.207 0-.414 0-.208-.208-.208-.416-.208-12.647 2.074-20.94 4.354-29.027 7.672-.415.207-2.488 1.036-2.488 1.036-7.672 3.11-12.648 6.428-20.942 12.44-98.279 70.911-153.016 95.377-177.275 103.463l-.415.208-4.354 1.244c-2.28.83-6.22 3.317-11.404 7.464-.622.622-1.244.83-1.658 1.451l-.208.208-4.354 3.732-.207.207C26.51 239.47 3.91 261.862-12.47 278.035c-9.123 9.122-16.38 16.172-20.112 19.49-5.598 5.183-11.197 10.366-16.587 15.55-16.588 16.172-32.138 31.308-51.213 37.114-.622.207-1.244 0-1.659-.622-.207-.622-.207-1.244.415-1.659 22.807-18.66 47.273-44.993 71.117-70.288 24.881-26.54 48.31-51.628 70.081-69.252 11.196-8.915 20.734-14.928 29.235-18.453 3.525-1.451 13.892-5.805 25.917-11.196 24.052-10.575 41.054-19.283 48.933-24.881 4.976-3.525 9.745-6.842 14.72-10.367 3.11-2.073 6.014-4.354 9.124-6.428 13.477-9.537 31.515-21.978 50.383-33.796 20.942-13.062 40.639-24.051 60.336-33.382 23.844-11.403 48.725-23.222 75.057-27.783 3.318-.622 5.598-2.696 8.294-4.769.622-.415 1.244-1.037 1.659-1.451 3.524-2.696 7.05-5.806 10.574-8.709 6.635-5.598 13.27-11.61 20.527-18.038 20.319-18.66 39.601-38.15 57.64-56.604l.207-.415h25.71l-1.658 1.659c-3.318 3.525-6.635 7.257-9.953 10.782-32.137 35.04-65.312 71.117-101.389 97.242-19.904 14.721-38.772 28.198-58.677 42.297l-18.038 12.855c-24.26 16.795-48.933 33.797-72.777 49.97-44.37 30.271-90.193 61.58-134.77 94.132-5.599 4.146-11.404 8.293-17.002 12.44-69.045 51.628-131.454 97.45-194.07 138.296-.208.207-.415.207-.415.414-4.976 3.318-10.16 6.428-15.136 9.745l-7.879 4.977.83-.83c-18.04 11.197-49.555 30.48-72.57 42.712-20.94 11.404-43.126 24.881-65.726 38.565l-1.452 1.66zm436.243-3.94c-.622 0-1.036-.208-1.451-.622-.622-.83-.622-1.866 0-2.696 27.576-30.893 56.604-59.092 88.534-86.046l.83-.83c65.104-54.944 130.83-94.96 194.277-133.526 5.39-3.317 10.574-6.428 15.965-9.745l5.39-3.317c30.065-18.246 51.006-31.516 76.095-48.103 22.392-13.477 38.565-30.687 54.323-47.274 7.256-7.671 14.928-15.758 22.807-23.222l15.55-14.514c30.687-28.612 59.507-55.567 88.742-81.484l1.659-1.452v26.333l-.415.207c-15.55 15.136-29.235 27.99-45.2 41.053-16.38 13.27-34.626 32.967-52.25 51.835-26.332 28.198-51.005 54.738-71.117 63.86-23.015 11.82-47.896 26.54-77.96 46.238-17.417 11.403-35.248 23.43-54.323 36.284-21.77 14.721-44.164 29.857-65.52 43.749-34.418 22.185-66.14 44.993-94.34 67.593l-1.243 1.036c-.622.415-1.037.83-1.659 1.244-30.272 24.674-67.178 52.043-98.279 72.984.415.415 0 .415-.415.415zm-436.243-25.088V463.81l.415-.207c14.1-8.916 25.503-17.002 36.077-25.71 4.147-4.355 4.354-6.22 3.94-7.05-1.037-2.073-7.465-1.866-10.99-1.659h-2.902c-7.257 1.244-15.965 3.94-25.088 7.88l-1.452.621V426.49l.622-.207c6.428-2.903 12.233-5.184 17.624-6.843 7.672-2.695 15.55-4.769 23.015-6.842 14.514-3.94 27.99-7.671 40.639-14.928 44.992-25.71 88.741-74.02 130.831-120.672 24.88-27.369 50.59-55.775 75.679-78.582 3.525-3.11 6.842-6.22 10.367-9.123.207-.207.415-.415.83-.622l1.036-1.037c1.866-1.658 3.94-3.317 5.806-4.976 70.288-59.506 134.77-91.644 203.4-125.855.622-.415 64.483-32.138 94.962-48.31l1.036-.622c29.443-16.38 67.178-32.967 79.826-19.49l.83.83-.83.621c-15.55 12.648-32.967 20.734-47.066 27.162-6.842 3.11-12.648 5.805-17.21 8.5-26.953 15.136-54.115 29.443-85.423 44.786l-24.259 11.818c-7.879 3.733-15.965 7.672-23.844 11.404l-2.695 1.244a1305.14 1305.14 0 0 1-24.467 11.611c-57.847 28.198-100.974 52.664-149.699 94.754l-.83.622c-12.232 10.782-24.465 21.979-36.906 34.419-14.928 14.928-29.857 32.345-45.822 50.798-19.49 22.6-39.602 46.03-59.714 64.483l-.622-.83.622.83c-21.356 19.697-42.712 35.455-63.238 50.59-18.661 13.893-38.15 28.199-57.848 45.616-12.233 9.952-26.954 20.111-44.993 30.893l-1.659 1.452zm1.244-72.777l-1.036-.622-.208-.83V391.45l.622-.207c12.44-7.05 25.503-12.855 38.358-18.453 8.294-3.732 16.795-7.464 24.881-11.404 7.879-3.94 15.758-8.293 23.222-12.648 14.307-8.293 29.235-16.794 44.37-21.148.623-.208 1.245 0 1.66.622.414.622.414 1.244 0 1.866-23.015 29.442-53.08 41.468-82.107 53.286-16.587 6.635-33.796 13.685-48.932 23.637l-.83.207zm-1.244-33.796v-31.723l.622-.207c3.732-1.452 6.635-2.074 8.709-2.281 4.354-2.074 8.915-4.354 13.477-6.428 61.787-29.65 138.71-66.348 201.12-116.732a4621.984 4621.984 0 0 0 59.299-48.518 8859.148 8859.148 0 0 0 53.908-44.992 580.721 580.721 0 0 1 24.88-19.905c10.368-7.879 21.357-15.758 32.346-23.222 10.16-6.842 20.941-13.684 31.93-20.32 9.952-6.012 20.527-12.025 31.308-17.83 5.806-3.11 11.404-6.013 16.795-8.916 2.903-1.452 5.805-2.903 8.5-4.562 8.087-4.146 16.38-8.708 24.882-12.647C226.593 9.529 238.619 3.93 250.23-1.46l.622-.207 17.417-8.086a56.357 56.357 0 0 1 5.183-2.28c3.94-1.867 8.294-3.733 12.026-5.806 4.354-2.488 8.916-4.77 14.1-7.257 13.062-6.22 26.746-11.819 41.26-17.417 3.732-1.451 7.671-2.903 11.404-4.561h53.908l-3.525 1.866c-24.051 13.477-46.444 21.356-70.08 29.442-10.782 3.732-22.186 7.672-34.004 12.233-7.05 3.11-14.1 6.428-21.564 9.745-17.416 8.294-52.25 25.503-71.117 35.248C131.632 81.062 70.052 123.566-.236 183.488c-2.28 1.866-4.354 3.732-6.635 5.598-44.993 38.772-85.01 70.288-134.564 97.242-16.794 9.123-32.345 16.795-47.48 24.259-34.004 16.794-66.142 32.552-102.219 61.372l-1.659 1.452zm0-60.336v-19.697l.415-.208c38.773-26.332 84.387-55.774 128.136-73.398 42.505-20.32 87.705-42.92 130.831-74.435 26.125-19.075 49.762-40.017 71.947-64.068l.622-.622c3.11-3.317 6.22-6.428 9.33-9.745 3.11-3.11 6.22-6.013 9.538-9.123 3.11-2.903 6.428-5.598 9.538-8.5 3.11-2.696 6.427-5.392 9.745-7.88 3.11-2.488 6.427-4.976 9.745-7.464 3.11-2.28 6.427-4.769 9.745-7.05 3.11-2.28 6.427-4.561 9.745-6.634 3.317-2.074 6.635-4.355 9.952-6.428l9.952-6.22c3.318-2.074 6.635-3.94 9.953-5.806 3.317-1.866 6.635-3.732 9.745-5.805 3.317-1.866 6.427-3.732 9.745-5.598l11.61-6.635 11.82-6.842c3.939-2.281 7.878-4.562 11.61-6.843 3.94-2.28 7.672-4.561 11.404-7.05 3.94-2.487 7.671-4.768 11.196-7.256l5.598-3.732c.83-.622 1.866-1.244 2.696-1.866l2.073-1.452c.415-.414.622-.622 1.244-.622h23.43l-2.488 1.866c-21.771 16.795-47.067 31.101-68.837 43.127L172.27-.216c-4.147 2.281-8.501 4.562-12.648 6.635-37.736 20.112-73.398 38.98-89.571 58.056 8.086 1.45 51.006-18.454 73.606-31.93 3.94-2.282 16.587-10.368 32.345-20.32 30.479-19.283 72.361-45.822 87.497-54.116 3.525-1.866 7.257-3.732 11.196-5.805l.208-.208h30.479l-3.318 1.866c-9.952 5.806-19.697 11.197-29.235 16.38-9.952 5.598-37.943 21.978-67.385 39.395-39.81 23.637-84.802 50.176-99.108 57.64-7.05 3.732-14.722 7.05-21.979 10.16-11.196 4.976-21.77 9.538-30.686 15.343-14.928 9.952-28.198 23.015-41.053 35.455-8.501 8.294-16.587 16.38-24.88 23.015-2.904 2.28-5.599 4.561-8.502 6.842l-2.488 1.866c-57.433 44.164-120.05 72.984-175.41 98.072l-4.354 1.866c-28.405 13.892-58.262 31.101-88.534 51.213l-1.244 1.866zm0-55.36v-42.712l.622-.207c15.136-6.635 30.065-12.026 45.822-16.795 47.689-14.306 112.793-33.796 160.481-74.02 4.562-3.732 9.123-7.879 14.1-12.44 17.416-15.758 33.796-32.138 49.761-47.896C10.131 31.507 43.305-1.46 86.847-31.109c6.842-4.769 14.099-9.952 23.222-16.173l.207-.207h24.051l-3.94 2.695c-.414.415-1.036.622-1.45 1.037C83.322-12.24 35.427 26.531-13.3 71.94c-10.989 10.989-18.66 18.246-25.088 23.844-7.257 6.635-12.025 10.989-16.172 16.587 16.172-3.317 32.552-18.039 47.273-31.101 3.94-3.525 7.672-6.842 11.404-9.952 54.53-45.822 98.901-80.033 135.393-104.914l-.207-.208c7.05-4.768 14.099-9.537 20.94-13.684l.208-.207h19.905l-3.11 1.866c-8.294 5.183-20.734 13.477-33.175 22.6-25.917 18.868-52.871 41.26-81.277 64.897-38.772 31.93-78.582 65.105-115.695 89.156l-.622.415-.208-.207C-69.28 141.19-84 149.484-97.686 155.497c-47.273 26.747-96.62 48.517-155.505 68.837-5.183 4.354-10.367 8.708-15.343 12.855a10991.709 10991.709 0 0 1-22.6 18.868l-1.659 1.658zm943.397-34.21l3.939-3.733c14.928-13.684 31.516-25.503 50.384-36.284l1.451-.83v17.831l-.622.208c-15.136 6.635-32.967 14.306-50.384 20.734l-4.768 2.073zm-943.397-21.979v-17.624l.622-.207c23.222-13.062 46.652-22.807 71.533-32.967 40.016-16.38 81.277-33.382 121.708-66.349l1.037-.83c1.244-1.036 2.695-2.073 3.94-3.317C-74.05 63.438-54.768 46.23-35.9 29.642-4.59 1.857 25.06-24.268 54.916-47.283l.208-.207H81.87l-2.488 1.866C45.172-20.743 13.241 9.53-20.763 41.667c-17.624 16.587-35.87 33.797-55.36 51.213-1.45 1.451-3.11 2.695-4.561 4.147-.622.622-1.451 1.244-2.073 1.866l-.83.83c-39.187 33.588-81.277 49.76-118.598 63.86-10.99 4.147-21.563 8.086-31.723 12.44l-.415-1.036.415 1.036c-13.477 5.599-26.747 11.611-39.81 17.21-5.805 2.488-11.818 5.183-17.623 7.671l-1.452.622zm0-41.468V142.02l.622-.208c14.721-6.842 29.443-13.062 43.542-19.075 13.27-5.598 27.161-11.404 40.638-17.624l3.525-1.659c19.697-9.123 49.347-23.014 63.031-14.513l1.244.829-1.244.83c-35.247 25.917-64.068 36.076-94.547 46.65-17.623 6.014-35.87 12.441-55.567 22.186l-1.244.622zm10.367-43.956c-1.866 0-3.732-.207-5.598-.415l-1.659-.207.83-1.244c23.222-33.382 57.018-43.334 86.668-52.042 4.976-1.452 9.745-2.903 14.514-4.354 14.099-4.562 30.686-10.16 47.688-18.039l1.036-.415c2.074-.829 3.94-1.866 6.013-2.902C-115.517 27.775-98.723 17.2-81.72 3.93c21.149-16.587 42.298-34.003 62.824-50.798l.208-.207h34.833l-3.525 1.866a249.12 249.12 0 0 0-29.028 18.66C-31.544-15.144-45.644-2.082-59.328 10.566c-18.868 17.624-36.7 34.004-55.774 44.578l-.415.208c-.207.207-.415.207-.622.414a46.775 46.775 0 0 1-4.562 2.281c-17.416 8.708-34.21 12.44-51.835 16.38-11.61 2.695-23.636 5.39-36.491 9.745-9.538 3.11-19.698 9.123-29.443 14.72-14.72 8.295-30.064 17.21-43.956 17.21zm-10.367-35.662V53.9l.415-.207c33.174-29.65 61.165-52.872 87.912-73.191l.83-.83c6.012-4.56 11.818-8.915 17.416-12.855 6.013-4.354 12.233-8.708 19.905-14.099l.207-.207h29.857l-2.903 1.866c-15.758 10.574-30.064 20.527-43.749 30.686l.208.208-1.037.622C-202.6-.423-219.809 13.262-236.396 27.36c-17.21 14.72-32.138 29.235-46.444 43.334-2.696 2.695-5.391 5.39-8.294 8.086l-1.659 1.659zm84.595-42.09h-2.073l1.036-1.659c8.916-13.684 22.808-21.77 35.04-27.99 4.77-2.489 9.953-4.77 14.722-6.843 10.782-4.976 21.978-9.952 31.308-16.587 13.892-9.953 28.82-20.527 45.615-32.76l.207-.207h31.93L-52.9-45.83c-5.391 3.94-10.575 7.879-15.966 12.025-25.917 19.698-52.871 40.017-78.996 53.909l-1.037.622c-.207.207-.414.207-.622.207l-.415.207c-1.45.83-2.902 1.452-4.146 2.074l-.208.207c-1.036.415-2.073 1.037-2.902 1.452l-1.66.829c-18.66 8.708-34.625 12.648-49.346 12.648zm-84.595-26.54v-25.295l.415-.208c15.55-12.44 30.064-23.429 44.37-33.381l.208-.208h34.833l-2.695 1.866c-2.281 1.66-4.77 3.11-7.05 4.77l-1.036.621c-18.454 12.855-40.432 29.235-67.386 50.591l-1.659 1.244zm931.164-2.695c-.415 0-.83-.208-1.037-.415-.415-.622-.415-1.244 0-1.866 16.38-18.66 34.004-36.7 51.835-53.908l.207-.208h17.002v7.88l-.415.207c-22.807 17.416-46.651 34.418-66.97 48.102 0 0-.208.208-.622.208z" opacity=".02"/>
</svg>
