<svg xmlns="http://www.w3.org/2000/svg" width="2000" height="408" viewBox="0 0 2000 408">
    <g fill="none" fill-rule="evenodd">
        <path fill="#364063" d="M2000 76v332H0V55l169.063-32.861 118.453 17.596 39.15-22.557L380 8.473c45.432 9.15 72.149 15.038 80.149 17.666C464.148 17.425 473.148 8.713 477.148 0c7.11.138 20.777.679 40.998 1.622l84.995 16.517L707 38.735c124.976 5.971 193.781 7.971 206.414 6 48.89-6.64 159.03-23.021 207.92-29.66 32 2.489 172.482 18.978 208.072 24.66 65.33-3.941 228.019-13.138 246.685-12.723 12.666 4.565 33.332 41.128 45.997 45.693 29.72-5.142 61.448-12.788 95.185-22.937l156.66 16.824L2000 55v21z"/>
        <path fill="#E3E6EB" d="M2000 333c-.631-.143-11.26-.062-11.98-.205-16.07-3.184-99.503-6.366-99.503-6.366l-23.627 11.668s1.179-12.198-3.075-12.198c-4.25 0-12.283 1.327-12.283 1.327l-20.791 2.385s-4.963-2.65-11.105-3.975c-6.143-1.328-21.026-1.066-25.281-1.594-4.25-.53-11.294-6.042-11.294-6.042s-38.32.739-48.241 3.39c-9.924 2.652-25.516 11.138-37.332 9.015-11.81-2.119-34.02-6.363-43.943-9.015-9.923-2.651-28.824 5.834-33.078 6.366-4.251.53-8.033 2.651-19.372-1.063-11.342-3.712-38.274-4.243-54.342-4.243-16.063 0-36.852 2.12-36.852 2.12s-40.64-3.18-39.693 8.488c.288 3.548.575 6.41 1.396 9.033h-30.893c-1.145-2.485-1.955-4.165-5.284-3.994-5.197.266-16.54 1.062-16.54 1.062s6.616-3.182-9.45-6.364c-16.066-3.184-43.472-6.366-43.472-6.366l-23.624 11.668s1.179-12.198-3.075-12.198c-4.253 0-12.287 1.327-12.287 1.327l-20.79 2.385s-4.96-2.65-11.101-3.975c-4.096-.885-12.523-1.416-25.28-1.594l-78.713 1.3c-6.121.862-11.58.862-16.379 0-11.813-2.12-35.798-1.3-45.721-3.952-9.924-2.651-29.696-.531-33.951 0-4.252.53-38.63 2.652-72.838 1.06-34.208-1.591-36.858 2.12-36.858 2.12s-16.374-1.279-28.092.771c-11.722-2.05-28.096-.77-28.096-.77s-20.79-2.12-36.856-2.12c-16.068 0-43 .53-54.34 4.242-11.34 3.714-15.12 1.593-19.374 1.063-4.252-.532-23.153-9.017-33.076-6.366-9.924 2.652-32.133 6.896-43.945 9.015-11.814 2.123-27.406-6.363-37.328-9.015-9.925-2.651-48.243-3.39-48.243-3.39s-7.044 5.513-11.296 6.042c-4.253.528-19.136.266-25.28 1.594-6.143 1.325-11.104 3.975-11.104 3.975l-20.79-2.385s-8.034-1.327-12.286-1.327c-4.254 0-3.073 12.198-3.073 12.198l-23.626-11.668s-27.406 3.182-43.471 6.366c-16.066 3.182-9.45 6.364-9.45 6.364s-11.344-.796-16.54-1.062c-3.33-.171-4.14 1.509-5.284 3.994H459.29c-1.144-2.485-1.954-4.165-5.283-3.994-5.199.266-16.54 1.062-16.54 1.062s-19.831-6.366-35.897-9.548c-16.067-3.183-32.578-4.27-32.578-4.27l-8.073 12.756c-15.892 0-23.632-7.692-27.884-7.692-4.253 0-13.957-3.179-13.957-3.179l-16.539 5.569c-18.441-2.65-36.563-9.02-42.707-10.345-6.142-1.327-57.447 5.834-61.7 5.306-4.251-.53-25.933-9.756-24.757-9.756 1.176 0-56.506 1.22-66.43 3.871C99.265 323.925 10.092 331.583 0 333v75h2000v-75z"/>
        <path fill="#E3E6EB" d="M1121.77 404l-6.77-25.467 50.371-8.581s22.398-23.26 30.255-25.957c7.857-2.697 27.893-16.182 27.893-16.182l16.892 26.632 62.013-39.81 21.273 5.42 12.572-15.84 5.112-12.134 16.28-5.977s5.326-22.345 7.29-27.4c1.96-5.058 23.174-26.295 23.174-26.295l18.071 31.354s-.784-32.367 4.716-33.377c3.67-.675 13.493-2.923 29.469-6.743l15.396 13.792 9.747 20.93 14.378-34.722 16.402 13.792 14.964-18.155 20.44-5.28h18.983v56.164l9.515-22.587s18.46 3.036 20.43 4.721c1.962 1.69 12.576 39.783 12.576 39.783l12.957-32.363s10.61 10.784 12.567 10.446c1.97-.332 14.15-13.82 14.15-13.82l7.462 5.397 11.4 84.95 18.656 52.59L1121.77 404z"/>
        <g>
            <path fill="#D1CDC5" d="M1185.153 345.262H1170s2.627-6.818 8.892-9.909l5.507 4.387.754 5.522z"/>
            <path fill="#8C8887" d="M1178.892 335.353l6.168 9.926h17.871l-4.133-3.944z"/>
            <path fill="#D1CDC5" d="M1224.92 340.51h1.95l2.534 4.765h-18.98l2.907-1.166-2.862.887-2.323-16.351 15.56.424 3.748 5.857s-2.23 5.479-2.534 5.584z"/>
            <path fill="#EDEAE2" d="M1216.431 345.232l15.793-23.772-8.837-3.019-9.33 12.098-7.16 11.66z"/>
            <path fill="#D1CDC5" d="M1238.777 315.757l1.654 29.24h-3.335l-6.568-27.02z"/>
            <path fill="#D1CDC5" d="M1237.039 345.25l2.887-3.431 2.708 3.432z"/>
            <path fill="#FCF8F0" d="M1241.233 302.546l2.33 9.348h-12.126l-8.221-18.911z"/>
            <path fill="#999493" d="M1241.233 302.546l-9.796 9.348-12.53-13.441 4.309-5.47 2.857-15.188 8.201-6.635 3.48.735 1.42 11.628 2.059 19.023z"/>
            <path fill="#FCF8F0" d="M1233.644 271.895l.205 4.326-3.081 4.29 10.464 3.75-3.479-12.366z"/>
            <path fill="#EDEAE2" d="M1241.233 302.546l-10.465-22.036 10.465 3.75z"/>
            <path fill="#807B7A" d="M1226.073 277.795l-11.395 2.519 7.293 3.946 2.922-.192z"/>
            <path fill="#F2EEE9" d="M1237.753 271.895l5.922-5.895 2.346 3.26-4.26 7.865 5.321-4.957.858 1.919-6.707 10.173z"/>
            <path fill="#958F8E" d="M1243.675 266l-1.606 1.599h2.757z"/>
            <path fill="#FCF8F0" d="M1231.437 311.894l5.56 33.102h-3.64l-16.47-43.87 2.02-2.673z"/>
            <path fill="#A39E9D" d="M1232.997 321.725l-9.61-3.284-6.5-17.315 2.02-2.673 12.706 13.273z"/>
            <path fill="#EDEAE2" d="M1243.563 311.894l-10.566 9.83-1.384-9.998z"/>
            <path fill="#999493" d="M1216.886 301.126l-21.32 27.519 10.132 13.927 8.591-2.062 9.098-22.069z"/>
            <path fill="#9E9998" d="M1195.565 328.645l2.327 16.657 14.447-4.792 1.718-9.971-4.042-5.683z"/>
            <path fill="#7D7978" d="M1210.015 324.856l-10.682-1.075-3.768 4.864z"/>
            <path fill="#EDEAE2" d="M1233.194 345.254l3.257-3.476 2.384 3.476z"/>
            <path fill="#FCF8F0" d="M1197.528 345.318h18.997l-2.236-4.808h-1.95z"/>
            <path fill="#7D7978" d="M1216.886 301.126l6.5 17.315-3.826-1.307z"/>
            <path fill="#424649" d="M1235.268 275.577l-.494-.348 1.478-2.038.493.348z"/>
            <path fill="#ADA8A6" d="M1210.015 324.856l2.324 15.654 1.718-9.97z"/>
        </g>
    </g>
</svg>
