<svg xmlns="http://www.w3.org/2000/svg" data-name="Layer 1" viewBox="0 0 100 125" x="0px" y="0px" fill="#186B9D" fill-opacity="0.55"><circle cx="50" cy="50" r="5.625"/><path d="M91.25,48.125h-5.72c-.951-18.145-15.51-32.704-33.655-33.655v-5.72c0-1.036-.84-1.875-1.875-1.875s-1.875,.839-1.875,1.875v5.72c-18.145,.951-32.704,15.51-33.655,33.655h-5.72c-1.035,0-1.875,.839-1.875,1.875s.84,1.875,1.875,1.875h5.72c.951,18.145,15.51,32.704,33.655,33.655v5.72c0,1.036,.84,1.875,1.875,1.875s1.875-.839,1.875-1.875v-5.72c18.145-.951,32.704-15.51,33.655-33.655h5.72c1.035,0,1.875-.839,1.875-1.875s-.84-1.875-1.875-1.875Zm-9.47,0h-9.375c-.907-10.911-9.62-19.624-20.53-20.53v-9.375c16.078,.942,28.963,13.827,29.905,29.905Zm-16.78,3.75h3.655c-.882,8.844-7.935,15.897-16.78,16.78v-3.655c0-1.036-.84-1.875-1.875-1.875s-1.875,.839-1.875,1.875v3.655c-8.845-.883-15.898-7.936-16.78-16.78h3.655c1.035,0,1.875-.839,1.875-1.875s-.84-1.875-1.875-1.875h-3.655c.882-8.844,7.935-15.897,16.78-16.78v3.655c0,1.036,.84,1.875,1.875,1.875s1.875-.839,1.875-1.875v-3.655c8.845,.883,15.898,7.936,16.78,16.78h-3.655c-1.035,0-1.875,.839-1.875,1.875s.84,1.875,1.875,1.875ZM48.125,18.22v9.375c-10.91,.906-19.623,9.619-20.53,20.53h-9.375c.942-16.078,13.827-28.963,29.905-29.905ZM18.22,51.875h9.375c.907,10.911,9.62,19.624,20.53,20.53v9.375c-16.078-.942-28.963-13.827-29.905-29.905Zm33.655,29.905v-9.375c10.91-.906,19.623-9.619,20.53-20.53h9.375c-.942,16.078-13.827,28.963-29.905,29.905Z"/></svg>