<svg xmlns="http://www.w3.org/2000/svg" xmlns:xlink="http://www.w3.org/1999/xlink" version="1.1" x="0px" y="0px" viewBox="0 0 261.516 308.66125" style="enable-background: new 0 0 261.516 246.929; fill:#ffffff;" xml:space="preserve">
  <g>
    <path d="M52.576,157.426H34.129c-2.533,0-4.553-0.786-6.553-2.211v6.892v72.17c0,6.83,5.469,12.363,12.295,12.363   c5.284,0,9.951-3.319,11.722-7.983c0.517-1.363,0.983-2.836,0.983-4.38V157.426z"/>
    <path d="M81.576,155.217c-2,1.424-4.201,2.21-6.734,2.21H56.576v76.851c0,6.83,5.673,12.363,12.499,12.363   c6.828,0,12.501-5.533,12.501-12.363V155.217z"/>
    <path d="M20.568,147.415c-0.048-0.816-0.091-1.618-0.133-2.416c-0.028-0.529-0.052-1.049-0.077-1.57   c-4.333,1.677-11.451,1.876-15.993,0.499c0.068,1.451,0.142,2.92,0.23,4.423c0.25,4.251,3.773,7.531,7.977,7.532   c0.158,0,0.318-0.005,0.477-0.015c2.244-0.132,4.215-1.179,5.578-2.753C19.945,151.596,20.696,149.582,20.568,147.415z"/>
    <path d="M24.042,136.943c0.041-0.196,0.059-0.397,0.053-0.605c-0.056-2.104-0.082-4.119-0.09-6.077   c-0.001-0.352-0.212-0.718-0.212-1.066c-0.025-11.542,0.783-20.545,1.783-27.481v3.25v39.989v2.319   c0,4.268,4.055,8.155,8.553,8.155h40.713c4.5,0,7.734-3.887,7.734-8.155v-46.765c1,2.564,1.937,5.357,2.694,8.424   c0.937,1.81,1.676,3.794,1.965,5.891c1.923,3.646,6.783,9.215,23.959,21.759c1.957,1.429,17.907-14.184,13-17.767   c-11.647-8.506-15.788-12.581-17.102-14.033C98.459,68.427,79.226,57.318,76.33,55.832c0.294-0.979,0.585-1.957,0.86-2.926   c1.779-6.265,3.107-12.201,3.211-16.24C81.061,10.869,66.402,0,54.486,0C42.568,0,27.908,10.869,28.57,36.666   c0.121,4.753,1.939,12.137,4.193,19.59c-2.239,0.206-5.215,0.848-8.448,2.48c-6.373,3.146-12.857,9.931-17.156,20.935   C2.789,90.738,0.018,106.206,0,129.195c0,0.598,0.008,1.217,0.012,1.825c0.012,1.936,0.039,3.908,0.094,5.95   C0.27,143.284,22.79,142.988,24.042,136.943z M54.486,19.639c9-0.001,18,6.105,18,12.319c0,10.193-5.423,23.308-12.858,27.696   l1.982,41.129l-1.998,0.097L57.67,60.581c-1.034,0.374-2.097,0.585-3.184,0.585c-1.087,0-2.15-0.211-3.184-0.585L49.36,100.88   l-1.998-0.097l1.982-41.129c-7.435-4.389-12.858-17.504-12.858-27.696C36.486,25.744,45.486,19.639,54.486,19.639z"/>
    <path d="M 116.878 138.821 C 117.225 138.309 129.783 124.214 130.054 123.461 C 130.325 122.708 134.421 127.065 134.723 127.605 C 139.327 135.84 134.831 141.471 129.506 143.774 C 124.181 146.077 115.337 141.097 116.878 138.821 Z"/>
    <path d="M70.486,31.957c0-5.016-8.227-10.32-16.002-10.32s-15.998,5.305-15.998,10.32c0,11.305,7.178,20.502,15.998,20.502   C63.309,52.459,70.486,43.262,70.486,31.957z M48.917,45.83l-2.195-2.045c0.253-0.271,6.326-6.626,17.71-5.131l-0.392,2.975   C54.167,40.325,48.969,45.775,48.917,45.83z"/>
    <path d="M189.009,32.246c0,12.427,10.072,22.5,22.5,22.5c12.426,0,22.5-10.073,22.5-22.5c0-12.427-10.074-22.5-22.5-22.5   C199.081,9.746,189.009,19.819,189.009,32.246z M225.713,38.064l-1.715,2.462c-0.353-0.24-8.813-5.758-21.991,5.81l-1.979-2.255   C215.076,30.873,225.285,37.765,225.713,38.064z"/>
    <path d="M119.146,107.481l8.223,6.182c0.581,3.288,3.19,5.99,6.674,6.518c0.669,0.102,1.502,0.22,2.455,0.345l15.351,11.541   l8.234-10.952c5.225-0.616,10.071-1.935,13.353-4.444c2.982-2.279,4.831-5.351,5.239-8.884c1.283-11.091,3.901-18.449,5.901-23.232   v33.072v18.94v98c0,6.83,5.673,12.363,12.501,12.363c6.826,0,12.499-5.533,12.499-12.363v-90.14h4v90.14   c0,6.83,5.673,12.363,12.501,12.363c6.826,0,12.499-5.533,12.499-12.363v-98v-18.94V84.599c4,8.525,8.536,26.335,6.385,63.106   c-0.258,4.41,3.103,8.195,7.514,8.453c0.159,0.01,0.315,0.014,0.472,0.014c4.205,0,7.729-3.281,7.978-7.533   c2.472-42.248-2.813-69.812-15.706-81.925c-5.622-5.283-11.114-6.191-13.924-6.254c-0.156-0.009-0.311-0.033-0.469-0.033h-38.635   c-0.151,0-0.298,0.023-0.446,0.032c-2.499,0.059-7.181,0.788-12.171,4.721c-8.624,6.797-14.226,19.98-16.658,39.19   c-1.961,0.773-5.901,1.172-10.676,1.178L132.025,90.35L119.146,107.481z M133.814,100.644l4.344,3.266   c2.719-1.405,6.113-1.239,8.723,0.723c2.61,1.962,3.712,5.176,3.118,8.178l4.344,3.266l-0.764,1.017l-3.952-2.971   c-0.269,0.709-0.635,1.394-1.113,2.03c-0.478,0.636-1.035,1.178-1.641,1.633l3.952,2.971l-0.764,1.017l-4.344-3.266   c-2.719,1.405-6.113,1.239-8.722-0.723c-2.61-1.962-3.712-5.176-3.118-8.178l-4.344-3.266l0.764-1.017l3.952,2.971   c0.269-0.709,0.635-1.394,1.113-2.03s1.035-1.178,1.641-1.633l-3.952-2.971L133.814,100.644z"/>
    <path d="M147.228,108.776c-0.206,0.084-0.34,0.103-0.523-0.035c-0.213-0.16-0.431-0.539-0.808-0.989l1.078-1.052l-0.553-0.535   l-1.077,1.052c-0.096-0.096-0.187-0.164-0.294-0.245c-1.907-1.434-3.697-0.989-4.672,0.307c-1.067,1.419-0.61,2.621,0.667,4.13   l-2.56,2.516c-0.762-0.955-0.547-1.94-0.095-3.271l-0.534-0.402l-2.019,2.971l0.382,0.287c0.267-0.133,0.401-0.248,0.599-0.099   c0.29,0.218,0.511,0.623,1.022,1.15l-1.078,1.052l0.568,0.546l1.089-1.067c0.095,0.096,0.202,0.176,0.324,0.268   c2.013,1.513,3.948,1.226,5.072-0.269c1.261-1.678,0.256-3.102-0.849-4.458l2.308-2.276c0.5,0.638,0.582,1.417,0.138,2.706   l0.488,0.367l1.663-2.403L147.228,108.776z M142.259,114.686c-0.665,0.885-1.768,0.891-3.019-0.049l-0.198-0.149l2.51-2.482   C142.559,113.24,142.89,113.847,142.259,114.686z M142.459,110.038c-0.751-0.97-1.055-1.581-0.482-2.344   c0.585-0.778,1.596-0.757,2.527-0.058l0.229,0.172L142.459,110.038z"/>
  </g>
</svg>
