<svg xmlns="http://www.w3.org/2000/svg" xmlns:xlink="http://www.w3.org/1999/xlink" version="1.1" x="0px" y="0px" viewBox="0 0 512 640" style="enable-background:new 0 0 512 512; fill:#ffffff;" xml:space="preserve"><g><path d="M488.845,386.777c-5.231-0.669-8.577-1.962-12.47-3.452c-5.763-2.22-12.287-4.745-24.651-4.745s-18.887,2.524-24.635,4.745   c-5.444,2.083-10.128,3.893-20.18,3.893c-10.021,0-14.705-1.794-20.119-3.893c-5.763-2.22-12.272-4.745-24.62-4.745   c-12.348,0-18.857,2.524-24.62,4.745c-5.414,2.099-10.097,3.893-20.119,3.893c-10.021,0-14.705-1.794-20.119-3.893   c-5.748-2.22-12.272-4.745-24.605-4.745c-12.333,0-18.842,2.524-24.59,4.745c-5.414,2.099-10.082,3.893-20.089,3.893   c-10.021,0-14.705-1.794-20.119-3.893c-5.763-2.22-12.272-4.745-24.62-4.745c-11.907,0-18.396,2.347-23.999,4.505l8.573-30.414   c3.796-1.23,8.282-2.179,15.426-2.179c10.021,0,14.705,1.794,20.134,3.893c5.748,2.205,12.257,4.729,24.605,4.729   c12.333,0,18.842-2.524,24.575-4.729c5.414-2.099,10.097-3.893,20.104-3.893c10.021,0,14.69,1.794,20.119,3.893   c5.748,2.205,12.257,4.729,24.605,4.729c12.348,0,18.857-2.524,24.605-4.729c5.429-2.099,10.113-3.893,20.134-3.893   c2.29,0,4.292,0.098,6.097,0.267c0.848,0.399,1.751,0.6,2.647,0.6c0.359,0,0.715-0.042,1.068-0.103   c4.051,0.718,7.056,1.867,10.322,3.13c5.748,2.205,12.257,4.729,24.605,4.729c12.363,0,18.887-2.524,24.651-4.729   c5.429-2.099,10.128-3.893,20.165-3.893c10.052,0,14.751,1.794,20.18,3.893c4.06,1.551,8.653,3.315,15.359,4.167   c3.346,0.563,6.524-1.977,6.965-5.383c0.441-3.422-1.977-6.539-5.383-6.965c-5.231-0.669-8.577-1.962-12.47-3.452   c-5.763-2.22-12.287-4.729-24.651-4.729c-12.348,0-18.887,2.509-24.635,4.729c-5.429,2.099-10.128,3.893-20.18,3.893   c-10.021,0-14.705-1.794-20.134-3.893c-3.836-1.472-8.022-3.081-14.045-3.992c-24.792-18.375-28.242-64.754-32.23-118.318   l-1.277-16.789c-1.528-19.396-6.188-33.708-12.177-44.281c0.793-4.248,1.523-8.621,2.171-13.08   c3.163-21.792,3.999-42.656,2.372-58.76c-1.962-19.541-7.193-29.654-15.967-30.916c-0.224-0.034-0.447-0.058-0.669-0.079   c-0.175-0.041-0.351-0.078-0.532-0.104L141.364,31.404c-11.953-1.688-24.103,6.311-34.262,22.658   c-9.215,14.827-16.059,35.174-19.252,57.3c-3.209,22.141-2.418,43.599,2.22,60.433c5.11,18.553,14.492,29.715,26.415,31.433   l173.056,25.046c0.172,0.026,0.345,0.03,0.517,0.043c0.231,0.047,0.463,0.09,0.699,0.124c0.563,0.091,1.125,0.122,1.688,0.122   c2.352,0,4.657-0.732,6.909-2.165c4.639,38.793,3.245,79.559,3.218,80.223v38.032c-1.819-0.567-3.51-1.217-5.277-1.9   c-5.748-2.205-12.257-4.729-24.59-4.729c-12.333,0-18.842,2.524-24.575,4.729c-5.414,2.099-10.097,3.893-20.104,3.893   c-10.021,0-14.705-1.794-20.134-3.893c-5.748-2.205-12.257-4.729-24.605-4.729c-4.847,0-8.759,0.378-12.078,0.973   c0.447-4.688-0.208-9.468-1.958-13.853l-2.038-5.14c-0.639-1.597-0.639-3.391,0-5.049c2.935-7.588,6.493-20.864,7.619-35.372   c0.347-4.43,0.747-7.779,1.13-10.305c1.187-1.051,2.05-2.361,2.498-3.835c0.015-0.048,0.039-0.091,0.052-0.139l5.627-19.815   c0.078-0.274,0.129-0.549,0.169-0.824c1.072-5.933-4.406-11.618-13.992-14.338c-9.639-2.752-17.241-0.768-19.447,4.864   c-0.099,0.226-0.189,0.459-0.262,0.702l-5.885,19.739c-0.095,0.321-0.155,0.644-0.197,0.966c-0.223,1.304-0.137,2.596,0.249,3.846   c-0.997,2.344-2.407,5.393-4.417,9.315c-6.645,12.926-10.615,26.126-12.105,34.155c-0.319,1.718-1.247,3.224-2.631,4.243   l-4.425,3.285c-5.231,3.878-9.079,9.459-10.858,15.694l-3.445,12.055c-3.98-0.792-8.192-1.167-13.04-1.167   c-12.333,0-18.857,2.524-24.605,4.729c-5.398,2.099-10.082,3.893-20.089,3.893s-14.69-1.794-20.104-3.893l-2.981-1.125   c-3.209-1.186-6.798,0.487-7.984,3.726c-1.171,3.224,0.487,6.798,3.726,7.984l2.752,1.049c5.748,2.205,12.257,4.729,24.59,4.729   c12.333,0,18.842-2.524,24.575-4.729c5.429-2.099,10.097-3.893,20.119-3.893c3.99,0,7.086,0.292,9.604,0.722l-7.826,27.389   c-0.582-0.012-1.167-0.023-1.777-0.023c-12.348,0-18.857,2.524-24.605,4.745c-5.414,2.099-10.082,3.893-20.089,3.893   s-14.69-1.794-20.104-3.893l-2.981-1.125c-3.209-1.186-6.798,0.487-7.984,3.726c-1.171,3.224,0.487,6.798,3.726,7.984l2.752,1.049   c5.748,2.205,12.257,4.729,24.59,4.729c12.333,0,18.842-2.524,24.59-4.745c5.414-2.099,10.082-3.893,20.104-3.893   c2.023,0,3.819,0.076,5.455,0.21c0.221,0.034,0.44,0.049,0.659,0.059c6.078,0.574,9.818,2.007,13.99,3.624   c5.748,2.22,12.272,4.745,24.605,4.745c5.057,0,9.126-0.428,12.577-1.082c0.044-0.007,0.088-0.017,0.132-0.025   c4.898-0.941,8.535-2.339,11.896-3.638c5.414-2.099,10.098-3.893,20.119-3.893c10.021,0,14.705,1.794,20.119,3.893   c5.763,2.22,12.272,4.745,24.62,4.745c12.333,0,18.842-2.524,24.59-4.745c5.414-2.099,10.082-3.893,20.089-3.893   c10.021,0,14.69,1.794,20.104,3.893c5.748,2.22,12.272,4.745,24.62,4.745c12.348,0,18.857-2.524,24.62-4.745   c5.414-2.099,10.097-3.893,20.119-3.893c10.021,0,14.705,1.794,20.119,3.893c5.763,2.22,12.272,4.745,24.62,4.745   c12.363,0,18.902-2.524,24.651-4.745c5.429-2.099,10.128-3.893,20.165-3.893c10.052,0,14.736,1.794,20.18,3.893   c4.045,1.566,8.638,3.33,15.359,4.182c3.346,0.517,6.524-1.977,6.965-5.383C494.669,390.32,492.251,387.203,488.845,386.777z    M316.899,144.499c-0.053,0.366-0.11,0.726-0.164,1.09c-9.338-9.47-19.38-13.351-25.661-14.927   c6.804-38.472,18.239-60.539,22.48-61.803C318.146,71.55,323.347,99.912,316.899,144.499z M102.084,168.48   c-4.197-15.207-4.866-34.855-1.916-55.323c2.965-20.469,9.185-39.128,17.519-52.525c7.178-11.512,15.435-17.823,21.883-16.91   l159.632,23.089c-2.624,3.873-5.181,8.84-7.668,14.928c-6.113,14.979-11.223,35.235-14.371,57.011   c-1.356,9.349-2.281,18.52-2.771,27.221c-0.462,1.192-0.566,2.508-0.187,3.787c-0.429,10.149-0.242,19.57,0.586,27.753   c0.658,6.555,1.684,12.043,3.087,16.498L118.28,190.911C111.649,189.952,105.749,181.771,102.084,168.48z M292.75,216.154   c-3.101-2.04-6.434-15.689-6.275-38.049c3.011,4.145,6.894,12.442,9.985,29.046c0.23,1.236,0.452,2.483,0.666,3.738   C294.439,214.994,292.75,215.927,292.75,216.154z M315.028,306.849c0.087-2.216,1.815-52.321-5.196-95.567   c-0.013-0.091-0.028-0.181-0.045-0.271c-0.337-2.064-0.693-4.113-1.07-6.14c-4.106-21.989-10.599-35.797-19.343-41.059   c-0.77-0.461-1.534-0.839-2.285-1.148c0.431-6.15,1.105-12.757,2.068-19.781c6.227,1.637,17.214,6.418,25.809,20.315   c0.144,0.284,0.308,0.555,0.493,0.813c5.474,9.178,9.898,22.18,11.355,40.616l1.262,16.743c3.64,48.863,6.85,92.117,26.548,117.015   c-7.702,0.772-12.614,2.663-17.059,4.368c-5.429,2.099-10.113,3.893-20.134,3.893c-0.837,0-1.623-0.017-2.389-0.041   L315.028,306.849z M171.523,244.319l-4.358,15.348c-1.131,0.052-2.924-0.148-5.104-0.751c-2.156-0.612-3.736-1.415-4.695-2.035   l4.555-15.276c1.154-0.023,2.863,0.105,4.991,0.706C169.142,242.948,170.638,243.732,171.523,244.319z M118.462,383.325   c-2.979-1.15-6.174-2.38-10.269-3.3l14.132-49.468c1.034-3.619,3.269-6.858,6.296-9.109l4.425-3.285   c3.908-2.905,6.554-7.132,7.467-11.953c0.456-2.479,3.133-15.618,10.919-30.764c1.167-2.272,2.154-4.285,2.988-6.062   c1.316,0.57,2.732,1.084,4.266,1.515c1.015,0.293,2.57,0.671,4.378,0.928c-0.226,1.965-0.443,4.22-0.637,6.797   c-1.338,16.986-5.916,29.486-6.828,31.844c-1.779,4.623-1.764,9.672,0.046,14.158l2.038,5.125   c1.399,3.513,1.612,7.436,0.593,11.056l-1.568,5.562c-0.006,0.025-0.015,0.05-0.021,0.076l-11.402,40.448   c-1.96,0.208-4.163,0.326-6.717,0.326C128.544,387.218,123.876,385.424,118.462,383.325z"/><path d="M488.845,427.35c-5.231-0.669-8.577-1.962-12.47-3.452c-5.763-2.22-12.287-4.745-24.651-4.745s-18.887,2.524-24.635,4.745   c-5.444,2.083-10.128,3.893-20.18,3.893c-10.021,0-14.705-1.794-20.119-3.893c-5.763-2.22-12.272-4.745-24.62-4.745   c-12.348,0-18.857,2.524-24.62,4.745c-5.414,2.099-10.097,3.893-20.119,3.893c-10.021,0-14.705-1.794-20.119-3.893   c-5.748-2.22-12.272-4.745-24.605-4.745c-12.333,0-18.842,2.524-24.59,4.745c-5.414,2.099-10.082,3.893-20.089,3.893   c-10.021,0-14.705-1.794-20.119-3.893c-5.763-2.22-12.272-4.745-24.62-4.745s-18.872,2.524-24.62,4.745   c-5.414,2.099-10.082,3.893-20.104,3.893c-10.021,0-14.69-1.794-20.104-3.893c-5.748-2.22-12.272-4.745-24.605-4.745   c-12.348,0-18.857,2.524-24.605,4.745c-5.414,2.099-10.082,3.893-20.089,3.893s-14.69-1.794-20.104-3.893l-2.981-1.125   c-3.209-1.186-6.798,0.487-7.984,3.726c-1.171,3.224,0.487,6.798,3.726,7.984l2.752,1.049c5.748,2.205,12.257,4.729,24.59,4.729   c12.333,0,18.842-2.524,24.59-4.745c5.414-2.099,10.082-3.893,20.104-3.893c10.021,0,14.69,1.794,20.104,3.893   c5.748,2.22,12.272,4.745,24.605,4.745c12.333,0,18.857-2.524,24.605-4.745c5.414-2.099,10.098-3.893,20.119-3.893   c10.021,0,14.705,1.794,20.119,3.893c5.763,2.22,12.272,4.745,24.62,4.745c12.333,0,18.842-2.524,24.59-4.745   c5.414-2.099,10.082-3.893,20.089-3.893c10.021,0,14.69,1.794,20.104,3.893c5.748,2.22,12.272,4.745,24.62,4.745   c12.348,0,18.857-2.524,24.62-4.745c5.414-2.099,10.097-3.893,20.119-3.893c10.021,0,14.705,1.794,20.119,3.893   c5.763,2.22,12.272,4.745,24.62,4.745c12.363,0,18.902-2.524,24.651-4.745c5.429-2.099,10.128-3.893,20.165-3.893   c10.052,0,14.736,1.794,20.18,3.893c4.045,1.566,8.638,3.33,15.359,4.182c3.346,0.547,6.524-1.977,6.965-5.383   C494.669,430.893,492.251,427.775,488.845,427.35z"/><path d="M488.845,467.922c-5.216-0.669-8.577-1.962-12.455-3.452c-5.763-2.22-12.287-4.745-24.666-4.745   c-12.348,0-18.887,2.509-24.635,4.729c-5.429,2.099-10.128,3.893-20.18,3.893c-10.021,0-14.705-1.794-20.134-3.893   c-5.748-2.205-12.257-4.729-24.605-4.729c-12.348,0-18.857,2.524-24.605,4.729c-5.429,2.099-10.113,3.893-20.134,3.893   c-10.021,0-14.705-1.794-20.134-3.893c-5.748-2.205-12.257-4.729-24.59-4.729c-12.333,0-18.842,2.524-24.575,4.729   c-5.414,2.099-10.097,3.893-20.104,3.893c-10.021,0-14.705-1.794-20.134-3.893c-5.748-2.205-12.257-4.729-24.605-4.729   s-18.857,2.524-24.605,4.729c-5.429,2.099-10.097,3.893-20.119,3.893c-10.021,0-14.69-1.794-20.119-3.893   c-5.733-2.205-12.257-4.729-24.59-4.729c-12.333,0-18.857,2.524-24.605,4.729c-5.398,2.099-10.082,3.893-20.089,3.893   c-10.052,0-14.736-1.81-20.165-3.908l-2.905-1.11c-3.285-1.201-6.813,0.471-7.999,3.711c-1.171,3.224,0.487,6.813,3.711,7.999   l2.707,1.019c5.748,2.235,12.272,4.76,24.651,4.76c12.333,0,18.842-2.524,24.575-4.729c5.429-2.099,10.097-3.893,20.119-3.893   c10.021,0,14.69,1.794,20.119,3.893c5.733,2.205,12.257,4.729,24.59,4.729c12.333,0,18.842-2.524,24.59-4.729   c5.429-2.099,10.113-3.893,20.134-3.893c10.021,0,14.705,1.794,20.134,3.893c5.748,2.205,12.257,4.729,24.605,4.729   c12.333,0,18.842-2.524,24.575-4.729c5.414-2.099,10.097-3.893,20.104-3.893c10.021,0,14.69,1.794,20.119,3.893   c5.748,2.205,12.257,4.729,24.605,4.729c12.348,0,18.857-2.524,24.605-4.729c5.429-2.099,10.113-3.893,20.134-3.893   c10.021,0,14.705,1.794,20.134,3.893c5.748,2.205,12.257,4.729,24.605,4.729c12.363,0,18.887-2.524,24.651-4.729   c5.429-2.099,10.128-3.893,20.165-3.893c10.067,0,14.751,1.794,20.195,3.893c4.045,1.566,8.638,3.33,15.344,4.182   c3.346,0.593,6.524-1.962,6.965-5.383C494.669,471.48,492.251,468.348,488.845,467.922z"/><path d="M241.533,95.867l-26.278,12.85c-1.46,0.715-2.524,2.038-2.905,3.619c-0.38,1.582-0.046,3.239,0.928,4.547   c2.829,3.771,4.015,8.44,3.33,13.108c-0.669,4.684-3.133,8.82-6.919,11.649c-1.293,0.973-2.099,2.464-2.175,4.091   c-0.076,1.627,0.563,3.193,1.764,4.288l21.564,19.769c1.034,0.958,2.357,1.429,3.68,1.429c1.141,0,2.296-0.35,3.254-1.08   c11.116-8.288,18.324-20.408,20.301-34.14c1.992-13.717-1.49-27.388-9.793-38.489C246.718,95.395,243.859,94.68,241.533,95.867z    M247.296,134.447c-1.353,9.352-5.779,17.762-12.591,24.088l-13.762-12.607c7.026-8.303,8.714-20.028,4.334-29.988l16.758-8.197   C246.779,115.773,248.65,125.094,247.296,134.447z"/><path d="M143.417,102.162l24.27,16.348c0.912,0.623,1.962,0.928,3.041,0.928c0.517,0,1.034-0.061,1.536-0.213   c1.566-0.456,2.829-1.597,3.467-3.087c1.87-4.334,5.307-7.695,9.687-9.444c4.395-1.764,9.2-1.688,13.565,0.167   c1.475,0.654,3.178,0.578,4.623-0.152c1.445-0.745,2.494-2.083,2.844-3.665l6.341-28.574c0.563-2.57-0.76-5.155-3.178-6.189   c-26.247-11.314-56.874,0.897-68.158,27.221C140.421,97.904,141.242,100.702,143.417,102.162z M201.112,76.751l-4.045,18.218   c-5.186-0.943-10.63-0.426-15.694,1.597c-5.049,2.023-9.322,5.353-12.455,9.641L153.454,95.79   C162.897,79.108,182.894,71.17,201.112,76.751z"/><path d="M193.144,147.19c-9.869,1.262-18.507-5.794-19.663-15.481c-0.198-1.612-1.095-3.057-2.448-3.939   c-1.384-0.882-3.026-1.095-4.608-0.624l-27.905,8.79c-2.494,0.791-4.075,3.239-3.771,5.839   c3.133,26.354,25.593,45.788,51.491,45.788c2.038,0,4.091-0.122,6.159-0.365c2.6-0.304,4.623-2.418,4.805-5.034l2.023-29.182   c0.106-1.627-0.517-3.209-1.688-4.334C196.368,147.54,194.756,146.993,193.144,147.19z M186.65,176.662   c-18.826,0.395-35.995-13.078-40.314-31.752l17.807-5.611c3.68,10.25,12.972,17.564,23.799,18.75L186.65,176.662z"/><ellipse transform="matrix(0.9299 -0.3677 0.3677 0.9299 -33.0244 79.8489)" cx="193.035" cy="126.59" rx="15.292" ry="15.292"/><path d="M58.303,268.816l-1.551,7.725c-0.259,1.308-0.091,2.661,0.471,3.878l5.733,12.166c1.064,2.251,3.3,3.574,5.642,3.574   c0.836,0,1.688-0.182,2.509-0.532l33.303-14.675c1.566-0.684,2.768-1.992,3.346-3.589l9.322-25.806   c1.11-3.041-0.319-6.417-3.254-7.771l-9.535-4.395l0.258-10.919c0.076-2.737-1.658-5.201-4.258-6.068l-20.423-6.798   c-2.22-0.745-4.653-0.167-6.296,1.445l-12.896,12.531c-0.547,0.532-1.004,1.156-1.323,1.855l-10.021,21.609   c-1.034,2.235-0.654,4.881,0.988,6.737L58.303,268.816z M70.18,237.718l9.352-9.094l12.455,4.152l-0.243,10.417   c-0.061,2.494,1.353,4.775,3.619,5.809l8.06,3.711l-6.478,17.914L71.64,281.773l-2.266-4.805l1.749-8.744   c0.38-1.901-0.152-3.878-1.445-5.338l-7.33-8.303L70.18,237.718z"/><path d="M258.26,240.455l-20.423-6.798c-2.205-0.745-4.653-0.167-6.296,1.445l-12.896,12.531c-0.547,0.532-1.004,1.156-1.323,1.855   l-10.021,21.609c-1.034,2.235-0.654,4.881,0.988,6.737l7.984,9.033l-1.551,7.725c-0.259,1.308-0.091,2.661,0.471,3.863   l5.733,12.181c1.064,2.251,3.3,3.589,5.642,3.589c0.836,0,1.703-0.183,2.509-0.532l33.303-14.69   c1.566-0.684,2.768-1.992,3.346-3.589l9.307-25.791c1.095-3.041-0.304-6.417-3.239-7.771l-9.535-4.395l0.258-10.934   C262.594,243.785,260.861,241.322,258.26,240.455z M254.915,288.677l-25.304,11.162l-2.266-4.821l1.749-8.744   c0.38-1.901-0.152-3.878-1.445-5.338l-7.33-8.303l7.832-16.865l9.352-9.094l12.455,4.152l-0.243,10.417   c-0.061,2.479,1.353,4.76,3.604,5.809l8.06,3.71L254.915,288.677z"/><path d="M414.133,273.211l-1.551,7.725c-0.259,1.308-0.091,2.661,0.471,3.878l5.733,12.166c1.064,2.251,3.3,3.574,5.642,3.574   c0.836,0,1.688-0.182,2.509-0.532l33.303-14.675c1.566-0.684,2.768-1.992,3.346-3.589l9.322-25.806   c1.11-3.041-0.319-6.417-3.254-7.771l-9.535-4.395l0.259-10.919c0.076-2.737-1.658-5.201-4.258-6.068l-20.423-6.798   c-2.22-0.745-4.653-0.167-6.296,1.445l-12.896,12.531c-0.547,0.532-1.004,1.156-1.323,1.855l-10.021,21.609   c-1.034,2.235-0.654,4.881,0.988,6.737L414.133,273.211z M426.009,242.113l9.352-9.094l12.455,4.152l-0.243,10.417   c-0.061,2.494,1.353,4.775,3.619,5.809l8.06,3.711l-6.478,17.914l-25.305,11.147l-2.266-4.805l1.749-8.744   c0.38-1.901-0.152-3.878-1.445-5.338l-7.33-8.303L426.009,242.113z"/></g></svg>