<svg xmlns="http://www.w3.org/2000/svg" xmlns:xlink="http://www.w3.org/1999/xlink" version="1.1" x="0px" y="0px" viewBox="0 0 512 640" style="enable-background:new 0 0 512 512; fill:#ffffff;" xml:space="preserve"><g><path d="M482.563,444.47c-5.064-0.642-8.323-1.897-12.087-3.351c-5.615-2.157-11.98-4.621-24.037-4.621   c-12.073,0-18.438,2.464-24.053,4.621c-5.263,2.035-9.823,3.78-19.555,3.78c-4.768,0-8.273-0.427-11.246-1.096v-26.708   c3.054,0.513,6.714,0.874,11.246,0.874c12.073,0,18.438-2.464,24.053-4.621c5.263-2.035,9.823-3.78,19.555-3.78   c9.732,0,14.275,1.744,19.539,3.78c3.963,1.515,8.446,3.244,15.01,4.085c3.397,0.52,6.579-1.974,7.008-5.417   c0.444-3.427-1.99-6.579-5.417-7.008c-5.064-0.658-8.323-1.913-12.087-3.366c-5.631-2.157-11.996-4.621-24.053-4.621   c-12.073,0-18.438,2.464-24.053,4.621c-5.264,2.035-9.823,3.78-19.555,3.78c-4.94,0-8.441-0.491-11.246-1.121v-28.333h52.375   c3.458,0,6.273-2.815,6.273-6.273v-22.707h16.632c3.458,0,6.273-2.815,6.273-6.273v-28.98c0-3.458-2.815-6.273-6.273-6.273h-4.621   V252.17c0-3.458-2.815-6.273-6.273-6.273h-8.4V155.19v-26.701c0-0.335-0.141-0.624-0.191-0.945c-0.062-0.408-0.1-0.807-0.243-1.201   c-0.158-0.431-0.409-0.792-0.655-1.174c-0.158-0.25-0.228-0.533-0.426-0.764l-50.003-58.143c-1.933-1.686-4.017-3.099-6.182-4.326   V33.961c0-10.404-8.477-18.881-18.881-18.881c-10.404,0-18.866,8.477-18.866,18.881v28.186c-2.376,1.343-4.68,2.875-6.824,4.757   l-49.361,57.501c-0.199,0.232-0.27,0.517-0.428,0.769c-0.243,0.379-0.492,0.739-0.652,1.168c-0.145,0.396-0.183,0.796-0.244,1.208   c-0.05,0.319-0.19,0.608-0.19,0.941v26.701v3.32v87.384h-7.319l-15.583-126.374c0.001-0.589-0.049-1.151-0.211-1.717L268.978,98.9   c-0.398-3.136-3.06-5.508-6.228-5.508h-9.181V81.684c0-3.458-2.815-6.273-6.273-6.273s-6.273,2.815-6.273,6.273v11.705h-8.997   c-3.167,0-5.83,2.357-6.212,5.493l-1.917,15.39c-0.167,0.556-0.204,1.122-0.213,1.705l-6.015,48.273l-90.044-11.503l-2.439-5.525   c-2.427-10.041-11.437-17.554-22.223-17.554c-12.624,0-22.905,10.283-22.905,22.905v247.032c-2.092,0.659-4.044,1.35-5.83,2.036   c-5.248,2.035-9.778,3.78-19.478,3.78c-9.732,0-14.261-1.744-19.508-3.78l-2.862-1.086c-3.29-1.193-6.87,0.474-8.048,3.734   c-1.178,3.259,0.49,6.854,3.734,8.048l2.662,0.995c5.6,2.173,11.966,4.636,24.023,4.636c12.042,0,18.392-2.464,24.007-4.621   c5.248-2.035,9.778-3.78,19.478-3.78s14.23,1.744,19.478,3.78c5.615,2.157,11.98,4.621,24.023,4.621   c0.85,0,1.462-0.091,2.249-0.113v26.937c-0.777,0.026-1.397,0.107-2.249,0.107c-9.716,0-14.245-1.744-19.494-3.78   c-5.615-2.157-11.966-4.621-24.007-4.621s-18.392,2.464-24.007,4.621c-5.248,2.035-9.778,3.78-19.478,3.78   c-9.685,0-14.214-1.744-19.447-3.748l-2.938-1.116c-3.259-1.193-6.87,0.505-8.033,3.748c-1.178,3.259,0.505,6.854,3.748,8.033   l2.708,1.025c5.6,2.157,11.95,4.606,23.962,4.606c12.042,0,18.392-2.464,24.007-4.621c5.248-2.035,9.778-3.78,19.478-3.78   s14.23,1.744,19.478,3.78c5.615,2.157,11.98,4.621,24.023,4.621s18.407-2.464,24.023-4.621c5.248-2.035,9.778-3.78,19.494-3.78   s14.245,1.744,19.494,3.78c5.615,2.157,11.98,4.621,24.037,4.621c12.027,0,18.376-2.464,23.992-4.621   c5.248-2.035,9.778-3.78,19.478-3.78c9.716,0,14.245,1.744,19.494,3.78c5.615,2.157,11.98,4.621,24.023,4.621   c1.432,0,2.548-0.134,3.828-0.199c0.132,0.008,0.245,0.077,0.38,0.077c0.228,0,0.421-0.106,0.642-0.13   c8.868-0.577,14.404-2.536,19.173-4.368c5.248-2.035,9.778-3.78,19.494-3.78s14.261,1.744,19.524,3.78   c5.6,2.157,11.966,4.621,24.023,4.621c12.073,0,18.438-2.464,24.053-4.621c5.264-2.035,9.823-3.78,19.555-3.78   c9.716,0,14.261,1.744,19.524,3.764c3.963,1.53,8.462,3.259,15.041,4.085c3.198,0.597,6.564-1.99,6.993-5.431   C488.438,448.034,486.006,444.898,482.563,444.47z M460.591,318.007v16.433h-16.632H132.156h-8.293v-16.433h65.457h266.649H460.591   z M364.669,33.961c0-3.504,2.831-6.335,6.319-6.335c3.504,0,6.335,2.831,6.335,6.335v23.551c-4.17-0.673-8.443-0.634-12.654,0.097   V33.961z M354.172,75.716c9.594-8.385,24.053-8.385,33.004-0.642l40.468,47.142H314.33L354.172,75.716z M306.97,134.763h128.054   v14.154H306.97V134.763z M306.97,161.464h128.054v84.43H306.97V161.464z M268.817,200.048l3.457,28.025l-15.396-16.506   L268.817,200.048z M263.77,159.128l-8.549-13.86l5.802-8.421L263.77,159.128z M237.564,105.936h19.647l1.504,12.193l-10.676,15.495   l-11.584-18.779L237.564,105.936z M233.977,134.72l6.286,10.188l-9.225,13.388L233.977,134.72z M247.447,156.554l18.057,29.268   l-17.178,16.575l-18.672-20.018L247.447,156.554z M226.209,197.05l13.103,14.044l-16.885,16.293L226.209,197.05z M247.864,220.26   l23.916,25.633h-50.484L247.864,220.26z M281.555,258.441h19.141h140.601h8.4v47.02h-191.66V285.63   c0-3.458-2.815-6.273-6.273-6.273c-3.458,0-6.273,2.815-6.273,6.273v19.831h-17.871V285.63c0-3.458-2.815-6.273-6.273-6.273   s-6.273,2.815-6.273,6.273v19.831h-19.478v-47.02h17.428H281.555z M216.12,176.679l-8.625,69.215h-18.174   c-3.458,0-6.273,2.815-6.273,6.273v26.142l-49.518-112.18L216.12,176.679z M120.355,167.327l60.971,138.132h-44.448L99.277,175.121   c1.207,0.198,2.423,0.373,3.684,0.373C109.954,175.494,116.148,172.279,120.355,167.327z M102.963,142.214   c5.722,0,10.374,4.636,10.374,10.359s-4.652,10.374-10.374,10.374s-10.359-4.652-10.359-10.374S97.239,142.214,102.963,142.214z    M143.984,405.316c-0.777,0.025-1.403,0.105-2.249,0.105c-9.716,0-14.245-1.744-19.494-3.78   c-5.615-2.157-11.966-4.621-24.007-4.621c-2.108,0-3.845,0.157-5.631,0.294V197.27l31.211,108.191h-6.225   c-3.458,0-6.273,2.815-6.273,6.273v28.98c0,3.458,2.815,6.273,6.273,6.273h8.293v22.707c0,3.458,2.815,6.273,6.273,6.273h11.827   v29.35H143.984z M176.652,437.011c-6.787,0.826-11.334,2.536-15.423,4.107c-1.565,0.607-3.104,1.164-4.698,1.68v-66.832h20.121   V437.011z M209.304,441.136c-0.016-0.005-0.03-0.012-0.046-0.017c-4.913-1.893-10.652-3.921-20.059-4.416v-60.736h20.105V441.136z    M313.702,444.799c-8.2-0.25-12.603-1.81-17.428-3.681c-5.615-2.157-11.98-4.621-24.023-4.621c-12.042,0-18.392,2.464-24.007,4.636   c-5.233,2.02-9.778,3.764-19.463,3.764c-2.681,0-4.913-0.154-6.931-0.389v-26.889c2.2,0.209,4.473,0.349,6.931,0.349   c12.027,0,18.376-2.464,23.992-4.621c5.248-2.035,9.778-3.78,19.478-3.78c9.716,0,14.245,1.744,19.494,3.78   c5.255,2.019,11.352,4.229,21.957,4.514V444.799z M313.702,405.323c-8.2-0.25-12.603-1.81-17.428-3.681   c-5.615-2.157-11.98-4.621-24.023-4.621c-12.042,0-18.392,2.464-24.007,4.636c-5.233,2.02-9.778,3.764-19.463,3.764   c-2.55,0-4.805-0.152-6.931-0.399v-29.055h91.851V405.323z M346.369,437.742c-4.469,0.913-7.969,2.17-11.108,3.376   c-2.87,1.113-5.606,2.106-9.012,2.807v-67.958h20.121v61.775H346.369z M379.037,439.542c-4.745-1.626-10.608-3.044-19.754-3.044   c-0.137,0-0.232,0.018-0.367,0.019v-60.549h20.121L379.037,439.542L379.037,439.542z M319.975,363.42H215.577h-65.32H138.43   v-16.433h299.255v16.433h-52.375H319.975z"/><path d="M482.563,483.946c-5.064-0.642-8.323-1.897-12.087-3.351c-5.615-2.157-11.98-4.621-24.037-4.621   c-12.073,0-18.438,2.464-24.053,4.621c-5.263,2.035-9.823,3.78-19.555,3.78c-9.716,0-14.261-1.744-19.524-3.78   c-5.6-2.157-11.966-4.621-24.023-4.621c-12.042,0-18.407,2.464-24.023,4.621c-5.248,2.035-9.778,3.78-19.494,3.78   c-9.716,0-14.245-1.744-19.494-3.78c-5.615-2.157-11.98-4.621-24.023-4.621c-12.042,0-18.392,2.464-24.007,4.636   c-5.233,2.02-9.778,3.764-19.463,3.764c-9.716,0-14.261-1.744-19.524-3.78c-5.6-2.157-11.966-4.621-24.007-4.621   c-12.042,0-18.407,2.464-24.023,4.621c-5.248,2.035-9.778,3.78-19.494,3.78s-14.245-1.744-19.494-3.78   c-5.615-2.157-11.966-4.621-24.007-4.621s-18.392,2.464-24.007,4.621c-5.248,2.035-9.778,3.78-19.478,3.78   s-14.23-1.744-19.478-3.78l-2.892-1.102c-3.29-1.193-6.87,0.474-8.048,3.734c-1.178,3.259,0.49,6.854,3.734,8.048l2.678,1.009   c5.615,2.173,11.966,4.636,24.007,4.636s18.392-2.464,24.007-4.621c5.248-2.035,9.778-3.78,19.478-3.78s14.23,1.744,19.478,3.78   c5.615,2.157,11.98,4.621,24.023,4.621c12.042,0,18.407-2.464,24.023-4.621c5.248-2.035,9.778-3.78,19.494-3.78   s14.245,1.744,19.494,3.78c5.615,2.157,11.98,4.621,24.037,4.621c12.027,0,18.376-2.464,23.992-4.621   c5.248-2.035,9.778-3.78,19.478-3.78c9.716,0,14.245,1.744,19.494,3.78c5.615,2.157,11.98,4.621,24.023,4.621   c12.042,0,18.407-2.464,24.023-4.621c5.248-2.035,9.778-3.78,19.494-3.78c9.716,0,14.261,1.744,19.524,3.78   c5.6,2.157,11.966,4.621,24.023,4.621c12.073,0,18.438-2.464,24.053-4.621c5.263-2.035,9.823-3.78,19.555-3.78   c9.716,0,14.261,1.744,19.524,3.764c3.963,1.53,8.462,3.259,15.041,4.085c3.198,0.567,6.564-1.99,6.993-5.431   C488.438,487.51,486.006,484.374,482.563,483.946z"/><path d="M274.914,288.232h19.952c3.458,0,6.273-2.815,6.273-6.273c0-3.458-2.815-6.273-6.273-6.273h-19.952   c-3.458,0-6.273,2.815-6.273,6.273C268.64,285.416,271.456,288.232,274.914,288.232z"/><path d="M320.082,288.232h19.952c3.458,0,6.273-2.815,6.273-6.273c0-3.458-2.815-6.273-6.273-6.273h-19.952   c-3.458,0-6.273,2.815-6.273,6.273S316.625,288.232,320.082,288.232z"/><path d="M365.266,288.232h19.938c3.458,0,6.273-2.815,6.273-6.273c0-3.458-2.815-6.273-6.273-6.273h-19.938   c-3.458,0-6.273,2.815-6.273,6.273S361.808,288.232,365.266,288.232z"/><path d="M410.434,288.232h19.938c3.458,0,6.273-2.815,6.273-6.273c0-3.458-2.815-6.273-6.273-6.273h-19.938   c-3.458,0-6.273,2.815-6.273,6.273S406.976,288.232,410.434,288.232z"/></g></svg>