<svg xmlns="http://www.w3.org/2000/svg" xmlns:xlink="http://www.w3.org/1999/xlink" version="1.1" x="0px" y="0px" viewBox="0 0 100 125" style="enable-background:new 0 0 100 100; fill:#ffffff;" xml:space="preserve"><g><path d="M73.8,47.8c-0.9-0.4-1.9,0-2.4,0.8c-0.2,0.4-0.2,0.9-0.1,1.4c0.2,0.4,0.5,0.8,0.9,1c0.2,0.1,0.5,0.2,0.8,0.2   c0.2,0,0.4,0,0.6-0.1c0.4-0.2,0.8-0.5,1-0.9C75.1,49.3,74.7,48.2,73.8,47.8z M73.4,49.6c-0.1,0.1-0.1,0.2-0.2,0.2   c-0.1,0-0.2,0-0.3,0c-0.1-0.1-0.2-0.1-0.2-0.2c0-0.1,0-0.2,0-0.3s0.1-0.2,0.2-0.2c0,0,0.1,0,0.1,0c0,0,0.1,0,0.2,0   C73.4,49.2,73.5,49.4,73.4,49.6z"/><path d="M68.7,48.8c-0.9-0.4-1.9,0-2.4,0.8c-0.4,0.9,0,1.9,0.8,2.4c0.2,0.1,0.5,0.2,0.8,0.2c0.2,0,0.4,0,0.6-0.1   c0.4-0.2,0.8-0.5,1-0.9C69.9,50.3,69.5,49.2,68.7,48.8z M68.2,50.5C68.2,50.5,68.2,50.5,68.2,50.5c-0.1,0.1-0.1,0.2-0.2,0.2   c-0.1,0-0.2,0-0.3,0c-0.1-0.1-0.2-0.1-0.2-0.2s0-0.2,0-0.3c0.1-0.1,0.2-0.2,0.3-0.2c0.1,0,0.1,0,0.2,0   C68.2,50.2,68.3,50.4,68.2,50.5z"/><path d="M63.5,49.8c-0.9-0.4-1.9,0-2.4,0.8C60.9,51,60.9,51.5,61,52c0.2,0.4,0.5,0.8,0.9,1c0.2,0.1,0.5,0.2,0.8,0.2   c0.2,0,0.4,0,0.6-0.1c0.4-0.2,0.8-0.5,1-0.9C64.7,51.2,64.3,50.2,63.5,49.8z M63,51.5c-0.1,0.1-0.1,0.2-0.2,0.2c-0.1,0-0.2,0-0.3,0   c-0.1-0.1-0.2-0.1-0.2-0.2s0-0.2,0-0.3s0.1-0.2,0.2-0.2c0,0,0.1,0,0.1,0c0,0,0.1,0,0.2,0C63,51.1,63.1,51.3,63,51.5z"/><path d="M58.3,50.7c-0.4-0.2-0.9-0.2-1.4-0.1c-0.4,0.2-0.8,0.5-1,0.9c-0.4,0.9,0,1.9,0.8,2.4c0.2,0.1,0.5,0.2,0.8,0.2   c0.2,0,0.4,0,0.6-0.1c0.4-0.2,0.8-0.5,1-0.9C59.5,52.2,59.2,51.1,58.3,50.7z M57.8,52.5C57.8,52.5,57.8,52.5,57.8,52.5   c-0.1,0.1-0.1,0.2-0.2,0.2c-0.1,0-0.2,0-0.3,0c-0.2-0.1-0.3-0.3-0.2-0.5c0.1-0.1,0.1-0.2,0.2-0.2c0,0,0.1,0,0.1,0c0,0,0.1,0,0.2,0   C57.8,52.1,57.9,52.3,57.8,52.5z"/><path d="M53.1,51.7c-0.9-0.4-1.9,0-2.4,0.8c-0.4,0.9,0,1.9,0.8,2.4c0.2,0.1,0.5,0.2,0.8,0.2c0.7,0,1.3-0.4,1.6-1   C54.3,53.2,54,52.1,53.1,51.7z M52.6,53.4c-0.1,0.1-0.1,0.2-0.2,0.2s-0.2,0-0.3,0c-0.2-0.1-0.3-0.3-0.2-0.5   c0.1-0.1,0.2-0.2,0.3-0.2c0.1,0,0.1,0,0.2,0C52.7,53.1,52.7,53.3,52.6,53.4z"/><path d="M47.9,52.7c-0.9-0.4-1.9,0-2.4,0.8c-0.4,0.9,0,1.9,0.8,2.4c0.2,0.1,0.5,0.2,0.8,0.2c0.7,0,1.3-0.4,1.6-1   C49.2,54.1,48.8,53.1,47.9,52.7z M47.5,54.4c-0.1,0.1-0.1,0.2-0.2,0.2c-0.1,0-0.2,0-0.3,0c-0.2-0.1-0.3-0.3-0.2-0.5   c0.1-0.1,0.2-0.2,0.3-0.2c0.1,0,0.1,0,0.2,0C47.5,54,47.5,54.2,47.5,54.4z"/><path d="M42.7,53.6c-0.9-0.4-1.9,0-2.4,0.8c-0.4,0.9,0,1.9,0.8,2.4c0.2,0.1,0.5,0.2,0.8,0.2c0.7,0,1.3-0.4,1.6-1   C44,55.1,43.6,54,42.7,53.6z M42.3,55.4c-0.1,0.2-0.3,0.3-0.5,0.2c-0.2-0.1-0.3-0.3-0.2-0.5c0.1-0.1,0.2-0.2,0.3-0.2   c0.1,0,0.1,0,0.2,0C42.3,55,42.4,55.2,42.3,55.4z"/><path d="M37.5,54.6c-0.4-0.2-0.9-0.2-1.4-0.1c-0.4,0.2-0.8,0.5-1,0.9c-0.4,0.9,0,1.9,0.8,2.4c0.2,0.1,0.5,0.2,0.8,0.2   c0.2,0,0.4,0,0.6-0.1c0.4-0.2,0.8-0.5,1-0.9C38.8,56.1,38.4,55,37.5,54.6z M37.1,56.4c-0.1,0.1-0.1,0.2-0.2,0.2c0,0-0.2,0-0.3,0   c-0.2-0.1-0.3-0.3-0.2-0.5c0.1-0.1,0.1-0.2,0.2-0.2c0,0,0.1,0,0.1,0c0,0,0.1,0,0.2,0c0.1,0.1,0.2,0.1,0.2,0.2   C37.1,56.1,37.1,56.2,37.1,56.4z"/><path d="M32.3,55.6c-0.9-0.4-1.9,0-2.4,0.8c-0.4,0.9,0,1.9,0.8,2.4c0.2,0.1,0.5,0.2,0.8,0.2c0.2,0,0.4,0,0.6-0.1   c0.4-0.2,0.8-0.5,1-0.9C33.6,57,33.2,56,32.3,55.6z M31.9,57.3c-0.1,0.1-0.1,0.2-0.2,0.2c-0.1,0-0.2,0-0.3,0   c-0.2-0.1-0.3-0.3-0.2-0.5c0.1-0.1,0.2-0.2,0.3-0.2c0.1,0,0.1,0,0.2,0c0.1,0.1,0.2,0.1,0.2,0.2C31.9,57.1,31.9,57.2,31.9,57.3z"/><path d="M27.1,56.5c-0.9-0.4-1.9,0-2.4,0.8c-0.4,0.9,0,1.9,0.8,2.4c0.2,0.1,0.5,0.2,0.8,0.2c0.2,0,0.4,0,0.6-0.1   c0.4-0.2,0.8-0.5,1-0.9C28.4,58,28,57,27.1,56.5z M26.7,58.3c-0.1,0.1-0.1,0.2-0.2,0.2c-0.1,0-0.2,0-0.3,0   c-0.2-0.1-0.3-0.3-0.2-0.5c0.1-0.1,0.1-0.2,0.2-0.2c0,0,0.1,0,0.1,0c0,0,0.1,0,0.2,0c0.1,0.1,0.2,0.1,0.2,0.2   C26.7,58.1,26.8,58.2,26.7,58.3z"/><path d="M87.3,54.4c1.7-3.2,3.1-5.9,4.4-8.3c0.9-1.7,1.7-3.3,2.4-5c0.2-0.4,0.3-0.7,0.3-1c0-0.7-0.7-1.4-1.4-1.5   c-1.2-0.2-2.8,0.2-4,0.4c-0.1,0-0.2,0-0.3-0.1c-1.9-1.2-3.8-2.5-5.7-3.7c-1.5-1-3.2-2.2-4.9-3.2c-2.9-1.9-5.8-3.9-8.7-5.8   c-0.2-0.1-0.5-0.3-0.9-0.7c0,0-0.1-0.1-0.1-0.1c0-0.4-0.1-1-0.4-1.2c-0.7-0.3-1.2-0.2-1.5,0.3c-0.1,0.2-0.2,0.5-0.2,1   c0,3.2,0,6.5,0,9.7c0,0.2,0,0.3,0,0.4c0,0.1-0.1,0.2-0.3,0.2c-1.2-0.1-2.4-0.3-3.5-0.5c-1.1-0.2-1.9-0.3-2.3-0.2   c-0.7,0.1-1.8,0.3-3.4,0.8c-1.1,0.3-2.3,0.7-3.5,1c-0.1,0-0.2,0-0.2-0.1c0-4.3,0-8.6-0.1-13c0-0.6-0.1-0.8-0.3-1.1   c-0.7-1.2-2.7-1.6-3.5-1.3c-0.4,0.1-2.2,0.6-3.7,1.1l-1.2,0.4c-0.8,0.3-1.6,0.7-1.8,1.5c0,0.2-0.1,0.7-0.1,1.7   c0,5.2,0.1,10.3,0.1,15.5c0,0.7,0,1.4,0,2c0,0.2-0.1,0.3-0.3,0.4c-0.3,0.1-0.6,0.2-1,0.3c-2.1,0.5-4.1,1.1-6.2,1.6   c-0.2,0-0.3,0.1-0.4,0.1c-0.1,0-0.1-0.1-0.1-0.1c0-5.1,0-10.2,0-15.2c0-1.9-2.5-1.6-3.7-1.4c-0.6,0.1-1.3,0.2-1.9,0.4   c-1,0.3-1.9,0.9-1.9,2c0,5.5,0,11,0,16.5c0,0.1,0,0.1-0.1,0.1c-2.8,0.8-5.6,1.6-8.5,2.4c-0.7,0.2-0.9,0.7-0.9,1.4   c0,0.8,0,1.7,0,2.5c0,0,0,0,0,0.1c0,0,0,0-0.1,0c-0.9,0.2-1.8,0.4-2.7,0.7c-0.9,0.3-1.4,1-0.9,1.9c0.3,0.5,0.7,1.2,1.2,1.9   c1.8,2.6,3.5,5.7,4.6,8.8c0,0.1,0,0.1-0.1,0.1c-3.7-0.1-7.5-0.1-11.3-0.1c-0.9,0-1.7,0-2,0.9c-0.1,0.3-0.1,0.6,0.1,0.9   c0.4,0.5,1,0.5,1.6,0.5c12.6,0,40.2,0,82.8,0c0.1,0,0.1,0,0.2,0c1.4-0.1,1.4-2.1,0-2.2c-0.1,0-0.1,0-0.2,0c-2.9,0-5.9,0-8.8,0   c-0.1,0-0.1,0-0.1-0.1c0-0.2,0-0.4,0-0.6C83.2,62.8,85.1,58.7,87.3,54.4z M85.7,39.6c0.2,0.1,0.1,0.2,0,0.2c-1,0.1-2,0.3-3.2,0.7   c-1.8,0.5-4.2,1.2-6.2,1.8c-0.1,0-0.2,0-0.1-0.1c0-1,0.2-2.2,0.3-3.2c0-0.4,0.1-0.8-0.1-1.2c-0.3-0.5-0.9-0.7-1.5-0.8   c-1.7-0.3-3.3-0.5-5-0.6c-0.4,0-0.8-0.1-1.2-0.2c-0.1,0-0.1-0.1-0.1-0.1c0-2.6,0-5.1-0.1-7.7C74.2,32.1,80,35.9,85.7,39.6z    M59.1,38c0.9-0.1,1.8-0.3,2.7-0.2c3.8,0.4,8.6,0.8,12.3,1.2c0.2,0,0.4,0,0.4,0.2c0,0.2-0.1,0.6-0.1,1c0,0.2-0.1,0.2-0.3,0.2   c-2.7-0.2-5.3-0.4-7.8-0.5c-1.7-0.1-3.3-0.3-5-0.5c-0.5,0-1.2,0.1-2.1,0.3c-0.2,0.1-0.3,0-0.3-0.2c0-0.3,0-0.7,0-1   C58.8,38.1,58.9,38,59.1,38z M53.3,39.4c1.1-0.3,2.2-0.7,3.3-1c0.1,0,0.1,0,0.1,0.1c0,0.5,0,1,0,1.6c0,0,0,0.1-0.1,0.1   c-1.1,0.3-2.2,0.6-3.3,1c-0.1,0-0.1,0-0.1-0.1C53.2,40.6,53.2,40,53.3,39.4C53.2,39.5,53.3,39.5,53.3,39.4z M44.9,26.1   c0-0.2,0-0.3,0-0.5c0-0.2,0.1-0.3,0.2-0.3c1.2-0.5,2.9-1,4.1-1.5c0.8-0.3,1.1-0.1,1.7,0.2c0.1,0,0.1,0.1,0.1,0.1c0,0.4,0,0.9,0,1.3   c0,0.1,0,0.1-0.1,0.1c-0.2-0.1-0.4-0.2-0.5-0.2c-0.3-0.1-0.5-0.2-0.9-0.1c-0.1,0-0.4,0.1-0.7,0.2c-1.3,0.4-2.6,0.9-4,1.4   C44.9,26.6,44.9,26.3,44.9,26.1z M48.8,29.5c-0.6,0.1-2,0.5-3.9,1.3c0,0,0,0,0,0c0-0.5,0-1,0-1.5c0,0,0-0.1,0-0.1   c1.6-0.5,3.4-1.2,4.8-1.7c0.1,0,0.3-0.1,0.4-0.1l1,0.4c0,0,0,0.1,0,0.1c0,4.2,0,8.6,0,12.8c0,0.3,0,0.5,0,0.8   c0,0.1-0.1,0.2-0.1,0.2c-2,0.7-4,1.3-6,1.8c0,0-0.1,0-0.1-0.1c0-3.4,0-6.8,0-10.1c0-0.1,0-0.2,0.1-0.2c0,0,0.1-0.1,0.1-0.1   c1.9-0.8,3.4-1.2,3.9-1.3c0.1,0,0.2-0.1,0.2-0.2c0-0.6,0-1.2,0-1.8C49.1,29.5,49,29.5,48.8,29.5z M29.4,31.9c1-0.1,2-0.3,3-0.5   c0.1,0,0.2,0.1,0.2,0.2c0,0.2,0,0.4,0,0.6c0,0.1,0,0.2-0.2,0.2c-1,0.2-2,0.3-3,0.5c-0.1,0-0.2-0.1-0.2-0.2c0-0.2,0-0.4,0-0.6   C29.3,32,29.3,31.9,29.4,31.9z M29.4,35.1c1-0.1,2-0.3,3.1-0.6c0.1,0,0.2,0.1,0.2,0.2c0,0.5,0,1,0,1.6c0,0.1-0.1,0.2-0.1,0.2   c-1,0.2-2.1,0.5-3,0.6c-0.1,0-0.2-0.1-0.2-0.2c0-0.6,0-1.1,0-1.7C29.2,35.2,29.3,35.1,29.4,35.1z M32.8,39.1c0,2.5,0,5.1,0,7.6   c0,0.1-0.1,0.2-0.2,0.3c-1,0.3-1.9,0.5-2.9,0.8c-0.2,0.1-0.4-0.1-0.4-0.3c0-2.6,0-5.2,0-7.8c0-0.1,0.1-0.3,0.2-0.3   c1-0.2,2-0.4,2.9-0.6C32.6,38.8,32.8,38.9,32.8,39.1z M19.9,53.1c0-0.2,0.1-0.3,0.3-0.4c12.7-3.5,25.3-7,38-10.5   c0.5-0.1,1.1-0.2,1.6-0.3c0,0,0.1,0,0.1,0.1c0,0.8,0,1.6-0.1,2.4c0,0.1-0.1,0.2-0.1,0.2c-13.2,3.2-26.5,6.5-39.7,9.7   C19.9,53.9,19.9,53.5,19.9,53.1z M80,68.1c-2.8,0-5.6,0-8.4,0c-0.7,0-2.4,0.1-3.6,0c-0.6,0-1.1,0-1.5,0c-2.7,0-5.4,0.1-8.1,0   c-6.4-0.1-12.9,0-19.3,0c0,0-0.1,0-0.1,0c0,0-0.1,0-0.2,0c-4,0-7.9,0.1-11.9,0c-1,0-2.2,0.1-3.4,0c-0.5,0-1.2,0.2-1.4-0.4   c-0.3-0.7-0.5-1.5-0.8-2.2c0-0.1,0-0.1,0.1-0.1c0.5,0,0.8,0.2,1.1,0.6c0.2,0.3,0.7,0.6,1.2,0.7c0.8,0.1,1.7,0.1,2.4-0.4   c0.8-0.5,1.1-1.1,2-0.3c0.7,0.6,1.6,0.9,2.5,0.7c0.7-0.1,1.4-0.5,2-1c0.5-0.4,1.2,0.3,1.6,0.6c1.3,0.9,2.8,0.4,3.9-0.5   c0.5-0.4,0.8,0.1,1.2,0.3c0.9,0.7,1.9,0.8,3,0.3c0.5-0.2,1.3-1.2,2-0.6c0.7,0.6,1.5,1.1,2.5,1c0.9-0.1,1.7-0.7,2.4-1.2   c0.2-0.1,0.4-0.1,0.6,0c0.5,0.4,0.9,0.9,1.5,1c1.4,0.4,2.4-0.2,3.5-1c0.3-0.2,0.6-0.2,0.9,0c1,0.7,1.4,1.2,2.7,1.1   c0.8,0,1.6-0.4,2.2-1c0.7-0.7,1.4,0.3,1.9,0.6c1.2,0.7,2.3,0.6,3.4-0.1c0.6-0.4,0.9-1.1,1.7-0.5c1.3,0.9,2.3,1.6,3.8,0.8   c0.6-0.3,1.4-1.3,2.2-0.8c0.9,0.6,1.9,1.4,3,1.1c0.8-0.2,1.6-0.6,2.2-1.2c0,0,0.1-0.1,0.1-0.1c0.4,0,0.8-0.1,1.2-0.1   c0.1,0,0.2,0.1,0.1,0.2C80.1,66.8,80,68.1,80,68.1z M81.1,63.2c0,0.1-0.1,0.2-0.3,0.2c-0.5,0-1,0-1.6-0.1c-1.1,0-1.6,1.3-2.7,1.4   c-0.6,0.1-0.9-0.1-1.4-0.4c-1-0.8-2.2-1.5-3.3-0.5c-0.5,0.5-0.9,0.8-1.6,0.9c-0.9,0.1-1.2-0.4-1.8-0.9c-0.8-0.6-1.6-0.7-2.4-0.3   C65.2,64,65,65,63.8,64.8c-0.6-0.1-1.2-0.8-1.7-1.1c-1-0.7-1.9-0.3-2.6,0.5c-0.5,0.5-1.5,0.9-2.1,0.4c-0.7-0.7-1.6-1.5-2.7-1.2   c-0.5,0.1-0.9,0.6-1.4,0.9c-0.3,0.3-0.3,0.5-0.9,0.4c-0.8,0-1.1-0.5-1.7-0.9c-0.9-0.7-1.9-0.7-2.8,0.1c-0.6,0.5-0.8,0.9-1.7,0.7   c-0.2,0-0.4-0.2-0.7-0.4c-0.9-0.8-1.7-1.3-2.9-0.6c-0.7,0.4-1,1.2-2,1c-0.2,0-0.3-0.2-0.5-0.4c-1.2-1.2-2.4-1.1-3.5,0.1   c-0.8,0.8-1.5,0.4-2.2-0.3c-0.8-0.8-1.9-0.9-2.8-0.1c-0.3,0.3-0.7,0.9-1.3,1c-1.3,0.2-1.7-1.8-3.2-1.5c-0.9,0.2-1.9,1.7-2.8,1.5   c-0.5-0.1-1.3-0.9-1.7-1.2c-0.6-0.5-1.6-0.3-2.3-0.2c-0.1,0-0.2-0.1-0.3-0.2c-0.9-2-2.1-3.9-3.5-5.7c-0.1-0.1,0-0.3,0.1-0.3   c15.7-3.8,31.5-7.5,47.2-11.3c0.4-0.1,0.9-0.4,0.8-0.9c-0.1-1.1-1.9-0.9-2.5-0.9c-0.1,0-0.1,0-0.2,0c-0.1,0-0.1,0-0.1-0.1   c0-0.8,0-1.5,0-2.3c0-0.1,0-0.1,0.1-0.1c0.8,0,1.5,0,2,0c2.4,0.2,4.9,0.3,7.3,0.5c1,0.1,1.7,0.1,2.6,0.2c0.1,0,0.2,0,0.2,0   c0.1,0,0,0,0,0.3c0,0.1-0.1,0.1-0.2,0.2c-1.7,0.4-3.5,0.9-5.1,1.4c-0.6,0.2-1.4,0.6-1.3,1.3c0.1,0.6,0.7,0.9,1.2,0.9   c0.2,0,0.5,0,0.8-0.1c5.4-1.5,10.7-3,16.1-4.5c1.5-0.3,3.1-0.5,4.6-0.7c0.5-0.1,0.9-0.1,1.3-0.1c0.3,0,0.3,0.1,0.2,0.3   c-0.7,1.3-1.4,2.5-1.9,3.8c0,0.1-0.1,0.1-0.1,0.1c-0.7,0-1.4-0.1-2-0.1c-1.5,0-2.7,0.2-3.7,0.4c-1,0.2-3.4,0.9-7.1,1.9   c-0.8,0.2-1.4,0.9-0.9,1.6c0.4,0.7,1.2,0.5,1.9,0.3c1.5-0.4,3.1-0.9,4.6-1.3c1.9-0.5,3.8-0.8,5.7-0.7c0.2,0,0.3,0.2,0.2,0.3   c-2.2,3.9-4.3,8-6.1,12.1C81.9,60.9,81.5,62,81.1,63.2z"/></g></svg>