<svg xmlns="http://www.w3.org/2000/svg" xmlns:xlink="http://www.w3.org/1999/xlink" version="1.1" x="0px" y="0px" viewBox="0 0 512 640" style="enable-background:new 0 0 512 512; fill:#ffffff;" xml:space="preserve"><g><path d="M346.641,172.952l-22.867,5.795l-19.533-12.711c-0.857-0.561-1.822-0.888-2.835-0.981l-13.645-1.137   c-3.458-4.066-11.574-10.966-24.689-9.829c-3.069-1.76-8.785-4.346-16.06-3.365c-6.947,0.903-13.131,4.813-18.365,11.62   c-1.199,1.573-1.573,3.645-0.997,5.545c0.592,1.9,2.056,3.396,3.956,4.019c0.062,0.031,7.539,2.632,12.041,9.299l6.947,10.187   l0.016,0.016l11.807,17.181l-1.76,18.568c-1.059,3.349-3.162,13.521,6.028,22.695c0.935,5.841,4.206,20.125,14.331,27.337   c3.879,2.757,8.349,4.159,13.194,4.159c2.056,0,4.159-0.249,6.324-0.748c1.277-0.296,2.43-1.012,3.287-2.009l8.816-10.405   l11.807-0.639c3.1-0.171,5.577-2.617,5.795-5.701l0.016-0.234c9.377,1.651,25.094,1.807,36.979-11.885l20.748-12.43l19.689-1.511   c2.446-0.187,4.533-1.807,5.343-4.112c0.794-2.321,0.14-4.876-1.667-6.542c-7.134-6.542-10.686-9.891-12.648-11.729   c-2.866-2.71-2.882-2.679-4.439-3.754l-7.196-11.963c-0.483-0.826-1.153-1.527-1.947-2.041l-33.615-21.885   C350.084,172.828,348.339,172.516,346.641,172.952z M384.026,216.785c0.436,0.748,1.028,1.402,1.745,1.916l1.527,1.059   c1.059,0.732,1.044,0.748,2.991,2.586c0.623,0.592,1.402,1.324,2.414,2.274l-7.103,0.545c-0.95,0.078-1.869,0.358-2.695,0.857   l-22.867,13.692c-0.592,0.358-1.137,0.826-1.589,1.371c-11.87,14.409-30.733,7.306-31.543,6.994   c-1.838-0.701-3.879-0.498-5.514,0.53c-1.651,1.044-2.71,2.804-2.851,4.751l-0.156,2.212l-9.05,0.483   c-1.698,0.093-3.271,0.872-4.361,2.165l-9.112,10.764c-3.037,0.389-5.499-0.218-7.695-1.776   c-6.527-4.642-9.144-16.745-9.595-21.013c-0.171-1.558-0.935-3.022-2.134-4.034c-6.028-5.125-4.424-10.39-4.081-11.278   c0.249-0.592,0.405-1.199,0.452-1.838l2.041-21.512c0.14-1.433-0.234-2.866-1.044-4.066l-13.069-19.004l-6.916-10.14   c-2.928-4.33-6.605-7.492-9.891-9.72c6.48-3.941,12.088-0.654,13.91,0.685c1.324,1.028,3.084,1.495,4.626,1.215   c11.465-1.698,16.247,5.608,16.729,6.371c0.997,1.745,2.804,2.882,4.798,3.053l14.845,1.246l20.499,13.334   c1.417,0.935,3.178,1.231,4.86,0.81l22.867-5.795l30.141,19.627L384.026,216.785z"/><path d="M406.736,317.489c-0.389-1.667-1.449-3.084-2.913-3.941c-0.218-0.125-21.325-12.306-36.746-25.686   c-1.075-0.935-2.461-1.464-3.894-1.495l-27.244-0.545c-1.745-0.187-3.349,0.639-4.548,1.869c-1.184,1.231-1.807,2.897-1.713,4.611   l1.308,22.664l-1.075,16.916l-10.732,11.028c-2.212,2.274-2.337,5.857-0.28,8.271l12.212,14.346c1.168,1.371,2.866,2.15,4.673,2.15   h21.387c1.807,0,3.536-0.794,4.689-2.181l10.125-12.197l12.29-9.611l20.826-0.343c1.869-0.031,3.598-0.888,4.751-2.352   c1.137-1.464,1.558-3.365,1.137-5.171L406.736,317.489z M382.016,331.446c-1.34,0.016-2.632,0.483-3.692,1.293l-14.814,11.76   l-9.19,10.904h-15.701l-6.745-7.929l8.411-8.645c1.028-1.044,1.651-2.43,1.729-3.894l1.231-19.923l-0.935-16.776l18.427,0.358   c13.085,11.028,28.77,20.733,34.627,24.237l1.947,8.365L382.016,331.446z"/><path d="M469.044,49.07c-10.514-1.729-21.231,1.277-29.253,8.131c-8.038,6.869-12.648,16.854-12.648,27.415v52.984   c-12.62-13.858-27.325-25.566-43.973-34.837c-27.479-15.336-57.355-22.293-86.781-21.968c-0.922-0.17-1.875-0.198-2.832,0.083   c-0.018,0.006-0.03,0.019-0.049,0.025c-35.294,0.972-69.708,12.572-98.441,33.462c-0.006,0.002-0.012,0.001-0.018,0.003   c-0.891,0.351-1.612,0.913-2.222,1.57c-18.918,14.215-35.29,32.407-47.531,54.366c-22.758,40.796-28.256,88.009-15.499,132.932   c1.874,6.601,4.215,12.976,6.794,19.225c0.13,0.305,0.222,0.612,0.403,0.896c15.044,35.882,41.33,65.597,75.842,84.836   c3.747,2.09,7.643,3.673,11.481,5.46c0.158,0.142,0.245,0.331,0.42,0.46c0.515,0.375,1.132,0.358,1.706,0.551   c22.915,10.295,47.155,15.586,71.287,15.586c49.256,0,97.507-20.923,131.325-59.383c0.772,2.289,1.616,4.561,2.885,6.64   l14.44,24.362v69.628c0,8.458,6.885,15.343,15.343,15.343c8.474,0,15.359-6.885,15.359-15.343c0,0,0-56.777,0.343-70.329   l14.595-21.029c4.891-7.056,7.165-13.63,7.165-20.702V86.314C499.185,67.809,486.225,51.796,469.044,49.07z M377.187,113.48   c17.525,9.781,32.623,22.549,45.31,37.721l-41.509,0.037l-32.15-26.013c-0.997-0.81-2.212-1.277-3.474-1.355l-33.256-2.103   l-8.507-28.628C328.637,93.961,353.841,100.458,377.187,113.48z M156.013,176.286c10.162-18.221,23.424-33.6,38.639-46.12   l11.876,30.247l-15.125,22.68c-0.748,1.122-1.106,2.446-1.028,3.785l0.966,15.966l-29.97,1.449   c-3.022,0.156-5.483,2.477-5.81,5.483l-3.209,29.861l-16.91,14.885C135.564,227.412,142.441,200.62,156.013,176.286z    M232.541,392.959l-6.07,8.331c-2.557-1.254-5.141-2.412-7.653-3.813c-31.386-17.504-55.411-44.349-69.548-76.728l14.266-19.287   c0.654-0.888,1.059-1.947,1.168-3.053l2.788-28.381l15.047-6.091l-1.495,8.053c-0.343,1.916,0.218,3.863,1.527,5.296l14.331,15.499   l2.414,21.605c0.202,1.713,1.09,3.256,2.492,4.284c1.402,0.997,3.131,1.449,4.829,1.044l18.287-3.692l38.443,13.848l12.15,14.518   l-1.791,16.698c-0.078,0.763-0.016,1.558,0.187,2.305l2.882,10.359l-12.679,14.44l-27.119,2.259   C235.221,390.607,233.601,391.51,232.541,392.959z M427.142,354.165c-44.406,58.244-122.37,78.775-189.187,52.223l2.857-3.927   l26.792-2.227c1.573-0.14,3.053-0.872,4.097-2.072l16.511-18.801c1.371-1.558,1.854-3.692,1.308-5.701l-3.458-12.43l1.947-18.131   c0.171-1.651-0.327-3.318-1.402-4.595l-14.891-17.789c-0.701-0.841-1.604-1.464-2.617-1.838l-41.621-14.985   c-1.059-0.374-2.212-0.498-3.302-0.234l-13.396,2.695l-1.9-16.948c-0.156-1.293-0.701-2.523-1.589-3.489l-13.599-14.72l2.96-16.028   c0.405-2.212-0.421-4.455-2.165-5.872c-1.729-1.433-4.097-1.791-6.184-0.935l-28.864,11.683c-2.118,0.857-3.583,2.819-3.801,5.094   l-2.991,30.39l-8.593,11.625c-0.812-2.424-1.748-4.788-2.451-7.264c-2.779-9.793-4.54-19.705-5.465-29.626l26.12-22.977   c1.168-1.012,1.885-2.43,2.056-3.956l2.897-27.026l30.935-1.495c1.636-0.078,3.178-0.81,4.284-2.041   c1.09-1.215,1.651-2.835,1.558-4.471l-1.215-20.11l15.748-23.614c1.122-1.682,1.34-3.785,0.607-5.654l-14.299-36.431   c25.376-17.718,55.254-27.805,85.996-29.216l10.734,36.098c0.732,2.477,2.928,4.221,5.499,4.377l35.577,2.259l32.322,26.138   c1.09,0.888,2.461,1.371,3.863,1.371l48.319-0.042V354.165z M486.91,122.359h-3.193c-3.396,0-6.137,2.742-6.137,6.137   c0,3.396,2.741,6.137,6.137,6.137h3.193v16.605h-3.193c-3.396,0-6.137,2.742-6.137,6.137s2.741,6.137,6.137,6.137h3.193v16.605   h-3.193c-3.396,0-6.137,2.742-6.137,6.137s2.741,6.137,6.137,6.137h3.193v16.605h-3.193c-3.396,0-6.137,2.742-6.137,6.137   s2.741,6.137,6.137,6.137h3.193v16.605h-3.193c-3.396,0-6.137,2.742-6.137,6.137s2.741,6.137,6.137,6.137h3.193v16.605h-3.193   c-3.396,0-6.137,2.742-6.137,6.137c0,3.396,2.741,6.137,6.137,6.137h3.193v16.605h-3.193c-3.396,0-6.137,2.742-6.137,6.137   c0,3.396,2.741,6.137,6.137,6.137h3.193v16.605h-3.193c-3.396,0-6.137,2.742-6.137,6.137c0,3.396,2.741,6.137,6.137,6.137h3.193   v22.649c0,4.502-1.542,8.739-4.985,13.692l-14.595,21.029c-1.651,2.383-2.477,5.016-2.477,7.835   c-0.047,12.695-0.047,69.504-0.047,69.504c0,3.349-6.153,3.38-6.153,0v-69.628c0-2.539-0.701-5.062-2.041-7.29l-14.175-23.443   c-1.978-3.24-3.022-6.978-3.022-10.779V84.617c0-6.963,3.037-13.536,8.349-18.069c4.362-3.723,9.704-5.67,15.359-5.67   c1.308,0,2.648,0.109,3.988,0.312c11.278,1.807,19.798,12.602,19.798,25.125V122.359z"/><path d="M463.171,87.888c-10.561,0-19.159,8.598-19.159,19.159c0,8.385,5.503,15.328,13.022,17.916v237.403   c0,3.396,2.742,6.137,6.137,6.137c3.396,0,6.137-2.741,6.137-6.137V124.963c7.515-2.59,13.007-9.531,13.007-17.916   C482.315,96.486,473.732,87.888,463.171,87.888z M463.171,113.932c-3.801,0-6.885-3.084-6.885-6.885   c0-3.801,3.084-6.885,6.885-6.885c3.785,0,6.869,3.084,6.869,6.885C470.04,110.848,466.956,113.932,463.171,113.932z"/><path d="M98.955,118.2c16.013,0,29.051-13.038,29.051-29.051s-13.038-29.051-29.051-29.051S69.904,73.136,69.904,89.149   S82.942,118.2,98.955,118.2z M98.955,72.373c9.253,0,16.776,7.524,16.776,16.776s-7.524,16.776-16.776,16.776   s-16.776-7.524-16.776-16.776S89.702,72.373,98.955,72.373z"/><path d="M96.743,48.915c3.396,0,6.137-2.742,6.137-6.137v-11.48c0-3.396-2.742-6.137-6.137-6.137s-6.137,2.742-6.137,6.137v11.48   C90.606,46.173,93.347,48.915,96.743,48.915z"/><path d="M57.49,66.75c1.137,0.903,2.492,1.34,3.832,1.34c1.807,0,3.583-0.794,4.798-2.305c2.118-2.664,1.682-6.527-0.966-8.63   l-8.972-7.15c-2.679-2.134-6.511-1.682-8.63,0.966c-2.118,2.664-1.682,6.527,0.966,8.63L57.49,66.75z"/><path d="M43.034,110.318c0.452,0,0.903-0.047,1.371-0.156l11.2-2.555c3.302-0.748,5.374-4.034,4.611-7.352   c-0.732-3.287-4.003-5.39-7.352-4.611l-11.2,2.555c-3.302,0.748-5.374,4.034-4.611,7.352   C37.692,108.387,40.231,110.318,43.034,110.318z"/><path d="M73.175,147.765c0.857,0.421,1.76,0.607,2.664,0.607c2.274,0,4.471-1.277,5.53-3.474l4.985-10.343   c1.48-3.053,0.187-6.729-2.866-8.193c-2.991-1.449-6.714-0.187-8.193,2.866l-4.985,10.343   C68.829,142.624,70.122,146.301,73.175,147.765z"/><path d="M118.41,124.446c-3.053,1.464-4.346,5.125-2.866,8.193l4.969,10.343c1.044,2.196,3.24,3.474,5.53,3.474   c0.903,0,1.807-0.187,2.664-0.607c3.053-1.464,4.346-5.125,2.866-8.193l-4.969-10.343   C125.155,124.259,121.448,122.982,118.41,124.446z"/><path d="M138.676,95.941c-0.763,3.318,1.308,6.605,4.611,7.352l11.2,2.555c0.467,0.109,0.919,0.156,1.371,0.156   c2.804,0,5.343-1.932,5.981-4.766c0.763-3.318-1.308-6.605-4.611-7.352l-11.2-2.555C142.648,90.536,139.423,92.654,138.676,95.941z   "/><path d="M133.847,64.647c1.355,0,2.695-0.436,3.832-1.34l8.972-7.165c2.648-2.118,3.084-5.981,0.966-8.63   c-2.134-2.679-5.997-3.084-8.63-0.966l-8.972,7.165c-2.648,2.118-3.084,5.981-0.966,8.63   C130.264,63.868,132.04,64.647,133.847,64.647z"/><path d="M65.34,315.464v-25.406l17.96,17.96c1.199,1.199,2.773,1.791,4.346,1.791c1.573,0,3.147-0.592,4.346-1.791   c2.399-2.399,2.399-6.293,0-8.692l-17.96-17.96h25.406c3.396,0,6.137-2.742,6.137-6.137c0-3.396-2.742-6.137-6.137-6.137H74.017   l17.976-17.976c2.399-2.399,2.399-6.293,0-8.692c-2.399-2.399-6.293-2.399-8.692,0l-17.96,17.96v-25.406   c0-3.396-2.742-6.137-6.137-6.137s-6.137,2.742-6.137,6.137V260.4L35.09,242.425c-2.399-2.399-6.293-2.399-8.692,0   c-2.399,2.399-2.399,6.293,0,8.692l17.976,17.976H18.953c-3.396,0-6.137,2.742-6.137,6.137c0,3.396,2.742,6.137,6.137,6.137h25.406   l-17.96,17.96c-2.399,2.399-2.399,6.293,0,8.692c1.199,1.199,2.773,1.791,4.346,1.791c1.573,0,3.147-0.592,4.346-1.791   l17.976-17.976v25.421c0,3.396,2.742,6.137,6.137,6.137S65.34,318.86,65.34,315.464z"/><path d="M102.055,361.618c-1.153-2.196-3.988-3.567-5.935-3.442c-2.492,0.109-4.689,1.636-5.639,3.925   c-0.062,0.171-6.636,16.013-14.299,27.976c-10.468,16.324-20.639,33.443-20.032,47.447c0.545,12.835,5.467,24.751,13.832,33.552   c8.193,8.598,18.723,13.271,29.83,13.271c0.576,0,1.137-0.016,1.713-0.047c23.848-1.013,42.338-23.677,41.185-50.5   c-0.607-14.004-12.197-30.188-24.019-45.562C110.03,376.977,102.133,361.774,102.055,361.618z M100.964,471.559   c-8.069,0.265-15.717-2.96-21.73-9.284c-6.246-6.573-9.922-15.546-10.343-25.281c-0.467-11.153,11.106-29.238,18.038-40.032   c3.847-6.013,7.352-12.742,10.063-18.303c3.162,5.312,7.228,11.714,11.574,17.368c7.82,10.156,20.904,27.181,21.402,38.319   C130.809,454.144,117.803,470.843,100.964,471.559z"/></g></svg>